<?xml version="1.0" encoding="utf-8"?>
<!-- Generator: Adobe Illustrator 27.5.0, SVG Export Plug-In . SVG Version: 6.00 Build 0)  -->
<svg version="1.1" id="BASE" xmlns="http://www.w3.org/2000/svg" xmlns:xlink="http://www.w3.org/1999/xlink" x="0px" y="0px"
	 viewBox="0 0 2050 2196" style="enable-background:new 0 0 2050 2196;" xml:space="preserve">
<g>
	<g>
		<path style="fill:#9EC64D;" d="M1804.063,972.247c29.919-38.326,30.95-96.524,2.416-135.878
			c-8.14-11.238-18.49-20.663-30.188-28.012c0.666-2.152,1.149-4.361,1.427-6.611c2.287-18.487-9.468-37.811-26.989-44.252
			c13.237-19.098,15.267-45.346,5.153-66.248c-10.112-20.902-31.981-35.62-55.136-37.069c1.127-32.593-4.284-67.215-25.251-92.207
			c-20.965-24.96-60.87-35.813-87.247-16.683c4.413-20.805,6.184-42.996-1.16-62.931c-7.374-20.032-20.869-22.77-34.686-35.072
			c-14.976-13.334-9.178-0.451-19.452-22.48c-15.104-32.4-9.951-63.543-39.098-91.241c-30.66-29.083-86.603-33.302-112.497,0.097
			c-8.309-16.812-28.212-27.021-46.699-23.993c-18.487,3.059-34.042,19.097-36.522,37.648c-4.832-25.7-31.594-45.25-57.553-41.997
			c-25.794,3.2-46.814,28.406-45.467,54.352c-0.005,0.003-0.011,0.006-0.016,0.009c-5.292-63.423-15.12-153.644-87.432-175.553
			c-23.068-7.014-49.945-3.253-68.474,11.792c-0.277-0.024-0.555-0.048-0.833-0.07c-2.557-0.198-5.088-0.293-7.596-0.29
			c-16.801-34.103-57.74-55.051-95.239-47.697c-39.582,7.73-70.823,46.119-70.404,86.442c-30.499-15.491-73.075,10.725-72.98,44.96
			c-13.977-15.975-35.136-24.864-56.329-25.057c-6.634-0.096-13.301,0.676-19.742,2.351c-20.626,5.363-44.034,24.055-59.589,44.196
			c-5.43,6.094-9.861,13.155-12.996,21.185c-0.167,0.376-0.332,0.751-0.49,1.126c-0.256,0.603-0.493,1.342-0.713,2.201
			c-0.401,1.2-0.779,2.419-1.123,3.661c-2.224,8.149-3.213,16.16-3.214,24.034c-0.052,11.546,1.908,23.115,5.376,34.439
			c3.762,26.127,11.448,50.011,24.207,49.973c0.009,0.017,0.018,0.033,0.028,0.049c-0.28,0.028-0.559,0.059-0.839,0.089
			c-0.127,0.014-0.256,0.028-0.383,0.042c-0.506,0.057-1.008,0.119-1.509,0.184c-0.207,0.026-0.414,0.053-0.619,0.081
			c-0.465,0.063-0.929,0.128-1.391,0.197c-0.218,0.033-0.436,0.066-0.653,0.1c-0.487,0.075-0.976,0.152-1.46,0.235
			c-0.096,0.017-0.192,0.034-0.287,0.051c-39.543,6.807-73.428,35.794-83.617,70.82c-17.512-1.582-36.365,3.652-49.456,15.487
			c-26.99,24.347-33.044,64.798-28.728,100.934c-18.487-34.654-57.037-21.901-73.013,7.085c-3.8-17.841-8.952-37.326-22.415-50.564
			c-13.72-13.494-38.679-17.262-51.53-2.93c-11.112,12.431-8.663,31.594-4.477,47.697c-17.101-19.549-46.666-27.053-71.014-18.003
			c-12.174,4.541-22.64,13.043-30.08,23.703c-7.44,10.628-11.853,23.35-11.948,36.362c-0.129,24.219,22.351,40.934,23.993,61.031
			c2.222,27.053-13.753,12.432-28.406,29.372c-13.623,15.877-9.373,38.777-3.607,56.909c-11.658-7.247-27.439-5.798-39.033,1.546
			c-11.596,7.343-19.324,19.71-23.415,32.818c-6.892,22.093-3.993,47.053,7.827,66.957c11.787,19.871,31.981,33.977,54.429,38.904
			c-20.645,2.448-28.889,46.925-26.216,65.057c2.77,18.615,13.494,35.492,27.729,47.794c9.727,8.373-22.254,61.932-9.146,86.603
			c17.874,33.656,52.367,34.235,84.058,25.314c-18.39,5.186-29.727,26.635-25.572,45.283c4.155,18.647,21.739,32.85,40.709,35.137
			c18.969,2.319,38.391-6.248,51.337-20.29c-11.047,21.965-5.314,51.079,13.268,67.182c18.551,16.136,48.213,17.714,68.374,3.671
			c-16.425,11.433,16.104,39.808,23.994,43.543c21.192,10.113,53.656,3.092,72.207-9.018
			c-30.982,31.724-45.186,82.964-23.832,121.837c35.041,63.769,122.544,35.878,155.814-12.721
			c5.121,16.458,19.067,27.439,37.327,23.607c1.055-0.223,2.088-0.483,3.104-0.776c-22.645,66.798-56.631,130.95-89.546,193.145
			c-9.243,17.455-21.159,36.36-31.885,56.135c-20.451,37.681-36.457,78.551-20.901,118.358
			c11.432,29.243,34.911,51.982,59.001,72.142c163.415,136.846,425.672,187.087,603.482,48.858
			c42.191-32.786,43.125-64.38,34.365-101.708c-4.22-17.811-10.628-36.941-15.846-58.132c-7.214-29.34-14.461-58.744-18.325-88.664
			c-11.386-87.402,8.755-179.91,33.185-265.362c28.512,16.627,73.126,11.186,92.484-10.71
			c20.097,40.161,89.115,63.897,137.038,53.72c53.366-11.37,83.865-77.23,50.145-116.168c39.325,8.759,83.801-5.637,107.956-34.977
			c24.122-29.308,26.506-71.82,5.797-103.157c13.495,20.419,98.294-9.018,112.208-22.963c26.215-26.248,33.172-73.43,11.047-104.123
			c39.807,21.933,95.974-11.658,99.871-56.973C1893.048,1012.891,1849.538,971.281,1804.063,972.247z M889.177,1187.224
			c-13.749-6.284-23.782-17.56-31.75-30.615c0.894-0.27,1.774-0.584,2.636-0.948c17.907-7.505,27.342-27.472,30.693-46.571
			c3.832-21.803,1.771-44.606-5.926-65.347c16.052,20.165,38.51,29.169,61.886,29.598c2.768,0.264,5.568,0.357,8.388,0.258
			c9.661-0.338,18.888-2.184,27.572-5.256c-8.127,23.022-17.282,44.729-26.992,63.226
			C934.524,1171.958,910.691,1197.046,889.177,1187.224z M1090.653,1061.989c6.733,5.7,14.213,10.657,22.25,14.663
			c0.058,0.035,0.115,0.07,0.173,0.104c16.561,10.005,25.778,7.243,33.291,24.101c-3.711,20.406-2.244,41.584,4.39,61.407
			c1.335,0.024,2.669,0.048,4.003,0.072c14.646,18.843,42.636,25.93,64.468,16.225c-7.175,18.386-10.821,39.281-6.857,58.273
			c-4.075,5.662-8.219,11.274-12.434,16.832c-15.267,20.129-35.169,41.385-60.42,40.645c-40.29-1.192-55.556-53.044-56.586-93.303
			C1081.744,1154.557,1084.347,1108.022,1090.653,1061.989z"/>
	</g>
	<path style="fill:#2E6726;" d="M1804.063,972.247c29.919-38.326,30.95-96.524,2.416-135.878
		c-8.14-11.238-18.49-20.663-30.188-28.012c0.666-2.152,1.149-4.361,1.427-6.611c2.287-18.487-9.468-37.811-26.989-44.252
		c13.237-19.098,15.267-45.346,5.153-66.248c-10.112-20.902-31.981-35.62-55.136-37.069c1.127-32.593-4.284-67.215-25.251-92.207
		c-20.965-24.96-60.87-35.813-87.247-16.683c4.413-20.805,6.184-42.996-1.16-62.931c-7.374-20.032-20.869-22.77-34.686-35.072
		c-14.976-13.334-9.178-0.451-19.452-22.48c-15.104-32.4-9.951-63.543-39.098-91.241c-30.66-29.083-86.603-33.302-112.497,0.097
		c-8.309-16.812-28.212-27.021-46.699-23.993c-18.487,3.059-34.042,19.097-36.522,37.648c-4.832-25.7-31.594-45.25-57.553-41.997
		c-25.794,3.2-46.814,28.406-45.467,54.352c-0.005,0.003-0.011,0.006-0.016,0.009c-5.292-63.423-15.12-153.644-87.432-175.553
		c-23.068-7.014-49.945-3.253-68.474,11.792c-0.277-0.024-0.555-0.048-0.833-0.07c-2.557-0.198-5.088-0.293-7.596-0.29
		c-16.801-34.103-57.74-55.051-95.239-47.697c-39.582,7.73-70.823,46.119-70.404,86.442c-30.499-15.491-73.075,10.725-72.98,44.96
		c-13.977-15.975-35.136-24.864-56.329-25.057c-6.634-0.096-13.301,0.676-19.742,2.351c-20.626,5.363-44.034,24.055-59.589,44.196
		c-5.43,6.094-9.861,13.155-12.996,21.185c-0.167,0.376-0.332,0.751-0.49,1.126c-0.256,0.603-0.493,1.342-0.713,2.201
		c-0.401,1.2-0.779,2.419-1.123,3.661c-2.224,8.149-3.213,16.16-3.214,24.034c-0.052,11.546,1.908,23.115,5.376,34.439
		c3.762,26.127,11.448,50.011,24.207,49.973c0.009,0.017,0.018,0.033,0.028,0.049c-0.28,0.028-0.559,0.059-0.839,0.089
		c-0.127,0.014-0.256,0.028-0.383,0.042c-0.506,0.057-1.008,0.119-1.509,0.184c-0.207,0.026-0.414,0.053-0.619,0.081
		c-0.465,0.063-0.929,0.128-1.391,0.197c-0.218,0.033-0.436,0.066-0.653,0.1c-0.487,0.075-0.976,0.152-1.46,0.235
		c-0.096,0.017-0.192,0.034-0.287,0.051c-39.543,6.807-73.428,35.794-83.617,70.82c-17.512-1.582-36.365,3.652-49.456,15.487
		c-26.99,24.347-33.044,64.798-28.728,100.934c-18.487-34.654-57.037-21.901-73.013,7.085c-3.8-17.841-8.952-37.326-22.415-50.564
		c-13.72-13.494-38.679-17.262-51.53-2.93c-11.112,12.431-8.663,31.594-4.477,47.697c-17.101-19.549-46.666-27.053-71.014-18.003
		c-12.174,4.541-22.64,13.043-30.08,23.703c-7.44,10.628-11.853,23.35-11.948,36.362c-0.129,24.219,22.351,40.934,23.993,61.031
		c2.222,27.053-13.753,12.432-28.406,29.372c-13.623,15.877-9.373,38.777-3.607,56.909c-11.658-7.247-27.439-5.798-39.033,1.546
		c-11.596,7.343-19.324,19.71-23.415,32.818c-6.892,22.093-3.993,47.053,7.827,66.957c11.787,19.871,31.981,33.977,54.429,38.904
		c-20.645,2.448-28.889,46.925-26.216,65.057c2.77,18.615,13.494,35.492,27.729,47.794c9.727,8.373-22.254,61.932-9.146,86.603
		c17.874,33.656,52.367,34.235,84.058,25.314c-18.39,5.186-29.727,26.635-25.572,45.283c4.155,18.647,21.739,32.85,40.709,35.137
		c18.969,2.319,38.391-6.248,51.337-20.29c-11.047,21.965-5.314,51.079,13.268,67.182c18.551,16.136,48.213,17.714,68.374,3.671
		c-16.425,11.433,16.104,39.808,23.994,43.543c21.192,10.113,53.656,3.092,72.207-9.018
		c-30.982,31.724-45.186,82.964-23.832,121.837c35.041,63.769,122.544,35.878,155.814-12.721
		c5.121,16.458,19.067,27.439,37.327,23.607c1.055-0.223,2.088-0.483,3.104-0.776c0.222-0.654,0.444-1.307,0.663-1.961
		c6.942-20.708,11.959-42,15.349-63.633c9.194-58.639,6.444-119.785-2.264-178.622c3.987,0.804,8.028,1.312,12.069,1.513
		c9.694,0.483,19.775-0.741,28.212-5.54c6.033-3.429,10.825-8.426,14.831-14.117c3.329-4.729,6.116-9.937,8.616-15.127
		c1.05-2.162,2.059-4.35,3.033-6.547c0-0.001,0.002-0.002,0.002-0.002c0.577-1.304,1.147-2.611,1.7-3.917
		c6.102-14.207,10.88-28.962,14.271-44.028c9.099,10.461,18.686,20.496,28.821,30.018c19.26,18.1,45.476,35.202,70.435,26.538
		c26.281-9.147,35.492-40.968,40.29-68.343c0.193-1.127,0.386-2.287,0.58-3.413c-21.159,40.386-44.993,65.475-66.507,55.653
		c-13.749-6.284-23.782-17.56-31.75-30.615c0.894-0.27,1.774-0.584,2.636-0.948c17.907-7.505,27.342-27.472,30.693-46.571
		c3.832-21.803,1.771-44.606-5.926-65.347c16.052,20.165,38.51,29.169,61.886,29.598c2.768,0.264,5.568,0.357,8.388,0.258
		c9.661-0.338,18.888-2.184,27.572-5.256c0.101-0.288,0.203-0.575,0.304-0.863c6.092-2.066,12.048-4.648,17.764-7.694
		c28.908-15.405,51.669-42.712,54.844-75.592c-1.474,15.252,1.406,29.066,7.268,41.432c4.789,10.099,11.568,19.23,19.591,27.386
		c-0.094,0.328-0.189,0.656-0.283,0.985c-5.027,17.464-9.348,35.061-13.113,52.484c-11.014,51.047-18.938,104.51-5.894,155.073
		c6.796,26.345,20.194,52.335,43.061,67.086c35.491,22.963,84.928,12.045,117.553-14.814c6.043-4.981,11.631-10.394,16.83-16.152
		c4.07-4.507,7.901-9.225,11.528-14.116c0.689-0.929,1.372-1.865,2.046-2.805c12.29,2.664,25.085,0.686,34.652-7.669
		c5.355,11.099,13.236,20.836,22.722,28.661c3.718,3.067,7.683,5.84,11.84,8.287c-16.216,35.966-29.864,73.102-41.197,110.879
		c-3.228,10.736-6.441,21.614-9.584,32.61c28.512,16.627,73.126,11.186,92.484-10.71c20.097,40.161,89.115,63.897,137.038,53.72
		c53.366-11.37,83.865-77.23,50.145-116.168c39.325,8.759,83.801-5.637,107.956-34.977c24.122-29.308,26.506-71.82,5.797-103.157
		c13.495,20.419,98.294-9.018,112.208-22.963c26.215-26.248,33.172-73.43,11.047-104.123c39.807,21.933,95.974-11.658,99.871-56.973
		C1893.048,1012.891,1849.538,971.281,1804.063,972.247z M1199.937,1253.666c-15.267,20.129-35.169,41.385-60.42,40.645
		c-40.29-1.192-55.556-53.044-56.586-93.303c-1.188-46.45,1.416-92.986,7.722-139.019c6.733,5.7,14.213,10.657,22.25,14.663
		c0.058,0.035,0.115,0.07,0.173,0.104c16.561,10.005,25.778,7.243,33.291,24.101c-3.711,20.406-2.244,41.584,4.39,61.407
		c1.335,0.024,2.669,0.048,4.003,0.072c14.646,18.843,42.636,25.93,64.468,16.225c-7.175,18.386-10.821,39.281-6.857,58.273
		C1208.296,1242.496,1204.152,1248.108,1199.937,1253.666z"/>
	<path style="fill:#22511C;" d="M1804.063,972.247c29.919-38.326,30.95-96.524,2.416-135.878
		c-8.14-11.238-18.49-20.663-30.188-28.012c-4.816,15.559-19.245,28.024-35.514,29.75c10.242-1.095,17.36,61.707,16.972,71.177
		c-0.386,10.273-2.189,19.678-5.41,28.437c-5.25,14.3-14.204,26.732-26.667,37.843c-14.489,12.887-34.05,23.398-54.837,29.054
		c-28.174,8.92-58.848,6.89-82.634-10.597c-0.042-0.031-0.082-0.061-0.123-0.091c-0.261-0.193-0.522-0.386-0.78-0.582
		c-0.339-0.256-0.677-0.515-1.014-0.778c12.405,9.708,9.505,32.658,2.719,53.315c-3.153,12.27-8.682,24.067-16.018,34.635
		c-0.221,0.327-0.436,0.642-0.647,0.939c-1.973,2.787-4.042,5.436-6.199,7.952c-0.179,0.21-0.36,0.418-0.541,0.627
		c-0.07,0.08-0.139,0.161-0.21,0.242c-16.68,19.172-39.714,32.576-64.727,34.328c-3.852,0.555-7.768,0.933-11.739,1.135
		c-0.031,45.024,24.896,128.375-40.484,141.611c-12.398,31.272-44.315,53.784-77.938,54.977c-16.483,0.6-32.918-3.942-47.114-12.296
		c-16.216,35.966-29.864,73.102-41.197,110.879c-3.228,10.736-6.441,21.614-9.584,32.61c28.512,16.627,73.126,11.186,92.484-10.71
		c20.097,40.161,89.115,63.897,137.038,53.72c53.366-11.37,83.865-77.23,50.145-116.168c39.325,8.759,83.801-5.637,107.956-34.977
		c24.122-29.308,26.506-71.82,5.797-103.157c13.495,20.419,98.294-9.018,112.208-22.963c26.215-26.248,33.172-73.43,11.047-104.123
		c39.807,21.933,95.974-11.658,99.871-56.973C1893.048,1012.891,1849.538,971.281,1804.063,972.247z M1502.822,1439.457
		c-3.225,17.928-22.045,30.576-40.242,29.78c-18.199-0.795-34.642-13.013-43.772-28.776c-15.612-26.956-10.1-64.358,12.623-85.666
		l8.768-14.802c5.539-7.734,12.253-15.323,21.318-18.206c9.064-2.885,20.804,0.86,23.673,9.93c1.494,4.718,0.4,9.839-0.979,14.592
		c-3.713,12.805-9.459,25.018-16.958,36.041C1486.394,1396.334,1507.019,1416.125,1502.822,1439.457z M1673.234,1171.568
		c-10.604,4.416-21.311,3.83-31.705,0.821c-9.69,26.455-34.707,45-62.972,43.619c-0.058,36.735-0.591,80.625-40.511,93.58
		c-8.172,2.652-16.847-7.8-11.618-15.113c21.588-30.184,30.193-58.185,18.549-95.441c-4.005-12.818,8.89-24.45,21.229-21.229
		c23.814,6.217,42.899-6.803,42.031-32.092c-0.503-14.693,16.178-22.741,28.23-16.199c13.151,7.14,27.08,8.059,40.38,14.4
		C1689.97,1150.172,1683.83,1167.156,1673.234,1171.568z M1857.915,1049.375c-1.168,10.239-8.887,18.341-16.243,25.559
		c-5.41,5.309-11.088,10.74-18.237,13.26c-7.149,2.522-16.207,1.29-20.621-4.873c-2.739-3.824-3.25-8.76-3.597-13.45
		c-1.373-18.577-1.565-37.242-0.572-55.844l9.853-3.27c11.43,1.943,23.172,4,33.072,10.034
		C1851.469,1026.827,1859.228,1037.856,1857.915,1049.375z"/>
	<path style="fill:#22511C;" d="M305.116,727.735c-14.879,0.806-25.249,16.78-25.347,31.692c-0.097,14.911,7.182,28.76,14.3,41.868
		c-29.824,8.439-45.476,48.31-29.436,74.816c-14.558,10.95-29.921,24.316-31.885,42.416c-1.964,18.132,19.775,37.198,34.236,26.087
		c8.534,39.421,7.117,80.935-4.122,119.679c5.378-6.569,14.944-9.404,23.026-6.795c11.82,23.22,16.168,50.145,12.304,75.877
		c12.27-11.336,33.688-4.862,43.542,8.664c9.824,13.526,11.272,31.207,12.4,47.891c11.175-19.904,46.86-16.361,53.881,5.346
		c2.447,7.568,1.9,16.199,6.087,22.995c3.864,6.248,14.911,8.148,18.068,2.319c0.193-0.547,0.45-1.095,0.676-1.61
		c-0.162,0.58-0.354,1.127-0.676,1.61c-7.15,17.81-1.643,40.065,13.171,52.303c15.267,12.626,39.068,13.56,55.267,2.125
		c-4.381,17.456,10.306,35.105,27.44,40.581c17.134,5.507,35.685,2.126,53.333-1.321c-17.037,21.127,0.934,58.969,28.084,59.099
		c-13.59,19.356-20.354,43.414-18.84,67.021c0.354,5.701,1.32,11.659,4.896,16.103c9.693,11.917,29.919,3.768,38.648-8.857
		c8.727-12.657,12.496-28.921,23.992-39.066c14.654,0.096,29.018-8.148,36.588-20.645c0.45-1.191,1.094-2.319,1.836-3.381
		c-0.549,1.159-1.16,2.287-1.836,3.381c-3.704,9.146,0.933,21.321,10.337,24.96c10.628,4.09,24.027-4.057,25.315-15.363
		c-0.458,5.802,1.392,11.092,4.687,15.627c9.194-58.639,6.444-119.785-2.264-178.622c-19.68-3.964-38.034-15.119-48.639-32.046
		c-13.462-21.418-3.736-42.223-7.762-62.705c-4.121,1.176-8.363,2.109-12.655,2.766c-14.167,4.034-30.26,1.953-43.881-4.915
		c-10.236-4.716-19.054-12.416-25.082-23.832c-0.182-0.346-0.365-0.69-0.541-1.042c-15.717-31.239-1.255-72.528,27.988-91.755
		c-36.006,21.514-85.765-8.857-96.909-49.276c-11.143-40.452,5.766-83.414,28.342-118.744c-0.261,0.017-0.522,0.031-0.783,0.044
		l-0.098,0.004c-0.038,0.003-0.074,0.003-0.111,0.005c-0.071,0.004-0.14,0.005-0.209,0.008c-0.134,0.005-0.266,0.011-0.399,0.015
		c-0.041,0.002-0.083,0.002-0.123,0.003h-0.01c-0.103,0.003-0.207,0.005-0.311,0.008c-0.132,0.003-0.263,0.005-0.396,0.006h-0.004
		c-0.046,0-0.092,0-0.138,0c-0.11,0.001-0.219,0.002-0.329,0.003c-0.17,0-0.339-0.002-0.508-0.004
		c-0.285-0.003-0.567-0.009-0.85-0.017c-0.061-0.002-0.123-0.003-0.185-0.006c-0.226-0.008-0.452-0.018-0.678-0.029
		c-0.008,0-0.015-0.002-0.024-0.002c-0.335-0.018-0.669-0.039-1.002-0.064c-0.255-0.019-0.507-0.041-0.761-0.065
		c-0.069-0.006-0.138-0.011-0.209-0.018c-11.583-1.112-21.723-6.783-29.769-15.174c-4.296-4.395-8.009-9.505-11.035-15.02
		c-5.018-9.022-8.268-19.061-9.426-28.655c-1.909-15.83,4.345-33.502,11.689-47.466c0.411-0.782,2.109-3.202,4.514-6.447
		c2.475-3.635,5.167-7.132,8.043-10.505c8.1-10.282,17.283-21.064,18.314-19.462c-8.093-12.574-14.786-30.122-14.634-46.328
		c-0.847-13,3.086-25.671,14.327-35.505c9.888-8.661,23.774-12.312,36.721-10.285c3.345,0.497,6.692,1.422,9.987,2.814
		c0.135,0.057,0.269,0.114,0.404,0.172c0.131,0.057,0.261,0.114,0.391,0.171c0.313,0.14,0.625,0.281,0.936,0.429
		c-12.863-24.751-16.986-54.543-13.005-82.908c-0.53-5.576-0.485-11.201,0.187-16.802c0.512-4.295,1.388-8.533,2.596-12.685
		c-17.512-1.582-36.365,3.652-49.456,15.487c-26.99,24.347-33.044,64.798-28.728,100.934c-18.487-34.654-57.037-21.901-73.013,7.085
		c-3.8-17.841-8.952-37.326-22.415-50.564c-13.72-13.494-38.679-17.262-51.53-2.93c-11.112,12.431-8.663,31.594-4.477,47.697
		c-17.101-19.549-46.666-27.053-71.014-18.003c-12.174,4.541-22.64,13.043-30.08,23.703
		C256.194,669.121,276.227,703.002,305.116,727.735z M469.378,1192.039c13.888-13.449,128.069-12.663,108.218,24.904
		c10.354,4.049,22.273-3.586,32.952-0.488c11.829,3.431,16.3,19.262,11.499,30.604c-4.8,11.342-15.871,18.702-26.973,24.034
		c-17.741,8.52-42.396,12.017-54.258-3.688c-8.32-11.014-6.232-26.408-3.751-39.987
		C529.582,1268.365,431.735,1228.491,469.378,1192.039z M333.658,809.795c3.718-26.475,32.668-88.826,67.936-70.581
		c3.057,1.582,5.07,5.32,4.996,8.709c-0.481,21.951-27.43,35.042-33.436,57.08c-8.182,30.027,7.732,59.858,33.529,75.093
		c15.147,8.944,10.46,29.653-4.607,35.249c-12.864,4.778-25.081,16.453-24.415,31.04c0.602,13.166,12.439,24.382,26.059,21.533
		c15.482-3.239,32.41,13.619,22.121,28.777c-12.265,18.072-3.025,31.715,5.533,48.53c5.63,11.063-3.583,21.822-15.263,19.855
		c-28.472-4.797-38.49-34.942-34.463-61.356c-20.08-6.462-36.321-22.593-41.121-45.287c-5.338-25.241,5.296-47.617,22.957-63.242
		C341.321,873.021,329.101,842.251,333.658,809.795z"/>
	<path style="fill:#37792E;" d="M581.136,509.758c-3.347,9.291-5.731,19.033-7.123,28.95c-3.981,28.365,0.142,58.157,13.005,82.908
		c-0.31-0.147-0.623-0.289-0.936-0.429c-0.13-0.058-0.26-0.115-0.391-0.171c-0.135-0.058-0.27-0.115-0.404-0.172
		c-3.295-1.392-6.642-2.317-9.987-2.814c-20.181-2.999-40.263,9.573-48.052,29.31c-2.026,5.135-2.943,10.723-2.997,16.479
		c-0.153,16.206,6.541,33.754,14.634,46.328c-1.031-1.602-10.214,9.18-18.314,19.462c-2.98,3.783-5.815,7.499-8.043,10.505
		c-2.406,3.245-4.103,5.664-4.514,6.447c-7.344,13.964-13.598,31.636-11.689,47.466c1.158,9.594,4.408,19.633,9.426,28.655
		c2.711,4.872,5.936,9.447,9.625,13.497c1.848,2.029,3.814,3.926,5.889,5.662c0.031,0.026,0.062,0.052,0.092,0.077
		c0.017,0.014,0.033,0.026,0.048,0.04c7.167,5.955,15.64,9.991,25.15,10.919c0.071,0.007,0.14,0.012,0.209,0.018
		c0.253,0.024,0.507,0.046,0.761,0.065c0.333,0.025,0.667,0.047,1.002,0.064c0.009,0,0.017,0.002,0.024,0.002
		c0.226,0.011,0.452,0.021,0.678,0.029c0.062,0.003,0.124,0.004,0.185,0.006c0.283,0.008,0.565,0.014,0.85,0.017
		c0.169,0.003,0.338,0.004,0.508,0.004c0.109-0.001,0.219-0.002,0.329-0.003c0.047,0,0.092,0,0.138,0h0.004
		c0.132-0.001,0.263-0.004,0.396-0.006c0.105-0.003,0.208-0.005,0.311-0.008h0.01c0.04-0.001,0.082-0.001,0.123-0.003
		c0.132-0.004,0.265-0.01,0.399-0.015c0.069-0.003,0.138-0.004,0.209-0.008c0.045-0.002,0.091-0.004,0.136-0.006
		c0.025-0.001,0.049-0.001,0.073-0.003c0.261-0.012,0.522-0.027,0.783-0.044c-22.576,35.33-39.485,78.293-28.342,118.744
		c11.144,40.419,60.903,70.789,96.909,49.276c-29.243,19.228-43.704,60.516-27.988,91.755c0.177,0.352,0.359,0.696,0.541,1.042
		c6.027,11.416,14.845,19.116,25.082,23.832c13.249,6.104,28.87,7.213,43.881,4.915c4.292-0.657,8.533-1.59,12.655-2.766
		c4.027,20.482-5.7,41.288,7.762,62.705c10.606,16.927,28.96,28.082,48.639,32.046c3.987,0.804,8.028,1.312,12.069,1.513
		c9.694,0.483,19.775-0.741,28.212-5.54c6.033-3.429,10.825-8.426,14.831-14.117c3.329-4.729,6.116-9.937,8.616-15.127
		c1.05-2.162,2.059-4.35,3.033-6.547c0-0.001,0.002-0.002,0.002-0.002c0.577-1.304,1.147-2.611,1.7-3.917
		c-2-4.376-4.209-8.646-6.801-12.602c-0.003-0.003-0.005-0.007-0.008-0.01c-3.168-4.833-6.91-9.197-11.549-12.702
		c-11.627-8.792-30.789-9.405-39.067,2.609c10.982-16.812,4.09-42.513-13.817-51.594c1.9-15.879,3.188-33.817-7.183-45.992
		c-7.182-8.406-21.796-9.025-29.943-3.345c-3.651,2.546-6.005,6.357-5.806,11.3c-3.005-11.247-2.684-22.883-1.788-34.572
		c0.564-7.355,1.356-14.733,1.692-22.047c0.901-18.937-2.48-40.225-17.521-51.819c-3.575-2.754-7.896-4.398-12.403-5.053
		c-14.416-2.093-30.745,5.964-30.72,20.414c-30.758-13.108-36.588-62.319-9.76-82.255c-30.305-5.024-38.132-55.041-10.789-69.083
		c-23.768,2.255-47.312-17.907-48.729-41.74c-1.449-23.8,19.485-46.667,43.35-47.279c-17.875-16.071-24.541-43.414-16.071-65.894
		c13.527,3.059,27.054,6.086,40.58,9.146c-10.188-11.525-13.954-27.129-12.335-42.3c1.244-11.649,5.664-23.044,12.793-32.144
		c5.276-6.735,12.035-12.212,20.089-15.604c-16.167,6.796-11.851-75.427-9.533-82.255c9.92-28.921,32.24-52.883,62.159-60.999
		c-44.62-54.919-32.562-133.039,15.236-182.08c4.366-4.479,9.028-8.718,13.975-12.672c1.9-1.514,4.863-3.575,8.47-6.023
		c-6.634-0.096-13.301,0.676-19.742,2.351c-20.626,5.363-44.034,24.055-59.589,44.196c-5.446,7.054-9.932,14.285-12.996,21.185
		c-0.167,0.376-0.332,0.751-0.49,1.126c-0.256,0.603-0.493,1.342-0.713,2.201c-2.485,9.766-2.557,35.356,0.691,59.626
		c0.112,0.838,0.228,1.675,0.348,2.509c3.762,26.127,11.448,50.011,24.207,49.973c0.311-0.001,0.624-0.011,0.942-0.041
		c-0.305,0.028-0.608,0.062-0.911,0.093c-0.28,0.028-0.562,0.056-0.841,0.086c-0.127,0.014-0.256,0.028-0.383,0.042
		c-0.506,0.057-1.008,0.119-1.509,0.184c-0.207,0.026-0.414,0.053-0.619,0.081c-0.465,0.063-0.929,0.128-1.391,0.197
		c-0.218,0.033-0.436,0.066-0.653,0.1c-0.487,0.075-0.976,0.152-1.46,0.235c-0.096,0.017-0.192,0.034-0.287,0.051
		C620.876,445.245,593.948,474.197,581.136,509.758z"/>
	<path style="fill:#37792E;" d="M1042.29,533.627c-28.154-7.264-58.253,7.128-72.599,32.411
		c-21.747-22.621-46.993-41.384-78.396-49.003c-40.559-9.839-83.656-0.01-110.242,33.476
		c-61.507,77.466-4.889,172.458,60.097,224.38c8.114,6.483,19.658-4.27,11.696-11.696c-47.787-44.58-100.922-115.995-60.479-182.422
		c47.499-78.015,135.932-10.054,172.816,39.531c12.581,16.913,41.722,7.817,35.74-15.068c-8.647-33.089,28.985-48.109,49.812-23.694
		c11.363,13.323,36.69-0.865,30.159-17.556c-24.439-62.449,54.928-79.762,99.475-81.07c10.614-0.311,11.835-14.323,2.413-17.83
		c-36.739-13.678-78.863-11.428-109.777,14.899C1056.703,493.871,1045.631,513.132,1042.29,533.627z"/>
	<path style="fill:#37792E;" d="M1491.681,758.237c31.826-15.645,47.394-52.711,43.606-90.344
		c-1.312-13.037-21.236-18.143-24.567-3.325c-5.937,26.412-11.029,68.476-46.424,68.842c-15.202,0.157-19.676,16.996-11.407,27.54
		c21.139,26.961,37.701,65.629,20.666,98.793c-14.941,29.09-55.309,39.282-75.772,9.413c-10.014-14.616-39.216-11.328-37.059,10.037
		c4.075,40.366-20.159,83.386-62.587,90.528c-41.858,7.045-76.705-25.028-88.594-62.879c-4.151-13.215-23.004-10.436-23.775,3.218
		c-3.424,60.614,60.123,107.967,117.945,100.87c49.956-6.13,84.204-46.466,94.18-92.465c32.816,16.263,72.818,11.001,99.186-22.274
		C1531.402,852.875,1520.226,799.729,1491.681,758.237z"/>
	<path style="fill:#37792E;" d="M1362.622,1191.525c7.103,5.148,15.218,8.028,23.589,8.958
		c34.228,3.806,72.734-24.976,63.924-64.587c-2.353-10.576-16.857-11.296-22.122-2.891c-5.676,9.061-7.377,20.416-14.512,28.481
		c-1.636,1.851-3.487,3.536-5.482,5.001c-10.483,7.696-24.956,9.246-33.49-3.793c-6.135-9.374-18.898-9.299-25.048,0
		c-10.547,15.947-31.243,30.036-48.522,26.332c-7.959-1.706-15.193-7.186-20.377-18.001c-2.471-5.157-9.95-2.264-10.149,2.749
		c-0.648,16.266,8.186,29.52,21.453,36.515c5.306,2.798,11.32,4.598,17.723,5.184
		C1330.777,1217.414,1348.583,1206.135,1362.622,1191.525z"/>
	<path style="fill:#37792E;" d="M998.37,914.217c-2.848-11.72,3.393-24.645,16.632-24.808c0.537-0.007,1.074,0.012,1.611,0.051
		c9.651,0.713,19.12,8.682,24.501,16.062c4.147,5.688,12.004,3.448,12.781-3.461c0.792-7.049-0.474-13.488-3.224-19.056
		c-6.201-12.554-19.942-20.672-34.632-21.369c-1.676-0.08-3.361-0.063-5.052,0.055c-1.632,0.115-3.266,0.321-4.896,0.627
		c-17.121,3.223-29.149,15.724-34.151,30.926c-13.487-3.625-28.442-0.841-38.801,10.205c-11.183,11.924-18.668,45.383,4.099,49.016
		c1.996,0.319,4.77-0.158,5.697-2.317c2.017-4.707,1.632-7.571,2.622-12.579c-1.188-7.096,1.107-13.104,6.884-18.023
		c8.146-3.338,14.764-1.449,19.854,5.664C981.27,938.302,1002.323,930.486,998.37,914.217z"/>
	<path style="fill:#37792E;" d="M1438.062,515.651c7.478,2.945,12.519-6.52,9.568-12.446
		c-15.901-31.912-59.984-39.416-80.506-17.032c-9.735-12.956-21.075-26.273-34.519-29.03c-14.511-2.976-24.487,5.835-25.747,19.373
		c-0.75,8.046,10.313,11.693,15.496,6.419c5.503-5.6,32.92,35.135,36.02,39.213c7.374,9.706,29.135,8.822,26.98-7.308
		C1381.43,485.466,1428.765,511.991,1438.062,515.651z"/>
	<path style="fill:#37792E;" d="M873.037,361.095c20.642-18.793,49.613-26.085,67.816,0.083
		c10.961,15.755,39.39,6.756,32.815-13.834c-6.493-20.331-13.367-44.083,1.129-62.444c4.002-5.068,2.238-15.78-6.132-14.808
		c-27.284,3.17-36.011,23.498-36.319,46.02c-29.847-8.376-63.435,1.6-71.785,37.721
		C858.861,361.193,867.482,366.152,873.037,361.095z"/>
	<path style="fill:#37792E;" d="M736.758,909.609c-3.149,33.359,0.578,71.139,25.498,96.135
		c11.158,11.192,27.149,17.57,42.965,18.419c19.186,1.029,38.113-6.076,47.837-22.598c6.885-11.699,8.268-25.794,8.336-39.369
		c0.099-20.244-3.419-42.564-18.865-55.651c-11.227-9.513-29.073-15.318-30.276-29.984c-35.134,2.105-53.049-34.474-40.741-64.078
		c-47.618-8.642-29.934-102.551-83.298-19.327c-13.891,21.665-19.435,79.502-5.817,109.886c3.905,8.712,9.385,15.167,16.697,17.865
		C708.463,924.363,720.839,921.651,736.758,909.609z"/>
	<path style="fill:#37792E;" d="M1051.698,392.665c14.139,3.324,29.16-3.831,38.804-14.692c9.645-10.862,14.847-24.892,19.11-38.778
		c6.501-21.176,11.275-44.146,4.522-65.25c-13.688-42.755-39.987-40.927-62.432-20.428
		C1013.509,288.397,986.472,377.334,1051.698,392.665z"/>
	<path style="fill:#37792E;" d="M768.36,471.628c18.746,5.956,42.561-4.759,47.095-23.295
		c-1.079,17.057,19.663,32.369,36.426,26.291c18.077-6.555,25.164-31.467,15.684-48.196c-9.498-16.761-31.039-22.623-48.933-21.079
		c-0.424-18.73-5.865-86.978-29.297-94.542C732.771,292.584,696.665,448.846,768.36,471.628z"/>
	<path style="fill:#37792E;" d="M1680.534,938.595c9.774-13.935,13.677-31.089,16.299-47.906
		c6.386-40.964-8.983-117.127-61.362-71.671c-32.208,27.951-62.08,130.794,1.594,140.941
		C1653.875,962.636,1670.761,952.531,1680.534,938.595z"/>
	<path style="fill:#37792E;" d="M1118.99,578.029c-22.182,22.723-38.641,50.962-47.652,81.404
		c-1.814,6.128-3.326,12.347-4.522,18.627c-6.111,32.085-2.004,69.79,23.57,90.108c20.206,16.052,49.812,16.862,73.329,6.234
		c23.658-10.691,40.047-30.935,53.793-52.104c24.317,30.484,57.786,57.568,88.837,14.702c10.598-14.631,15.042-32.832,17.258-50.762
		c18.234,17.21,47.827,21.167,69.734,8.969c21.907-12.198,34.141-39.779,28.057-64.104c-4.947-19.792-20.312-35.553-37.639-46.323
		c-10.92-6.788-23.238-12.081-36.096-12.125c-12.859-0.044-26.27,6.025-32.356,17.352c-7.977-23.206-32.776-37.93-57.3-38.947
		c-24.705-1.022-41.744,16.451-65.525,14.226C1160.81,562.319,1149.235,547.045,1118.99,578.029z"/>
	<path style="fill:#B9D36D;" d="M1002.5,1248.59c-20.413-13.37-48.956-16.698-68.837-2.55
		c-11.391,8.107-19.343,21.224-32.398,26.229c-24.746,9.486-48.943-14.747-74.915-20.022c-6.266-1.272-11.904-1.729-16.974-1.488
		c-44.133,2.109-45.12,57.364-40.773,91.874c3.525,27.98,4.238,55.696,1.242,82.909c-3.24,29.441-10.821,58.294-23.886,86.256
		c-22.994,49.216-59.514,90.876-85.365,138.653c-25.849,47.777-40.207,107.37-15.638,155.819
		c24.567,48.449,100.332,69.199,134.611,27.058c-12.562,33.178,14.104,72.313,48.622,80.507
		c34.517,8.194,71.292-8.907,95.121-35.188c23.83-26.282,36.911-60.425,47.445-94.301c15.161-48.752,26.141-98.803,32.781-149.424
		c8.533,15.766,32.164-0.061,40.339-16.015c49.413-96.406,50.681-216.056,3.322-313.488
		C1036.53,1283.475,1022.913,1261.96,1002.5,1248.59z"/>
	<path style="fill:#B9D36D;" d="M1286.911,1303.662c-2.061,3.226-4.087,6.476-6.076,9.749c-0.936,1.542-1.864,3.088-2.784,4.639
		c-13.682,23.073-25.536,47.23-35.434,72.164c-10.263,25.851-18.422,52.534-24.34,79.709c1.591-8.82-1.344-18.382-7.71-24.713
		c-10.019,5.67-15.073,17.126-18.898,27.984c-30.677,87.092-34.381,186.801-51.337,277.316c-2.248,11.998-3.512,26.407,2.093,36.272
		c1.725,3.034,4.1,5.639,7.297,7.611c8.848,5.458,20.214,3.256,30.334,0.875c-0.023,16.56,0.279,34.238,9.548,47.961
		c9.269,13.723,31.104,20.104,42.531,8.112c17.767-18.655-4.862-78.886-7.615-101.939c-4.719-39.511-6.796-79.345-4.452-119.102
		c3.239-54.959,12.271-109.582,27.006-162.629c2.705-9.741,5.794-19.337,9.109-28.851c12.372-35.518,27.894-69.896,38.445-106.433
		C1297.735,1321.63,1297.866,1305.981,1286.911,1303.662z"/>
	<path style="fill:#7F9F3E;" d="M601.124,1763.041c-1.063-6.119-1.867-12.271-2.447-18.422c-0.515-5.507-0.87-11.047-1.031-16.586
		c-20.451,37.681-36.457,78.551-20.901,118.358c11.432,29.243,34.911,51.982,59.001,72.142
		c163.415,136.846,425.672,187.087,603.482,48.858c42.191-32.786,43.125-64.38,34.365-101.708
		c-67.376,64.251-157.586,102.448-250.05,114.074C862.897,1999.951,634.039,1952.801,601.124,1763.041z"/>
	<path style="fill:#7F9F3E;" d="M889.177,1187.224c-13.749-6.284-23.782-17.56-31.75-30.615c-15.993,4.817-36.405-5.204-38.7-20.828
		c-0.236-1.607-0.285-3.269-0.114-4.983c-0.334,2.116-0.697,4.229-1.086,6.336c-0.593,3.225-1.251,6.438-1.971,9.637
		c9.099,10.461,18.686,20.496,28.821,30.018c19.26,18.1,45.476,35.202,70.435,26.538c26.281-9.147,35.492-40.968,40.29-68.343
		c0.193-1.127,0.386-2.287,0.58-3.413C934.524,1171.958,910.691,1197.046,889.177,1187.224z"/>
	<path style="fill:#7F9F3E;" d="M1219.936,1256.628c-3.633-6.151-6.078-12.76-7.528-19.618c-0.013-0.059-0.025-0.118-0.038-0.177
		c-4.075,5.662-8.219,11.274-12.434,16.832c-15.267,20.129-35.169,41.385-60.42,40.645c-40.29-1.192-55.556-53.044-56.586-93.303
		c-1.188-46.45,1.416-92.986,7.722-139.019c0.054-0.394,0.109-0.786,0.163-1.181c-2.908-2.49-5.707-5.089-8.369-7.794
		c-0.094,0.328-0.189,0.656-0.283,0.985c-5.027,17.464-9.348,35.061-13.113,52.484c-11.014,51.047-18.938,104.51-5.894,155.073
		c6.796,26.345,20.194,52.335,43.061,67.086c35.491,22.963,84.928,12.045,117.553-14.814c6.043-4.981,11.631-10.394,16.83-16.152
		c4.07-4.507,7.901-9.225,11.528-14.116c0.689-0.929,1.372-1.865,2.046-2.805C1240.358,1277.76,1227.179,1268.9,1219.936,1256.628z"
		/>
</g>
</svg>
