<?xml version="1.0" encoding="utf-8"?>
<!-- Generator: Adobe Illustrator 27.5.0, SVG Export Plug-In . SVG Version: 6.00 Build 0)  -->
<svg version="1.1" xmlns="http://www.w3.org/2000/svg" xmlns:xlink="http://www.w3.org/1999/xlink" x="0px" y="0px"
	 viewBox="0 0 750 500" style="enable-background:new 0 0 750 500;" xml:space="preserve">
<g id="BACKGROUND">
</g>
<g id="OBJECTS">
	<g>
		<g>
			<g>
				<polygon style="fill:#FBCFA9;" points="180.371,227.035 147.068,227.035 143.179,175.855 184.261,175.855 				"/>
				<rect x="145.546" y="226.191" style="fill:#FFBB85;" width="36.01" height="6.976"/>
				<path style="opacity:0.54;fill:#FFBB85;" d="M151.754,185.985c0.097-0.978,0.222-1.992,0.719-2.823
					c0.497-0.831,1.474-1.421,2.349-1.118c1.001,0.346,1.401,1.597,1.651,2.688c2.992,13.047,4.087,26.597,3.237,40.019
					c-0.106,1.674-1.606,6.728-4.019,4.261c-0.604-0.618-0.521-2.264-0.67-3.081c-0.32-1.757-0.756-3.495-1.096-5.249
					c-1.413-7.293-2.38-14.704-2.589-22.16C151.219,194.34,151.341,190.148,151.754,185.985z"/>
				<path style="opacity:0.54;fill:#FFBB85;" d="M175.99,185.193c-0.057-0.991-0.141-2.019-0.603-2.877
					c-0.462-0.859-1.414-1.494-2.301-1.225c-1.014,0.308-1.465,1.554-1.759,2.643c-3.521,13.039-5.169,26.664-4.867,40.24
					c0.038,1.693,1.33,6.854,3.842,4.464c0.629-0.598,0.613-2.262,0.795-3.081c0.392-1.76,0.898-3.495,1.309-5.25
					c1.71-7.299,2.978-14.736,3.491-22.249C176.184,193.645,176.233,189.411,175.99,185.193z"/>
			</g>
			<rect x="130.708" y="232.377" style="fill:#DC7942;" width="174.143" height="22.063"/>
			<g>
				<polygon style="fill:#FFEDBD;" points="281.942,117.388 248.639,117.388 244.75,66.209 285.832,66.209 				"/>
				<path style="fill:#FFE6AE;" d="M253.395,76.957c0.097-0.978,0.222-1.992,0.719-2.823c0.496-0.831,1.473-1.421,2.349-1.118
					c1.001,0.346,1.401,1.597,1.651,2.688c2.991,13.047,4.087,26.597,3.237,40.019c-0.106,1.674-1.606,6.728-4.019,4.261
					c-0.604-0.618-0.521-2.263-0.67-3.081c-0.32-1.757-0.756-3.495-1.096-5.249c-1.413-7.293-2.38-14.703-2.589-22.16
					C252.86,85.313,252.982,81.121,253.395,76.957z"/>
				<path style="fill:#FFE6AE;" d="M277.632,76.165c-0.057-0.991-0.141-2.019-0.603-2.877c-0.462-0.859-1.414-1.494-2.301-1.224
					c-1.014,0.308-1.465,1.554-1.759,2.643c-3.521,13.039-5.169,26.664-4.867,40.24c0.038,1.693,1.33,6.854,3.841,4.465
					c0.629-0.598,0.613-2.262,0.795-3.081c0.392-1.76,0.898-3.494,1.309-5.25c1.71-7.299,2.978-14.736,3.491-22.249
					C277.825,84.617,277.874,80.383,277.632,76.165z"/>
				<rect x="247.117" y="116.544" style="fill:#FFE6AE;" width="36.01" height="6.976"/>
			</g>
			<rect x="130.708" y="123.519" style="fill:#DC7942;" width="174.143" height="22.063"/>
			<g>
				<path style="fill:#FF5C4D;" d="M219.2,87.72c0,1.52-0.12,3.02-0.35,4.49c-0.07,0.51-0.16,1.01-0.25,1.51
					c-0.25,1.18-0.56,2.35-0.94,3.49c-0.1,0.3-0.2,0.61-0.31,0.91c-0.06,0.16-0.12,0.31-0.18,0.47c-0.09,0.24-0.19,0.49-0.3,0.73
					c-5.48,13.23-20.1,22.7-37.27,22.7c-17.82,0-32.88-10.19-37.86-24.21c-0.12-0.34-0.23-0.67-0.33-1.01
					c-0.21-0.62-0.38-1.25-0.54-1.88c-0.07-0.32-0.15-0.64-0.22-0.97c-0.23-1.1-0.4-2.21-0.51-3.34c-0.03-0.33-0.06-0.66-0.08-1
					c-0.04-0.62-0.06-1.26-0.06-1.89c0-1.66,0.14-3.28,0.4-4.88h78.39C219.05,84.44,219.2,86.06,219.2,87.72z"/>
				<path style="fill:#D5311D;" d="M196.551,117.711h-33.909c-1.075,0-1.946,0.871-1.946,1.946v1.917
					c0,1.075,0.871,1.946,1.946,1.946h33.909c1.074,0,1.946-0.871,1.946-1.946v-1.917
					C198.497,118.582,197.625,117.711,196.551,117.711z"/>
				<path style="fill:#FFFFFF;" d="M217.35,98.12c-0.06,0.16-0.12,0.31-0.18,0.47c-0.09,0.24-0.19,0.49-0.3,0.73
					c-0.87-0.34-1.81-0.52-2.79-0.44c-2.1,0.18-3.85,1.42-5.29,2.72c-2.85,2.6-5.08,6.25-9.25,7.28c-4.22,1.05-7.54-1.83-10.12-4.47
					c-1.43-1.45-2.8-2.9-4.56-4.02c-1.77-1.13-3.83-2-6.02-2.12c-4.73-0.27-7.35,3.39-9.92,6.39c-2.58,3-6.18,5.81-10.65,4.53
					c-4.46-1.28-6.61-5.16-9.47-8.15c-1.49-1.56-3.3-2.8-5.6-3.13c-0.48-0.07-0.98-0.1-1.46-0.1c-0.12-0.34-0.23-0.67-0.33-1.01
					c1.17-0.04,2.34,0.09,3.46,0.41c2.12,0.61,3.8,1.93,5.21,3.47c2.71,2.97,5.31,7.4,10.1,7.67c4.65,0.25,7.34-4.13,9.85-6.95
					c1.33-1.49,2.87-2.92,4.84-3.69c1.92-0.77,4.04-0.81,6.06-0.35c2.1,0.48,4.05,1.5,5.72,2.74c1.67,1.24,3.01,2.76,4.47,4.19
					c1.35,1.33,2.86,2.69,4.78,3.28c1.99,0.62,4.03,0.11,5.71-0.97c3.48-2.26,5.39-6.03,9.15-8.02c1.8-0.95,3.91-1.26,5.91-0.69
					C216.9,97.96,217.13,98.03,217.35,98.12z"/>
				<path style="fill:#FFFFFF;" d="M218.85,92.21c-0.07,0.51-0.16,1.01-0.25,1.51c-1.46-1.38-3.42-2.55-5.58-2.36
					c-2.04,0.18-3.73,1.42-5.12,2.72c-2.77,2.6-4.94,6.25-8.97,7.28c-4.1,1.05-7.32-1.83-9.82-4.47c-1.39-1.45-2.72-2.9-4.42-4.02
					c-1.72-1.13-3.72-2-5.84-2.12c-4.59-0.27-7.12,3.39-9.62,6.39s-5.99,5.81-10.33,4.53c-4.32-1.28-6.41-5.16-9.18-8.15
					c-1.45-1.56-3.2-2.8-5.43-3.13c-1.38-0.2-2.8-0.1-4.15,0.22c-0.03-0.33-0.06-0.66-0.08-1c1.92-0.45,3.96-0.48,5.85,0.08
					c2.05,0.61,3.68,1.93,5.05,3.47c2.63,2.97,5.15,7.4,9.8,7.67c4.5,0.25,7.11-4.13,9.55-6.95c1.29-1.49,2.78-2.92,4.69-3.69
					c1.86-0.77,3.92-0.81,5.88-0.35c2.03,0.48,3.93,1.5,5.54,2.74c1.62,1.24,2.92,2.76,4.34,4.19c1.31,1.33,2.77,2.69,4.63,3.28
					c1.93,0.62,3.91,0.11,5.54-0.97c3.38-2.26,5.23-6.03,8.87-8.02c1.75-0.95,3.79-1.26,5.73-0.69
					C216.77,90.74,217.88,91.4,218.85,92.21z"/>
			</g>
		</g>
		<g>
			<g>
				<path d="M323.247,403.025c-0.799-27.457-4.22-86.434-18.869-102.16c-19.287-20.704-65.069-17.194-88.006-3.87
					c-17.084,9.924-21.859,73.982-23.184,106.03H323.247z"/>
				<path style="fill:#D5311D;" d="M280.435,295.028c-1.772-2.441-5.316-3.588-8.269-4.566c-7.417-2.456-15.714-3.388-23.54-2.143
					c-0.049,0.008-0.082,0.033-0.104,0.064c-3.118-0.166-6.854,0.316-8.481,2.976c-1.395,2.281-0.5,5.131,1.307,7.025
					c2.123,2.224,5.34,3.396,8.328,4.465c3.424,1.225,6.969,2.244,10.634,2.74c3.353,0.454,6.781,0.474,10.107-0.157
					c3.051-0.578,6.177-1.709,8.495-3.581c1.081-0.873,2.02-1.988,2.33-3.268C281.544,297.344,281.203,296.086,280.435,295.028z
					 M279.98,299.852c-1.528,2.26-4.588,3.644-7.335,4.459c-2.935,0.871-6.066,1.164-9.153,1.012
					c-3.347-0.165-6.637-0.862-9.8-1.808c-3-0.897-6.103-1.924-8.805-3.395c-2.719-1.48-5.181-4.001-4.694-7
					c0.24-1.478,1.347-2.66,2.789-3.402c1.702-0.877,3.671-1.072,5.611-1.055c0.026,0,0.038-0.013,0.057-0.021
					c0.01,0.001,0.016,0.009,0.027,0.008c6.522-0.589,13.117-0.316,19.449,1.237c3.075,0.754,6.263,1.719,9.003,3.177
					c1.381,0.735,2.649,1.738,3.256,3.08C280.949,297.391,280.752,298.71,279.98,299.852z"/>
			</g>
			<g>
				<defs>
					<path id="XMLID_1_" d="M243.877,293.164c0,0,1.726,4.633,15.766,7.443c14.04,2.81,16.303-2.475,16.303-2.475l3.569-23.043
						l-32.069-4.968L243.877,293.164z"/>
				</defs>
				<use xlink:href="#XMLID_1_"  style="overflow:visible;fill:#FFBB85;"/>
				<clipPath id="XMLID_00000075133316059168479300000002192129529045187248_">
					<use xlink:href="#XMLID_1_"  style="overflow:visible;"/>
				</clipPath>
				<path style="clip-path:url(#XMLID_00000075133316059168479300000002192129529045187248_);fill:#D5311D;" d="M272.437,284.97
					c-13.088-0.074-25.857-9.067-28.55-20.105c-1.027-4.211-0.494-9.004,3.102-11.804c4.031-3.139,10.342-2.772,15.93-2.205
					c6.76,0.686,13.601,1.418,20.025,3.532c4.871,1.603,9.55,4.081,12.974,7.539c3.846,3.885,2.68,6.925,0.057,11.002
					C291.389,280.053,282.267,285.026,272.437,284.97z"/>
			</g>
			<g>
				<path style="fill:#FFBB85;" d="M311.484,260.886c-4.754,6.883-13.28,12.23-27.444,15.428c-1.312,0.301-2.673,0.574-4.083,0.836
					c-18.879,3.471-37.233-4.19-48.744-18.636c-5.269-6.611-9.099-14.641-10.898-23.682c-5.716-28.776,11.714-56.492,38.935-61.897
					c27.22-5.415,45.584,11.462,53.488,43.776c1.254,5.123,2.343,10.12,3.053,14.893
					C317.462,242.833,317.005,252.895,311.484,260.886z"/>
				<g>
					<path style="fill:#D5311D;" d="M299.15,228.605c-0.92-1.354-2.24-2.674-3.932-2.913c-1.031-0.145-1.97,0.195-2.805,0.739
						c-0.012-0.041-0.011-0.08-0.03-0.122c-0.782-1.676-1.444-3.41-1.993-5.176c-0.27-0.868-0.53-1.747-0.76-2.625
						c-0.226-0.865-0.302-1.903-0.743-2.684c-0.242-0.428-1.014-0.381-1.111,0.145c-0.169,0.924,0.144,1.945,0.333,2.856
						c0.199,0.961,0.434,1.898,0.728,2.836c0.586,1.868,1.331,3.68,2.195,5.437c0.057,0.116,0.129,0.203,0.209,0.267
						c-0.182,0.173-0.358,0.349-0.525,0.528c-1.197,1.281-2.168,2.696-2.774,4.345c-0.157,0.426,0.45,0.6,0.68,0.287
						c0.859-1.171,1.779-2.334,2.84-3.329c0.898-0.842,2.132-2.118,3.488-1.878c1.273,0.225,2.224,1.479,2.822,2.531
						c0.694,1.22,0.97,2.523,1.274,3.877c0.211,0.937,1.482,0.627,1.566-0.212C300.784,231.814,300.094,229.994,299.15,228.605z"/>
					<path style="fill:#D5311D;" d="M297.75,236.659c-0.468,0.541-0.978,1.066-1.476,1.584c-0.526,0.548-1.088,1.051-1.727,1.465
						c-1.453,0.942-3.027,1.417-4.755,1.501c-2.97,0.144-6.448,0.019-8.751-2.106c-0.31-0.286-0.824,0.078-0.596,0.46
						c1.81,3.035,6.376,3.2,9.507,3.09c1.849-0.065,3.71-0.505,5.271-1.533c0.736-0.484,1.442-1.061,2.01-1.736
						c0.623-0.74,0.947-1.401,1.203-2.327C298.539,236.681,298.025,236.34,297.75,236.659z"/>
					<g>
						<path d="M271.373,227.221c0.593,2.918-0.463,5.595-2.358,5.98c-1.895,0.385-3.912-1.668-4.504-4.586
							c-0.593-2.918,0.463-5.595,2.358-5.98C268.763,222.25,270.78,224.303,271.373,227.221z"/>
						<path d="M303.126,220.222c0.497,2.445-0.328,4.676-1.841,4.984c-1.514,0.307-3.143-1.425-3.64-3.87
							c-0.497-2.445,0.328-4.676,1.841-4.984C301,216.044,302.63,217.777,303.126,220.222z"/>
					</g>
					<path d="M268.969,202.917c-0.609-1.548-2.116-2.845-3.672-3.21c-3.719-0.873-7.914,0.892-10.767,3.204
						c-3.153,2.555-5.083,6.364-5.464,10.387c-0.158,1.67-0.302,4.254,2.067,4.094c2.05-0.139,3.75-1.469,5.095-2.918
						c1.149-1.238,2.178-2.613,3.534-3.62C262.558,208.778,271.004,208.085,268.969,202.917z"/>
					<path d="M295.921,202.229c1.238,0.339,2.351,1.086,3.51,1.682c1.357,0.697,2.928,1.176,4.405,0.58
						c1.708-0.69,0.871-2.711,0.284-3.995c-1.413-3.093-3.85-5.479-6.79-6.439c-2.66-0.868-6.104-0.834-8.465,1.149
						c-0.987,0.83-1.675,2.39-1.662,3.84C287.248,203.891,293.37,201.531,295.921,202.229z"/>
				</g>
				<path d="M299.664,166.025c-1.683-0.965-3.441-1.78-5.251-2.485c0.324-0.588,0.549-1.213,0.598-1.882
					c0.181-2.488-1.966-4.4-4.108-5.608c-6.986-3.939-15.548-4.456-23.785-4.142c-17.333,0.661-34.703,4.629-50.863,11.62
					c-3.044,1.317-6.142,2.81-8.358,5.281l0.223,0.014c-0.051,0.031-0.104,0.059-0.155,0.09c-1.741,1.049-3.517,2.268-4.419,4.066
					c-0.771,1.537-0.607,3.583,0.572,4.635c-2.301-1.528-4.576-2.944-6.883-4.497c-0.676-0.455-1.371-0.919-2.179-1.103
					s-1.764-0.035-2.351,0.585c-1.003,1.058-0.436,2.719,0.292,3.896c1.664,2.689,3.903,5.015,6.538,6.793
					c-4.361-1.218-9.517,0.302-12.688,3.742c-0.62,0.673-1.194,1.645-0.759,2.398c0.374,0.646,1.277,0.733,2.05,0.707
					c3.655-0.119,7.323-1.183,10.539-3.057c-5.76,4.756-8.355,12.001-7.979,19.186c0.375,7.184,3.377,13.875,7.134,19.878
					c2.874,4.592,6.23,8.902,10.246,12.548c1.341,1.217,5.594,4.762,7.709,3.134c0.21-0.162,0.365-0.381,0.529-0.587
					c2.134-2.694,6.089-3.392,8.884-1.765c3.223,1.876,5.541,6.136,9.899,5.665c5.958-0.644,5.44-8.077,4-11.887
					c-1.915-5.069-5.278-9.536-9.619-12.78c3.133,2.185,8.292,0.829,10.164-2.673c1.72-3.216,0.687-7.052-0.822-10.208
					c-2.847-5.953-7.289-11.095-12.781-14.795c5.109,2.926,10.417,3.003,16.458,2.402c6.042-0.601,11.946-2.405,17.801-4.199
					c2.347-0.719,4.816-1.512,6.514-3.301s2.199-4.912,0.383-6.4c4.889,1.873,9.832,3.712,15.046,4.598
					c5.214,0.886,10.765,0.772,15.823-1.18c4.188-1.616,8.281-5.132,8.374-9.488C306.528,171.158,303.151,168.023,299.664,166.025z"
					/>
				<g>
					<path style="fill:#FFBB85;" d="M207.006,234.125c-1.684,1.161-2.985,2.898-3.606,5.368c-0.686,2.725-0.241,5.527,0.691,8.007
						c2.022,5.38,6.343,9.464,11.654,11.307c4.425,1.535,11.636,2.291,14.998-2.745c1.489-2.23,1.388-5.069,0.858-7.535
						c-1.149-5.342-3.459-11.647-8.252-14.188C219.11,232.091,211.621,230.943,207.006,234.125z"/>
					<path style="fill:#D5311D;" d="M223.814,247.44c-0.868-1.711-1.816-3.234-3.297-4.5c-1.471-1.257-3.156-2.236-5-2.834
						c-1.927-0.625-4.098-0.768-6.001,0.012c-0.842,0.345-1.614,0.835-2.231,1.511c-0.564,0.618-1.309,1.722-1.008,2.583
						c0.177,0.508,0.715,0.755,1.205,0.49c0.584-0.316,0.885-1.051,1.351-1.525c0.473-0.48,1.083-0.878,1.711-1.123
						c0.388-0.152,0.788-0.247,1.192-0.304c-0.511,1.175-0.672,2.47-0.395,3.762c0.167,0.779,0.493,1.552,0.934,2.215
						c0.244,0.366,0.535,0.705,0.855,1.007c0.145,0.136,0.296,0.266,0.455,0.385c0.257,0.195,0.496,0.24,0.811,0.273
						c0.444,0.047,0.865-0.508,0.703-0.923c-0.079-0.201-0.143-0.395-0.289-0.561c-0.12-0.136-0.26-0.253-0.384-0.385
						c-0.198-0.211-0.367-0.436-0.532-0.673c-0.376-0.541-0.653-1.116-0.81-1.756c-0.268-1.094-0.169-2.308,0.262-3.359
						c0.796,0.083,1.585,0.281,2.328,0.544c2.799,0.99,5.608,3.182,7.156,5.737C223.213,248.646,224.145,248.091,223.814,247.44z"/>
				</g>
				<g style="opacity:0.2;">
					<path style="fill:#EC372F;" d="M284.438,274.535c-0.097,0.603-0.233,1.196-0.399,1.779c-1.312,0.301-2.673,0.574-4.083,0.836
						c-18.879,3.471-37.233-4.19-48.744-18.636c0.447-1.235,1.05-2.411,1.779-3.5c3.344-4.958,9.099-7.981,15.02-8.808
						c5.92-0.826,11.987,0.379,17.547,2.576c5.357,2.119,10.441,5.23,14.087,9.683C283.291,262.927,285.371,268.848,284.438,274.535
						z"/>
					<path style="fill:#EC372F;" d="M311.484,260.886c-0.525-5.036-0.807-10.091-0.253-15.107c0.544-4.958,1.983-9.935,4.559-14.174
						C317.462,242.833,317.005,252.895,311.484,260.886z"/>
				</g>
			</g>
		</g>
		<g>
			<path style="fill:#FB8B12;" d="M425.666,276.69c5.598-19.139,14.464-38.261,30.661-51.634
				c19.001-15.688,42.968-22.949,68.626-20.751c21.609,1.851,46.674,10.928,60.774,25.796c11.621,12.253,17.184,28.417,18.771,44.47
				c1.587,16.052-0.508,32.194-2.6,48.2c-2.926,22.379,0.248,50.234-17.927,65.716c-14.137,12.043-41.418,12.761-60.732,14.875
				c-18.025,1.972-36.471,2.482-54.195-1.073c-15.616-3.132-41.031-11.732-47.384-26.563c-3.608-8.423-3.409-19.582-3.945-28.486
				c-0.667-11.071-0.44-22.185,0.675-33.227C419.662,301.419,422.09,288.919,425.666,276.69z"/>
			<path style="fill:#FFEDBD;" d="M593.226,330.947c-6.73-2.555-16.457-8.666-21.551-13.752
				c-10.166-10.151-17.479-23.414-22.292-36.848c-4.98-13.899-7.471-30.075-3.491-44.535c1.981-7.198,5.558-15.109,9.785-21.233
				c0.27-0.391,0.543-0.787,0.821-1.188c0.788-1.137,0.273-2.715-1.034-3.168c-2.159-0.749-4.354-1.425-6.574-2.032
				c-0.76-0.208-1.573,0.04-2.1,0.625c-0.163,0.181-0.325,0.363-0.485,0.547c-4.042,4.635-7.783,10.673-10.971,15.934
				c-3.299,5.443-6.181,11.214-8.18,17.264c-1.83,5.539-2.455,11.313-4.164,16.851c-0.339,1.098-21.093,3.11-39.382,2.939
				c-14.889-0.139-28.087-2.252-27.777-3.202c4.903-15.048,14.908-28.909,25.826-40.104c3.647-3.74,8.618-9.019,12.712-12.678
				c0.258-0.231,0.046-0.657-0.293-0.584c-1.838,0.393-3.662,0.831-5.465,1.321c-0.033,0.009-0.065,0.023-0.094,0.042
				c-2.227,1.466-16.738,12.062-20.796,15.724c-6.581,5.938-12.834,12.518-18.482,19.447c-0.04,0.119-0.092,0.239-0.172,0.358
				c-8.057,12.062-16.122,24.488-21.675,37.942c-2.844,6.89-5.419,13.967-7.054,21.249c-0.767,3.416-1.273,6.868-1.674,10.344
				c-0.369,3.2-0.025,6.41-0.707,9.558c-0.044,0.204-0.106,0.39-0.171,0.573c-0.499,8.28-0.5,16.583-0.002,24.863
				c0.536,8.904,0.337,20.063,3.945,28.486c6.353,14.831,31.768,23.431,47.384,26.563c17.724,3.555,36.169,3.045,54.195,1.073
				c19.315-2.114,46.595-2.832,60.732-14.875c15.446-13.158,15.474-35.252,16.929-55.327
				C598.337,332.701,595.73,331.897,593.226,330.947z"/>
			<path style="fill:#FFFFFF;" d="M481.077,220.607c-1.552,1.875-2.925,3.9-4.072,6.078c-1.762,3.347-2.064,7.271,1.774,9.265
				c1.705,0.886,3.691,1.068,5.612,1.013c4.295-0.122,8.554-1.362,12.243-3.565c0.93-0.556,1.868-1.222,2.311-2.211
				c-0.575,3.475,3.89,6.22,6.63,7.088c3.736,1.184,7.69,0.807,11.084-0.131c8.518-2.355,19.594-9.657,20.043-19.497
				c0.285-6.248-4.687-11.842-10.559-13.996c-9.599-3.521-20.522-0.347-29.341,3.962
				C490.857,211.518,485.302,215.504,481.077,220.607z"/>
			<g>
				<defs>
					<path id="XMLID_4_" d="M525.624,206.242c1.804,5.892-0.842,12.277-6.343,15.053c-1.947,0.983-4.325,2.006-7.229,3.033
						c-7.925,2.801-12.523,2.599-15.081,1.812c-1.657-0.51-2.918-1.864-3.425-3.522l-6.714-21.927l33.913-10.385L525.624,206.242z"
						/>
				</defs>
				<use xlink:href="#XMLID_4_"  style="overflow:visible;fill:#FFBB85;"/>
				<clipPath id="XMLID_00000003791585866184572300000017262852224677611392_">
					<use xlink:href="#XMLID_4_"  style="overflow:visible;"/>
				</clipPath>
				<path style="clip-path:url(#XMLID_00000003791585866184572300000017262852224677611392_);fill:#D5311D;" d="M496.652,213.17
					c14.127-2.184,26.599-13.696,27.885-25.738c0.491-4.593-0.79-9.548-5.087-11.915c-4.816-2.652-11.579-1.251-17.533,0.245
					c-7.201,1.809-14.484,3.68-21.113,6.937c-5.026,2.469-9.717,5.829-12.906,10.016c-3.584,4.705-1.877,7.714,1.556,11.579
					C475.455,211.049,486.041,214.81,496.652,213.17z"/>
			</g>
			<path style="fill:#B89E00;" d="M460.391,278.95c-8.644-1.878-20.103,1.045-20.558,4.186
				c-0.455,3.141,24.214,12.688,32.014,23.878c7.8,11.19,20.892,17.028,28.872,12.958c7.98-4.069,12.709-18.564,11.495-24.548
				c-1.214-5.984-4.763-17.881-13.343-17.254C490.29,278.799,469.035,280.828,460.391,278.95z"/>
			<path style="fill:#FFFFFF;" d="M484.277,269.549c5.517-0.895,11.763-0.709,15.912,3.037c2.575,2.326,3.949,5.7,4.812,9.061
				c1.839,7.158,1.702,14.813-0.391,21.901c-1.445,4.895-4.427,10.025-9.406,11.14c-5.006,1.122-9.832-2.229-13.744-5.548
				c-6.817-5.783-13.212-12.063-19.117-18.774c-1.573-1.788-4.534-5.117-4.048-7.797c0.467-2.579,4.277-4.372,6.358-5.661
				C470.628,273.206,477.336,270.675,484.277,269.549z"/>
			<g>
				<path style="fill:#FFBB85;" d="M534.343,322.677c-1.701-0.289-3.4-0.906-5.007-1.541c-4.44-1.736-8.931-3.485-12.896-6.205
					c-2.685-1.846-5.18-4.187-6.909-6.974c-1.462-2.365-2.226-5.128-3.129-7.744c-1.457-4.263-4.524-7.273-8.559-9.171
					c-4.012-1.903-8.469-2.78-12.364-4.913c-1.215-0.67-2.525-1.792-2.24-3.155c0.241-1.125,1.473-1.717,2.594-2.022
					c0.201-0.055,0.388-0.102,0.586-0.146c0.966-0.217,1.929-0.347,2.91-0.418c-0.858-0.136-1.704-0.279-2.552-0.412
					c-0.805-0.132-1.599-0.262-2.394-0.391c-0.815-0.135-1.688-0.297-2.227-0.924c-0.709-0.805-0.509-2.137,0.194-2.95
					c0.419-0.497,0.971-0.838,1.582-1.075c0.395-0.165,0.809-0.282,1.227-0.375c0.853-0.204,1.711-0.308,2.576-0.356
					c-0.384-0.072-0.776-0.157-1.161-0.229c0,0,0,0-0.01-0.003c-1.443-0.274-2.894-0.56-4.334-0.844
					c-0.479-0.087-1.017-0.234-1.228-0.663c-0.322-0.623,0.263-1.326,0.834-1.738c0.558-0.405,1.156-0.755,1.758-1.038
					c0.003-0.01,0.013-0.007,0.013-0.007c0.79-0.374,1.614-0.673,2.47-0.888c-0.211,0.052-0.756-0.151-1.162-0.383l-0.01-0.003
					c-0.227-0.128-0.411-0.254-0.48-0.36c-1.412-2.111,7.209-3.81,8.331-4.039c7.204-1.43,15.674-0.255,22.58,2.208
					c4.152,1.471,8.076,3.819,11.073,7.083c3.224,3.511,4.58,7.987,6.064,12.432c0.519,1.539,1.025,3.086,1.58,4.613
					c0.271,0.729,0.983,3.762,1.678,4.094c4.01,1.913,8.699,3.094,11.252,3.944C545.319,306.901,539.904,316.103,534.343,322.677z"
					/>
				<path style="fill:#D5311D;" d="M505.824,286.003c-1.661-0.836-3.119-1.976-4.836-2.728c-1.666-0.738-3.436-1.254-5.212-1.629
					c-3.081-0.633-6.223-0.726-9.359-0.839c0.966-0.217,1.929-0.347,2.91-0.418c-0.858-0.136-1.704-0.279-2.552-0.412
					c3.166-0.119,6.366,0.121,9.452,0.777c1.806,0.384,3.568,0.93,5.264,1.677c1.658,0.725,3.558,1.648,4.716,3.088
					C506.427,285.796,506.151,286.168,505.824,286.003z"/>
				<path style="fill:#D5311D;" d="M507.706,277.584c-4.006-1.366-7.875-2.553-12.131-2.884c-3.86-0.3-7.776-0.156-11.645-0.065
					c0.395-0.165,0.809-0.282,1.227-0.375c0.853-0.204,1.711-0.308,2.576-0.356c-0.384-0.072-0.776-0.157-1.161-0.229
					c3.227-0.222,6.452-0.314,9.694-0.03c3.979,0.343,8.317,1.134,11.619,3.52C508.088,277.306,507.965,277.677,507.706,277.584z"/>
				<path style="fill:#D5311D;" d="M508.83,269.504c-2.046-0.187-4.045-0.743-6.07-1.045c-2.17-0.33-4.352-0.499-6.539-0.528
					c-4.303-0.038-8.42,0.684-12.615,1.45c0.79-0.374,1.614-0.673,2.47-0.888c-0.211,0.052-0.756-0.151-1.162-0.383
					c3.649-1.047,7.563-1.344,11.301-1.317c2.146,0.018,4.294,0.189,6.417,0.495c2.156,0.304,4.391,0.674,6.354,1.646
					C509.253,269.074,509.128,269.531,508.83,269.504z"/>
			</g>
			<path style="fill:#FBB912;" d="M607.22,368c-41.04,8.38-93.27-41.44-93.27-41.44l1.17-2.17l0.36-0.66L537,284
				c0,0,35.55,22.39,41.36,24.31c0.54,0.18,0.91,0.25,1.14,0.19c0.25-0.04,0.32-0.23,0.23-0.55c-0.74-2.51-11.15-13.13-20.03-30.61
				c-11.07-21.76-11.03-48.56,3.18-56.34c0.57-0.32,1.16-0.58,1.77-0.78c0.23-0.09,0.46-0.16,0.7-0.22
				c14.35-4.01,36.6,19.36,54.9,47.73C639.64,297.78,648.27,359.63,607.22,368z"/>
			<g>
				<path style="fill:#FB8B12;" d="M597.94,315.38c0.24,0.16,0.1,0.62-0.21,0.5c-1.66-0.65-3.27-1.47-4.89-2.24
					c-1.63-0.77-3.28-1.49-4.95-2.16c-2.76-1.11-5.57-2.05-8.39-2.98c0.25-0.04,0.32-0.23,0.23-0.55c0.01,0.01,0.01,0.01,0.02,0.01
					c2.9-0.81,5.93-1.2,8.93-1.39c3.02-0.18,6.19-0.24,9.18,0.31c0.33,0.06,0.24,0.59-0.08,0.58c-3.01-0.11-5.97-0.34-8.98-0.17
					c-2.63,0.15-5.21,0.55-7.79,1c2.44,0.68,4.85,1.51,7.21,2.43C591.52,312,595.02,313.35,597.94,315.38z"/>
				<path style="fill:#FB8B12;" d="M625.95,321.07c0.03,4.2-0.16,8.41-0.93,12.54c-0.73,3.91-2,7.79-4.18,11.14
					c-2.22,3.42-5.36,6.08-9.09,7.72c-3.91,1.72-8.19,2.39-12.42,2.58c-4.41,0.21-8.85-0.03-13.23-0.44
					c-8.95-0.84-17.8-2.64-26.37-5.35c-8.56-2.71-16.85-6.32-24.66-10.75c-7.12-4.04-13.77-8.77-19.95-14.12l0.36-0.66
					c1.08,0.92,2.18,1.81,3.28,2.7c6.9,5.57,14.42,10.38,22.34,14.37c7.9,3.97,16.21,7.11,24.75,9.37
					c8.58,2.26,17.39,3.62,26.26,4.01c8.31,0.36,17.84,0.08,24.44-5.72c6.11-5.37,7.99-13.89,8.45-21.68
					c0.55-9.19-0.31-18.55-2.12-27.56c-1.86-9.25-4.83-18.28-8.85-26.81c-3.82-8.09-8.59-15.73-14.18-22.71
					c-5.36-6.68-11.47-12.77-18.15-18.12c-5.35-4.28-11.08-8.04-17.05-11.36c0.23-0.09,0.46-0.16,0.7-0.22
					c0.17,0.09,0.34,0.18,0.51,0.27c7.65,4.12,14.79,9.27,21.27,15.05c6.5,5.79,12.35,12.31,17.4,19.4
					c5.37,7.56,9.81,15.76,13.22,24.38c3.51,8.88,5.92,18.18,7.19,27.64C625.57,311.49,625.91,316.28,625.95,321.07z"/>
			</g>
			<path style="fill:#FFBB85;" d="M509.877,325.553c-10.373,16.565-20.911,8.37-25.363,5.094
				c-4.453-3.276-18.481,6.445-18.481,6.445l-18.286-24.858l8.866-6.193c0,0,5.444-7.593,13.328-3.966
				c2.158,0.992,4.968,2.741,8.04,4.666c8.166,5.133,18.247,11.588,23.264,8.944c5.638-2.975,3.704-8.224,5.327-10.674
				c0.369-0.554,0.924-0.962,1.779-1.167C513.026,302.708,520.25,308.988,509.877,325.553z"/>
			<path style="fill:#D5311D;" d="M497.987,324.339c-6.202-0.01-23.225-4.559-24.537-8.953c-0.943-3.169,1.157-5.969,4.695-8.176
				c8.166,5.133,18.247,11.588,23.264,8.944c5.638-2.975,3.704-8.224,5.327-10.674C509.07,312.44,506.241,324.359,497.987,324.339z"
				/>
			<path style="fill:#FFBB85;" d="M468.53,301.57c10.381,3.788,20.874,7.632,30.067,13.764c1.039,0.693,2.089,1.445,2.742,2.51
				c0.653,1.065,0.817,2.526,0.073,3.529c-1.043,1.407-3.155,1.262-4.882,0.974c-5.152-0.859-10.331-1.574-15.456-2.578
				C478.087,319.186,461.078,314.144,468.53,301.57z"/>
			<path style="fill:#FBB912;" d="M490.78,338.74c-35.99,30.44-73.7,36.82-89.93,18.42c-0.37-0.41-0.73-0.84-1.07-1.28
				c-8.59-10.98-10.2-29.83-0.69-56.68c23-64.9,60.07-79.2,66.12-80.8c1.14-0.3,1.07-0.2,0.25,0.49
				c-12.52,10.56-18.81,18.39-31.55,43.01c-7.92,15.3-10.3,42.33-8.19,49.04c0.19,0.61,0.42,1.05,0.69,1.3
				c0.05,0.05,0.11,0.09,0.17,0.12c3.83,2.46,29.21-10.72,29.21-10.72l29.56,31.34l0.25,0.27L490.78,338.74z"/>
			<g>
				<path style="fill:#FB8B12;" d="M426.58,312.36c-0.62,0.09-1.38-0.19-1.96-0.29c-0.91-0.15-1.82-0.29-2.74-0.4
					c-1.69-0.2-3.39-0.31-5.1-0.34c-1.7-0.03-3.41,0.02-5.11,0.15c-1.74,0.12-3.46,0.42-5.2,0.53c-0.42,0.03-0.48-0.61-0.09-0.71
					c1.69-0.49,3.53-0.64,5.29-0.76c1.74-0.12,3.49-0.14,5.23-0.07c1.74,0.07,3.48,0.25,5.2,0.49c0.86,0.12,1.72,0.26,2.58,0.43
					c0.38,0.07,0.85,0.13,1.29,0.24c-2.64-2.15-5.46-4.08-8.48-5.64c-1.6-0.83-3.25-1.57-4.95-2.2c-1.65-0.61-3.35-1.08-5.03-1.61
					c-0.32-0.11-0.19-0.55,0.13-0.5c3.53,0.59,7.03,2.09,10.17,3.76c2.85,1.52,5.51,3.34,7.91,5.5c0.19,0.61,0.42,1.05,0.69,1.3
					C426.46,312.29,426.52,312.33,426.58,312.36z"/>
				<path style="fill:#FB8B12;" d="M485.62,333.24c-0.01,0-0.01,0.01-0.02,0.01c-0.81,0.62-1.64,1.22-2.46,1.82
					c-6.76,4.79-13.94,8.92-21.43,12.44c-7.41,3.49-15.11,6.37-22.99,8.61c-8.42,2.39-17.31,4.49-26.12,3.9
					c-4.02-0.27-8.08-1.18-11.75-2.86c-0.37-0.41-0.73-0.84-1.07-1.28c5.36,2.8,11.67,3.71,17.67,3.47
					c4.52-0.18,8.98-0.97,13.39-1.96c3.9-0.88,7.76-1.93,11.58-3.12c7.69-2.41,15.18-5.43,22.39-9.04
					c7.13-3.58,13.97-7.72,20.54-12.25c0.03-0.01,0.05-0.03,0.08-0.05C485.63,332.79,485.8,333.1,485.62,333.24z"/>
			</g>
			<g>
				<path style="fill:#FFEDBD;" d="M561.17,181.6c-1.73,1.71-3.78,3.11-5.99,4.13c-1.17,0.54-2.38,0.98-3.62,1.3
					c-1.46,0.38-2.95,0.61-4.46,0.66c-0.55,0.02-1.1,0.02-1.64,0c-0.55-0.03-1.11-0.08-1.66-0.15
					c-8.81-1.15-16.14-10.09-11.87-18.96c2.41-5.03,7.43-10.25,12.8-13.48c0.28-0.17,0.55-0.33,0.82-0.48
					c1.71-0.96,3.44-1.7,5.12-2.17c2.78-0.77,5.87-0.97,8.63-0.24c0.17,0.05,0.34,0.1,0.52,0.15c1.34,0.42,2.6,1.08,3.69,2.01
					c2.83,2.42,4.04,6.28,4.23,9.99C568.07,170.69,565.67,177.15,561.17,181.6z"/>
				<g style="opacity:0.39;">
					<path style="fill:#FB8B12;" d="M552.85,177.65c-1.11,3.72-3.08,7.21-5.75,10.04c-0.55,0.02-1.1,0.02-1.64,0
						c0.16-0.15,0.32-0.3,0.47-0.45c6.18-6.2,8.91-15.97,5.6-24.27c-1.31-3.29-3.65-6.28-6.8-7.87c0.28-0.17,0.55-0.33,0.82-0.48
						C553.34,158.66,555.19,169.81,552.85,177.65z"/>
					<path style="fill:#FB8B12;" d="M560.01,179.98c-1.33,2.14-2.96,4.07-4.83,5.75c-1.17,0.54-2.38,0.98-3.62,1.3
						c0.13-0.09,0.26-0.18,0.39-0.27c6.3-4.44,10.38-11.57,11.14-19.23c0.5-5.09-0.43-11.25-3.79-15.32
						c0.17,0.05,0.34,0.1,0.52,0.15c1.07,1.28,1.92,2.76,2.57,4.32C565.47,164.11,564.21,173.25,560.01,179.98z"/>
				</g>
				<path style="fill:#FFEDBD;" d="M444.26,96.612c-12.699,9.034-18.947,26.245-15,41.321c0.661,2.527,1.61,5.039,3.288,7.041
					c1.678,2.001,4.188,3.435,6.797,3.312c4.71-0.222,7.71-4.976,9.848-9.178c3.664-7.199,7.27-14.502,9.337-22.311
					c1.53-5.779,3.583-15.654,0.536-21.282C456.184,90.192,447.851,94.058,444.26,96.612z"/>
				<path style="fill:#FFBB85;" d="M543.504,165.022c-4.9,18.743-18.179,33.831-36.252,39.401c-1.439,0.447-2.897,0.826-4.394,1.147
					c-14.806,3.169-26.355,2.528-35.377-0.943h-0.01c-12.988-5.007-20.726-15.875-25.363-29.699
					c-1.896-5.658-3.276-11.802-4.277-18.247c-5.852-37.496,12.006-64.201,41.394-70.034c29.388-5.843,58.504,16.05,65.027,48.89
					C546.284,145.783,545.895,155.845,543.504,165.022z"/>
				<g style="opacity:0.2;">
					<path style="fill:#EC372F;" d="M541.903,170.205c-5.838,16.312-18.277,29.171-34.651,34.218
						c-2.8-1.137-5.318-2.984-7.145-5.395c-3.48-4.589-4.414-10.801-3.276-16.439c1.128-5.648,4.161-10.781,7.913-15.156
						c3.879-4.54,8.681-8.448,14.3-10.489C524.664,154.902,540.303,156.735,541.903,170.205z"/>
					<path style="fill:#EC372F;" d="M467.472,204.627c-12.988-5.007-20.726-15.875-25.363-29.699
						c0.233,0.049,0.467,0.107,0.69,0.165c6.912,1.944,12.589,7.048,16.624,12.988C462.874,193.175,465.265,198.882,467.472,204.627
						z"/>
				</g>
				<path style="fill:#FFEDBD;" d="M553.57,119.45c-0.12,0.93-0.25,1.8-0.41,2.6c-0.35,1.9-0.81,3.41-1.37,4.26
					c-1.08,1.63-3.71,2.47-6.36,3.29c-0.15,0.05-0.31,0.09-0.46,0.15c-2.31,0.71-4.57,1.44-5.72,2.73
					c-1.48,1.65-2.76,3.44-3.78,5.38c-0.21,0.38-0.4,0.78-0.59,1.18c-0.81,1.75-1.41,3.6-1.77,5.54c-0.51,2.8-1.42,5.18-4.72,4.98
					c-2.46-0.16-5.25-1.82-6.23-4.14c-0.7-1.67-0.69-3.55-0.85-5.36c-0.17-1.82-0.57-3.73-1.86-4.98c-0.32-0.3-0.7-0.54-1.11-0.71
					c-1.54,0.63-3.08,1.22-4.66,1.71c-9.86,3.03-20.53,2.21-30.08-1.1c-9.55-3.31-18.07-9-25.68-15.55
					c-3.84-3.31-7.54-6.93-10.18-11.26c-0.32-0.52-0.62-1.04-0.9-1.58c-0.05-0.09-0.09-0.17-0.13-0.26
					c-1.73-3.35-2.75-7.17-2.65-10.95v-0.19c0.06-1.79,0.37-3.56,0.97-5.28c0.63-1.82,1.57-3.5,2.69-5.06
					c0.17-0.23,0.35-0.46,0.53-0.69c1.3-1.69,2.83-3.23,4.44-4.64c7.54-6.6,17.04-10.67,26.77-12.6c9.72-1.92,19.7-1.79,29.45-0.72
					c14,1.54,28.66,5.58,37.44,16.35c4.32,5.3,6.84,11.93,7.54,18.71C554.38,106,554.31,113.7,553.57,119.45z"/>
				<g style="opacity:0.39;">
					<path style="fill:#FB8B12;" d="M535.47,137.86c-0.21,0.38-0.4,0.78-0.59,1.18c-3.98-3.41-8.51-6.1-13.4-8.17
						c-16.75-7.07-35.24-6.33-52.48-11.38c-7.54-2.21-15.19-5.93-21.26-11.32c-0.32-0.52-0.62-1.04-0.9-1.58
						c-0.05-0.09-0.09-0.17-0.13-0.26c2.12,2.02,4.44,3.8,6.89,5.36c15.32,9.75,33.72,9.97,50.9,13.17
						C515.08,126.83,526.9,130.47,535.47,137.86z"/>
					<path style="fill:#FB8B12;" d="M545.43,129.6c-0.15,0.05-0.31,0.09-0.46,0.15c-1.89-4.84-4.56-9.36-7.78-13.36
						c-12.28-15.28-30.97-21.93-49.63-22.89c-10.23-0.52-20.23,0.77-30.36,1.96c-4.26,0.5-8.84,0.7-13.14-0.08v-0.19
						c6.86,1.13,14.47-0.26,21.08-1.06c19.17-2.31,40.1-1.61,57.25,8.65C532.52,108.84,541.18,118.3,545.43,129.6z"/>
					<path style="fill:#FB8B12;" d="M553.57,119.45c-0.12,0.93-0.25,1.8-0.41,2.6c-0.86-6.76-3.09-13.34-6.4-19.2
						c-10.34-18.31-30.58-27.99-50.44-28.88c-11.33-0.5-22.67,1.57-33.39,5.32c-4.78,1.68-9.97,4.22-15.21,5.56
						c0.17-0.23,0.35-0.46,0.53-0.69c1.46-0.44,2.91-0.96,4.31-1.5c5.96-2.29,11.77-4.78,17.94-6.44
						c20.36-5.49,42.91-4.05,60.73,8.43C542.74,92.72,551.2,105.43,553.57,119.45z"/>
				</g>
				<path style="opacity:0.35;fill:#FFEDBD;" d="M553.892,101.259c-0.7-6.776-3.218-13.411-7.541-18.711
					c-7.064-8.658-17.929-12.961-29.191-15.116c0.464,0.259,0.926,0.523,1.385,0.807c15.465,9.564,24.174,28.587,24.754,46.357
					c0.186,5.684-0.655,11.422-2.482,16.727c3.331-1.806,9.21-2.349,10.973-5.011C554.064,122.88,554.647,108.57,553.892,101.259z"
					/>
				<g>
					<path style="fill:#FFBB85;" d="M550.724,124.783c2.45-0.221,4.934,0.412,7.275,2.285c2.582,2.065,4.123,5.1,4.964,8.211
						c1.824,6.749,0.508,14.076-3.347,20.042c-2.385,3.691-5.778,7.352-10.011,8.952c-4.758,1.798-9.547-0.128-11.946-4.492
						c-1.216-2.211-1.76-4.721-2.078-7.219C534.23,141.963,537.452,125.98,550.724,124.783z"/>
					<path style="fill:#D5311D;" d="M551.813,134.671c-2.303,0.589-3.91,2.623-4.893,4.673c-2.277,4.747-2.334,10.053-0.403,14.917
						c0.28,0.704,1.419,0.424,1.161-0.32c-1.36-3.92-1.187-8.452,0.33-12.304c0.335-0.851,0.752-1.746,1.287-2.549
						c0.932,0.637,1.688,1.462,2.2,2.459c0.29,0.564,0.474,1.102,0.626,1.774c0.037,0.163,0.069,0.328,0.093,0.494
						c-0.017-0.119,0.016,0.168,0.016,0.162c0.008,0.084,0.013,0.168,0.017,0.251c0.02,0.405,0.011,0.762,0.138,1.153
						c0.192,0.595,1.012,0.735,1.344,0.176c0.456-0.769,0.31-1.773,0.162-2.619c-0.139-0.798-0.454-1.59-0.863-2.287
						c-0.677-1.155-1.626-2.096-2.778-2.737c0.321-0.319,0.671-0.604,1.059-0.834c0.704-0.417,1.531-0.616,2.347-0.493
						c0.841,0.127,1.409,0.76,2.193,0.947c0.457,0.11,1.029-0.227,0.987-0.752C556.661,134.584,553.456,134.251,551.813,134.671z"/>
				</g>
				<g>
					<path style="fill:#FFEDBD;" d="M481.629,132.87c1.982,0.269,3.941-0.111,5.92-0.194c3.818-0.16,7.64,0.495,11.136,1.891
						c1.367,0.546,2.494-0.899,1.912-1.797c-1.022-3.333-4.117-5.951-7.342-7.649c-3.092-1.628-7.023-2.619-10.605-2.104
						c-1.918,0.276-3.692,1.073-4.798,2.554c-0.936,1.253-1.336,2.926-0.688,4.362C477.906,131.58,479.729,132.612,481.629,132.87z"
						/>
					<path style="fill:#D5311D;" d="M473.769,162.888c-0.381-0.646-1.489-0.971-2.177-1.18c-0.743-0.227-1.559-0.308-2.34-0.371
						c0.776-4.692-2.483-9.236-5.771-12.316c-0.277-0.26-0.78,0.082-0.548,0.423c2.438,3.597,5.59,7.291,5.367,11.829
						c-1.51-0.066-3.046,0.065-4.409,0.768c-1.307,0.674-2.302,1.902-2.506,3.377c-0.204,1.481,0.364,2.974,1.374,4.056
						c1.22,1.306,2.894,1.84,4.614,2.085c0.514,0.073,0.757-0.688,0.221-0.802c-1.499-0.32-3.144-1.103-4.014-2.418
						c-0.763-1.152-0.987-2.8-0.038-3.916c1.092-1.283,2.876-1.507,4.458-1.458c0.119,0.004,0.239,0.017,0.359,0.023
						c0.099,0.051,0.216,0.062,0.321,0.02c0.669,0.042,1.339,0.106,1.995,0.232c0.406,0.078,0.824,0.126,1.222,0.233
						c0.437,0.117,0.896,0.383,1.352,0.322C473.682,163.736,474.025,163.322,473.769,162.888z"/>
					<path d="M461.724,159.582c-0.312-0.8-0.687-1.541-1.176-2.248c-0.931-1.345-2.118-2.465-3.653-3.078
						c-3.048-1.218-6.873,0.189-8.193,3.24c-0.718,1.661-0.778,3.575,0.223,5.133c0.258,0.402,0.8,0.129,0.733-0.309
						c-0.247-1.612,0.028-3.372,1.035-4.687c0.955-1.247,2.479-1.867,4.032-1.791c1.533,0.076,2.828,1.006,3.721,2.205
						c0.504,0.676,0.889,1.437,1.294,2.174c0.4,0.728,0.745,1.505,1.44,2.005c0.312,0.225,0.801-0.007,0.884-0.36
						C462.247,161.088,462.006,160.303,461.724,159.582z"/>
					<path d="M486.628,153.141c-0.023-0.887,0.045-1.751,0.248-2.642c0.387-1.695,1.139-3.312,2.477-4.641
						c2.658-2.639,7.276-3.27,9.989-1.145c1.478,1.157,2.376,2.875,2.01,4.8c-0.095,0.497-0.781,0.518-0.902,0.085
						c-0.446-1.596-1.503-3.065-3.132-3.762c-1.544-0.66-3.41-0.464-5.002,0.384c-1.571,0.837-2.519,2.335-2.93,3.878
						c-0.232,0.87-0.303,1.757-0.405,2.633c-0.101,0.865-0.122,1.747-0.63,2.552c-0.228,0.361-0.842,0.395-1.082,0.114
						C486.739,154.778,486.649,153.94,486.628,153.141z"/>
					<path style="fill:#C83A2E;" d="M488.886,167.088c-3.948-0.263-5.992,2.911-12.178,5.172c-6.186,2.261-10.732,1.94-11.149,3.402
						c-0.967,3.387,7.125,8.513,16.069,6.009C490.573,179.168,492.835,167.351,488.886,167.088z"/>
					<path style="fill:#FF582C;" d="M482.537,173.396c-2.491,2.438-4.699,5.545-5.792,8.941c1.562,0.005,3.208-0.196,4.884-0.665
						c6.99-1.957,9.898-9.601,8.952-12.974C487.697,168.72,484.356,171.616,482.537,173.396z"/>
					<path style="fill:#FFEDBD;" d="M456.627,134.418c-0.241-1.349-1.3-2.426-2.524-2.962c-1.446-0.633-3.02-0.471-4.446,0.143
						c-2.662,1.146-4.848,3.564-6.168,6.101c-1.376,2.645-2.229,5.922-1.345,8.846c0.03,0.919,1.474,1.516,2.139,0.524
						c1.702-2.535,3.973-4.656,6.626-6.167c1.375-0.783,2.878-1.337,4.089-2.384C456.161,137.514,456.904,135.965,456.627,134.418z"
						/>
					<path style="fill:#D5311D;" d="M497.262,170.716c-0.512-1.111-1.578-2.185-2.481-2.999c-0.972-0.876-2.02-1.674-3.123-2.377
						c-2.216-1.411-4.662-2.432-7.252-2.893c-0.631-0.112-0.902,0.784-0.269,0.974c2.369,0.711,4.662,1.711,6.733,3.07
						c1.022,0.67,1.983,1.425,2.875,2.26c0.433,0.405,0.878,0.792,1.292,1.217c0.458,0.471,0.862,0.991,1.373,1.405
						C496.893,171.764,497.526,171.29,497.262,170.716z"/>
					<path style="fill:#D5311D;" d="M461.861,170.28c-0.402,0.225-0.605,0.656-0.825,1.046c-0.235,0.416-0.424,0.848-0.601,1.291
						c-0.347,0.87-0.62,1.765-0.802,2.683c-0.185,0.929-0.316,1.884-0.325,2.832c-0.008,0.929-0.013,1.927,0.325,2.8
						c0.28,0.723,1.221,0.578,1.313-0.178c0.106-0.867,0-1.747,0.048-2.622c0.046-0.83,0.117-1.655,0.272-2.473
						c0.157-0.831,0.365-1.656,0.634-2.458c0.129-0.386,0.277-0.766,0.413-1.15c0.147-0.416,0.408-0.848,0.374-1.298
						C462.657,170.342,462.244,170.065,461.861,170.28z"/>
					<path style="fill:#D5311D;" d="M511.439,149.64c-0.423-0.319-1.071-0.361-1.576-0.474c-0.162-0.036-0.339-0.058-0.496-0.111
						c-0.119-0.04-0.229-0.111-0.357-0.139c-0.298-0.065-0.618-0.073-0.921-0.106c-1.121-0.123-2.235-0.268-3.364-0.24
						c-0.68,0.017-0.815,0.983-0.16,1.182c1.081,0.328,2.193,0.485,3.306,0.666c0.298,0.048,0.614,0.128,0.916,0.143
						c0.134,0.006,0.251-0.028,0.381-0.039c0.143-0.012,0.301,0.015,0.444,0.022c0.535,0.027,1.204,0.167,1.713-0.035
						C511.725,150.351,511.777,149.895,511.439,149.64z"/>
					<path style="fill:#D5311D;" d="M511.306,143.824c-0.31-0.065-0.585-0.017-0.893,0.027c-0.288,0.042-0.579,0.032-0.861,0.104
						c-0.513,0.132-1.018,0.307-1.525,0.46c-1.06,0.32-2.106,0.675-3.128,1.099c-0.652,0.27-0.416,1.175,0.292,1.06
						c1.091-0.177,2.167-0.424,3.236-0.708c0.512-0.137,1.03-0.261,1.539-0.41c0.294-0.086,0.552-0.26,0.833-0.382
						c0.266-0.115,0.512-0.214,0.726-0.418C511.786,144.407,511.673,143.901,511.306,143.824z"/>
					<path style="fill:#D5311D;" d="M446.341,161.243c-0.318-0.144-0.639-0.25-0.972-0.355c-0.297-0.093-0.593-0.202-0.895-0.277
						c-0.066-0.021-0.135-0.032-0.205-0.033c-0.072-0.009-0.087,0-0.045,0.027c-0.057,0.004-0.15-0.027-0.206-0.037l-0.48-0.086
						c-0.336-0.06-0.736-0.2-1.063-0.079c-0.3,0.111-0.402,0.449-0.184,0.695c0.233,0.263,0.632,0.327,0.957,0.432
						c0.154,0.05,0.308,0.099,0.462,0.149c0.062,0.02,0.143,0.031,0.198,0.064c-0.043-0.001-0.033,0.012,0.033,0.039
						c0.059,0.036,0.122,0.06,0.188,0.072c0.301,0.08,0.617,0.12,0.922,0.178c0.345,0.065,0.682,0.129,1.033,0.151
						c0.219,0.014,0.431-0.167,0.487-0.371C446.628,161.613,446.542,161.333,446.341,161.243z"/>
					<path style="fill:#D5311D;" d="M446.835,163.751c-0.085-0.194-0.318-0.338-0.535-0.262c-0.91,0.318-1.794,0.673-2.648,1.122
						c-0.211,0.111-0.435,0.211-0.63,0.349c-0.185,0.131-0.361,0.262-0.552,0.387c-0.414,0.27-0.746,0.585-1.096,0.93
						c-0.212,0.21,0.01,0.523,0.275,0.472c0.477-0.092,0.907-0.186,1.358-0.372c0.205-0.085,0.412-0.151,0.62-0.225
						c0.233-0.084,0.455-0.222,0.674-0.337c0.829-0.436,1.596-0.944,2.35-1.496C446.831,164.184,446.932,163.972,446.835,163.751z"
						/>
				</g>
			</g>
		</g>
		<g>
			<rect x="74.3" y="428.753" style="fill:#A43B04;" width="601.4" height="24.493"/>
			<rect x="65.69" y="374.61" style="fill:#DC7942;" width="618.62" height="41.79"/>
			<rect x="65.686" y="416.396" style="fill:#C35B19;" width="618.628" height="19.29"/>
			<g>
				<path style="fill:#FF945A;" d="M151.2,416.4h-1.36c-0.88-1.37-1.92-2.64-3.09-3.77c-5.17-4.98-12.24-7.35-19.08-8.95
					c-7.75-1.81-15.67-2.9-23.62-3.31c-7.97-0.41-15.98-0.14-23.91,0.83c-3.99,0.49-7.96,1.15-11.9,1.97
					c-0.85,0.18-1.7,0.36-2.55,0.56v-0.94c5.85-1.42,11.81-2.42,17.81-3.02c8.21-0.82,16.5-0.9,24.73-0.24
					c7.95,0.65,15.99,1.87,23.67,4.07c6.74,1.93,13.57,5.04,17.92,10.76C150.31,415,150.77,415.69,151.2,416.4z"/>
				<path style="fill:#FF945A;" d="M186.24,416.4h-2.4c-0.49-0.32-0.98-0.66-1.46-1c-5.87-4.13-11.4-8.73-17.4-12.68
					c-5.96-3.91-12.4-6.98-19.17-9.19c-13.74-4.47-28.36-5.53-42.71-4.68c-7.97,0.47-15.87,1.53-23.74,2.83
					c-4.57,0.76-9.12,1.68-13.67,2.56V393c14.02-2.89,28.23-5.26,42.55-5.67c14.1-0.4,28.46,1.25,41.72,6.26
					c6.58,2.49,12.71,5.84,18.47,9.88c5.93,4.16,11.51,8.79,17.56,12.77C186.07,416.29,186.16,416.35,186.24,416.4z"/>
				<path style="fill:#FF945A;" d="M289.72,398.26c-1.49,3.45-6.38,4.16-9.57,4.9c-19.13,4.46-39.19,4.83-58.49,1.17
					c-9.77-1.85-19.25-4.82-28.44-8.58c-9.31-3.81-18.33-8.25-27.53-12.31c-7.88-3.47-15.92-6.64-24.25-8.83h3.59
					c7.81,2.31,15.43,5.42,22.73,8.66c8.79,3.9,17.44,8.12,26.37,11.72c8.74,3.53,17.74,6.33,27,8.14
					c18.48,3.6,37.7,3.47,56.12-0.46c2.19-0.46,4.39-0.94,6.54-1.57c1.61-0.48,3.46-1.18,4.5-2.58c2.74-3.69-2.82-6.38-5.55-7.27
					c-8.9-2.91-18.36-4.02-27.69-3.34c-4.67,0.34-9.3,1.14-13.82,2.39c-1.94,0.53-4.17,1-5.82,2.22c-1.63,1.2-1.62,3.1,0.08,4.21
					c1.69,1.1,3.85,1.29,5.79,1.51c2.34,0.25,4.7,0.35,7.05,0.28c4.76-0.14,9.52-0.97,14.1-2.26c0.44-0.12,0.61,0.53,0.19,0.69
					c-2.32,0.85-4.69,1.54-7.12,1.97c-4.8,0.83-9.71,0.99-14.55,0.44c-2.8-0.32-8.35-1.04-7.98-5.05c0.16-1.71,1.64-2.85,3.09-3.54
					c1.97-0.93,4.19-1.46,6.3-1.99c4.63-1.18,9.39-1.89,14.17-2.14c4.89-0.25,9.8-0.01,14.64,0.71c4.58,0.67,9.38,1.66,13.66,3.46
					C287.71,392.01,291.25,394.7,289.72,398.26z"/>
				<path style="fill:#FF945A;" d="M356.23,416.4h-3.21c-5.64-2.04-11.1-4.58-16.29-7.59c-7.08-4.12-13.62-9.1-20.45-13.6
					c-7.01-4.62-14.36-8.5-22.45-10.85c-7.99-2.31-16.31-3.29-24.61-3.57c-16.57-0.57-33.06,1.65-49.62,1.92
					c-15.4,0.24-30.89-1.29-44.85-8.1h0.8c1.09,0.5,2.19,0.95,3.3,1.38c15.24,5.81,31.74,6.34,47.85,5.62
					c16.4-0.72,32.81-2.73,49.24-1.35c7.99,0.68,15.94,2.15,23.47,4.95c7.61,2.84,14.49,7.13,21.17,11.69
					c6.67,4.56,13.22,9.31,20.38,13.06C345.86,412.53,350.97,414.68,356.23,416.4z"/>
				<path style="fill:#FF945A;" d="M364.5,383.3c-1.88-1.62-1.99-4.17-0.59-6.13c0.74-1.03,1.69-1.85,2.73-2.56h2.35
					c-0.75,0.42-1.46,0.88-2.14,1.39c-1.83,1.37-3.81,3.88-1.88,6.02c1.52,1.69,4.24,2.2,6.35,2.72c2.3,0.57,4.64,0.98,7,1.21
					c9.36,0.93,18.94-0.68,27.54-4.45c4.13-1.81,8.07-4.12,11.64-6.89h1.87c-5.74,4.74-12.5,8.24-19.6,10.38
					c-9.29,2.79-19.33,3.26-28.77,0.94C368.78,385.39,366.27,384.83,364.5,383.3z"/>
				<path style="fill:#FF945A;" d="M443.93,374.61c-0.72,2.61-2.11,5.07-3.82,7.13c-3.56,4.26-8.5,7.39-13.31,10.04
					c-9.92,5.49-20.98,8.74-32.24,9.91c-11.39,1.19-22.93,0.17-34.01-2.71c-11.15-2.91-21.82-7.66-31.61-13.74
					c-4.87-3.03-9.52-6.39-13.97-10.02c-0.25-0.2-0.5-0.41-0.76-0.61h1.62c1.18,0.94,2.33,1.91,3.48,2.77
					c4.49,3.36,9.19,6.45,14.08,9.2c9.74,5.5,20.2,9.72,31.14,12.13c10.84,2.39,22.09,2.94,33.08,1.38
					c10.89-1.54,21.51-5.08,30.94-10.76c4.62-2.79,9.38-6.05,12.27-10.72c0.76-1.23,1.37-2.59,1.78-4H443.93z"/>
				<path style="fill:#FF945A;" d="M574.84,416.4h-1.54c-0.81-0.95-1.6-1.92-2.37-2.91c-3.15-4.03-6.13-8.25-9.85-11.81
					c-4.01-3.83-8.85-6.41-14.22-7.76c-10.68-2.67-22.11-1.1-32.87,0.18c-10.81,1.28-21.58,3.05-32.14,5.68
					c-14.42,3.59-28.36,8.89-40.9,16.62h-1.78c14.94-9.72,32.26-15.56,49.63-19.27c10.65-2.27,21.45-3.77,32.28-4.87
					c10.52-1.07,21.81-1.82,31.75,2.53c9.89,4.33,15.16,13.75,21.96,21.55C574.81,416.36,574.83,416.38,574.84,416.4z"/>
				<path style="fill:#FF945A;" d="M684.31,398.73v1.18c-10.1,1.75-19.46,6.19-28.47,11.02c-3.32,1.78-6.67,3.64-10.07,5.47h-2.47
					c7.74-4.16,15.38-8.61,23.28-12.11C672.28,401.76,678.21,399.78,684.31,398.73z"/>
				<path style="fill:#FF945A;" d="M684.31,388.05v0.65c-0.23-0.02-0.47-0.02-0.7-0.03c-10.02-0.26-19.59,3.03-28.92,6.3
					c-8.78,3.08-17.77,6.13-27.17,6.23c-8.16,0.09-17.75-2.36-22.45-9.62c-1.02-1.58-1.7-3.37-1.92-5.24
					c-0.25-2.16,0.23-4.31,1.08-6.29c0.85-1.97,2.04-3.8,3.46-5.44h1.61c-2.5,2.66-4.69,6.03-5,9.69c-0.33,3.94,1.79,7.45,4.68,9.97
					c6.47,5.66,15.96,6.44,24.13,5.4c9.19-1.16,17.82-4.63,26.55-7.52C667.56,389.53,675.96,387.25,684.31,388.05z"/>
				<path style="fill:#FF945A;" d="M584.31,374.61c-6.06,5.6-15.06,7.39-23.1,7.1c-5.9-0.22-11.71-1.45-17.48-2.58
					c-5.97-1.16-11.96-2.2-18.06-2.14c-11.59,0.12-22.8,3.43-33.98,6.09c-5.55,1.32-11.15,2.5-16.83,3.1
					c-2.75,0.29-5.57,0.51-8.33,0.36c-2.43-0.14-4.92-0.68-6.81-2.3c-2.77-2.39-3.04-6.33-1.85-9.63h1.37
					c-0.21,0.47-0.37,0.97-0.5,1.5c-0.48,2.02-0.34,4.27,0.83,6.03c1.32,1.97,3.71,2.78,5.96,3.03c2.63,0.29,5.34,0.09,7.97-0.14
					c2.75-0.24,5.48-0.63,8.2-1.12c5.51-0.98,10.94-2.35,16.37-3.68c10.68-2.62,21.61-5.16,32.69-4.3
					c11.23,0.88,22.14,4.96,33.48,4.68c6.64-0.16,13.63-1.86,18.84-6H584.31z"/>
			</g>
		</g>
		<g>
			<g>
				<ellipse style="opacity:0.25;fill:#A43B04;" cx="261.437" cy="393.884" rx="58.218" ry="7.93"/>
				<ellipse style="fill:#FBC1B8;" cx="261.437" cy="389.988" rx="58.218" ry="9.702"/>
				<ellipse style="fill:#FFFFFF;" cx="261.437" cy="388.903" rx="58.218" ry="8.617"/>
				<path style="opacity:0.4;fill:#FBC1B8;" d="M297.444,388.457c0,1.949-16.121,3.529-36.007,3.529
					c-19.886,0-36.007-1.58-36.007-3.529c0-1.949,16.121-3.529,36.007-3.529C281.323,384.927,297.444,386.507,297.444,388.457z"/>
			</g>
			<g>
				<path style="fill:#B89E00;" d="M244.315,388.244c-2.399-0.309-4.958-0.964-6.479-2.844c-1.711-2.116-1.609-5.147-1.127-7.825
					c1.641-9.117,6.603-17.295,12.178-24.694c1.487-1.974,3.143-3.999,5.46-4.861c2.297-0.855,4.93-0.401,7.096,0.746
					c2.165,1.147,3.928,2.926,5.518,4.791c5.282,6.195,8.999,13.559,12.274,21.012c0.744,1.693,1.474,3.417,1.745,5.246
					c0.394,2.66-0.363,5.713-3.096,6.774c-1.117,0.434-2.333,0.526-3.528,0.614c-5.2,0.381-10.401,0.762-15.601,1.143
					c-2.486,0.182-5.042,0.533-7.522,0.442C248.951,388.704,246.6,388.244,244.315,388.244z"/>
				<path style="fill:#E6E000;" d="M290.937,346.896c-2.637-0.509-5.485-0.329-8.157-0.271c-2.917,0.064-5.833,0.263-8.738,0.524
					c-2.747,0.247-5.487,0.549-8.216,0.941c-1.179,0.17-2.357,0.354-3.533,0.55c0.568-0.403,1.124-0.823,1.668-1.253
					c1.917-1.515,4.105-3.344,5.148-5.608c0.502-1.089,0.711-2.414,0.031-3.481c-0.593-0.931-1.704-1.43-2.789-1.399
					c-2.487,0.07-4.558,2.161-5.918,4.049c-0.836,1.161-1.489,2.408-1.961,3.721c-0.024-0.095-0.043-0.191-0.068-0.285
					c-0.357-1.342-0.855-2.659-1.521-3.879c-1.151-2.109-3.069-4.381-5.438-5.136c-2.63-0.839-4.276,1.61-4.275,3.962
					c0.001,2.469,1.19,4.85,2.911,6.576c1.942,1.947,4.412,2.887,7.033,3.415c-0.042,0.022-0.084,0.043-0.126,0.065
					c-3.659-0.772-7.449-0.966-11.174-1.087c-4.13-0.135-8.541-0.199-12.604,0.651c-0.638,0.133-0.436,1.029,0.145,1.074
					c4.116,0.324,8.327,0.06,12.458,0.141c3.869,0.076,7.737,0.414,11.606,0.398c0.079,0.017,0.158,0.009,0.237,0.019
					c-0.446,3.36-0.452,6.851-0.386,10.196c0.074,3.746,0.43,7.498,1.314,11.145c0.115,0.477,0.245,0.964,0.382,1.456
					c-0.424,0.438-0.849,0.871-1.274,1.295c-0.399,0.398-0.81,0.783-1.217,1.172c-0.664-0.824-1.302-1.656-1.909-2.492
					c-3.859-5.306-6.629-11.208-8.723-17.404c-0.122-0.361-0.652-0.217-0.571,0.158c1.42,6.574,4.476,12.798,8.437,18.206
					c0.59,0.805,1.212,1.607,1.851,2.403c-0.137,0.126-0.278,0.247-0.416,0.373c-0.64-0.715-1.261-1.447-1.849-2.207
					c-3.919-5.062-6.417-10.916-7.988-17.09c-0.088-0.346-0.688-0.286-0.641,0.087c0.93,7.429,4.49,14.411,9.547,20.044
					c-1.549,1.363-3.149,2.67-4.807,3.897c-3.011,2.229-6.133,4.405-9.819,5.309c-0.38,0.093-0.312,0.75,0.095,0.701
					c0.36-0.044,0.711-0.119,1.062-0.196c-0.171,0.156-0.142,0.514,0.119,0.551c1.508,0.211,3.173-0.347,4.625-0.716
					c1.739-0.441,3.454-0.979,5.132-1.612c2.747-1.035,5.366-2.332,7.92-3.763c2.699,2.271,5.654,4.203,8.772,5.676
					c0.313,0.148,0.596,0.011,0.757-0.208c0.504,0.298,1.022,0.574,1.571,0.798c0.96,0.392,1.374-1.164,0.428-1.553
					c-3.075-1.263-5.186-4.212-6.766-7.013c-0.068-0.12-0.121-0.246-0.186-0.367c4.954-2.958,9.879-6.197,13.293-10.877
					c0.483-0.663-0.624-1.528-1.145-0.884c-3.512,4.344-8.139,7.447-12.875,10.328c-0.721-1.52-1.315-3.097-1.795-4.71
					c4.373-4.574,8.378-9.911,9.405-16.211c0.125-0.766-1.05-1.093-1.172-0.323c-0.934,5.905-4.552,10.918-8.578,15.273
					c-0.133-0.51-0.273-1.018-0.386-1.533c-0.768-3.497-1.079-7.077-1.158-10.652c-0.068-3.091,0.177-6.221,0.082-9.318
					c0.021-0.005,0.042-0.004,0.063-0.01c0.914-0.022,1.833-0.184,2.735-0.295c1.406-0.173,2.811-0.352,4.219-0.508
					c2.82-0.312,5.643-0.604,8.471-0.83c2.753-0.22,5.509-0.384,8.266-0.547c2.765-0.164,5.671-0.083,8.393-0.616
					C291.342,347.637,291.344,346.974,290.937,346.896z M249.183,340.752c-0.264-1.193-0.269-4.261,1.761-3.564
					c1.855,0.637,3.331,2.543,4.24,4.193c0.609,1.106,1.032,2.298,1.344,3.519c0.165,0.644,0.298,1.296,0.407,1.952
					c0.064,0.383,0.109,0.752,0.189,1.114C253.557,346.918,250.02,344.53,249.183,340.752z M250.501,384.421
					c-1.597,0.681-3.236,1.27-4.899,1.771c-0.652,0.196-1.355,0.339-2.058,0.495c2.15-0.983,4.139-2.415,6.016-3.763
					c1.851-1.329,3.634-2.75,5.359-4.238c0.763,0.809,1.563,1.582,2.385,2.329C255.096,382.265,252.831,383.427,250.501,384.421z
					 M258.438,380.355c-0.887-0.799-1.748-1.628-2.568-2.497c0.122-0.109,0.248-0.213,0.37-0.323
					c0.768,0.922,1.575,1.821,2.408,2.697C258.578,380.274,258.508,380.315,258.438,380.355z M262.927,382.467
					c-0.679-0.56-1.339-1.147-1.981-1.754c0.233-0.137,0.467-0.277,0.701-0.414C262.039,381.045,262.466,381.771,262.927,382.467z
					 M260.95,378.867c-0.391,0.235-0.783,0.47-1.174,0.704c-0.913-0.933-1.788-1.903-2.619-2.896
					c0.385-0.36,0.776-0.715,1.153-1.083c0.338-0.33,0.677-0.665,1.015-1.003C259.768,376.011,260.306,377.458,260.95,378.867z
					 M260.069,347.703c-0.357,0.227-0.723,0.425-1.088,0.627c0.049-0.345,0.039-0.686-0.003-1.029
					c0.44-1.443,1.057-2.844,1.839-4.122c1.003-1.64,2.327-3.282,4.065-4.174c0.748-0.384,1.88-0.708,2.583-0.051
					c0.65,0.606,0.116,1.694-0.243,2.313c-1.016,1.75-2.787,3.17-4.341,4.426C261.984,346.417,261.041,347.085,260.069,347.703z"/>
			</g>
		</g>
		<g>
			<path style="opacity:0.25;fill:#A43B04;" d="M203.219,385.962c0,5.27-11.191,9.543-30.459,9.543s-34.888-4.272-34.888-9.543
				c0-5.27,15.62-9.543,34.888-9.543S203.219,380.692,203.219,385.962z"/>
			<g>
				<path style="fill:#FFBB85;" d="M186.503,379.391c1.585,0.155,3.247,0.019,4.832-0.156c4.375-0.467,8.798-0.933,12.988-2.391
					c2.839-0.992,5.629-2.469,7.845-4.53c1.876-1.75,3.227-4.025,4.666-6.134c2.333-3.441,5.794-5.376,9.848-6.086
					c4.034-0.719,8.215-0.418,12.201-1.371c1.244-0.301,2.683-0.982,2.761-2.265c0.058-1.06-0.894-1.886-1.818-2.43
					c-0.165-0.097-0.321-0.185-0.486-0.272c-0.807-0.428-1.633-0.778-2.489-1.079c0.797,0.087,1.585,0.165,2.372,0.253
					c0.749,0.078,1.487,0.156,2.226,0.233c0.758,0.078,1.575,0.146,2.207-0.282c0.826-0.544,0.972-1.779,0.544-2.673
					c-0.253-0.544-0.661-0.982-1.147-1.342c-0.311-0.243-0.651-0.447-1.001-0.632c-0.71-0.389-1.449-0.69-2.207-0.943
					c0.36,0.029,0.729,0.049,1.089,0.078c0,0,0,0,0.01,0c1.351,0.107,2.712,0.204,4.064,0.301c0.447,0.039,0.962,0.039,1.254-0.292
					c0.437-0.476,0.087-1.244-0.321-1.75c-0.399-0.496-0.846-0.953-1.312-1.351c0-0.01-0.01-0.01-0.01-0.01
					c-0.612-0.525-1.273-0.992-1.983-1.39c0.175,0.097,0.71,0.049,1.128-0.058h0.01c0.233-0.058,0.428-0.126,0.515-0.204
					c1.769-1.536-5.493-5.143-6.436-5.619c-6.066-3.023-13.892-4.034-20.639-3.519c-4.054,0.301-8.117,1.439-11.578,3.616
					c-3.723,2.343-6.018,5.998-8.419,9.595c-0.836,1.244-1.662,2.498-2.528,3.723c-0.418,0.583-1.789,3.111-2.489,3.237
					c-4.034,0.729-8.497,0.642-10.975,0.778C180.563,362.68,183.149,372.187,186.503,379.391z"/>
				<path style="fill:#D5311D;" d="M220.8,353.668c1.682-0.34,3.257-1.001,4.968-1.254c1.662-0.253,3.364-0.282,5.036-0.185
					c2.897,0.185,5.716,0.865,8.535,1.526c-0.807-0.428-1.633-0.778-2.489-1.079c0.797,0.087,1.585,0.165,2.372,0.253
					c-2.79-0.875-5.697-1.439-8.603-1.604c-1.701-0.097-3.403-0.039-5.094,0.214c-1.653,0.243-3.568,0.603-4.948,1.604
					C220.314,353.337,220.469,353.736,220.8,353.668z"/>
				<path style="fill:#D5311D;" d="M221.169,345.716c3.898-0.243,7.632-0.36,11.501,0.379c3.51,0.671,6.961,1.75,10.383,2.771
					c-0.311-0.243-0.651-0.447-1.001-0.632c-0.71-0.389-1.449-0.69-2.207-0.943c0.36,0.029,0.729,0.049,1.089,0.078
					c-2.819-0.982-5.668-1.847-8.623-2.382c-3.626-0.661-7.68-1.011-11.199,0.311C220.897,345.375,220.917,345.735,221.169,345.716z
					"/>
				<path style="fill:#D5311D;" d="M222.132,338.25c1.867,0.33,3.782,0.321,5.658,0.544c2.012,0.233,3.996,0.612,5.95,1.118
					c3.84,1.011,7.33,2.654,10.878,4.355c-0.612-0.525-1.273-0.992-1.983-1.39c0.175,0.097,0.71,0.049,1.128-0.058
					c-2.994-1.818-6.406-3.033-9.741-3.918c-1.915-0.506-3.869-0.875-5.833-1.118c-1.993-0.253-4.073-0.467-6.057-0.078
					C221.86,337.763,221.86,338.201,222.132,338.25z"/>
			</g>
			<path style="fill:#FF5C4D;" d="M230.38,291.55c-16,7.42-25.43,26.63-29.09,44.51c-10.92,3.16-35.88,8.42-41.28,15.09
				c-0.15,0.19-0.28,0.37-0.4,0.56c-0.24,0.38-0.22,0.71,0.04,1c1.8,2.07,15.12,2.08,31.27-1c4.44,14.19,2.6,33.45,2.6,33.45
				c-41.06,10.33-62.82-0.03-73.64-8.43c-13.7-10.64-6.42-29.51,12.65-45.87c29.28-25.12,72.3-36.27,97.85-39.92
				C230.65,290.9,230.62,291.43,230.38,291.55z"/>
			<path style="fill:#D5311D;" d="M159.61,351.71c-0.24,0.38-0.22,0.71,0.04,1c-0.17,0.04-0.35-0.01-0.43-0.18
				c-1-2.02-1.6-4.17-1.88-6.41c-0.15-1.16-0.2-2.33-0.13-3.51c0.06-1.06,0.11-2.25,0.5-3.25c0.15-0.37,0.75-0.35,0.74,0.1
				c-0.02,1.09-0.26,2.17-0.29,3.27c-0.03,1.05,0,2.12,0.12,3.17c0.11,1.1,0.33,2.19,0.62,3.25c0.02-0.61,0.1-1.23,0.23-1.82
				c0.13-0.58,0.29-1.17,0.66-1.64c0.18-0.24,0.65-0.04,0.61,0.25c-0.07,0.56-0.3,1.07-0.41,1.62c-0.12,0.53-0.18,1.07-0.19,1.61
				c0,0.55,0.04,1.08,0.14,1.62c0.02,0.12,0.05,0.24,0.07,0.36C159.86,351.34,159.73,351.52,159.61,351.71z"/>
		</g>
		<g>
			<ellipse style="opacity:0.25;fill:#A43B04;" cx="355.319" cy="385.962" rx="34.888" ry="9.543"/>
			<g>
				<path style="fill:#FFBB85;" d="M332.14,378.447c-1.585,0.156-3.247,0.02-4.832-0.155c-4.375-0.467-8.798-0.933-12.988-2.392
					c-2.839-0.992-5.629-2.469-7.845-4.53c-1.876-1.75-3.227-4.025-4.666-6.134c-2.333-3.441-5.794-5.376-9.848-6.086
					c-4.034-0.719-8.215-0.418-12.201-1.371c-1.244-0.301-2.683-0.982-2.761-2.265c-0.058-1.06,0.894-1.886,1.818-2.43
					c0.165-0.097,0.321-0.185,0.486-0.272c0.807-0.428,1.633-0.778,2.489-1.079c-0.797,0.087-1.585,0.165-2.372,0.253
					c-0.749,0.078-1.487,0.155-2.226,0.233c-0.758,0.078-1.575,0.146-2.207-0.282c-0.826-0.544-0.972-1.779-0.544-2.673
					c0.253-0.544,0.661-0.982,1.147-1.342c0.311-0.243,0.651-0.447,1.001-0.632c0.71-0.389,1.449-0.69,2.207-0.943
					c-0.36,0.029-0.729,0.049-1.089,0.078c0,0,0,0-0.01,0c-1.351,0.107-2.712,0.204-4.064,0.301
					c-0.447,0.039-0.962,0.039-1.254-0.292c-0.438-0.476-0.088-1.244,0.321-1.75c0.399-0.496,0.846-0.953,1.313-1.351
					c0-0.01,0.01-0.01,0.01-0.01c0.612-0.525,1.273-0.992,1.983-1.39c-0.175,0.097-0.71,0.049-1.128-0.058h-0.01
					c-0.233-0.058-0.428-0.126-0.515-0.204c-1.769-1.536,5.493-5.143,6.436-5.619c6.066-3.023,13.892-4.034,20.639-3.519
					c4.054,0.301,8.118,1.439,11.578,3.616c3.723,2.343,6.018,5.998,8.419,9.595c0.836,1.244,1.662,2.498,2.528,3.723
					c0.418,0.583,1.789,3.111,2.489,3.237c4.034,0.729,8.497,0.642,10.976,0.778C338.079,361.735,335.494,371.243,332.14,378.447z"
					/>
				<path style="fill:#D5311D;" d="M297.842,352.724c-1.682-0.34-3.257-1.001-4.968-1.254c-1.662-0.253-3.364-0.282-5.036-0.185
					c-2.897,0.185-5.716,0.865-8.535,1.526c0.807-0.428,1.633-0.778,2.489-1.079c-0.797,0.087-1.585,0.165-2.372,0.253
					c2.79-0.875,5.697-1.439,8.604-1.604c1.701-0.097,3.402-0.039,5.094,0.214c1.653,0.243,3.568,0.603,4.948,1.604
					C298.328,352.393,298.173,352.792,297.842,352.724z"/>
				<path style="fill:#D5311D;" d="M297.473,344.771c-3.898-0.243-7.631-0.36-11.501,0.379c-3.509,0.671-6.961,1.75-10.383,2.771
					c0.311-0.243,0.651-0.447,1.001-0.632c0.71-0.389,1.449-0.69,2.207-0.943c-0.36,0.029-0.729,0.049-1.089,0.078
					c2.819-0.982,5.668-1.847,8.623-2.382c3.626-0.661,7.68-1.011,11.199,0.311C297.745,344.431,297.725,344.791,297.473,344.771z"
					/>
				<path style="fill:#D5311D;" d="M296.51,337.305c-1.866,0.331-3.782,0.321-5.658,0.544c-2.012,0.233-3.995,0.612-5.95,1.118
					c-3.84,1.011-7.33,2.654-10.878,4.355c0.612-0.525,1.273-0.992,1.983-1.39c-0.175,0.097-0.71,0.049-1.128-0.058
					c2.994-1.818,6.407-3.033,9.741-3.918c1.915-0.506,3.869-0.875,5.833-1.118c1.993-0.253,4.073-0.467,6.056-0.078
					C296.783,336.819,296.783,337.257,296.51,337.305z"/>
			</g>
			<path style="fill:#FF5C4D;" d="M398.18,375.78c-10.82,8.41-32.58,18.76-73.65,8.43c0,0-1.84-19.26,2.6-33.44
				c15.56,2.97,28.5,3.07,31.03,1.22c0.48-0.34,0.59-0.75,0.29-1.22c-0.12-0.19-0.25-0.37-0.4-0.56
				c-5.4-6.67-30.37-11.93-41.28-15.09c-3.66-17.88-13.09-37.09-29.09-44.52c-0.25-0.11-0.27-0.65,0-0.61
				c25.55,3.66,68.57,14.81,97.85,39.92C404.6,346.27,411.88,365.14,398.18,375.78z"/>
			<path style="fill:#D5311D;" d="M360.81,347.95c-0.23,1.59-0.87,3.73-2.65,4.04c0.48-0.34,0.59-0.75,0.29-1.22
				c-0.12-0.19-0.25-0.37-0.4-0.56v-0.1c-0.01-0.39-0.05-0.76-0.14-1.14c-0.06-0.2-0.08-0.41-0.14-0.62
				c-0.06-0.19-0.15-0.38-0.19-0.57c-0.02-0.1-0.01-0.17-0.05-0.27c-0.04-0.09-0.09-0.18-0.13-0.27c-0.09-0.18-0.19-0.35-0.28-0.53
				c-0.09-0.19,0.12-0.5,0.33-0.33c0.37,0.28,0.59,0.67,0.9,0.99c0.17,0.18,0.26,0.46,0.35,0.68c0.08,0.21,0.18,0.42,0.22,0.65
				c0.06,0.33,0.09,0.68,0.1,1.02c0.26-0.75,0.46-1.56,0.53-2.35c0.08-0.83,0.05-1.67-0.08-2.49c-0.14-0.85-0.4-1.68-0.56-2.52
				c-0.07-0.39,0.44-0.82,0.75-0.44c0.65,0.81,1.02,1.91,1.17,2.92C360.98,345.88,360.97,346.92,360.81,347.95z"/>
		</g>
		<g>
			<g>
				<path style="fill:#FF5C4D;" d="M641.65,439.57c0.05,3.78-3.24,6.43-6.83,6.83c-0.05,0.01-0.08,0.02-0.12,0.03
					c-1.16,0.05-2.32,0.1-3.48,0.14c-4.03,0.16-8.05,0.28-12.07,0.36c-6.04,0.13-12.08,0.2-18.08,0.25
					c-3.92,0.04-7.83,0.05-11.75,0.05c-4.02,0-8.05-0.03-12.07-0.07c-9.94-0.08-19.89-0.26-29.83-0.45
					c-4.03-0.08-8.05-0.16-12.07-0.24c-3.79-0.08-7.58-0.15-11.37-0.22c-6.15-0.11-12.31-0.18-18.46-0.23
					c-4.03-0.04-8.05-0.07-12.07-0.09c-9.94-0.05-19.89-0.07-29.83-0.14c-4.02-0.02-8.05-0.05-12.07-0.09
					c-1.45-0.02-2.91-0.03-4.36-0.05c-8.5-0.11-16.98-0.48-25.47-0.61c-1.96-0.03-3.93-0.05-5.89-0.05c-2.07,0-4.12-0.05-6.17-0.16
					c-1.65-0.1-3.31-0.23-4.96-0.42c-0.14-0.02-0.3-0.04-0.47-0.05c-1.81-0.85-3.32-2.03-4.15-4.05c-0.14-0.33-0.24-0.66-0.32-1.01
					c-0.16-0.64-0.24-1.3-0.31-1.96c-0.11-2.33-0.18-4.78-0.21-7.19c-0.08-6.27,0.09-12.22,0.56-14.77
					c0.01-0.07,0.03-0.14,0.04-0.21c0.03-0.14,0.1-0.33,0.2-0.56c0.4-0.97,1.38-2.69,2.76-4.9c2.08-3.33,5.06-7.78,8.35-12.42
					c1.04-1.48,2.12-2.98,3.21-4.47c2.56-3.5,5.18-6.94,7.6-9.94c1.06-1.31,2.07-2.53,3.03-3.63c3.03-3.5,5.47-5.82,6.65-5.95
					c0.45-0.05,2.98-0.07,7.2-0.07c2.43,0,5.4,0.01,8.87,0.02h0.01c5.99,0.02,13.43,0.05,21.93,0.09c2.85,0.01,5.82,0.02,8.89,0.04
					c6.86,0.03,14.24,0.06,21.99,0.08c2.92,0.01,5.89,0.02,8.9,0.03c7.13,0.02,14.51,0.04,22.02,0.05c2.95,0,5.92,0.01,8.91,0
					c7.3,0.01,14.68,0.01,22.03-0.01h1.78c2.38-0.01,4.75-0.01,7.12-0.02c7.41-0.03,14.76-0.06,21.96-0.1
					c2.99-0.02,5.95-0.03,8.87-0.05c2.41-0.01,4.79-0.03,7.14-0.04c2.79,1.46,5.47,3.57,7.95,5.93c1.22,1.17,2.4,2.39,3.52,3.63
					c2.31,2.56,4.38,5.16,6.1,7.34c0.68,0.86,1.34,1.73,1.98,2.6c1.09,1.47,2.12,2.96,3.09,4.47c2.53,3.95,4.62,8.04,6.16,12.42
					c0.6,1.7,1.1,3.44,1.52,5.24v0.01l0.01,0.01c0.01,0.05,0.02,0.09,0.03,0.14c0.01,0.03,0.02,0.07,0.03,0.1
					c0.01,0.06,0.03,0.11,0.04,0.17c0.17,0.71,0.32,1.42,0.45,2.14c0.16,0.87,0.3,1.75,0.42,2.65c0.44,3.31,0.7,6.64,0.85,9.98
					c0.09,1.73,0.14,3.46,0.18,5.19c-0.11,1.27,0.02,2.52,0.05,3.96C641.65,439.39,641.65,439.48,641.65,439.57z"/>
				<g>
					<g>
						<g style="opacity:0.57;">
							<path style="fill:#FFFFFF;" d="M478.54,373.38l-2.09,5.87l-1.29,3.63l-3.53,9.94l-1.58,4.47l-4.42,12.42l-2.01,5.67h-12.07
								l2.44-5.67l5.35-12.42l1.92-4.47l4.28-9.94l1.57-3.63l2.54-5.91C472.5,373.35,475.47,373.36,478.54,373.38z"/>
							<path style="fill:#FFFFFF;" d="M447.71,373.25l-3.7,6l-2.24,3.63l-6.13,9.94l-2.76,4.47l-7.66,12.42l-3.5,5.67h-12.06
								l0.35-0.5l3.58-5.17l8.59-12.42l3.1-4.47l6.88-9.94l2.51-3.63l4.17-6.02C441.27,373.23,444.24,373.24,447.71,373.25z"/>
							<path style="fill:#FFFFFF;" d="M509.43,373.49l-0.54,5.76l-0.34,3.63l-0.93,9.94l-0.41,4.47l-1.16,12.42l-0.53,5.67h-12.07
								l0.96-5.67l2.09-12.42l0.76-4.47l1.67-9.94l0.62-3.63l0.98-5.79C503.45,373.47,506.42,373.48,509.43,373.49z"/>
							<path style="fill:#FFFFFF;" d="M547.42,415.38h-12.07l-0.53-5.67l-1.15-12.42l-0.42-4.47l-0.93-9.94l-0.34-3.63l-0.53-5.71
								c2.95,0,5.92,0.01,8.91,0l0.96,5.71l0.62,3.63l1.67,9.94l0.76,4.47l2.09,12.42L547.42,415.38z"/>
							<path style="fill:#FFFFFF;" d="M589.32,415.38h-12.07l-2.01-5.67l-4.42-12.42l-1.58-4.47l-3.53-9.94l-1.29-3.63l-2.03-5.72
								h1.78c2.38-0.01,4.75-0.01,7.12-0.02l2.47,5.74l1.57,3.63l4.28,9.94l1.92,4.47l5.35,12.42L589.32,415.38z"/>
							<path style="fill:#FFFFFF;" d="M631.22,415.38h-12.07l-0.32-0.53l-3.18-5.14l-7.66-12.42l-2.76-4.47l-6.13-9.94l-2.24-3.63
								l-3.61-5.84c2.99-0.02,5.95-0.03,8.87-0.05l4.08,5.89l2.51,3.63l6.89,9.94l3.09,4.47l8.6,12.42l3.28,4.73L631.22,415.38z"/>
						</g>
						<g style="opacity:0.24;">
							<path style="fill:#FFFFFF;" d="M620.73,382.88H421.96c1.06-1.31,2.07-2.53,3.03-3.63h192.22
								C618.43,380.42,619.61,381.64,620.73,382.88z"/>
							<path style="fill:#FFFFFF;" d="M631.9,397.29H411.15c1.04-1.48,2.12-2.98,3.21-4.47h214.45
								C629.9,394.29,630.93,395.78,631.9,397.29z"/>
							<path style="fill:#FFFFFF;" d="M639.69,415.38H399.8c0.01-0.07,0.03-0.14,0.04-0.21c0.03-0.14,0.1-0.33,0.2-0.56
								c0.4-0.97,1.38-2.69,2.76-4.9h235.26c0.6,1.7,1.1,3.44,1.52,5.24v0.01l0.01,0.01c0.01,0.05,0.02,0.09,0.03,0.14
								c0.01,0.03,0.02,0.07,0.03,0.1C639.66,415.27,639.68,415.32,639.69,415.38z"/>
						</g>
					</g>
					<g>
						<g style="opacity:0.57;">
							<path style="fill:#FFFFFF;" d="M463.62,415.38v30.41c-4.02-0.02-8.05-0.05-12.07-0.09v-30.32H463.62z"/>
							<path style="fill:#FFFFFF;" d="M421.72,415.38v29.66c-1.96-0.03-3.93-0.05-5.89-0.05c-2.07,0-4.12-0.05-6.17-0.16v-29.45
								H421.72z"/>
							<path style="fill:#FFFFFF;" d="M505.52,415.38v30.64c-4.03-0.04-8.05-0.07-12.07-0.09v-30.55H505.52z"/>
							<path style="fill:#FFFFFF;" d="M547.42,415.38v31.33c-4.03-0.08-8.05-0.16-12.07-0.24v-31.09H547.42z"/>
							<path style="fill:#FFFFFF;" d="M589.32,415.38v31.85c-4.02,0-8.05-0.03-12.07-0.07v-31.78H589.32z"/>
							<path style="fill:#FFFFFF;" d="M631.22,415.38v31.19c-4.03,0.16-8.05,0.28-12.07,0.36v-31.55H631.22z"/>
						</g>
						<g style="opacity:0.24;">
							<path style="fill:#FFFFFF;" d="M641.64,439.3H399.76c-0.16-0.64-0.24-1.3-0.31-1.96c-0.11-2.33-0.18-4.78-0.21-7.19h242.17
								c0.09,1.73,0.14,3.46,0.18,5.19C641.48,436.61,641.61,437.86,641.64,439.3z"/>
						</g>
					</g>
				</g>
				<path style="opacity:0.47;fill:#FF5C4D;" d="M641.65,439.57c0.05,3.78-3.24,6.43-6.83,6.83c-0.05,0.01-0.08,0.02-0.12,0.03
					c-1.16,0.05-2.32,0.1-3.48,0.14c-4.03,0.16-8.05,0.28-12.07,0.36c-6.04,0.13-12.08,0.2-18.08,0.25
					c-3.92,0.04-7.83,0.05-11.75,0.05c-4.02,0-8.05-0.03-12.07-0.07c-9.94-0.08-19.89-0.26-29.83-0.45
					c-4.03-0.08-8.05-0.16-12.07-0.24c-3.79-0.08-7.58-0.15-11.37-0.22c-6.15-0.11-12.31-0.18-18.46-0.23
					c-4.03-0.04-8.05-0.07-12.07-0.09c-9.94-0.05-19.89-0.07-29.83-0.14c-4.02-0.02-8.05-0.05-12.07-0.09
					c-1.45-0.02-2.91-0.03-4.36-0.05c-8.5-0.11-16.98-0.48-25.47-0.61c-1.96-0.03-3.93-0.05-5.89-0.05c-2.07,0-4.12-0.05-6.17-0.16
					c-1.65-0.1-3.31-0.23-4.96-0.42c-0.14-0.02-0.3-0.04-0.47-0.05c-1.81-0.85-3.32-2.03-4.15-4.05c-0.14-0.33-0.24-0.66-0.32-1.01
					c-0.16-0.64-0.24-1.3-0.31-1.96c-0.11-2.33-0.18-4.78-0.21-7.19c-0.08-6.27,0.09-12.22,0.56-14.77
					c0.01-0.07,0.03-0.14,0.04-0.21c0.03-0.14,0.1-0.33,0.2-0.56c1.99-0.34,4.34-0.04,6.12,0.03c0.45,0.02,1.77,0.1,3.85,0.24
					c1.96,0.13,4.59,0.3,7.79,0.5c1.22,0.08,2.53,0.16,3.92,0.25c7.79,0.47,18.06,1.05,29.83,1.57c3.87,0.18,7.91,0.35,12.07,0.5
					c9.42,0.36,19.5,0.66,29.83,0.83c3.99,0.07,8.03,0.12,12.07,0.14c4.36,0.03,8.74,0.04,13.11,0.01
					c5.46-0.03,11.07-0.12,16.72-0.25c4.01-0.09,8.04-0.21,12.07-0.34c10.13-0.33,20.23-0.75,29.83-1.2
					c4.13-0.2,8.17-0.39,12.07-0.58c6.54-0.33,12.71-0.65,18.35-0.93c4.02-0.2,7.76-0.38,11.16-0.53c4.57-0.2,8.54-0.34,11.74-0.41
					c5.53-0.12,8.8,0.01,9.01,0.51v0.01l0.01,0.01c0.01,0.05,0.02,0.09,0.03,0.14c0.01,0.03,0.02,0.07,0.03,0.1
					c0.01,0.05,0.02,0.11,0.03,0.17c0.17,0.7,0.32,1.42,0.46,2.14c0.16,0.87,0.3,1.75,0.42,2.65c0.44,3.31,0.7,6.64,0.85,9.98
					c0.09,1.73,0.14,3.46,0.18,5.19c-0.11,1.27,0.02,2.52,0.05,3.96C641.65,439.39,641.65,439.48,641.65,439.57z"/>
			</g>
			<g>
				<ellipse style="opacity:0.25;fill:#A43B04;" cx="545.661" cy="402.608" rx="93.018" ry="7.102"/>
				<path style="fill:#FBCFA9;" d="M637.61,351.83c-0.4,16.44-0.97,32.89-1.71,49.34c-0.04,1-0.8,1.81-1.79,1.92
					c-1.73,0.2-3.46,0.39-5.19,0.57c-4.27,0.45-8.54,0.87-12.81,1.25c-8.42,0.76-16.86,1.38-25.3,1.86
					c-4.28,0.25-8.57,0.46-12.86,0.63c-8.46,0.35-16.92,0.55-25.38,0.62c-4.29,0.04-8.59,0.04-12.88,0
					c-8.46-0.07-16.92-0.27-25.38-0.62c-4.29-0.17-8.58-0.38-12.86-0.63c-8.44-0.48-16.88-1.1-25.3-1.86
					c-4.27-0.38-8.54-0.8-12.81-1.25c-1.73-0.18-3.46-0.37-5.19-0.57c-0.99-0.11-1.75-0.92-1.79-1.92
					c-0.74-16.45-1.31-32.9-1.71-49.34c0-0.74,24.48-5.01,91.48-5.01C613.12,346.82,637.61,350.6,637.61,351.83z"/>
				<g style="opacity:0.4;">
					<path style="fill:#FBCFA9;" d="M476.15,404.91c-4.27-0.38-8.54-0.8-12.81-1.25c-1.55-15.63-3.08-31.27-4.63-46.89
						c4.5,0.53,9.01,1.02,13.53,1.47C473.54,373.8,474.85,389.35,476.15,404.91z"/>
					<path style="fill:#FBCFA9;" d="M633.55,356.77c-1.55,15.62-3.09,31.26-4.63,46.89c-4.27,0.45-8.54,0.87-12.81,1.25
						c1.3-15.56,2.61-31.11,3.91-46.67C624.53,357.79,629.04,357.3,633.55,356.77z"/>
					<path style="fill:#FBCFA9;" d="M593.3,359.48c-0.83,15.76-1.66,31.53-2.49,47.29c-4.28,0.25-8.57,0.46-12.86,0.63
						c0.59-15.73,1.18-31.45,1.77-47.18C584.25,360.02,588.77,359.77,593.3,359.48z"/>
					<path style="fill:#FBCFA9;" d="M552.93,360.22c-0.12,15.93-0.24,31.87-0.36,47.8c-4.29,0.04-8.59,0.04-12.88,0
						c-0.12-15.93-0.24-31.87-0.36-47.8C543.86,360.27,548.4,360.27,552.93,360.22z"/>
					<path style="fill:#FBCFA9;" d="M514.31,407.4c-4.29-0.17-8.58-0.38-12.86-0.63c-0.83-15.76-1.67-31.53-2.49-47.29
						c4.52,0.29,9.05,0.54,13.58,0.74C513.13,375.95,513.72,391.67,514.31,407.4z"/>
				</g>
				<path style="fill:#A43B04;" d="M636.443,373.458c-59.981,7.193-120.646,7.193-180.627,0c-1.064-0.128-1.988,0.729-1.938,1.799
					c0.09,1.909,0.184,3.818,0.279,5.728c0.043,0.847,0.692,1.544,1.535,1.644c60.068,7.121,120.806,7.121,180.875,0
					c0.842-0.1,1.492-0.796,1.534-1.643c0.096-1.909,0.189-3.819,0.279-5.728C638.431,374.186,637.507,373.33,636.443,373.458z"/>
				<path style="fill:#EC6F37;" d="M634.104,352.997c0,0.272-1.905,0.632-5.396,1.04c-12.405,1.448-44.875,3.422-82.983,3.422
					c-39.703,0-73.29-2.139-84.441-3.597c-2.557-0.34-3.937-0.632-3.937-0.865c0-0.204,1.108-0.457,3.189-0.729
					c10.315-1.322,44.554-3.179,85.19-3.179c37.797,0,70.053,1.604,82.681,2.907C632.091,352.365,634.104,352.715,634.104,352.997z"
					/>
				<path style="fill:#FFFFFF;" d="M628.708,354.037c-12.405,1.448-44.875,3.422-82.983,3.422c-39.703,0-73.29-2.139-84.441-3.597
					c-0.34-0.506-0.593-1.04-0.749-1.594c-0.943-3.189,1.118-6.737,5.298-6.027c1.993,0.34,3.733,1.585,5.143,3.033
					c-1.507-1.672-0.855-4.754,1.196-5.677c2.051-0.933,4.793,0.622,5.055,2.858c-0.379-7,5.376-13.766,12.346-14.514
					c6.97-0.739,14.028,4.676,15.127,11.588c3.753-3.208,8.944-4.676,13.834-3.898c1.118,0.185,2.372,0.622,2.897,1.546
					c3.957-2.042,9.712-0.593,11.666,3.548c3.218-1.38,7.262-0.535,9.673,2.012c0.593-4.452,4.229-8.331,8.633-9.226
					c4.404-0.885,9.255,1.273,11.53,5.152c1.76-3.072,5.347-4.997,8.876-4.754c3.529,0.243,6.825,2.625,8.147,5.911
					c2.703-0.768,5.794,0.117,7.68,2.197c0.243-5.016,4.608-9.498,9.615-9.877c4.997-0.379,9.994,3.393,10.985,8.312
					c1.128-1.614,3.442-2.265,5.25-1.497c1.798,0.778,2.917,2.907,2.518,4.832c2.382-0.262,4.802-0.525,7.126,0.019
					c2.285,0.535,4.482,1.993,5.279,4.19c0.019,0.039,0.039,0.088,0.049,0.126C628.66,352.754,628.737,353.396,628.708,354.037z"/>
			</g>
			<g>
				<ellipse style="opacity:0.25;fill:#A43B04;" cx="148.948" cy="402.46" rx="58.218" ry="7.931"/>
				<g>
					<ellipse style="fill:#FBC1B8;" cx="148.948" cy="398.945" rx="58.218" ry="9.702"/>
					<ellipse style="fill:#FFFFFF;" cx="148.948" cy="397.86" rx="58.218" ry="8.617"/>
					<path style="opacity:0.4;fill:#FBC1B8;" d="M184.955,397.414c0,1.949-16.121,3.529-36.008,3.529
						c-19.886,0-36.007-1.58-36.007-3.529c0-1.949,16.121-3.529,36.007-3.529C168.834,393.884,184.955,395.464,184.955,397.414z"/>
				</g>
				<g>
					<path style="fill:#B89E00;" d="M110.289,400.659c-2.47-0.242-4.952-0.872-6.485-2.795c-1.711-2.115-1.609-5.147-1.128-7.825
						c1.641-9.117,6.603-17.295,12.178-24.694c1.488-1.974,3.143-3.999,5.46-4.861c2.297-0.855,4.93-0.401,7.096,0.746
						c2.165,1.147,3.928,2.926,5.518,4.791c5.282,6.195,8.998,13.559,12.274,21.012c0.744,1.693,1.475,3.417,1.745,5.246
						c0.394,2.661-0.363,5.713-3.096,6.775c-2.34,0.909-5.361,0.768-7.842,1.028c-2.903,0.305-5.814,0.528-8.73,0.671
						c-4.451,0.219-8.911,0.249-13.365,0.091C112.792,400.803,111.542,400.781,110.289,400.659z"/>
					<path style="fill:#E6E000;" d="M138.442,374.724c-2.708,6.469-6.932,11.848-11.662,16.822c-0.489-0.61-0.981-1.218-1.447-1.847
						c0.796-1.041,1.587-2.088,2.353-3.152c1.86-2.584,3.628-5.234,5.299-7.944c1.58-2.563,3.629-5.319,3.948-8.39
						c0.075-0.723-1.083-0.733-1.139,0c-0.138,1.794-1.086,3.337-1.962,4.862c-0.721,1.255-1.462,2.497-2.223,3.728
						c-1.637,2.645-3.366,5.233-5.182,7.758c-0.557,0.774-1.139,1.531-1.713,2.293c-1.041-1.456-2.027-2.955-2.944-4.504
						c-3.381-5.711-5.541-11.894-7.383-18.24c-0.075-0.26-0.525-0.224-0.492,0.067c0.737,6.6,3.297,12.969,6.573,18.709
						c1.017,1.782,2.144,3.503,3.349,5.171c-1.03,1.336-2.081,2.655-3.161,3.951c-0.343,0.411-0.703,0.813-1.061,1.217
						c-1.466-1.14-2.854-2.394-4.126-3.813c-3.885-4.332-6.511-9.647-7.7-15.335c-0.15-0.717-1.247-0.414-1.099,0.303
						c1.575,7.603,5.952,14.867,12.104,19.768c-1.38,1.521-2.786,3.035-3.97,4.678c-0.213,0.296,0.225,0.549,0.465,0.359
						c1.571-1.246,2.988-2.794,4.329-4.379c0.361,0.268,0.728,0.527,1.1,0.779c-1.177,1.123-2.359,2.24-3.533,3.358
						c-0.244,0.232,0.115,0.577,0.365,0.365c1.276-1.082,2.552-2.183,3.819-3.304c2.542,1.623,5.323,2.861,8.295,3.583
						c0.419,0.102,0.555-0.476,0.174-0.63c-2.635-1.065-5.151-2.316-7.501-3.814c1.375-1.236,2.728-2.503,4.049-3.802
						c2.129,2.552,4.465,4.931,6.975,7.091c0.693,0.597,1.707-0.409,1.01-1.01c-2.529-2.176-4.847-4.553-6.96-7.102
						c5.002-5.07,9.404-10.693,12.167-17.29C139.842,374.347,138.725,374.048,138.442,374.724z M121.636,396.685
						c-0.415-0.277-0.837-0.543-1.24-0.838c0.507-0.614,1.006-1.226,1.5-1.82c0.858-1.033,1.693-2.084,2.521-3.142
						c0.436,0.581,0.898,1.143,1.355,1.709C124.419,393.98,123.035,395.341,121.636,396.685z"/>
				</g>
				<g>
					<path style="fill:#B89E00;" d="M199.361,386.278c-0.475-0.871-0.998-1.698-1.477-2.456c-2.766-4.38-5.687-8.665-8.823-12.789
						c-3.017-3.968-6.171-8.547-10.337-11.384c-2.464-1.678-5.48-0.683-7.506,1.049c-1.392,1.19-2.433,2.703-3.439,4.209
						c-4.43,6.632-8.532,13.578-10.749,21.188c-0.667,2.291-1.163,4.677-0.894,7.06c0.269,2.383,1.394,4.782,3.433,6.212
						c2.057,1.442,4.718,1.727,7.24,1.901c9.454,0.652,19.215,0.389,27.869-3.094c2.542-1.023,5.166-2.545,5.975-5.068
						C201.408,390.814,200.527,388.414,199.361,386.278z"/>
					<path style="fill:#E6E000;" d="M198.229,396.065c-3.527-3.471-7.216-6.784-11.024-9.949c0.738-0.914,1.446-1.857,2.121-2.821
						c0.421,0.564,0.859,1.115,1.341,1.629c1.095,1.169,2.727,2.668,4.373,2.885c0.392,0.052,0.582-0.52,0.317-0.765
						c-0.603-0.558-1.4-0.89-2.051-1.403c-0.702-0.553-1.374-1.154-1.989-1.803c-0.466-0.492-0.889-1.02-1.296-1.56
						c1.291-1.947,2.431-3.977,3.339-6.067c0.296-0.681-0.656-1.287-1.023-0.598c-1.007,1.889-1.984,3.762-3.09,5.576
						c-0.437-0.655-0.852-1.325-1.244-2.007c-0.498-0.867-0.975-1.747-1.447-2.629c1.63-1.153,3.217-2.361,4.736-3.645
						c0.664-0.562-0.297-1.519-0.956-0.956c-1.423,1.215-2.894,2.355-4.398,3.441c-0.234-0.441-0.467-0.882-0.703-1.321
						c-0.659-1.228-1.278-2.522-1.971-3.759c1.112-0.212,2.189-0.644,3.184-1.177c1.407-0.755,3.019-1.86,3.677-3.375
						c0.678-1.562-0.079-3.426-1.848-3.698c-1.665-0.256-3.161,0.943-4.285,2.026c-0.401,0.386-0.76,0.804-1.097,1.237
						c0.066-0.93,0.117-1.861,0.139-2.794c0.017-0.714-1.094-0.714-1.109,0c-0.021,1.016-0.081,2.029-0.158,3.04
						c-0.315-0.814-0.685-1.606-1.153-2.342c-1.09-1.714-2.677-3.263-4.81-3.388c-2.073-0.121-3.793,1.288-3.98,3.362
						c-0.186,2.068,1.186,3.849,2.903,4.827c1.059,0.603,2.225,0.953,3.412,1.2c0.848,0.177,1.739,0.32,2.623,0.33
						c-0.406,1.907-0.608,3.856-0.619,5.811c-0.358,1.422-0.763,2.832-1.229,4.224c-4.83-3.595-9.885-7.003-15.306-9.569
						c-0.275-0.13-0.486,0.231-0.238,0.407c4.787,3.397,9.718,6.563,14.468,10.003c-6.775,3.613-14.105,6.129-21.765,7.506
						c-0.555,0.1-0.309,0.91,0.23,0.835c7.61-1.063,15.029-3.526,21.869-7.087c-0.187,0.497-0.367,0.996-0.568,1.488
						c-1.336,3.284-2.982,6.444-4.894,9.429c-1.902,2.969-4.168,5.644-6.293,8.449c-0.209,0.276,0.221,0.549,0.453,0.35
						c2.748-2.362,4.937-5.383,6.884-8.419c1.895-2.956,3.514-6.082,4.859-9.325c0.284-0.684,0.538-1.379,0.793-2.073
						c0.514,0.383,1.026,0.767,1.534,1.158c0.022,0.099,0.038,0.2,0.06,0.299c0.487,2.127,1.188,4.202,2.07,6.197
						c-0.31,0.337-0.613,0.681-0.931,1.009c-4.17,4.31-9.059,7.858-14.434,10.512c-0.49,0.242-0.06,0.979,0.429,0.734
						c5.421-2.714,10.39-6.286,14.697-10.554c0.231-0.229,0.454-0.474,0.683-0.708c1.006,2.119,2.246,4.512,4.005,6.075
						c0.451,0.401,1.118-0.098,0.835-0.644c-1.072-2.066-2.53-3.907-3.549-6.021c-0.081-0.168-0.151-0.341-0.229-0.51
						c0.601-0.65,1.193-1.317,1.772-2c3.749,3.167,7.362,6.49,10.824,9.978C197.852,397.799,198.913,396.738,198.229,396.065z
						 M182.696,367.443c0.396-0.65,0.843-1.27,1.347-1.831c0.849-0.944,1.981-2.043,3.249-2.358c0.519-0.129,1.238-0.073,1.58,0.399
						c0.339,0.467,0.18,1.125-0.083,1.583c-0.313,0.545-0.822,0.968-1.324,1.332c-0.569,0.413-1.165,0.789-1.791,1.108
						c-0.987,0.504-2.046,0.816-3.115,1.093C182.616,368.328,182.649,367.885,182.696,367.443z M182.303,370.444
						c0.01-0.001,0.02-0.003,0.031-0.004c0.648,1.393,1.418,2.75,2.097,4.104c0.237,0.473,0.474,0.948,0.71,1.423
						c-1.146,0.803-2.319,1.56-3.505,2.293c-0.113-1.18-0.165-2.362-0.162-3.547C181.8,373.3,182.077,371.876,182.303,370.444z
						 M179.134,368.099c-0.902-0.213-1.792-0.484-2.654-0.825c-1.461-0.579-2.862-1.601-3.156-3.236
						c-0.257-1.43,0.6-2.71,2.102-2.78c1.715-0.08,3.07,1.174,3.975,2.507c0.579,0.853,1.04,1.789,1.37,2.766
						c0.171,0.507,0.28,1.025,0.383,1.543c-0.04,0.049-0.072,0.11-0.093,0.187c-0.021,0.079-0.035,0.16-0.055,0.24
						C180.384,368.36,179.753,368.245,179.134,368.099z M184.111,388.096c-0.535-1.27-0.986-2.574-1.363-3.9
						c0.926,0.739,1.86,1.47,2.771,2.228C185.061,386.991,184.588,387.546,184.111,388.096z M186.338,385.385
						c-1.353-1.11-2.723-2.197-4.106-3.266c-0.178-0.823-0.327-1.648-0.441-2.476c1.336-0.798,2.654-1.623,3.935-2.501
						c0.537,1.069,1.085,2.132,1.672,3.173c0.368,0.653,0.763,1.292,1.178,1.918c-0.204,0.314-0.398,0.631-0.613,0.94
						C187.442,383.925,186.896,384.659,186.338,385.385z"/>
				</g>
				<g>
					<path style="fill:#C8AD00;" d="M134.597,403.67c-2.607-0.282-5.187-1.017-6.622-3.257c-1.605-2.465-1.184-5.999-0.394-9.119
						c2.69-10.625,8.821-20.155,15.525-28.777c1.789-2.3,3.762-4.66,6.319-5.665c2.535-0.997,5.295-0.468,7.484,0.869
						c2.189,1.337,3.883,3.41,5.385,5.583c4.988,7.22,8.188,15.801,10.909,24.487c0.618,1.972,1.218,3.982,1.318,6.114
						c0.145,3.1-0.977,6.658-3.999,7.895c-2.588,1.06-5.791,0.895-8.462,1.198c-3.125,0.355-6.25,0.616-9.371,0.783
						c-4.765,0.255-9.521,0.29-14.25,0.105C137.248,403.839,135.919,403.813,134.597,403.67z"/>
					<path style="fill:#E6E000;" d="M174.791,395.344c-7.495-2.486-14.418-6.491-20.362-11.631c0.01-0.015,0.02-0.031,0.031-0.046
						c5.638-0.47,11.218-1.538,16.528-3.119c0.692-0.206,0.397-1.293-0.299-1.084c-4.608,1.383-9.328,2.335-14.103,2.853
						c0.998-0.793,1.857-1.736,2.573-2.871c1.11-1.76,2.135-4.174,1.918-6.296c-0.103-1.009-0.57-2.023-1.47-2.56
						c-0.965-0.576-2.122-0.387-3.046,0.175c-1.842,1.12-3.073,3.324-3.774,5.301c-0.615,1.735-0.844,3.585-0.703,5.412
						c-0.059-0.034-0.119-0.066-0.179-0.099c-4.606-4.455-8.532-9.615-11.512-15.321c-0.321-0.615-1.127-0.281-1.204,0.271
						c-0.163,0.038-0.301,0.165-0.306,0.4c-0.116,4.65,0.807,9.435,2.311,13.965c-0.758,0.372-1.441,0.865-1.971,1.526
						c-2.73-0.306-5.452-0.722-8.17-1.219c-0.483-0.088-0.695,0.615-0.206,0.747c2.533,0.683,5.122,1.181,7.739,1.536
						c-0.917,2.04-0.438,4.651,1.721,5.672c1.351,0.639,2.985,0.612,4.553,0.31c1.335,2.493,2.891,4.875,4.615,7.11
						c1.094,1.419,2.255,2.785,3.49,4.084c1.213,1.275,2.568,2.866,4.119,3.724c0.728,0.402,1.306-0.493,0.838-1.085
						c-1.086-1.375-2.629-2.475-3.846-3.749c-1.149-1.202-2.24-2.461-3.264-3.772c-1.65-2.112-3.101-4.361-4.404-6.697
						c0.497-0.15,0.979-0.312,1.422-0.482c1.37-0.525,2.675-1.208,3.866-2.066c0.692-0.499,1.369-1.049,1.964-1.67
						c3.475,2.964,7.262,5.566,11.327,7.679c3.06,1.591,6.254,2.91,9.54,3.955C175.136,396.489,175.391,395.543,174.791,395.344z
						 M156.044,372.994c0.55-0.637,1.363-1.436,2.276-1.4c0.959,0.038,1.372,1.061,1.388,1.889c0.034,1.758-0.788,3.613-1.715,5.067
						c-0.935,1.467-2.268,2.827-3.683,3.874c-0.125-0.001-0.256,0.038-0.372,0.129c-0.003,0.002-0.005,0.005-0.008,0.007
						c-0.184,0.015-0.369,0.03-0.554,0.044c0.016-0.131-0.03-0.269-0.154-0.379C152.878,378.942,153.88,375.498,156.044,372.994z
						 M151.438,382.709c-0.152,0.006-0.303,0.018-0.454,0.024c-2.541,0.09-5.068,0.036-7.585-0.131
						c-0.113-0.282-0.209-0.57-0.317-0.854c0.664-0.211,1.35-0.341,1.975-0.397c1.928-0.173,3.912,0.114,5.758,0.751
						C151.024,382.303,151.226,382.511,151.438,382.709z M141.551,377.165c-0.846-3.061-1.277-6.152-1.659-9.285
						c2.472,4.468,5.516,8.596,9.016,12.293c-1.165-0.301-2.374-0.447-3.607-0.414c-0.916,0.025-1.883,0.152-2.802,0.419
						C142.154,379.183,141.832,378.18,141.551,377.165z M142.659,387.802c-0.951-0.023-2.021-0.279-2.515-1.176
						c-0.406-0.738-0.359-1.681-0.065-2.45c0.092-0.242,0.212-0.465,0.354-0.671c0.617,0.067,1.234,0.139,1.854,0.189
						c0.504,1.271,1.049,2.514,1.623,3.718c0.052,0.108,0.112,0.213,0.165,0.321C143.602,387.786,143.128,387.813,142.659,387.802z
						 M151.526,384.622c-0.844,0.656-1.768,1.217-2.727,1.688c-0.981,0.481-2.053,0.879-3.153,1.145
						c-0.112-0.213-0.231-0.421-0.341-0.636c-0.504-0.986-0.963-1.994-1.402-3.01c2.85,0.164,5.718,0.161,8.578-0.004
						C152.169,384.084,151.857,384.364,151.526,384.622z"/>
				</g>
			</g>
			<g>
				<path style="opacity:0.25;fill:#A43B04;" d="M426.364,404.87c0,2.929-15.4,5.304-34.397,5.304
					c-18.997,0-34.398-2.375-34.398-5.304c0-2.929,15.4-5.304,34.398-5.304C410.964,399.566,426.364,401.94,426.364,404.87z"/>
				<path style="fill:#FBB912;" d="M432.857,365.995c-1.633,7.223-3.15,13.941-4.589,20.192c-0.224,0.963-0.438,1.905-0.651,2.839
					c-0.505,2.168-0.992,4.277-1.468,6.329c-0.233,0.992-0.467,1.973-0.69,2.936c-0.447,1.925-0.894,3.801-1.322,5.629
					c-0.136,0.612-0.515,1.108-0.885,1.176c-21.057,3.908-41.521,3.908-62.587,0c-0.36-0.068-0.739-0.564-0.875-1.176
					c-0.914-3.879-1.876-7.981-2.878-12.307c-0.156-0.661-0.311-1.332-0.467-2.003c-0.68-2.955-1.38-6.008-2.11-9.177
					c-0.146-0.651-0.292-1.303-0.447-1.964c-0.904-3.986-1.847-8.137-2.819-12.473c-0.165-0.71,10.159-4.929,40.889-4.929
					C422.698,361.066,433.129,364.809,432.857,365.995z"/>
				<path style="fill:#EC6F37;" d="M430.299,366.85c0,0.408-1.031,0.788-2.887,1.147c-5.745,1.089-19.453,1.857-35.445,1.857
					c-16.604,0-30.74-0.826-36.067-1.983c-1.468-0.321-2.265-0.661-2.265-1.021c0-0.35,0.768-0.749,2.187-1.167
					c0.612-0.185,1.342-0.36,2.178-0.544c0.311-0.068,0.642-0.136,0.982-0.204c6.679-1.303,18.947-2.528,32.985-2.528
					c12.249,0,23.166,0.933,30.185,2.042c0.214,0.029,0.418,0.058,0.622,0.097c1.517,0.253,2.829,0.505,3.908,0.758
					C429.006,365.858,430.299,366.393,430.299,366.85z"/>
				<path style="fill:#A43B04;" d="M427.411,367.997c-5.745,1.089-19.453,1.857-35.445,1.857c-16.604,0-30.74-0.826-36.067-1.983
					c-0.438-0.632-0.506-1.555-0.078-2.187c0.058-0.097,0.136-0.185,0.214-0.263c0.515-0.496,1.312-0.544,1.964-0.282
					c0.428,0.165,0.797,0.467,0.992,0.875c-0.087-0.35-0.087-0.719-0.01-1.079c0.087-0.428,0.311-0.836,0.632-1.137
					c0.661-0.622,1.721-0.778,2.528-0.37c-1.157-2.09-1.536-4.763-0.37-6.854c1.167-2.08,4.151-3.14,6.105-1.769
					c-0.438-2.479,1.507-5.007,3.947-5.57c2.45-0.564,5.104,0.651,6.601,2.673c1.487,2.012,1.905,4.695,1.497,7.174
					c0.817-1.74,2.722-2.907,4.647-2.848c1.925,0.058,3.753,1.351,4.452,3.14c0.554-1.847,2.051-3.373,3.889-3.966
					c0.398-0.136,0.855-0.194,1.264-0.117c0.243-1.837,1.575-3.548,3.373-4.044c2.382-0.661,5.152,0.933,5.784,3.325
					c0.826-2.372,4.219-3.373,6.202-1.828c1.594,1.235,1.798,3.733,0.749,5.395c0.972-0.622,2.304-0.729,3.276-0.078
					c1.39,0.914,1.701,3.111,0.612,4.375c1.303-0.836,2.654-1.701,4.19-1.925c1.526-0.233,3.296,0.36,3.957,1.76
					c0.321,0.69,0.204,1.526-0.165,2.178c-0.078,0.136-0.175,0.272-0.272,0.389c0.292-0.117,0.593-0.214,0.894-0.292
					c0.34-0.097,0.681-0.156,1.04-0.185c1.03-0.078,2.148,0.214,2.868,0.943c0.136,0.126,0.263,0.272,0.369,0.447
					C427.47,366.422,427.538,367.21,427.411,367.997z"/>
				<path style="fill:#FFFFFF;" d="M426.149,395.354c-0.233,0.992-0.467,1.973-0.69,2.936c-0.535-0.486-1.06-0.982-1.585-1.468
					c-2.829-2.635-5.911-5.444-9.858-6.125c-4.219-0.719-8.419,1.235-11.987,3.276c-6.766,3.879-13.737,9.255-21.99,6.581
					c-6.98-2.265-12.239-8.497-19.842-9.031c-1.108-0.078-2.207-0.049-3.286,0.087c-0.156-0.661-0.311-1.332-0.467-2.003
					c0.962-0.146,1.944-0.224,2.936-0.214c3.84,0.029,7.437,1.206,10.771,3.053c3.218,1.789,6.241,4.073,9.721,5.357
					c8.506,3.13,15.321-3.198,22.389-6.912c3.626-1.915,7.69-3.364,11.85-2.8c3.947,0.544,7.233,2.926,10.13,5.512
					C424.885,394.168,425.517,394.761,426.149,395.354z"/>
				<path style="fill:#FFFFFF;" d="M428.268,386.186c-0.224,0.963-0.438,1.905-0.651,2.839c-1.507-1.167-2.897-2.489-4.258-3.753
					c-2.829-2.634-5.911-5.444-9.858-6.125c-4.219-0.719-8.419,1.235-11.987,3.276c-6.766,3.879-13.736,9.255-21.99,6.581
					c-6.98-2.265-12.24-8.497-19.842-9.031c-1.828-0.126-3.626,0.039-5.347,0.457c-0.146-0.651-0.292-1.303-0.447-1.964
					c1.594-0.418,3.266-0.632,4.977-0.622c3.84,0.029,7.437,1.205,10.772,3.052c3.218,1.789,6.241,4.073,9.721,5.357
					c8.506,3.13,15.331-3.198,22.389-6.912c3.626-1.915,7.69-3.364,11.851-2.8c3.947,0.544,7.233,2.926,10.13,5.512
					C425.235,383.396,426.703,384.874,428.268,386.186z"/>
			</g>
		</g>
	</g>
</g>
</svg>
