<?xml version="1.0" encoding="utf-8"?>
<!-- Generator: Adobe Illustrator 27.5.0, SVG Export Plug-In . SVG Version: 6.00 Build 0)  -->
<svg version="1.1" xmlns="http://www.w3.org/2000/svg" xmlns:xlink="http://www.w3.org/1999/xlink" x="0px" y="0px"
	 viewBox="0 0 500 500" style="enable-background:new 0 0 500 500;" xml:space="preserve">
<g id="Background">
	<rect style="fill:#FFFFFF;" width="500" height="500"/>
</g>
<g id="Objects">
	<g>
		<g>
			<g>
				<path style="fill:#BAD9F4;" d="M163.897,113.667C197.553,93.349,230.457,39,319.856,38.334
					c89.401-0.667,142.909,75.333,137.037,146c-5.873,70.665-24.797,68.665,7.83,136.001
					c32.629,67.332,33.934,127.332-107.019,127.332c-140.951,0-229.699,8-290.386-18s-52.243-65.75-31.323-108
					c28.061-56.667-19.576-64.667,1.958-137.332C58.421,115.27,135.185,131,163.897,113.667"/>
				<path style="fill:#BAD9F4;" d="M133.88,51c-25.433,18.341-20.881,46.667-0.653,50c20.229,3.333,54.163-8.667,52.205-36.667
					C183.474,36.333,144.973,43,133.88,51"/>
				<path style="fill:#BAD9F4;" d="M77.76,95c-14.144,12.844-7.178,26,7.831,22.667c15.008-3.334,16.966-16,10.441-21.334
					C89.506,91,83.633,89.667,77.76,95"/>
				<path style="fill:#BAD9F4;" d="M84.895,76.25c-2.17-4.243,0.472-10.031,5.901-12.931c5.431-2.899,11.592-1.811,13.762,2.432
					c2.17,4.242-0.472,10.031-5.902,12.931C93.226,81.581,87.064,80.492,84.895,76.25"/>
			</g>
			<ellipse style="fill:#93B5E5;" cx="251.225" cy="432.166" rx="229.813" ry="39.834"/>
		</g>
		<g>
			<g>
				<path style="fill:#3B577F;" d="M354.333,296h-206c-5.522,0-10-4.478-10-10V104.667c0-5.523,4.478-10,10-10h206
					c5.523,0,10,4.477,10,10V286C364.333,291.522,359.856,296,354.333,296"/>
				<path style="fill:#D0DADD;" d="M148.333,279.417V111.25c0-3.636,2.947-6.583,6.583-6.583H347.75
					c3.636,0,6.584,2.947,6.584,6.583v168.167c0,3.636-2.948,6.583-6.584,6.583H154.916C151.28,286,148.333,283.053,148.333,279.417
					"/>
				<path style="fill:#FFFFFF;" d="M316.65,149.444c-15.326-20.021-27.93-36.113-28.15-35.944
					c-0.221,0.169,12.024,16.536,27.35,36.556c15.326,20.021,27.93,36.113,28.15,35.944
					C344.221,185.831,331.976,169.464,316.65,149.444"/>
				<path style="fill:#FFFFFF;" d="M260.5,146c-0.223,0.167,13.811,19.33,31.347,42.801C309.382,212.273,323.777,231.167,324,231
					c0.223-0.167-13.813-19.33-31.347-42.802C275.118,164.727,260.723,145.833,260.5,146"/>
				<path style="fill:#FFFFFF;" d="M171.5,120.5c-0.222,0.168,20.417,27.727,46.099,61.555
					C243.28,215.882,264.278,243.168,264.5,243c0.222-0.168-20.417-27.727-46.099-61.555
					C192.72,147.618,171.722,120.332,171.5,120.5"/>
				<path style="fill:#FFFFFF;" d="M164,180c-0.229,0.158,14.136,21.329,32.086,47.287C214.035,253.244,228.771,274.158,229,274
					s-14.136-21.329-32.085-47.287C178.965,200.756,164.229,179.842,164,180"/>
			</g>
			<g>
				<path style="fill:#29353A;" d="M264,394.917c0,0,0.58,5.707,1,7.5c0.42,1.792,1.771,10.871,2.402,11.98
					c0.631,1.105,12.701,0.43,25.246-1.458c12.545-1.889,13.469-4.128,13.444-5.788c-0.025-1.66-0.708-5.824-8.719-6.146
					c-8.011-0.322-14.65-1.275-15.493-2.226C281.038,397.829,279,391,279,391L264,394.917z"/>
				<path style="fill:#29353A;" d="M196,394.5c0,0-1.167-0.333-1.333,1.5c-0.167,1.833-1.417,11-1.167,12.25
					s11.917,4.417,24.417,6.583c12.5,2.167,14.083,0.334,14.583-1.25c0.5-1.583,1.167-5.75-6.333-8.583s-13.5-5.833-14-7
					s-2.75-5.667-2.75-5.667L196,394.5z"/>
				<path style="fill:#543229;" d="M208.25,253.25c0,0-0.75,57.917-1.75,65.083c-1,7.167-11.833,77.167-11.833,77.667
					s9.333,2.333,17.5,2c0,0,14.333-67.333,15-73.167c0.666-5.833,3-43.5,3-43.5l15-0.5l19.166,120.834c0,0,9.834-0.5,18.834-3.334
					c0,0-18-132-22.084-144.833C257,240.667,209,248.5,208.25,253.25"/>
				<path style="fill:#DBA54D;" d="M256.667,191.25c0,0,5.5,14.25,12.75,23.333c7.25,9.084,13.666,4.584,15.833,1.75
					c2.167-2.833-2.667-14.5-7.083-24.166C273.75,182.5,266.5,166.75,266.5,166.75s-1.75-4-13.417-3.583
					C241.417,163.583,256.667,191.25,256.667,191.25"/>
				<path style="fill:#DBA54D;" d="M209.916,183.084l-22.75,22.5l18.25,27.333l-4.667,17.085c0,0-14-16.585-21.25-28.001
					c-7.25-11.417-8.916-16.834-5-24.084c3.917-7.25,29.584-31.583,33.167-33.166c3.583-1.584,9-1.75,10.333-1.75"/>
				<path style="fill:#EFD860;" d="M207.916,175.667l0.333,77.583c1.084,0.834,5.75,2.334,27.667,2.334
					c21.918,0,25.168-2.084,25.168-2.084s-2.835-72.5-3.168-77.833c-0.332-5.333,0-12.083-4.832-12.5
					c-4.835-0.417-20.001-0.583-20.001-0.583c-7.584,0.333-15.334,0.416-18.084,0.583"/>
				<path style="fill:#BC7D64;" d="M242.694,162.751c-4.967-0.116-9.61-0.167-9.61-0.167c-3.088,0.135-6.198,0.229-8.992,0.305
					c0.158,2.327,1.602,5.467,7.908,6.487C240.275,170.712,242.96,166.006,242.694,162.751"/>
				<path style="fill:#BC7D64;" d="M227.416,163.917c0,0,0.167-8.5,0-8.667c-0.167-0.166,11.417,0,11.417,0v8.917"/>
				<path style="fill:#9B5846;" d="M227.481,159.384c3.08,2.063,6.887,4.584,9.996,4.753l0.393,0.009
					c0.33-0.004,0.652-0.033,0.963-0.099v-8.797c0,0-11.584-0.166-11.417,0C227.497,155.33,227.499,157.327,227.481,159.384z"/>
				<path style="fill:#BC7D64;" d="M238.563,159.385h-1.896c-10.358,0-18.833-8.475-18.833-18.833V115.5
					c0-1.311,1.063-2.375,2.375-2.375h23.875c5.891,0,10.665,4.776,10.665,10.667v19.406
					C254.749,152.138,247.503,159.385,238.563,159.385"/>
				<path style="fill:#9B5846;" d="M223.138,121.432c1.448-0.639,2.882-1.251,4.455-0.653c1.367,0.52,2.783,1.202,4.284,0.749
					c0.998-0.301,1.949-0.735,2.945-1.039c1.133-0.345,2.277-0.571,3.339,0.109c1.123,0.718,2.346,1.873,3.784,1.813
					c1.56-0.064,2.628-0.736,3.96-1.41c1.192-0.604,2.582-1.241,3.956-0.922c2.104,0.489,3.829,1.89,4.887,3.7
					c-0.007-5.885-4.778-10.653-10.665-10.653h-23.875c-1.312,0-2.375,1.064-2.375,2.375v7.426
					C219.635,122.677,221.365,122.214,223.138,121.432z"/>
				<path style="fill:#29353A;" d="M255,123.875c0,0,8.688-1.062,9.438-4.875s-2.251-8.313-6.813-9.313c0,0,6.625-5.374,6.438-9.249
					S255.75,97,251.561,98.875c0,0-3.561-12.875-9.874-12.125c-6.312,0.75-4.749,8-4.749,8S225.313,84.687,221,87.687
					s0.125,8.251,0.125,8.251s-13.313-3.375-15.5,2.062c-2.188,5.438,5.625,9,5.625,9s-8.063,3.062-7.125,6.875
					c0.937,3.813,7.187,4.688,7.187,4.688l1.75,18.062c0,0,5.75,0.063,7.063-9.125c1.312-9.187,0.312-9.5,0.312-9.5
					s7.688-0.125,10.813-3.188c0,0-3.75,2.876-0.75,4.688s10.875-3.625,10.875-3.625s-2.313,3.125,1.062,4.187
					c3.375,1.063,8.376-3.874,8.376-3.874S254.875,117.875,255,123.875"/>
				<path style="fill:#BC7D64;" d="M218.438,133.625c0,0,0.125-4.75-4.187-5.5c-4.313-0.75-6.251,6.5-3.313,11.437
					c2.938,4.938,7.562,1.75,7.625,0.25"/>
				<path style="fill:#A53245;" d="M233.813,147.438l11.438,0.125c0,0,0.875,6.25-5.751,5.937
					C232.875,153.188,233.75,148.125,233.813,147.438"/>
				<path style="fill:#C93F5D;" d="M238.888,149.715c-2.102-0.272-3.514,0.442-4.46,1.428c0.727,1.184,2.188,2.221,5.072,2.357
					c1.971,0.093,3.266-0.401,4.13-1.131C242.99,151.168,241.641,150.072,238.888,149.715"/>
				<path style="fill:#351C17;" d="M212.708,132.625c-0.04-0.006,0.005-0.322,0.403-0.709c0.195-0.187,0.55-0.37,0.974-0.312
					c0.406,0.039,0.836,0.357,1.092,0.735c0.539,0.75,0.924,1.71,1.197,2.78c0.129,0.538,0.237,1.101,0.219,1.717
					c-0.036,0.313-0.034,0.641-0.287,0.998c-0.074,0.172-0.379,0.332-0.532,0.371c-0.169,0.049-0.354,0.07-0.54,0.058
					c-0.787-0.076-1.219-0.679-1.389-1.131c-0.192-0.477-0.194-0.932-0.111-1.312c0.181-0.786,0.827-1.112,1.157-1.127
					c0.699-0.032,0.688,0.175,0.671,0.245c-0.015,0.119-0.085,0.125-0.555,0.262c-0.22,0.084-0.507,0.254-0.611,0.763
					c-0.037,0.246-0.027,0.571,0.115,0.896c0.129,0.327,0.411,0.645,0.778,0.671c0.093,0.005,0.19-0.003,0.291-0.033
					c0.066-0.007,0.063-0.035,0.082-0.041c0.02,0.002,0.042-0.017,0.056-0.057c0.092-0.097,0.129-0.363,0.152-0.593
					c0.024-0.496-0.061-1.025-0.166-1.522c-0.219-0.992-0.554-1.931-0.966-2.604c-0.371-0.702-1.037-0.78-1.403-0.526
					C212.952,132.389,212.783,132.656,212.708,132.625"/>
				<path style="fill:#351C17;" d="M240.541,142.834c-0.062-0.091,0.215-0.37,0.592-0.845c0.187-0.237,0.404-0.525,0.598-0.857
					c0.094-0.163,0.19-0.349,0.235-0.502c0.016-0.057,0.004-0.015,0.001-0.034l-0.195-0.257c-1.145-1.532-1.938-2.878-1.773-3.005
					c0.166-0.127,1.24,1.029,2.399,2.582l0.233,0.314c0.116,0.179,0.108,0.465,0.041,0.621c-0.098,0.278-0.228,0.473-0.358,0.66
					c-0.262,0.367-0.546,0.645-0.803,0.855C240.995,142.786,240.595,142.916,240.541,142.834"/>
				<path style="fill:#351C17;" d="M250.292,132.209c0-1.427-0.56-2.042-1.25-2.042c-0.69,0-1.25,0.615-1.25,2.042v1.083
					c0,1.427,0.56,2.042,1.25,2.042c0.69,0,1.25-0.615,1.25-2.042V132.209z"/>
				<path style="fill:#351C17;" d="M230.708,131.875c0-1.427-0.56-2.042-1.25-2.042s-1.25,0.615-1.25,2.042v1.083
					c0,1.427,0.56,2.042,1.25,2.042s1.25-0.615,1.25-2.042V131.875z"/>
				<path style="fill:#9B5846;" d="M224.833,139c-0.138-0.149,0.234-0.697,0.698-1.106c0.464-0.409,0.584-0.296,0.719-0.144
					c0.134,0.152,0.231,0.286-0.233,0.695C225.555,138.854,225.034,139.216,224.833,139"/>
				<path style="fill:#9B5846;" d="M226.708,139.334c-0.138-0.149,0.234-0.697,0.698-1.106c0.464-0.41,0.584-0.296,0.719-0.144
					c0.134,0.152,0.231,0.286-0.233,0.695C227.43,139.188,226.909,139.549,226.708,139.334"/>
				<path style="fill:#9B5846;" d="M249.083,139.292c-0.138-0.149,0.234-0.697,0.698-1.106c0.464-0.409,0.584-0.296,0.719-0.144
					c0.135,0.152,0.231,0.286-0.232,0.695C249.804,139.146,249.284,139.507,249.083,139.292"/>
				<path style="fill:#9B5846;" d="M250.958,139.625c-0.138-0.149,0.234-0.697,0.698-1.106c0.464-0.409,0.584-0.296,0.719-0.144
					c0.135,0.152,0.231,0.286-0.232,0.695C251.679,139.479,251.159,139.841,250.958,139.625"/>
				<path style="fill:#351C17;" d="M227.458,125.5c-0.099-0.074,0.157-0.731,0.909-1.347c0.367-0.314,0.91-0.546,1.481-0.62
					c0.58-0.076,1.152,0.073,1.589,0.266c0.875,0.411,1.161,0.841,1.283,1.073c0.11,0.249,0.02,0.365-0.095,0.461
					c-0.118,0.099-0.229,0.172-0.449,0.096c-0.223-0.062-0.543-0.327-1.187-0.625c-0.639-0.329-1.507-0.352-2.209,0.008
					C228.081,125.146,227.589,125.613,227.458,125.5"/>
				<path style="fill:#351C17;" d="M251.75,126.334c-0.138,0.104-0.588-0.375-1.23-0.766c-0.324-0.188-0.69-0.325-1.041-0.35
					c-0.35-0.012-0.688,0.092-0.98,0.237c-0.587,0.302-0.879,0.586-1.091,0.655c-0.208,0.087-0.324,0.021-0.449-0.068
					c-0.122-0.087-0.221-0.196-0.134-0.446c0.101-0.233,0.337-0.681,1.189-1.128c0.424-0.214,1.011-0.356,1.591-0.256
					c0.577,0.111,1.059,0.419,1.393,0.741C251.652,125.62,251.854,126.264,251.75,126.334"/>
				<path style="fill:#EFD860;" d="M269.417,214.584c7.25,9.083,13.666,4.583,15.833,1.75c2.167-2.833-2.667-14.5-7.083-24.167
					c-4.417-9.666-11.667-25.416-11.667-25.416l-11.833,6l17.25,39.75"/>
				<path style="fill:#BC7D64;" d="M264.083,176.459c4.583-3.147,3.75-8.708,2.334-14.042c-1.417-5.333-3.167-6.666-8.084-8.833
					c-4.916-2.167-6.958-2.75-8.125-0.583c-1.166,2.166,3.834,4.125,3.584,5.375s-3.625,9.791-2.959,13.625
					C251.5,175.834,257.167,181.209,264.083,176.459"/>
				<path style="fill:#BC7D64;" d="M258.438,158.688c0,0-6.375-2.5-9.064-3.188c-2.686-0.687-3.624,3.126-1.186,4.375
					c2.438,1.251,5.375,3.438,5.375,3.438"/>
				<path style="fill:#BC7D64;" d="M255.833,163.084c0,0-5-2.792-7.646-3.208c-2.645-0.417-4.02,4.041-0.729,5.375
					c3.292,1.333,4.5,1.958,4.5,1.958"/>
				<path style="fill:#BC7D64;" d="M254.875,167.292c0,0-5.958-2.583-8.25-3.208s-3.25,3.125-1.167,4.416
					c2.084,1.292,6.084,2.75,6.209,2.709"/>
				<path style="fill:#DBA54D;" d="M262.208,183.042c-0.054-0.101,0.6-0.447,1.498-1.046c0.896-0.605,2.018-1.496,2.979-2.515
					c0.961-1.017,1.376-1.605,1.64-1.87c0.254-0.272,0.334-0.243,0.425-0.194c0.088,0.047,0.164,0.116,0.011,0.478
					c-0.162,0.353-0.534,1.025-1.544,2.094c-1.008,1.07-2.222,1.952-3.211,2.472C263.013,182.978,262.273,183.161,262.208,183.042"
					/>
				<path style="fill:#BC7D64;" d="M198.916,238.792c0,4.916-0.708,10.166,2.458,12.25c3.167,2.083,6.417,2.041,6.834,1.125
					c0.416-0.917-0.042-15.542,0.166-16.667c0.209-1.125,3-0.791,5.375-0.708c2.375,0.083,3.667-4.958,0.917-5.708
					s-10.458-0.5-11.792-0.042c-1.333,0.458-3.708,2.75-3.875,4.5C198.833,235.292,198.916,238.792,198.916,238.792"/>
				<path style="fill:#BC7D64;" d="M206.333,234.125c0,0,3.292,0.042,6.958,0.042c3.667,0,5.375,5.166,1.125,5.625
					c-4.25,0.458-6.916,0.791-6.916,0.791"/>
				<path style="fill:#BC7D64;" d="M206.291,239.125c0,0,5-0.042,8.125-0.042s3.875,4.75,0,4.75s-7.083,0.875-7.083,0.875"/>
				<path style="fill:#BC7D64;" d="M205.916,243.958c0,0,4.583-0.166,7.583-0.166s3.75,4.791-0.375,4.791h-7.833"/>
				<path style="fill:#FFFFFF;" d="M232.5,413.583c0.5-1.583,1.167-5.75-6.333-8.583c-3.196-1.207-6.115-2.444-8.457-3.558
					c-2.436,2.525-5.205,6.702-4.897,12.442c1.667,0.33,3.376,0.649,5.104,0.948C230.417,417,232,415.167,232.5,413.583"/>
				<path style="fill:#B8C9F1;" d="M232.5,413.583c0.219-0.692,0.469-1.879,0.054-3.232c-1.639,3.059-6.801,3.539-21.637,0.482
					c-8.984-1.851-14.319-3.798-17.327-5.195c-0.11,1.268-0.16,2.26-0.09,2.612c0.25,1.25,11.917,4.417,24.417,6.583
					C230.417,417,232,415.167,232.5,413.583"/>
				<path style="fill:#FFFFFF;" d="M306.093,407.15c-0.025-1.66-0.708-5.824-8.719-6.145c-3.414-0.139-6.573-0.391-9.147-0.708
					c-1.515,3.164-2.824,8.002-0.722,13.352c1.686-0.213,3.409-0.45,5.143-0.711C305.193,411.05,306.117,408.81,306.093,407.15"/>
				<path style="fill:#B8C9F1;" d="M306.093,407.15c-0.012-0.727-0.148-1.932-0.969-3.085c-0.591,3.42-5.337,5.505-20.38,7.285
					c-9.109,1.079-14.786,0.914-18.081,0.537c0.296,1.238,0.561,2.195,0.739,2.508c0.631,1.107,12.701,0.431,25.246-1.458
					C305.193,411.05,306.117,408.81,306.093,407.15"/>
			</g>
			<g>
				<g>
					<path style="fill:#9B622F;" d="M115,176.25c0,0-7.25,1.125-8.125,13.625s-0.5,18.625-0.75,19.625s-10.5,20.25,10.625,23.5
						s34.125,1.125,39-3.625S159,214.25,156.375,212l-0.5-17c0,0,8.75-3.5,3-13.75s-26.125-14.75-34-13S114.5,175,115,176.25"/>
					<path style="fill:#C48743;" d="M150.1,177.758c-0.186,0.745-0.437,1.484-0.35,2.242c0.055,0.476-0.563,0.604-0.854,0.354
						c-2.337-2.011-4.934-3.366-7.983-3.791c-0.109,0.641-0.236,1.274-0.163,1.937c0.043,0.388-0.453,0.608-0.752,0.432
						c-1.403-0.828-6.348-4.47-5.766-0.564c0.055,0.37-0.337,0.866-0.734,0.564c-1.388-1.052-2.776-2.19-4.344-2.969
						c-1.189-0.59-3.126-1.499-4.401-0.531c-0.965,0.733-1.457,1.753-1.141,2.959c0.215,0.818,0.571,1.622,1.023,2.394
						c0.714,0.721,1.529,1.339,2.328,1.816c1.887,1.128,5.575,2.474,4.556-1.218c-0.101-0.365,0.247-0.719,0.615-0.615
						c1.403,0.396,2.528,1.347,3.626,2.269c0.747,0.628,1.507,1.386,2.402,1.799c1.817,0.839,1.973-2.04,2.089-3.086
						c0.039-0.35,0.288-0.532,0.633-0.482c3.149,0.455,5.415,3.316,8.352,4.352c2.692,0.95,5.317-0.916,4.08-3.94
						C152.664,180.088,151.573,178.65,150.1,177.758z"/>
					<path style="fill:#586075;" d="M192.246,430.382c1.457,0.001,2.876-0.506,4.018-1.455c1.442-1.199,2.269-2.964,2.269-4.84
						V345.5c0-1.104-0.895-2-2-2c-1.104,0-2,0.896-2,2v78.587c0,0.684-0.302,1.327-0.827,1.765
						c-0.525,0.436-1.211,0.618-1.885,0.491l-44.037-8.159c-1.087-0.201-1.876-1.149-1.876-2.255v-80.804c0-1.104-0.895-2-2-2
						c-1.104,0-2,0.896-2,2v80.804c0,3.033,2.165,5.636,5.148,6.188l44.037,8.159C191.476,430.348,191.862,430.382,192.246,430.382"
						/>
					<path style="fill:#848BA0;" d="M133.496,439.757c1.457,0.001,2.876-0.506,4.018-1.455c1.442-1.199,2.269-2.964,2.269-4.84
						v-78.587c0-1.104-0.895-2-2-2c-1.104,0-2,0.896-2,2v78.587c0,0.684-0.302,1.327-0.827,1.765
						c-0.525,0.436-1.211,0.618-1.885,0.491l-44.037-8.159c-1.087-0.201-1.876-1.149-1.876-2.255V344.5c0-1.104-0.895-2-2-2
						c-1.104,0-2,0.896-2,2v80.804c0,3.033,2.165,5.636,5.148,6.188l44.037,8.159C132.726,439.723,133.112,439.757,133.496,439.757"
						/>
					<path style="fill:#842539;" d="M203.283,338.875l-61.75,11.25c0,0-54.375-6.25-54.875-6.25l-5-9.75
						c0,0-6.25-66.125-6.125-79.375s3.875-15.5,8.25-15.625s55.625,0.625,55.625,0.625c3.592,0,4.342,7.5,3.592,25
						s-2.75,35.25,0.75,37.5s39,6,46.25,9.5S202.314,320.75,203.283,338.875"/>
					<path style="fill:#6D1D30;" d="M189.999,311.75c-7.25-3.5-42.75-7.25-46.25-9.5s-1.5-20-0.75-37.5s0-25-3.592-25
						c0,0-23.464-0.343-39.995-0.527c-0.077,0.191-0.162,0.378-0.236,0.571c-4.55,11.829-5.616,24.762-5.707,37.337
						c-0.094,12.833,0.404,25.847,2.024,38.581c1.283,10.09,3.289,20.015,5.811,29.806c16.257,1.853,40.228,4.607,40.228,4.607
						l61.75-11.25C202.314,320.75,197.249,315.25,189.999,311.75z"/>
					<polygon style="fill:#842539;" points="141.533,350.125 203.283,338.875 203.283,348.125 143.2,359.333 					"/>
					<path style="fill:#F2C1A5;" d="M164,316.667c0,0,31.667,1.833,36.25,12.833s3.583,15.167-2.917,42.833
						c-6.5,27.667-10,42.167-10,42.167s8,5.167,13.667,8.667s5.5,7,2.333,8.666c-3.166,1.667-28.166-5.5-29.5-6.666
						c-1.333-1.167,0.667-6.334,1.5-15.334c0.834-9,9-64.5,8.5-64.833s-34.333-5.333-34.333-5.333L164,316.667z"/>
					<path style="fill:#DDA485;" d="M182.032,340.563c3.544-3.366,7.695-6.148,12.092-8.274c1.741-0.842,3.896-1.804,6.208-2.59
						c-0.028-0.067-0.053-0.131-0.081-0.198c-4.583-11-36.25-12.833-36.25-12.833l-14.5,23c0,0,19.89,2.939,29.391,4.461
						C179.813,342.816,180.918,341.62,182.032,340.563z"/>
					<path style="fill:#FFE1C0;" d="M146.333,321.167c0,0,26,0.166,29.667,10.5c3.666,10.333-0.834,21.166-5.834,42.166
						s-9.333,41-9.333,41s14.167,7.667,17.5,11c3.333,3.334,2.167,6.5-6.833,5.5s-24-6.333-24.5-7.666c-0.5-1.334,1-8.167,1.833-20
						c0.833-11.834,7-58.667,7-58.667l-11.333-2.5L146.333,321.167z"/>
					<path style="fill:#F2C1A5;" d="M163.279,336.068c3.557-2.389,8.592-4.765,12.959-3.682c-0.076-0.24-0.152-0.48-0.237-0.72
						c-3.667-10.334-29.667-10.5-29.667-10.5l-1.833,21.333l10.501,2.316C156.803,341.207,160.239,338.11,163.279,336.068z"/>
					<path style="fill:#29415E;" d="M100.125,305.75c0,0-7.375,28.5,7.625,32.75s45.75,6.75,45.75,6.75s-0.5-11.5,4.25-15.25
						s29-7,34.25-6s8.25,5.5,8.25,5.5s-0.75-8-16.75-13.5s-29.75-9.375-29.75-9.375L100.125,305.75z"/>
					<path style="fill:#FFFFFF;" d="M141.75,229.5l-25.542,0.292l-6.291,78.458c0,0,5,2.083,13.708,3S144,311.667,148,309.5
						s3-56.917,3-56.917l-3.917-21.5L141.75,229.5z"/>
					<path style="fill:#FFE1C0;" d="M140.083,232.584c0.017-1.198-0.001-2.207-0.038-3.064l-18.98,0.217
						c-0.1,1.713,0.449,4.53,4.101,7.347c5.834,4.5,10.834,4.583,10.834,4.583S140.001,238.584,140.083,232.584"/>
					<path style="fill:#35752E;" d="M100.125,305.75c0,0,0.625,2.25,9.75,4s13.75,1.5,13.75,1.5s0.875-22.625,0.625-32.25
						s0.125-27.625-0.875-33.625s-7.167-15.583-7.167-15.583s-5.5-0.25-8.958,2.208s-1.958,35.667-2.708,42.583
						C103.792,281.5,100.292,299.417,100.125,305.75"/>
					<path style="fill:#35752E;" d="M148,309.5c0,0,4.75-1.5,5.75-2.875c0,0-1-35.375-0.625-37.25s1.875-5.625,2.125-10.125
						s0.375-23,0.375-23s-5.125-7.375-13.875-6.75c0,0,4.625,6.375,5.625,28.875S148,309.5,148,309.5"/>
					<path style="fill:#2C6025;" d="M143.776,229.506c4.724,0.082,5.735,0.503,7.182,1.036c2.375,0.875,5.542,1.958,14.167,17.958
						c8.625,16,10.75,19.25,10.75,19.25l11.25-26.25l11.75,2.875c0,0-10.875,31.375-15.75,37.25s-11.75,3.125-16.625-4.375
						c-4.875-7.5-11.25-18-11.25-18s-0.25-8.5-1.875-14.5"/>
					<path style="fill:#586075;" d="M301.287,430.382c-1.457,0.001-2.876-0.506-4.018-1.455c-1.442-1.199-2.27-2.964-2.27-4.84
						V345.5c0-1.104,0.895-2,2-2c1.104,0,2,0.896,2,2v78.587c0,0.684,0.302,1.327,0.827,1.765c0.525,0.436,1.211,0.618,1.885,0.491
						l44.037-8.159c1.087-0.201,1.876-1.149,1.876-2.255v-80.804c0-1.104,0.895-2,2-2c1.104,0,2,0.896,2,2v80.804
						c0,3.033-2.165,5.636-5.148,6.188l-44.037,8.159C302.057,430.348,301.671,430.382,301.287,430.382"/>
					<path style="fill:#848BA0;" d="M360.037,439.757c-1.457,0.001-2.876-0.506-4.018-1.455c-1.442-1.199-2.27-2.964-2.27-4.84
						v-78.587c0-1.104,0.895-2,2-2c1.104,0,2,0.896,2,2v78.587c0,0.684,0.302,1.327,0.827,1.765
						c0.525,0.436,1.211,0.618,1.885,0.491l44.037-8.159c1.087-0.201,1.876-1.149,1.876-2.255V344.5c0-1.104,0.895-2,2-2
						c1.104,0,2,0.896,2,2v80.804c0,3.033-2.165,5.636-5.148,6.188l-44.037,8.159C360.807,439.723,360.421,439.757,360.037,439.757"
						/>
					<path style="fill:#842539;" d="M406.875,343.875c-0.5,0-54.875,6.25-54.875,6.25l-64.375-12.25l66.5-20.125v-78
						c0,0,51.25-0.75,55.625-0.625s8.125,2.375,8.25,15.625s-6.125,79.375-6.125,79.375L406.875,343.875z"/>
					<path style="fill:#6D1D30;" d="M408.311,327.256c1.666-13.124,1.666-26.657,0.119-39.796
						c-1.52-12.906-4.558-27.528-13.277-37.665c-4.347-5.053-9.752-8.314-15.691-10.393c-13.053,0.169-25.337,0.349-25.337,0.349v78
						l-66.5,20.125L352,350.125c0,0,42.761-4.915,52.787-6.027C406.417,338.593,407.589,332.952,408.311,327.256z"/>
					<polygon style="fill:#842539;" points="352,349.337 290.25,337.125 290.25,347.166 350.333,359.333 					"/>
					<path style="fill:#DDA485;" d="M293.5,399c0,0-0.75,22-1.375,22.5s-21.875,3-30.375,1.875s-8.125-6.625-5.625-8
						s22.25-5.375,22.5-6.25s1.75-13.875,1.75-13.875L293.5,399z"/>
					<path style="fill:#DDA485;" d="M339.5,399.625c0,0,5.25,20.75,4.875,22.5s-7,4.25-16.375,7.625s-19,2.625-19.75-0.75
						s4.25-7.5,10.375-10.5s10.5-5.75,10.5-5.75l-3.25-12.25L339.5,399.625z"/>
					<path style="fill:#29415E;" d="M346.167,300.833c0,0-0.792,2.917-2.542,3.042s-50.5,9.25-53.875,12.125s-5.5,5.5-9,28.25
						s-3,55.375-3,55.375s6.75,3.5,17.5,1.375l8.875-64.25l40,0.375l35.708-3.292l2.667-34"/>
					<path style="fill:#3B577F;" d="M396.25,303.875c0,0,1,25.125-0.5,29.5s-59.75,5.75-59.75,5.75l8.25,60.625c0,0-2.5,4.5-19,3.75
						c0,0-11.75-42.375-14-58s-1.375-20.375,6.25-24.375s41.25-11.75,41.25-11.75"/>
					<path style="fill:#6D1D30;" d="M292.878,413.384c-2.664,1.024-8.801,2.745-14.878,1.491c-3.4-0.701-4.98-2.266-5.682-3.816
						c-6.087,1.517-14.607,3.444-16.193,4.316c-2.5,1.375-2.875,6.875,5.625,8S291.5,422,292.125,421.5
						C292.375,421.301,292.644,417.67,292.878,413.384"/>
					<path style="fill:#842539;" d="M344.375,422.125c0.105-0.494-0.237-2.508-0.785-5.141c-2.932,1.635-8.534,4.038-14.84,3.016
						c-3.664-0.594-5.599-1.914-6.604-3.292c-1.087,0.573-2.265,1.177-3.521,1.792c-6.125,3-11.125,7.125-10.375,10.5
						s10.375,4.125,19.75,0.75S344,423.875,344.375,422.125"/>
					<path style="fill:#70307F;" d="M349,230.5c2.917-2.083,4.667-3.333,23.833-3.333c19.167,0,21.167,2.166,21.167,2.166l2.5,77.5
						c0,0-13.667,2-28.167,0.834c-14.5-1.167-20.666-4-22.166-6.834c0,0,0.166-31.166-0.167-35.166s-4.563-10.417,1-24.334"/>
					<path style="fill:#DDA485;" d="M383.167,230.334c0.635-1.094,1.083-2.015,1.407-2.802c-2.931-0.217-6.75-0.365-11.741-0.365
						c-6.852,0-11.471,0.161-14.72,0.461c-0.999,1.894-1.612,4.898,2.845,6.831C367.875,237.459,380.167,235.501,383.167,230.334"/>
					<path style="fill:#351C17;" d="M386.083,169.75c0-5.293,4.291-9.583,9.584-9.583c5.292,0,9.583,4.29,9.583,9.583
						s-4.291,9.583-9.583,9.583C390.374,179.333,386.083,175.043,386.083,169.75"/>
					<polyline style="fill:#DDA485;" points="377.563,229.875 377.563,217.875 364.813,217.875 364.813,229.875 					"/>
					<path style="fill:#C18167;" d="M371.678,228.102c2.203-0.112,4.157-0.837,5.885-1.974v-8.252h-12.75v9.115
						C366.707,228.085,369.856,228.194,371.678,228.102z"/>
					<path style="fill:#DDA485;" d="M357.125,178.25h22.75c3.521,0,6.375,2.854,6.375,6.375V207.5c0,9.803-9.947,15.75-19.75,15.75
						s-15.75-6.947-15.75-16.75v-21.875C350.75,181.104,353.603,178.25,357.125,178.25"/>
					<path style="fill:#C18167;" d="M362.367,190.484c2.024-0.478,3.811-1.207,5.914-0.954c3.152,0.379,6.065-0.163,8.885-1.628
						c0.256-0.133,0.522-0.053,0.684,0.179c1.717,2.481,5.202,3.841,8.4,3.73v-7.186c0-3.521-2.854-6.375-6.375-6.375h-22.75
						c-3.522,0-6.375,2.854-6.375,6.375v6.255C354.42,191.997,358.88,191.307,362.367,190.484z"/>
					<path style="fill:#A53245;" d="M361.438,213c0.013-0.197,9,0,9,0s1,4.875-4.064,4.875
						C361.313,217.875,361.313,214.937,361.438,213"/>
					<path style="fill:#C93F5D;" d="M368.688,214.875c-3.431-0.609-5.424,0.394-6.559,1.516c0.667,0.859,1.917,1.484,4.245,1.484
						c2.635,0,3.621-1.318,3.968-2.584C369.899,215.135,369.356,214.994,368.688,214.875"/>
					<path style="fill:#351C17;" d="M350.688,193.5c0,0-8.75-0.875-9-8.563c-0.25-7.687,9.186-14.187,14.25-14.999
						c0,0-5.875-1.375-3.939-7.375c0,0,1.939,2.687,10.439,1.25c8.5-1.438,22.5-2.376,25.875,10.625c0,0,7.063,3.624,6,14.875
						c-1.063,11.249-9,12.75-9,12.75s-0.375-9.188-0.438-9.563s-5.751-3.312-4.626-10.813c0,0-6.75,7.875-13.749,4.376
						c0,0-7.25,2.5-15.751,0.875L350.688,193.5z"/>
					<path style="fill:#351C17;" d="M348.438,186c0,0,4.061,2.063,10.688,1.5c6.624-0.563,15.688-4.875,15.688-4.875"/>
					<path style="fill:#DDA485;" d="M384.5,200.313c0,0,1.061-4.812,5.25-4.562c4.188,0.25,4.75,7.5,2.061,10.562
						c-2.686,3.063-6.561,1.875-6.75,1.062"/>
					<path style="fill:#351C17;" d="M390.719,199.75c-0.069,0.027-0.031-0.345-0.423-0.556c-0.373-0.193-1.187-0.117-1.644,0.504
						c-0.48,0.658-0.919,1.6-1.146,2.607c-0.11,0.502-0.161,1.038-0.047,1.504c0.099,0.44,0.426,0.615,0.863,0.51
						c0.423-0.109,0.713-0.442,0.777-0.743c0.082-0.301-0.017-0.627-0.129-0.868c-0.231-0.468-0.595-0.532-0.847-0.568
						c-0.524-0.022-0.587-0.028-0.624-0.14c-0.03-0.072-0.068-0.252,0.614-0.379c0.173-0.017,0.403-0.02,0.68,0.081
						c0.275,0.096,0.579,0.335,0.772,0.683c0.179,0.334,0.357,0.785,0.233,1.36c-0.119,0.56-0.598,1.105-1.295,1.286
						c-0.348,0.089-0.757,0.076-1.11-0.13c-0.362-0.203-0.562-0.59-0.637-0.919c-0.146-0.652-0.06-1.266,0.075-1.823
						c0.288-1.116,0.772-2.057,1.371-2.789c0.684-0.8,1.719-0.824,2.226-0.472c0.268,0.173,0.367,0.444,0.363,0.602
						C390.796,199.664,390.75,199.745,390.719,199.75"/>
					<path style="fill:#351C17;" d="M377.063,193.031c-0.124,0.096-0.599-0.362-1.259-0.787c-0.321-0.21-0.724-0.378-0.955-0.329
						c-0.376,0.051-0.742,0.188-1.056,0.354c-0.622,0.344-0.94,0.598-1.159,0.668c-0.218,0.079-0.328,0.005-0.446-0.092
						c-0.116-0.096-0.207-0.211-0.105-0.457c0.109-0.235,0.387-0.642,1.201-1.094c0.41-0.217,0.948-0.387,1.516-0.391
						c0.73,0.022,1.176,0.429,1.499,0.742C376.936,192.315,377.179,192.947,377.063,193.031"/>
					<path style="fill:#351C17;" d="M354.063,192.875c-0.138-0.041-0.047-0.765,0.624-1.452c0.329-0.339,0.816-0.629,1.344-0.764
						c0.554-0.141,1.158-0.064,1.602,0.124c0.883,0.403,1.141,0.847,1.244,1.08c0.093,0.25-0.006,0.361-0.128,0.45
						c-0.124,0.09-0.237,0.158-0.443,0.078c-0.208-0.066-0.507-0.327-1.091-0.591c-0.294-0.119-0.631-0.186-0.984-0.148
						c-0.376,0.05-0.744,0.183-1.052,0.373C354.551,192.405,354.201,192.937,354.063,192.875"/>
					<path style="fill:#351C17;" d="M364.729,208.938c-0.065,0.078-0.317,0.002-0.631-0.269c-0.154-0.138-0.328-0.324-0.459-0.618
						c-0.06-0.149-0.11-0.332-0.089-0.55c0.043-0.258,0.163-0.421,0.274-0.559c0.468-0.509,0.953-0.722,1.318-0.874
						c0.367-0.139,0.622-0.16,0.669-0.068c0.048,0.094-0.115,0.28-0.397,0.527c-0.268,0.245-0.705,0.557-1.015,0.903
						c-0.071,0.083-0.108,0.161-0.117,0.172c-0.012,0.053-0.007,0.132,0.012,0.217c0.044,0.175,0.135,0.36,0.218,0.513
						C364.681,208.643,364.799,208.857,364.729,208.938"/>
					<path style="fill:#351C17;" d="M357.078,196.42c-0.016-0.002-0.03-0.014-0.047-0.014c-0.007,0-0.014,0.006-0.019,0.006
						c-0.015-0.001-0.029-0.006-0.044-0.006c-0.322,0-0.603,0.169-0.799,0.507c-0.449-0.332-0.825-0.746-0.982-0.663
						c-0.255,0.123,0.049,0.907,0.744,1.389c-0.034,0.201-0.057,0.421-0.057,0.674v0.875c0,1.216,0.474,1.823,1.047,1.892
						c0.016,0.002,0.03,0.014,0.047,0.014c0.006,0,0.013-0.006,0.019-0.006c0.015,0.001,0.028,0.006,0.044,0.006
						c0.621,0,1.094-0.612,1.094-1.906v-0.875C358.125,197.096,357.651,196.489,357.078,196.42"/>
					<path style="fill:#351C17;" d="M376.156,198.313c0-0.253-0.022-0.473-0.057-0.675c0.698-0.49,0.927-1.323,0.743-1.388
						c-0.232-0.111-0.55,0.316-0.983,0.659c-0.197-0.336-0.477-0.502-0.797-0.502c-0.015,0-0.029,0.005-0.044,0.005
						c-0.007,0-0.012-0.005-0.019-0.005c-0.017,0-0.031,0.011-0.047,0.013c-0.573,0.07-1.047,0.676-1.047,1.893v0.875
						c0,1.294,0.473,1.906,1.094,1.906c0.014,0,0.029-0.005,0.044-0.005c0.006,0,0.011,0.005,0.019,0.005
						c0.017,0,0.031-0.011,0.047-0.013c0.573-0.07,1.047-0.676,1.047-1.893V198.313z"/>
					<path style="fill:#C18167;" d="M355.189,204.275c-0.47,0.511-0.868,1.125-0.752,1.225c0.168,0.143,0.688-0.341,1.158-0.852
						c0.471-0.512,0.392-0.608,0.279-0.711C355.763,203.835,355.66,203.763,355.189,204.275"/>
					<path style="fill:#C18167;" d="M356.939,204.463c-0.47,0.511-0.868,1.125-0.752,1.225c0.168,0.143,0.688-0.341,1.158-0.852
						c0.471-0.512,0.392-0.608,0.279-0.711S357.41,203.951,356.939,204.463"/>
					<path style="fill:#C18167;" d="M376.783,204.275c-0.47,0.511-0.868,1.125-0.752,1.225c0.168,0.143,0.688-0.341,1.158-0.852
						c0.471-0.512,0.392-0.608,0.279-0.711C377.356,203.835,377.254,203.763,376.783,204.275"/>
					<path style="fill:#C18167;" d="M379.219,204.125c-0.112-0.103-0.215-0.174-0.687,0.338c-0.469,0.511-0.867,1.125-0.751,1.224
						c0.167,0.144,0.688-0.34,1.158-0.851C379.41,204.324,379.331,204.228,379.219,204.125"/>
					<path style="fill:#586075;" d="M252,397.282V299h-6.25v98.282c-26.536,0.663-36.25,11.863-36.25,19.468v16.5
						c0,1.657,1.343,3,3,3c1.657,0,3-1.343,3-3v-16.5c0-4.252,7.466-12.875,30.25-13.466v31.841c0,1.726,1.399,3.125,3.125,3.125
						c1.726,0,3.125-1.399,3.125-3.125v-31.841c22.783,0.591,30.25,9.214,30.25,13.466v16.5c0,1.657,1.344,3,3,3
						c1.656,0,3-1.343,3-3v-16.5C288.25,409.146,278.536,397.945,252,397.282"/>
					<path style="fill:#586075;" d="M248.875,339.875L248.875,339.875c-4.764,0-8.625-3.861-8.625-8.625v-35.125h17.25v35.125
						C257.5,336.014,253.639,339.875,248.875,339.875"/>
					<path style="fill:#586075;" d="M239.125,367.125c0-5.247,4.253-9.5,9.5-9.5s9.5,4.253,9.5,9.5s-4.253,9.5-9.5,9.5
						S239.125,372.372,239.125,367.125"/>
					<path style="fill:#848BA0;" d="M352.742,290.25c-20.11-3.873-59.082-6.5-103.867-6.5c-44.785,0-83.757,2.627-103.867,6.5H130.5
						v6c0,6.903,52.998,12.5,118.375,12.5s118.375-5.597,118.375-12.5v-6H352.742z"/>
					<path style="fill:#BABECC;" d="M130.5,290.25c0-6.903,52.999-12.5,118.375-12.5c65.377,0,118.375,5.597,118.375,12.5
						c0,6.903-52.998,12.5-118.375,12.5C183.499,302.75,130.5,297.153,130.5,290.25"/>
					<g>
						<ellipse style="opacity:0.5;fill:#848BA0;" cx="242.754" cy="293.5" rx="20.754" ry="5.5"/>
						<path style="opacity:0.5;fill:#848BA0;" d="M202.75,294.674c0,2.224-6.501,4.026-14.519,4.026
							c-8.019,0-14.519-1.803-14.519-4.026c0-2.223,6.501-4.025,14.519-4.025C196.249,290.648,202.75,292.451,202.75,294.674z"/>
						<path style="opacity:0.5;fill:#848BA0;" d="M338.125,285.313c0,1.898-16.708,3.438-37.322,3.438
							c-20.61,0-37.321-1.539-37.321-3.438s16.711-3.438,37.321-3.438C321.417,281.875,338.125,283.414,338.125,285.313z"/>
					</g>
					<path style="fill:#FFFFFF;" d="M326.233,241.099c-2.63-3.068-6.683-1.494-8.459-0.233c-0.637,0.452-0.786,1.333-0.336,1.972
						c0.268,0.38,0.689,0.583,1.122,0.594c0.295,0.009,0.594-0.069,0.853-0.25c0.124-0.087,3.063-2.107,4.667-0.237
						c1.002,1.17,0.887,2.851,0.444,4.034c-0.477,1.279-1.379,2.193-2.295,2.328c-1.946,0.291-2.467-0.615-2.5-0.673
						c-0.22-0.535-0.73-0.862-1.276-0.876c-0.19-0.005-0.386,0.027-0.575,0.104c-0.724,0.299-1.069,1.128-0.771,1.852
						c0.046,0.112,1.066,2.489,4.383,2.489c0.357,0,0.742-0.027,1.155-0.09c1.952-0.289,3.69-1.875,4.537-4.141
						C328.108,245.495,327.744,242.862,326.233,241.099"/>
					<path style="fill:#FFFFFF;" d="M316.882,251.313l-5.622-0.613c-0.08-0.273-0.135-0.448-0.135-0.448l-1.996,0.217l-1.997-0.217
						c0,0-0.055,0.175-0.135,0.448l-5.622,0.613c0.188,0.188-1.5,3.439,1.688,4.438c1.096,0.344,5.097,0.649,6.063,0.625
						c0.966,0.024,4.974-0.281,6.069-0.625C318.382,254.751,316.694,251.5,316.882,251.313"/>
					<path style="fill:#FFFFFF;" d="M320.882,238.875l-10.741-0.421c-0.009-0.047-0.016-0.079-0.016-0.079l-0.996,0.039
						l-0.997-0.039c0,0-0.007,0.032-0.017,0.079l-10.74,0.421c0,0.187-0.125,7,0.938,10.813c1.063,3.812,5.438,4.187,10.25,4.187
						c0.205,0,0.39-0.037,0.566-0.091c0.176,0.054,0.36,0.091,0.564,0.091c4.813,0,9.188-0.375,10.251-4.187
						C321.007,245.875,320.882,239.062,320.882,238.875"/>
					<path style="fill:#848BA0;" d="M297.563,238.813c0-1.243,5.205-2.25,11.625-2.25c6.42,0,11.625,1.007,11.625,2.25
						c0,1.243-5.205,2.25-11.625,2.25C302.768,241.063,297.563,240.056,297.563,238.813"/>
					<path style="fill:#351C17;" d="M314.625,239.389c-1.75-0.338-3.581-0.773-5.375-0.639c-0.824,0.062-1.649,0.126-2.473,0.21
						c-0.395,0.04-4.555,0.611-6.628,1.267c2.132,0.51,5.387,0.836,9.038,0.836c3.564,0,6.749-0.311,8.882-0.8
						C317.036,239.714,315.807,239.617,314.625,239.389z"/>
					<path style="fill:#4C2263;" d="M350.083,229.75c-1.75,1-5.25,3.75-7.333,8.917c-2.083,5.166-10.333,31.666-11.5,32.083
						s-37.417,0.667-37.417,0.667L294.5,284c16,0.917,41.417,0.833,45.333-1.667c3.917-2.5,6.292-16.083,6.292-16.083
						c0.25-1.875-1.5-7.248-1.5-11.625c0-5.125,2-11.125,2.875-13.75"/>
					<path style="fill:#834193;" d="M385.417,239.917c0,0-15.167,35.918-15.667,35.918s-33.083-20.25-33.083-20.25l-7.5,9.75
						c0,0,12.083,9.5,24.666,17.75c12.584,8.25,22,11.332,28.417,3.5c6.417-7.834,17.5-34.334,18.917-42.668
						c1.416-8.333-2.625-14.667-11.604-15.854"/>
					<path style="fill:#DDA485;" d="M297.333,278c0.642-6.669-1.75-7.833-9.416-10.417c-7.667-2.583-12.73-1.958-19.105,0.854
						c-4.098,1.809-4.311,4.396-0.561,4.813s8,3.333,9.083,7.083c1.084,3.75,4.084,6.167,11.667,5.667S296.917,282.333,297.333,278"
						/>
					<path style="fill:#C18167;" d="M287.271,274.393c-2.601-1.111-4.311-3.684-8.268-3.741c-3.335-0.317-4.959,1.752-7.452,2.164
						c-0.833,0.138-1.974,0.35-3.132,0.46c3.708,0.483,7.848,3.363,8.915,7.058c1.084,3.75,4.084,6.167,11.667,5.667
						c4.827-0.318,6.712-1.72,7.556-3.813C294.489,278.536,291.183,276.065,287.271,274.393z"/>
					<path style="fill:#C18167;" d="M278,270.938c0,0-8.5,1.563-11.375,2.875s-2.064,4.938,1.5,4.375
						c3.563-0.563,8.75-0.875,8.75-0.875"/>
					<path style="fill:#C18167;" d="M281.313,283.625c0,0-5.5,1.25-9.125,1.563s-4.25-2.938-1.75-3.938s6.063-1.563,6.063-1.563
						l1.249-0.438"/>
					<path style="fill:#C18167;" d="M277.563,276.188c0,0-7.688,0.938-9.939,2.125c-2.25,1.189-1.561,3.938,2.314,3.5
						s9.813-1,9.813-1"/>
					<path style="fill:#DDA485;" d="M294.426,277.092c-0.335-1.976-2.422-3.572-4.044-4.531c-0.976-0.577-2.808-0.95-3.846-0.436
						c-0.049-0.085-0.1-0.175-0.146-0.251c-0.198-0.325-0.577-0.278-0.788-0.075l-2.165-2.924c-4.563,2.375-9.25,6.688-6.501,8.125
						c2.75,1.439,5.314-1.563,6.501-2.5c1.188-0.936,1.125-0.936,2,1.438c0.673,1.826,3.443,2.505,4.692,2.722
						c0.114,0.058,0.229,0.114,0.348,0.16C291.829,279.341,294.796,279.277,294.426,277.092z"/>
					<path style="fill:#DDA485;" d="M335.333,261.167c1.644-2.968,2.167-4.584,1.417-6.167c-0.75-1.583-6.667-9.5-9.083-10.416
						c-2.417-0.917-13.334-2-15.5-1.834c-2.167,0.167-3.334,4.25,0.083,4.75s4.417,7.25,5.583,10.083c1.167,2.834,4.334,7,9.5,8.334
						C332.5,267.25,332.75,265.833,335.333,261.167"/>
					<path style="fill:#DDA485;" d="M320.25,247.5c-3.125-0.562-8-1-9.625-0.562c-1.625,0.437-2.689,3.937,0.375,4.251
						c3.063,0.311,6,1.436,6,1.436"/>
					<path style="fill:#DDA485;" d="M320.875,260.813c0,0-3.939,0.125-7.375-0.686c-3.439-0.814-3.625-4.439-0.375-4.689
						l4.061-0.311l0.314-1.439"/>
					<path style="fill:#DDA485;" d="M318.625,251.938c0,0-4.625-0.75-7.875-0.811c-3.384-0.066-2.75,4.186,0.5,4.436s6.75,1,6.75,1"
						/>
					<path style="fill:#FFFFFF;" d="M312.64,229.207c-0.228-0.516-0.469-1.042-0.685-1.57c-0.442-1.055-0.764-2.133-0.817-3.123
						c-0.091-1.999,0.797-3.437,0.613-3.514c-0.054-0.032-0.341,0.267-0.664,0.869c-0.325,0.594-0.676,1.525-0.727,2.649
						c-0.047,1.122,0.238,2.36,0.649,3.481c0.371,1.132,0.999,2.211,1.032,2.999c0.052,0.834-0.308,1.426-0.601,1.85
						c-0.311,0.422-0.591,0.685-0.772,0.88c-0.372,0.382-0.365,0.506-0.294,0.647c0.064,0.129,0.198,0.248,0.751-0.018
						c0.27-0.139,0.655-0.374,1.101-0.87c0.416-0.484,0.984-1.323,0.913-2.557C313.107,230.349,312.87,229.681,312.64,229.207"/>
					<path style="fill:#FFFFFF;" d="M307.44,226.676c-0.231-0.835-0.4-1.671-0.443-2.431c-0.091-1.521,0.29-2.69,0.126-2.745
						c-0.112-0.057-0.787,1.044-0.903,2.741c-0.058,0.838,0.047,1.781,0.235,2.671c0.167,0.876,0.479,1.783,0.539,2.4
						c0.085,1.326-0.417,1.936-0.548,2.29c-0.174,0.35-0.128,0.462-0.03,0.586c0.087,0.114,0.236,0.209,0.626-0.085
						c0.189-0.152,0.439-0.408,0.681-0.866c0.231-0.453,0.451-1.143,0.367-2.026C307.979,228.289,307.654,227.532,307.44,226.676"/>
					<path style="fill:#A53245;" d="M350.333,359.333c0,0,0.042-21.958,0.292-25.708s6.75-11.875,10.375-12.75
						s50.75-8.375,50.75-8.375s5.125-54.5,4.25-62.125s-3.375-11.25-6.25-11.25c0,0,9.5-1.25,11.25,7s0.625,20-0.5,32.375
						s-4.25,57.375-4.875,60.25s-0.625,8.75-11.75,11S350.333,359.333,350.333,359.333"/>
					<polyline style="fill:#FFE1C0;" points="123.75,230.875 124.437,221.562 137.75,221.562 137.063,231.5 					"/>
					<path style="fill:#F2C1A5;" d="M129.372,229.962c2.484,1.098,5.081,1.236,7.719,1.141l0.66-9.542h-13.313l-0.366,4.965
						C125.758,227.803,127.457,229.116,129.372,229.962z"/>
					<path style="fill:#9B622F;" d="M156.333,190.167c0,0-0.126,0.022-0.363,0.059c-3.163,0.494-26.099,3.673-34.47-6.559"/>
					<path style="fill:#FFE1C0;" d="M121.5,183.667c0,0,1.25,5.75-1.083,8.75c-2.334,3-2.834,3.25-2.834,3.25L117.167,204
						c0,0-0.343,0.789-1.25,1.174v4.493c0,9.757,8.909,17.667,18.666,17.667c12,0.166,16.667-5.91,16.667-15.667V190.78
						C143.259,191.471,127.997,191.606,121.5,183.667"/>
					<path style="fill:#F2C1A5;" d="M119.081,197.735c1.467-1.01,3.972-2.959,4.574-4.728c0.683-2.008,2.03-1.656,3.694-0.811
						c7.029,3.57,16.195,4.218,23.901,2.22v-3.636c-7.991,0.69-23.253,0.826-29.75-7.114c0,0,1.25,5.75-1.083,8.75
						c-2.334,3-2.834,3.25-2.834,3.25l-0.145,2.895C118.023,198.34,118.581,198.08,119.081,197.735z"/>
					<path style="fill:#FFE1C0;" d="M117.666,204.084c0,0-0.833-5.583-5.167-5.583c-4.333,0-4.062,9.583-0.812,11.75
						c3.25,2.166,5.125-0.25,5.125-0.25"/>
					<path style="fill:#351C17;" d="M111.563,202.5c-0.023,0.005-0.052-0.065-0.055-0.215c0.001-0.146,0.078-0.398,0.326-0.582
						c0.475-0.351,1.496-0.368,2.193,0.41c0.612,0.724,1.108,1.668,1.408,2.785c0.139,0.559,0.232,1.174,0.087,1.829
						c-0.073,0.33-0.272,0.719-0.633,0.922c-0.354,0.208-0.764,0.221-1.111,0.132c-0.699-0.181-1.176-0.726-1.296-1.286
						c-0.124-0.575,0.056-1.026,0.234-1.36c0.193-0.348,0.496-0.587,0.771-0.683c0.277-0.101,0.508-0.098,0.68-0.081
						c0.683,0.127,0.645,0.307,0.615,0.379c-0.037,0.112-0.1,0.118-0.624,0.14c-0.253,0.036-0.617,0.1-0.847,0.568
						c-0.113,0.241-0.211,0.567-0.129,0.868c0.065,0.301,0.355,0.634,0.777,0.743c0.438,0.105,0.763-0.072,0.859-0.508
						c0.112-0.463,0.06-0.995-0.052-1.492c-0.23-0.996-0.67-1.923-1.143-2.576c-0.435-0.61-1.222-0.701-1.589-0.53
						C111.638,202.129,111.656,202.502,111.563,202.5"/>
					<path style="fill:#351C17;" d="M125.219,195.719c-0.116-0.084,0.126-0.716,0.765-1.387c0.322-0.313,0.768-0.72,1.499-0.742
						c0.567,0.004,1.106,0.174,1.515,0.391c0.815,0.452,1.092,0.859,1.201,1.094c0.102,0.246,0.011,0.361-0.105,0.457
						c-0.118,0.097-0.229,0.171-0.446,0.092c-0.22-0.07-0.537-0.324-1.16-0.668c-0.313-0.166-0.679-0.303-1.055-0.354
						c-0.232-0.048-0.634,0.12-0.955,0.329C125.818,195.357,125.343,195.815,125.219,195.719"/>
					<path style="fill:#351C17;" d="M148.032,196c-0.139,0.062-0.488-0.47-1.116-0.85c-0.308-0.19-0.676-0.323-1.052-0.373
						c-0.354-0.038-0.69,0.029-0.985,0.148c-0.584,0.264-0.882,0.525-1.09,0.591c-0.207,0.08-0.321,0.012-0.444-0.078
						c-0.122-0.089-0.22-0.2-0.127-0.45c0.103-0.233,0.361-0.677,1.244-1.08c0.444-0.188,1.047-0.265,1.602-0.124
						c0.528,0.135,1.015,0.425,1.344,0.764C148.078,195.235,148.17,195.959,148.032,196"/>
					<path style="fill:#351C17;" d="M137.532,211.993c-0.043-0.097,0.206-0.298,0.561-0.618c0.175-0.158,0.376-0.358,0.506-0.574
						c0.117-0.255,0.12-0.291-0.069-0.605c-0.379-0.555-0.888-1.05-1.208-1.423c-0.332-0.374-0.522-0.634-0.458-0.718
						c0.062-0.083,0.373,0.031,0.806,0.313c0.428,0.292,1.002,0.705,1.496,1.421c0.112,0.198,0.241,0.384,0.253,0.712
						c0,0.297-0.122,0.519-0.243,0.69c-0.259,0.328-0.543,0.502-0.783,0.626C137.909,212.057,137.572,212.086,137.532,211.993"/>
					<path style="fill:#351C17;" d="M144.907,201.563c0-1.217,0.474-1.823,1.047-1.893c0.016-0.002,0.031-0.013,0.047-0.013
						c0.006,0,0.012,0.005,0.019,0.005c0.014,0,0.029-0.005,0.043-0.005c0.622,0,1.094,0.612,1.094,1.906v0.875
						c0,1.217-0.474,1.823-1.047,1.893c-0.016,0.002-0.031,0.013-0.047,0.013c-0.006,0-0.012-0.005-0.019-0.005
						c-0.014,0-0.029,0.005-0.043,0.005c-0.621,0-1.094-0.612-1.094-1.906V201.563z"/>
					<path style="fill:#351C17;" d="M147.844,199.5c0.187,0.067-0.054,0.94-0.792,1.425c-0.738,0.441-0.876,0.188-0.895,0.012
						c-0.042-0.22-0.06-0.296,0.485-0.623C147.19,199.967,147.574,199.371,147.844,199.5"/>
					<path style="fill:#351C17;" d="M128.438,201.5c0-1.217-0.474-1.823-1.047-1.893c-0.016-0.002-0.031-0.013-0.047-0.013
						c-0.006,0-0.012,0.005-0.019,0.005c-0.014,0-0.029-0.005-0.043-0.005c-0.621,0-1.094,0.612-1.094,1.906v0.875
						c0,1.217,0.474,1.823,1.047,1.893c0.016,0.002,0.031,0.013,0.047,0.013c0.006,0,0.012-0.005,0.019-0.005
						c0.014,0,0.029,0.005,0.043,0.005c0.622,0,1.094-0.612,1.094-1.906V201.5z"/>
					<path style="fill:#351C17;" d="M125.5,199.438c0.182-0.096,0.659,0.476,1.202,0.814c0.545,0.327,0.527,0.403,0.485,0.623
						c-0.019,0.176-0.157,0.429-0.895-0.012C125.562,200.385,125.241,199.564,125.5,199.438"/>
					<path style="fill:#F2C1A5;" d="M123.438,208.563c-0.116-0.099,0.282-0.713,0.752-1.225c0.471-0.511,0.574-0.441,0.685-0.337
						c0.112,0.103,0.191,0.199-0.279,0.71C124.125,208.223,123.606,208.707,123.438,208.563"/>
					<path style="fill:#F2C1A5;" d="M125.188,208.75c-0.116-0.099,0.282-0.713,0.752-1.225c0.471-0.511,0.574-0.441,0.685-0.337
						c0.112,0.103,0.191,0.199-0.279,0.71C125.875,208.41,125.356,208.894,125.188,208.75"/>
					<path style="fill:#F2C1A5;" d="M145.032,208.563c-0.116-0.099,0.282-0.713,0.752-1.225c0.471-0.511,0.574-0.441,0.685-0.337
						c0.112,0.103,0.191,0.199-0.279,0.71C145.719,208.223,145.2,208.707,145.032,208.563"/>
					<path style="fill:#F2C1A5;" d="M146.782,208.75c-0.116-0.099,0.282-0.713,0.752-1.225c0.471-0.511,0.574-0.441,0.685-0.337
						c0.112,0.103,0.191,0.199-0.279,0.71C147.469,208.41,146.95,208.894,146.782,208.75"/>
					<path style="fill:#351C17;" d="M141.063,217.125c0.117,0.005,0.175,0.743-0.542,1.593c-0.174,0.205-0.39,0.403-0.633,0.59
						c-0.067,0.048-0.111,0.088-0.2,0.142c-0.092,0.054-0.189,0.107-0.272,0.135c-0.178,0.075-0.344,0.119-0.517,0.159
						c-0.685,0.154-1.413,0.199-2.18,0.191c-0.765-0.01-1.492-0.088-2.151-0.218c-0.652-0.124-1.297-0.365-1.719-0.7
						c-0.887-0.674-0.981-1.432-0.849-1.455c0.129-0.056,0.437,0.466,1.226,0.85c0.751,0.395,2.067,0.476,3.507,0.515
						c0.716,0.01,1.409-0.01,1.988-0.094c0.143-0.021,0.284-0.046,0.391-0.08c0.065-0.014,0.099-0.032,0.139-0.046
						c0.041-0.015,0.115-0.062,0.168-0.091c0.23-0.135,0.433-0.269,0.603-0.407C140.71,217.665,140.914,217.082,141.063,217.125"/>
					<path style="fill:#4D9E3F;" d="M114.788,229.812c-2.462,0.108-6.864,0.803-9.788,3.813c-4.25,4.375-3.625,7.25-3,27.249
						c0.625,20,2.25,24.375,7.375,27s42.625,7.75,42.625,7.75l1.25-12.375c0,0-35.625-6.25-36.75-7.5s-2.625-33.624-2.625-33.624"/>
					<path style="fill:#351C17;" d="M201,423.167c-1.961-1.211-4.197-2.62-6.289-3.947l-3.211,4.447c0,0-2.667-0.667-10.333-2.334
						c-3.414-0.742-5.6-2.045-6.98-3.263c-0.696,3.966-1.206,6.352-0.354,7.097c1.334,1.166,26.334,8.333,29.5,6.666
						C206.5,430.167,206.667,426.667,201,423.167"/>
					<path style="fill:#A53245;" d="M143.199,359.333c0,0-0.042-21.958-0.292-25.708s-6.75-11.875-10.375-12.75
						s-50.75-8.375-50.75-8.375s-5.125-54.5-4.25-62.125s3.375-11.25,6.25-11.25c0,0-9.5-1.25-11.25,7s-0.625,20,0.5,32.375
						s4.25,57.375,4.875,60.25s0.625,8.75,11.75,11S143.199,359.333,143.199,359.333"/>
					<path style="fill:#442621;" d="M168.297,419.063c-1.133,1.548-2.634,3.54-3.131,3.939c-0.741,0.592-12.694-1.697-17.729-5.561
						c-0.429,3.447-0.691,5.549-0.437,6.226c0.5,1.333,15.5,6.668,24.5,7.668s10.166-2.168,6.833-5.5
						C176.662,424.161,172.266,421.4,168.297,419.063"/>
					<path style="fill:#FFE1C0;" d="M190.75,246.834c3.25,1.167,7.333,1.083,9.083-1.25c1.75-2.333,6.334-10.5,7.417-13.917
						c1.083-3.416-2.083-4.5-3.917-4.583c-1.833-0.083-4.416,2.167-4.083-0.417c0.333-2.583-0.333-3.75-2.583-3.666
						c-2.25,0.083-7.834,14.166-8.917,16.25C186.667,241.334,186.583,245.417,190.75,246.834"/>
					<path style="fill:#FFE1C0;" d="M192.75,243.042c0,0-0.458-4.583-2.625-5.792c-2.167-1.208-1.75-0.708-1.958-3.291
						c-0.209-2.584-0.459-4.792-2.5-4.75c-2.042,0.041-1.959,3.041-1.75,5.875c0.208,2.833-0.125,9.291,6.833,11.75"/>
					<path style="fill:#FFE1C0;" d="M201.041,236.292c0,0,4.083-7.458,5.25-9.542c1.167-2.083-1.667-3.958-3.458-1.291
						c-1.792,2.666-4.709,8.333-4.709,8.333"/>
					<path style="fill:#FFE1C0;" d="M198.25,235c0,0,3.667-6.958,5.042-9.417c1.375-2.458-1.709-5.041-3.667-1.5
						c-1.958,3.542-4.958,9.792-4.958,9.792"/>
					<path style="fill:#F2C1A5;" d="M202.791,237.459c0,0-5-3.417-10.708-3.458"/>
					<path style="fill:#FFFFFF;" d="M182.458,289.417H178c-0.653,0-6.375-0.242-6.375-8.625c0-8.447,3.054-9.709,4.875-9.709h6.25
						c0.828,0,1.5,0.672,1.5,1.5s-0.672,1.5-1.5,1.5h-6.25c-0.754,0-1.875,1.787-1.875,6.709c0,4.148,1.743,5.625,3.375,5.625h4.458
						c0.829,0,1.5,0.672,1.5,1.5C183.958,288.745,183.288,289.417,182.458,289.417"/>
					<path style="fill:#FFFFFF;" d="M195.844,295.5h-11.75c-2.14,0-3.875-1.735-3.875-3.875V268.25h19.5v23.375
						C199.719,293.765,197.984,295.5,195.844,295.5"/>
					<path style="fill:#848BA0;" d="M180.219,268.083c0-0.943,4.365-1.708,9.75-1.708c5.385,0,9.75,0.765,9.75,1.708
						s-4.365,1.709-9.75,1.709C184.583,269.792,180.219,269.026,180.219,268.083"/>
					<path style="fill:#351C17;" d="M192.382,267.847c-3.181-0.072-7.286-0.104-10.315,1.234c1.771,0.43,4.646,0.711,7.902,0.711
						c3.813,0,7.106-0.385,8.709-0.944C196.636,268.226,194.497,267.895,192.382,267.847z"/>
					<path style="fill:#FFFFFF;" d="M187.94,248.042c0.07-0.044,0.86,1.348,0.955,3.435c0.047,1.033-0.107,2.189-0.362,3.29
						c-0.432,2.065-0.564,1.519-0.722,3.038c-0.081,0.882,0.109,1.543,0.304,2.015c0.203,0.475,0.406,0.777,0.538,0.992
						c0.28,0.422,0.273,0.509,0.199,0.604c-0.063,0.085-0.2,0.154-0.639-0.223c-0.212-0.193-0.503-0.506-0.787-1.053
						c-0.274-0.541-0.535-1.357-0.437-2.412c0.128-1.083,0.543-2.066,0.806-3.144c0.287-1.059,0.488-2.134,0.517-3.105
						C188.373,249.528,187.803,248.084,187.94,248.042"/>
					<path style="fill:#FFFFFF;" d="M191.883,250.75c0.094-0.03,0.547,1.103,0.632,2.709c0.152,2.004-0.261,3.196-0.491,4.987
						c-0.089,1.404,0.247,2.096,0.339,2.467c0.123,0.37,0.08,0.448-0.011,0.525c-0.081,0.069-0.216,0.109-0.503-0.25
						c-0.252-0.352-0.753-1.179-0.647-2.807c0.206-1.585,0.698-3.38,0.73-4.92C191.999,251.941,191.758,250.779,191.883,250.75"/>
					<path style="fill:#FFE1C0;" d="M148.666,288.333c0.591-7.978,4.333-9.833,7.917-11.666c3.583-1.834,6.916-2.167,11.833-2.25
						c4.917-0.084,6.75,0.333,6.75,2.416c0,2.084-5.083,1.917-6.75,2.25c-1.667,0.334-3.5,9.084-5,12.167s-2.75,3.833-8.333,4.5
						C149.499,296.417,148.333,292.833,148.666,288.333"/>
					<path style="fill:#FFE1C0;" d="M164.5,286.667c0,0,5,0.416,7.417,1.416c2.416,1,1.583,4-2.25,4.417
						c-3.834,0.417-8.25,0.25-8.25,0.25"/>
					<path style="fill:#FFE1C0;" d="M165.166,282.667c0,0,4,0.166,7.917,0.166c3.916,0,4.75,4.5-0.084,4.75
						c-4.833,0.25-9.5,0.334-9.5,0.334"/>
					<path style="fill:#FFE1C0;" d="M164,278.5h9.417c3.666,0,4.01,4.176-0.334,4.333c-4.583,0.167-9,0.25-9,0.25"/>
				</g>
				<g>
					<path style="fill:#BBBBBC;" d="M232.913,281.549c0.274-0.934-0.785-2.419-1.96-3.215c-1.335-0.903-2.622-1.875-3.76-2.975
						c-2.312-2.235-4.762-5.1-4.975-8.26c-0.211-3.121,1.63-5.883,4.87-7.14c1.99-0.772,4.405-0.769,6.243-1.856
						c2.611-1.546,3.203-4.044,1.632-5.976c-1.462-0.388-3.163,0.08-3.593,1.785c-0.695,2.763-6.357,1.865-8.534,3.968
						c-2.1,2.029-3.3,4.489-3.614,7.242c-0.808,7.086,3.777,13.02,10.193,16.794C230.771,282.715,232.079,282.36,232.913,281.549z"
						/>
					<path style="fill:#FFFFFF;" d="M250.5,261.938c0.186,0,6.311,0.5,8.938-4.436c2.625-4.939,5.438-9.376,9.999-10.689l0.5,2.062
						c0,0-2.686,0.938-5.311,7.563s-3.813,11.438-12.564,14.375C243.313,273.751,250.5,261.938,250.5,261.938"/>
					<path style="fill:#FFFFFF;" d="M242.279,296.167c-3.807,0.003-14.137-0.828-13.923-4.169l2.605-41.664h22.499l2.605,41.664
						C256.28,295.339,246.055,296.163,242.279,296.167"/>
					<path style="fill:#E0E1E2;" d="M247.816,292.332c-3.345,0.209-7.263,0.685-10.129-1.522c-3.112-2.397-3.593-5.726-4.173-9.403
						c-1.181-7.478-2.362-15.196,2.34-21.741c4.218-5.871,11.133-6.444,17.749-7.063l-0.142-2.269h-22.499l-2.605,41.664
						c-0.214,3.341,10.116,4.172,13.923,4.169c3.776-0.004,14.001-0.828,13.786-4.169l-0.041-0.656
						C253.371,292.088,250.6,292.158,247.816,292.332z"/>
					<path style="fill:#E0E1E2;" d="M236.992,245.75h10.438c2.502,0,7.531,1.529,7.531,4.031c0,1.226-0.993,2.219-2.219,2.219
						H231.68c-1.226,0-2.219-0.993-2.219-2.219C229.461,247.279,234.49,245.75,236.992,245.75"/>
					<path style="fill:#BBBBBC;" d="M248.757,249.678c-3.741,0.307-7.567,0.886-11.324,0.5c-1.845-0.189-4.784-0.391-5.912-2.199
						c-0.135-0.216-0.215-0.417-0.271-0.61c-1.05,0.642-1.789,1.455-1.789,2.412c0,1.226,0.993,2.219,2.219,2.219h21.062
						c1.226,0,2.219-0.993,2.219-2.219c0-0.276-0.07-0.537-0.183-0.789C252.787,249.312,250.776,249.512,248.757,249.678z"/>
					<polyline style="fill:#E0E1E2;" points="239.992,246.813 239.992,241.876 244.429,241.876 244.429,246.813 					"/>
					<path style="fill:#FFFFFF;" d="M244.001,243.438h-3.581c-0.859,0-2.585-1.04-2.585-2.741c0-0.834,1.341-1.509,1.762-1.509
						h5.227c0.421,0,1.761,0.675,1.761,1.509C246.585,242.398,244.86,243.438,244.001,243.438"/>
				</g>
			</g>
		</g>
		<g>
			<path style="fill:#EFD860;" d="M433.678,360.449c-0.688-0.303-1.484,0.008-1.786,0.692l-20.776,47.123
				c-0.303,0.686,0.008,1.484,0.692,1.786c0.179,0.079,0.363,0.116,0.546,0.116c0.521,0,1.018-0.302,1.24-0.809l20.776-47.123
				C434.673,361.55,434.362,360.751,433.678,360.449"/>
			<path style="fill:#EFD860;" d="M431.892,354.853c1.682-3.35,4.693-5.237,6.727-4.217c2.035,1.021,2.321,4.564,0.64,7.914
				c-1.681,3.35-4.693,5.238-6.728,4.217C430.496,361.746,430.211,358.202,431.892,354.853"/>
			<path style="fill:#EFD860;" d="M406.625,338.109c-0.748,0.042-1.318,0.682-1.276,1.429l4.446,75.78
				c0.042,0.748,0.682,1.319,1.429,1.276c0.194-0.011,0.376-0.061,0.538-0.145c0.464-0.236,0.77-0.732,0.738-1.283l-4.446-75.781
				C408.012,338.638,407.372,338.067,406.625,338.109"/>
			<path style="fill:#EFD860;" d="M402.492,333.935c-0.024-3.747,1.802-6.798,4.078-6.812c2.275-0.016,4.141,3.011,4.165,6.759
				c0.023,3.748-1.802,6.798-4.078,6.813C404.381,340.709,402.517,337.683,402.492,333.935"/>
			<path style="fill:#A53245;" d="M422.895,450h-25.205c-2.183,0-4.027-1.617-4.314-3.781l-5.501-41.719h44.833l-5.501,41.719
				C426.922,448.383,425.077,450,422.895,450"/>
			<path style="fill:#35752E;" d="M413.131,346.572c1.473,0.067,4.592,10.399,4.179,30.657c-0.412,20.257-2.865,35.354-2.865,35.354
				l-2.32-0.43c0,0-2.079-15.19-2.774-35.893C408.654,355.558,411.896,346.517,413.131,346.572"/>
			<path style="fill:#7F8C8D;" d="M410.292,407.5c11.984,0,21.771-1.328,22.385-3c0.021-0.055,0.031-0.11,0.031-0.167
				c0-1.749-10.036-3.166-22.416-3.166c-12.381,0-22.417,1.417-22.417,3.166c0,0.057,0.011,0.112,0.031,0.167
				C388.52,406.172,398.307,407.5,410.292,407.5"/>
			<path style="fill:#4D9E3F;" d="M425.083,333c-1.89-0.199-7.916,11.833-11.416,36.667c-3.5,24.833-3.375,43.75-3.375,43.75
				l3.041-0.084c0,0,5.667-18.166,10.667-43.333S426.667,333.167,425.083,333"/>
			<path style="fill:#35752E;" d="M397.663,340.836c1.613-0.18,6.759,10.68,9.746,33.094c2.988,22.413,2.882,39.487,2.882,39.487
				l-2.597-0.075c0,0-4.838-16.396-9.106-39.111C394.32,351.516,396.311,340.986,397.663,340.836"/>
			<path style="fill:#2C6025;" d="M434.583,380.75c-1.314-0.788-8.166,3.083-14.416,13.75s-9.584,17.5-9.584,17.5l2.75,1.333
				c0,0,8.084-8.083,14.167-15.916C433.583,389.583,435.417,381.25,434.583,380.75"/>
			<path style="fill:#4D9E3F;" d="M390,379.25c-1.624,0.738,0.333,7.25,5.833,16.917c5.5,9.666,11.167,16,11.167,16l3.333-1.667
				c0,0-5.368-12.68-9.583-19.5C396.629,384.331,391.713,378.472,390,379.25"/>
			<path style="fill:#FFFFFF;" d="M410.292,407.5c-11.985,0-21.772-1.328-22.386-3h-0.031l0.64,4.853l0.252,1.906
				c3.02,1.254,11.513,2.158,21.525,2.158c10.012,0,18.504-0.904,21.525-2.158l0.251-1.906l0.64-4.853h-0.031
				C432.063,406.172,422.276,407.5,410.292,407.5"/>
		</g>
		<g>
			<path style="fill:#A53245;" d="M81.644,446H56.439c-2.183,0-4.027-1.617-4.313-3.781L46.625,400.5h44.833l-5.501,41.719
				C85.671,444.383,83.827,446,81.644,446"/>
			<path style="fill:#7F8C8D;" d="M69.041,403.5c11.985,0,21.772-1.328,22.386-3c0.02-0.055,0.031-0.11,0.031-0.167
				c0-1.749-10.037-3.166-22.417-3.166s-22.417,1.417-22.417,3.166c0,0.057,0.011,0.112,0.032,0.167
				C47.271,402.172,57.058,403.5,69.041,403.5"/>
			<path style="fill:#35752E;" d="M79.125,380.625c0,0,4.5-5.875,8.625-4s3.875,7.75-1,9.25s-7.75,0.75-7.75,0.75L79.125,380.625z"
				/>
			<path style="fill:#2C6025;" d="M53.25,349.125c0,0-4.375-0.375-4.375-5.25S48.875,331.5,42,333s-4.25,11.25-0.875,15.625
				s9.125,4.75,11.75,3.375S53.25,349.125,53.25,349.125"/>
			<path style="fill:#35752E;" d="M58.75,334.125c-6.069,1.03-7.625,7.75-6.875,15.625s4.25,17.625,10,20.875s10.125,0.25,11.375-3
				s4.5-12,0.25-22S65.375,333,58.75,334.125"/>
			<path style="fill:#2C6025;" d="M68.342,367.678c-5.392-1.223-10.023-4.425-11.823-9.81c-1.559-4.663-2.478-9.845-2.268-14.77
				c0.119-2.778,0.566-5.927,2.209-8.202c-4.162,2.184-5.23,8.087-4.585,14.854c0.75,7.875,4.25,17.625,10,20.875
				s10.125,0.25,11.375-3c0.026-0.067,0.058-0.152,0.085-0.225C71.854,367.954,70.144,368.087,68.342,367.678z"/>
			<path style="fill:#4D9E3F;" d="M71.625,369.625C65.06,370.96,59.125,375.5,59,386s5.25,21.25,5.25,21.25l8.875,0.5
				c0,0,8.25-13,8.625-22.25S79,368.125,71.625,369.625"/>
			<path style="fill:#35752E;" d="M65.493,397.876c-2.925-1.923-4.283-5.991-4.889-9.246c-0.852-4.573,0.348-9.357,1.861-13.717
				C60.396,377.498,59.059,381.091,59,386c-0.125,10.5,5.25,21.25,5.25,21.25l8.875,0.5c0,0,2.586-4.076,4.928-9.286
				C73.941,400.111,68.699,399.982,65.493,397.876z"/>
			<path style="fill:#FFFFFF;" d="M69.041,403.5c-11.984,0-21.771-1.328-22.385-3h-0.032l0.64,4.853l0.252,1.906
				c3.021,1.254,11.513,2.158,21.525,2.158c10.012,0,18.505-0.904,21.525-2.158l0.252-1.906l0.64-4.853h-0.031
				C90.813,402.172,81.026,403.5,69.041,403.5"/>
			<path style="fill:#14350E;" d="M64.401,332.016c0.236,0.158-0.033,0.966-0.297,1.931c-0.276,0.962-0.465,1.792-0.748,1.804
				c-0.272,0.02-0.542-0.939-0.222-2.075C63.45,332.536,64.179,331.858,64.401,332.016"/>
			<path style="fill:#14350E;" d="M67.597,332.73c0.164,0.113-0.507,1.308-1.002,2.509c-0.487,1.204-0.6,1.21-0.81,1.146
				c-0.178-0.052-0.384-0.151,0.134-1.436C66.452,333.665,67.353,332.56,67.597,332.73"/>
			<path style="fill:#14350E;" d="M75.248,342.869c0.048,0.194-1.156,0.631-2.243,1.17c-1.083,0.545-1.172,0.471-1.287,0.285
				c-0.1-0.157-0.19-0.363,0.97-0.948C73.858,342.8,75.179,342.58,75.248,342.869"/>
			<path style="fill:#14350E;" d="M77.124,347.468c0.019,0.202-1.633,0.412-3.229,0.456c-1.595,0.044-1.64-0.119-1.646-0.322
				c-0.005-0.203,0.03-0.368,1.626-0.412C75.471,347.146,77.097,347.174,77.124,347.468"/>
			<path style="fill:#14350E;" d="M77.881,355.703c-0.014,0.202-1.44,0.191-2.795,0.021c-1.355-0.167-1.369-0.335-1.344-0.536
				c0.026-0.201,0.08-0.36,1.434-0.192C76.531,355.164,77.902,355.408,77.881,355.703"/>
			<path style="fill:#14350E;" d="M55.142,369.015c-0.169-0.119,0.76-1.448,1.978-2.416c1.218-0.955,1.372-0.797,1.477-0.641
				c0.122,0.18,0.15,0.297-1.014,1.211C56.422,368.093,55.377,369.19,55.142,369.015"/>
			<path style="fill:#14350E;" d="M52.746,362.367c-0.109-0.171,0.917-0.945,1.985-1.553c1.067-0.608,1.175-0.48,1.276-0.304
				c0.1,0.177,0.155,0.336-0.912,0.942C54.026,362.061,52.905,362.616,52.746,362.367"/>
			<path style="fill:#14350E;" d="M50.75,358.383c0.003-0.199,1.347-0.306,2.607-0.523c1.258-0.227,1.324-0.126,1.378,0.084
				c0.05,0.182,0.073,0.401-1.262,0.642C52.131,358.815,50.745,358.681,50.75,358.383"/>
			<path style="fill:#14350E;" d="M41.487,351.854c-0.101-0.171,0.716-0.843,1.348-1.604c0.623-0.766,0.727-0.741,0.914-0.625
				c0.158,0.094,0.343,0.243-0.359,1.106C42.67,351.59,41.637,352.113,41.487,351.854"/>
			<path style="fill:#14350E;" d="M38.056,346.283c-0.197-0.08,0.285-1.211,1.249-1.871c0.958-0.628,1.093-0.405,1.161-0.241
				c0.091,0.205,0.09,0.298-0.733,0.839C38.906,345.573,38.313,346.415,38.056,346.283"/>
			<path style="fill:#14350E;" d="M35.964,340.699c0.085-0.18,1.281,0.233,2.458,0.424c1.178,0.18,1.212,0.278,1.203,0.5
				c-0.005,0.183-0.048,0.419-1.333,0.223C37.002,341.633,35.832,340.968,35.964,340.699"/>
			<path style="fill:#14350E;" d="M48.134,332.383c0.151,0.127-0.58,1.22-1.04,2.369c-0.447,1.149-0.542,1.168-0.759,1.113
				c-0.176-0.041-0.408-0.137,0.083-1.4C46.93,333.199,47.907,332.186,48.134,332.383"/>
			<path style="fill:#14350E;" d="M50.76,335.661c0.057,0.19-1.195,0.709-2.269,1.406c-1.064,0.705-1.155,0.661-1.298,0.489
				c-0.119-0.136-0.247-0.346,0.909-1.112C49.275,335.688,50.677,335.373,50.76,335.661"/>
			<path style="fill:#14350E;" d="M57.998,348.758c0.039-0.2,1.197-0.023,2.274,0.301c1.077,0.325,1.049,0.488,0.982,0.68
				c-0.067,0.191-0.149,0.339-1.204,0.021C58.996,349.442,57.94,349.048,57.998,348.758"/>
			<path style="fill:#14350E;" d="M42.761,337.136c0.136,0.145-0.031,0.571-0.109,0.956c-0.078,0.383-0.202,0.405-0.416,0.408
				c-0.186,0.007-0.411-0.008-0.298-0.586C42.069,337.33,42.553,336.918,42.761,337.136"/>
			<path style="fill:#14350E;" d="M46.003,339.756c0.111,0.17-0.273,0.602-0.727,0.883c-0.453,0.281-0.551,0.148-0.658-0.024
				c-0.107-0.171-0.182-0.319,0.271-0.601C45.343,339.734,45.843,339.509,46.003,339.756"/>
			<path style="fill:#14350E;" d="M44,344.997c-0.011,0.098-0.119,0.186-0.292,0.174c-0.171-0.006-0.383-0.126-0.496-0.32
				c-0.199-0.423,0.045-0.469,0.226-0.472c0.209-0.012,0.351-0.01,0.407,0.098C43.913,344.604,44.018,344.704,44,344.997"/>
			<path style="fill:#14350E;" d="M46.126,348.369c-0.035,0.2-0.532,0.271-0.981,0.186c-0.449-0.086-0.43-0.25-0.391-0.449
				c0.038-0.199,0.08-0.358,0.53-0.272C45.733,347.92,46.176,348.079,46.126,348.369"/>
			<path style="fill:#14350E;" d="M57.745,338.987c0.061,0.192-0.069,0.431-0.17,0.59c-0.107,0.159-0.246,0.122-0.442,0.051
				c-0.18-0.063-0.372-0.146-0.152-0.485C57.216,338.807,57.647,338.704,57.745,338.987"/>
			<path style="fill:#14350E;" d="M66.975,342.849c0.139,0.146-0.097,0.6-0.368,0.971c-0.272,0.374-0.406,0.307-0.582,0.196
				c-0.168-0.105-0.315-0.212-0.007-0.637C66.33,342.955,66.77,342.636,66.975,342.849"/>
			<path style="fill:#14350E;" d="M55.238,355.598c-0.083-0.186,0.414-0.572,0.953-0.8c0.54-0.227,0.617-0.081,0.696,0.106
				c0.079,0.188,0.129,0.345-0.411,0.571C55.937,355.702,55.359,355.867,55.238,355.598"/>
			<path style="fill:#14350E;" d="M58.878,361.745c0.09-0.185,0.845,0.065,1.383,0.593c0.527,0.526,0.386,0.667,0.236,0.79
				c-0.162,0.135-0.28,0.204-0.744-0.259C59.283,362.407,58.742,362.004,58.878,361.745"/>
			<path style="fill:#14350E;" d="M71.001,355.251c0.089,0.183-0.185,0.493-0.516,0.648c-0.331,0.155-0.409,0.011-0.496-0.173
				c-0.086-0.184-0.148-0.337,0.183-0.492C70.503,355.079,70.872,354.986,71.001,355.251"/>
			<path style="fill:#14350E;" d="M64.726,366.604c-0.191-0.106,0.103-0.682,0.686-0.736c0.558-0.02,0.515,0.226,0.459,0.397
				c-0.059,0.206-0.111,0.32-0.377,0.333C65.208,366.618,64.961,366.775,64.726,366.604"/>
			<path style="fill:#14350E;" d="M77.98,369.483c0.151,0.128-0.398,1.034-0.705,1.974c-0.297,0.94-0.395,0.96-0.614,0.924
				c-0.18-0.026-0.417-0.096-0.079-1.168C76.94,370.136,77.753,369.286,77.98,369.483"/>
			<path style="fill:#14350E;" d="M81.258,372.316c0.025,0.196-1.155,0.501-2.189,0.994c-1.028,0.501-1.112,0.442-1.232,0.256
				c-0.102-0.151-0.205-0.372,0.929-0.926C79.915,372.099,81.223,372.02,81.258,372.316"/>
			<path style="fill:#14350E;" d="M85.617,374.122c0.181,0.078-0.122,1.176-0.152,2.239c-0.019,1.06-0.101,1.109-0.324,1.137
				c-0.177,0.026-0.43,0.025-0.41-1.175C84.772,375.112,85.344,373.996,85.617,374.122"/>
			<path style="fill:#14350E;" d="M89.862,375.233c0.126,0.155-0.645,0.978-1.293,1.819c-0.643,0.847-0.759,0.814-0.942,0.698
				c-0.161-0.099-0.329-0.237,0.366-1.155C88.701,375.682,89.674,375.003,89.862,375.233"/>
			<path style="fill:#14350E;" d="M92,383.25c0.022,0.21-1.136,0.34-2.139-0.129c-0.978-0.477-0.861-0.698-0.755-0.844
				c0.127-0.184,0.209-0.239,1.053,0.172C91.019,382.854,91.991,382.96,92,383.25"/>
			<path style="fill:#14350E;" d="M89.382,386.676c-0.001,0.095-0.353,0.175-0.873,0.094c-0.519-0.07-1.191-0.33-1.742-0.751
				c-0.548-0.425-0.735-0.745-0.798-0.919c-0.059-0.182,0.011-0.241,0.092-0.303c0.081-0.061,0.161-0.107,0.312-0.024
				c0.155,0.078,0.369,0.297,0.838,0.66C88.153,386.189,89.389,386.394,89.382,386.676"/>
			<path style="fill:#14350E;" d="M85.4,384.465c-0.117,0.166-0.604,0.014-0.981-0.262c-0.376-0.275-0.289-0.415-0.169-0.579
				c0.12-0.163,0.226-0.289,0.603-0.015C85.229,383.885,85.569,384.224,85.4,384.465"/>
			<path style="fill:#14350E;" d="M82.64,392.452c-0.054,0.195-1.545-0.029-2.931-0.396c-1.387-0.368-1.39-0.54-1.348-0.737
				c0.041-0.199,0.11-0.351,1.524,0.023C81.299,391.717,82.717,392.168,82.64,392.452"/>
			<path style="fill:#14350E;" d="M82.126,396.873c-0.091,0.18-1.626-0.509-3.105-1.14c-1.483-0.626-1.478-0.763-1.404-0.962
				c0.067-0.181,0.175-0.355,1.696,0.288C80.833,395.708,82.26,396.607,82.126,396.873"/>
			<path style="fill:#14350E;" d="M70.125,396.875c0.005,0.203-0.632,0.367-1.246,0.367c-0.613,0-0.629-0.164-0.629-0.367
				s0.016-0.367,0.629-0.367C69.493,396.508,70.118,396.58,70.125,396.875"/>
			<path style="fill:#14350E;" d="M55.769,395.298c-0.098-0.184,1.625-1.051,3.442-1.413c1.811-0.35,1.885-0.13,1.907,0.055
				c0.026,0.218-0.01,0.327-1.756,0.664C57.615,394.953,55.899,395.56,55.769,395.298"/>
			<path style="fill:#14350E;" d="M56.617,385.27c0.075-0.181,1.09,0.052,2.052-0.021c0.953-0.081,1.012-0.012,1.069,0.206
				c0.049,0.169,0.085,0.431-1.037,0.529C57.564,386.06,56.494,385.546,56.617,385.27"/>
			<path style="fill:#14350E;" d="M56.891,379.981c0.123-0.159,1.336,0.646,2.482,1.431c1.15,0.782,1.108,0.92,0.996,1.098
				c-0.104,0.166-0.235,0.309-1.414-0.493C57.778,381.209,56.71,380.217,56.891,379.981"/>
			<path style="fill:#14350E;" d="M64.623,382.49c-0.052-0.195,0.63-0.538,1.296-0.798c0.666-0.263,0.745-0.136,0.829,0.054
				c0.082,0.181,0.14,0.354-0.567,0.633C65.472,382.654,64.701,382.775,64.623,382.49"/>
			<path style="fill:#14350E;" d="M65.75,374.875c-0.002-0.203,0.337-0.367,0.665-0.367c0.327,0,0.335,0.164,0.335,0.367
				s-0.008,0.367-0.335,0.367C66.087,375.242,65.754,375.17,65.75,374.875"/>
			<path style="fill:#14350E;" d="M78.62,377.134c-0.109,0.166-0.786-0.055-1.429-0.124c-0.642-0.064-0.676-0.173-0.691-0.39
				c-0.016-0.185-0.01-0.417,0.792-0.339C78.102,376.377,78.786,376.884,78.62,377.134"/>
			<path style="fill:#14350E;" d="M74.503,385.139c0.042,0.196-0.479,0.485-0.959,0.734c-0.482,0.254-0.574,0.148-0.688-0.028
				c-0.108-0.162-0.203-0.333,0.36-0.629C73.783,384.924,74.439,384.85,74.503,385.139"/>
		</g>
	</g>
</g>
</svg>
