<?xml version="1.0" encoding="utf-8"?>
<!-- Generator: Adobe Illustrator 27.5.0, SVG Export Plug-In . SVG Version: 6.00 Build 0)  -->
<svg version="1.1" xmlns="http://www.w3.org/2000/svg" xmlns:xlink="http://www.w3.org/1999/xlink" x="0px" y="0px"
	 viewBox="0 0 500 500" style="enable-background:new 0 0 500 500;" xml:space="preserve">
<g id="BACKGROUND">
	<rect x="0.42" y="0.42" style="fill-rule:evenodd;clip-rule:evenodd;fill:#FFECB2;" width="500.16" height="500.16"/>
</g>
<g id="OBJECTS">
	<g>
		<g>
			<path style="fill-rule:evenodd;clip-rule:evenodd;fill:#FFF8E3;" d="M72.039,112.334c6.621-16.043,35.879-24.751,47.973,0.413
				c5.127-5.389,15.815,1.521,14.027,7.074c-4.34,13.472-101.967,14.094-102.457,0c-0.188-5.417,8.856-8.663,14.03-5.044
				C51.042,106.304,65.665,104.065,72.039,112.334z"/>
			<path style="fill-rule:evenodd;clip-rule:evenodd;fill:#FFF8E3;" d="M355.868,180.988c0.056,14.479,102.062,14.413,103.024,1.148
				c0.674-9.295-17.989-13.293-26.088-5.136c-2.991-9.534-14.162-13.171-20.344-8.621c-7.061-16.45-30.223-14.844-33.769,3.391
				C371.238,167.772,355.835,172.411,355.868,180.988z"/>
			<path style="fill-rule:evenodd;clip-rule:evenodd;fill:#FFF8E3;" d="M250.12,43.886c5.02-1.442,10.523-1.022,13.177,2.979
				c9.809-5.555,33.039-3.791,32.909,4.339c-0.196,12.275-117.049,15.116-117.756,0c-0.366-7.829,15.054-13.585,24.75-10.041
				C212.795,22.328,246.068,25.129,250.12,43.886z"/>
		</g>
		<rect x="0.42" y="346.27" style="fill-rule:evenodd;clip-rule:evenodd;fill:#FCC579;" width="500.16" height="154.31"/>
		<g>
			<rect x="347.391" y="188.146" style="fill-rule:evenodd;clip-rule:evenodd;fill:#FCC579;" width="65.322" height="158.124"/>
			<rect x="412.712" y="238.4" style="fill-rule:evenodd;clip-rule:evenodd;fill:#FCC579;" width="87.868" height="107.871"/>
			<rect x="422.31" y="328.651" style="fill-rule:evenodd;clip-rule:evenodd;fill:#FFECB2;" width="6.985" height="11.563"/>
			<rect x="437.731" y="328.651" style="fill-rule:evenodd;clip-rule:evenodd;fill:#FCC579;" width="6.985" height="11.563"/>
			<rect x="453.153" y="328.651" style="fill-rule:evenodd;clip-rule:evenodd;fill:#FFECB2;" width="6.985" height="11.563"/>
			<rect x="468.575" y="328.651" style="fill-rule:evenodd;clip-rule:evenodd;fill:#FFECB2;" width="6.985" height="11.563"/>
			<rect x="483.997" y="328.651" style="fill-rule:evenodd;clip-rule:evenodd;fill:#FCC579;" width="6.985" height="11.563"/>
			<rect x="422.31" y="312.058" style="fill-rule:evenodd;clip-rule:evenodd;fill:#FFECB2;" width="6.985" height="11.563"/>
			<rect x="437.731" y="312.058" style="fill-rule:evenodd;clip-rule:evenodd;fill:#FCC579;" width="6.985" height="11.563"/>
			<rect x="453.153" y="312.058" style="fill-rule:evenodd;clip-rule:evenodd;fill:#FFECB2;" width="6.985" height="11.563"/>
			<rect x="468.575" y="312.058" style="fill-rule:evenodd;clip-rule:evenodd;fill:#FCC579;" width="6.985" height="11.563"/>
			<rect x="483.997" y="312.058" style="fill-rule:evenodd;clip-rule:evenodd;fill:#FFECB2;" width="6.985" height="11.563"/>
			<rect x="422.31" y="295.464" style="fill-rule:evenodd;clip-rule:evenodd;fill:#FFECB2;" width="6.985" height="11.563"/>
			<rect x="437.731" y="295.464" style="fill-rule:evenodd;clip-rule:evenodd;fill:#FCC579;" width="6.985" height="11.563"/>
			<rect x="453.153" y="295.464" style="fill-rule:evenodd;clip-rule:evenodd;fill:#FCC579;" width="6.985" height="11.563"/>
			<rect x="468.575" y="295.464" style="fill-rule:evenodd;clip-rule:evenodd;fill:#FFECB2;" width="6.985" height="11.563"/>
			<rect x="483.997" y="295.464" style="fill-rule:evenodd;clip-rule:evenodd;fill:#FFECB2;" width="6.985" height="11.563"/>
			<rect x="422.31" y="278.87" style="fill-rule:evenodd;clip-rule:evenodd;fill:#FCC579;" width="6.985" height="11.563"/>
			<rect x="437.731" y="278.87" style="fill-rule:evenodd;clip-rule:evenodd;fill:#FFECB2;" width="6.985" height="11.563"/>
			<rect x="453.153" y="278.87" style="fill-rule:evenodd;clip-rule:evenodd;fill:#FFECB2;" width="6.985" height="11.563"/>
			<rect x="468.575" y="278.87" style="fill-rule:evenodd;clip-rule:evenodd;fill:#FFECB2;" width="6.985" height="11.563"/>
			<rect x="483.997" y="278.87" style="fill-rule:evenodd;clip-rule:evenodd;fill:#FFECB2;" width="6.985" height="11.563"/>
			<rect x="422.31" y="262.277" style="fill-rule:evenodd;clip-rule:evenodd;fill:#FFECB2;" width="6.985" height="11.563"/>
			<rect x="437.731" y="262.277" style="fill-rule:evenodd;clip-rule:evenodd;fill:#FFECB2;" width="6.985" height="11.563"/>
			<rect x="453.153" y="262.277" style="fill-rule:evenodd;clip-rule:evenodd;fill:#FCC579;" width="6.985" height="11.563"/>
			<rect x="468.575" y="262.277" style="fill-rule:evenodd;clip-rule:evenodd;fill:#FCC579;" width="6.985" height="11.563"/>
			<rect x="483.997" y="262.277" style="fill-rule:evenodd;clip-rule:evenodd;fill:#FFECB2;" width="6.985" height="11.563"/>
			<rect x="422.31" y="245.684" style="fill-rule:evenodd;clip-rule:evenodd;fill:#FFECB2;" width="6.985" height="11.563"/>
			<rect x="437.731" y="245.684" style="fill-rule:evenodd;clip-rule:evenodd;fill:#FFECB2;" width="6.985" height="11.563"/>
			<rect x="453.153" y="245.684" style="fill-rule:evenodd;clip-rule:evenodd;fill:#FFECB2;" width="6.985" height="11.563"/>
			<rect x="468.575" y="245.684" style="fill-rule:evenodd;clip-rule:evenodd;fill:#FFECB2;" width="6.985" height="11.563"/>
			<rect x="483.997" y="245.684" style="fill-rule:evenodd;clip-rule:evenodd;fill:#FCC579;" width="6.985" height="11.563"/>
			<rect x="365.989" y="277.643" style="fill-rule:evenodd;clip-rule:evenodd;fill:#FFECB2;" width="39.588" height="11.563"/>
			<rect x="388.92" y="277.643" style="fill-rule:evenodd;clip-rule:evenodd;fill:#FFECB2;" width="5.193" height="11.563"/>
			<rect x="377.456" y="277.643" style="fill-rule:evenodd;clip-rule:evenodd;fill:#FFECB2;" width="5.193" height="11.563"/>
			<rect x="354.526" y="277.643" style="fill-rule:evenodd;clip-rule:evenodd;fill:#FCC579;" width="5.193" height="11.563"/>
			<rect x="400.385" y="261.049" style="fill-rule:evenodd;clip-rule:evenodd;fill:#FFECB2;" width="5.193" height="11.563"/>
			<rect x="388.92" y="261.049" style="fill-rule:evenodd;clip-rule:evenodd;fill:#FCC579;" width="5.193" height="11.563"/>
			<rect x="377.456" y="261.049" style="fill-rule:evenodd;clip-rule:evenodd;fill:#FFECB2;" width="5.193" height="11.563"/>
			<rect x="365.991" y="261.049" style="fill-rule:evenodd;clip-rule:evenodd;fill:#FFECB2;" width="5.193" height="11.563"/>
			<rect x="354.526" y="261.049" style="fill-rule:evenodd;clip-rule:evenodd;fill:#FFECB2;" width="28.123" height="11.563"/>
			<rect x="400.385" y="244.456" style="fill-rule:evenodd;clip-rule:evenodd;fill:#FFECB2;" width="5.193" height="11.563"/>
			<rect x="388.92" y="244.456" style="fill-rule:evenodd;clip-rule:evenodd;fill:#FFECB2;" width="5.193" height="11.563"/>
			<rect x="377.456" y="244.456" style="fill-rule:evenodd;clip-rule:evenodd;fill:#FFECB2;" width="5.193" height="11.563"/>
			<rect x="365.992" y="244.456" style="fill-rule:evenodd;clip-rule:evenodd;fill:#FFECB2;" width="28.12" height="11.563"/>
			<rect x="354.526" y="244.456" style="fill-rule:evenodd;clip-rule:evenodd;fill:#FFECB2;" width="5.193" height="11.563"/>
			<rect x="400.385" y="227.862" style="fill-rule:evenodd;clip-rule:evenodd;fill:#FFECB2;" width="5.193" height="11.563"/>
			<rect x="388.92" y="227.862" style="fill-rule:evenodd;clip-rule:evenodd;fill:#FCC579;" width="5.193" height="11.563"/>
			<rect x="377.456" y="227.862" style="fill-rule:evenodd;clip-rule:evenodd;fill:#FFECB2;" width="5.193" height="11.563"/>
			<rect x="365.991" y="227.862" style="fill-rule:evenodd;clip-rule:evenodd;fill:#FFECB2;" width="5.193" height="11.563"/>
			<rect x="354.526" y="227.862" style="fill-rule:evenodd;clip-rule:evenodd;fill:#FCC579;" width="16.658" height="11.563"/>
			<rect x="377.455" y="211.269" style="fill-rule:evenodd;clip-rule:evenodd;fill:#FFECB2;" width="28.123" height="11.563"/>
			<rect x="388.92" y="211.269" style="fill-rule:evenodd;clip-rule:evenodd;fill:#FFECB2;" width="5.193" height="11.563"/>
			<rect x="377.456" y="211.269" style="fill-rule:evenodd;clip-rule:evenodd;fill:#FFECB2;" width="5.193" height="11.563"/>
			<rect x="365.991" y="211.269" style="fill-rule:evenodd;clip-rule:evenodd;fill:#FCC579;" width="5.193" height="11.563"/>
			<rect x="354.526" y="211.269" style="fill-rule:evenodd;clip-rule:evenodd;fill:#FFECB2;" width="5.193" height="11.563"/>
			<rect x="400.385" y="194.675" style="fill-rule:evenodd;clip-rule:evenodd;fill:#FFECB2;" width="5.193" height="11.563"/>
			<rect x="388.92" y="194.675" style="fill-rule:evenodd;clip-rule:evenodd;fill:#FFECB2;" width="5.193" height="11.563"/>
			<rect x="377.456" y="194.675" style="fill-rule:evenodd;clip-rule:evenodd;fill:#FFECB2;" width="5.193" height="11.563"/>
			<rect x="365.991" y="194.675" style="fill-rule:evenodd;clip-rule:evenodd;fill:#FFECB2;" width="5.193" height="11.563"/>
			<rect x="354.526" y="194.675" style="fill-rule:evenodd;clip-rule:evenodd;fill:#FFECB2;" width="39.588" height="11.563"/>
			<rect x="400.385" y="327.423" style="fill-rule:evenodd;clip-rule:evenodd;fill:#FCC579;" width="5.193" height="11.563"/>
			<rect x="388.92" y="327.423" style="fill-rule:evenodd;clip-rule:evenodd;fill:#FFECB2;" width="5.193" height="11.563"/>
			<rect x="377.456" y="327.423" style="fill-rule:evenodd;clip-rule:evenodd;fill:#FFECB2;" width="5.193" height="11.563"/>
			<rect x="365.991" y="327.423" style="fill-rule:evenodd;clip-rule:evenodd;fill:#FFECB2;" width="5.193" height="11.563"/>
			<rect x="354.526" y="327.423" style="fill-rule:evenodd;clip-rule:evenodd;fill:#FCC579;" width="28.123" height="11.563"/>
			<rect x="400.385" y="310.83" style="fill-rule:evenodd;clip-rule:evenodd;fill:#FFECB2;" width="5.193" height="11.563"/>
			<rect x="388.92" y="310.83" style="fill-rule:evenodd;clip-rule:evenodd;fill:#FFECB2;" width="5.193" height="11.563"/>
			<rect x="377.456" y="310.83" style="fill-rule:evenodd;clip-rule:evenodd;fill:#FFECB2;" width="5.193" height="11.563"/>
			<rect x="365.992" y="310.83" style="fill-rule:evenodd;clip-rule:evenodd;fill:#FFECB2;" width="28.12" height="11.563"/>
			<rect x="354.526" y="310.83" style="fill-rule:evenodd;clip-rule:evenodd;fill:#FCC579;" width="5.193" height="11.563"/>
			<rect x="400.385" y="294.237" style="fill-rule:evenodd;clip-rule:evenodd;fill:#FFECB2;" width="5.193" height="11.562"/>
			<rect x="388.92" y="294.237" style="fill-rule:evenodd;clip-rule:evenodd;fill:#FCC579;" width="5.193" height="11.562"/>
			<rect x="377.456" y="294.237" style="fill-rule:evenodd;clip-rule:evenodd;fill:#FFECB2;" width="5.193" height="11.562"/>
			<rect x="365.991" y="294.237" style="fill-rule:evenodd;clip-rule:evenodd;fill:#FFECB2;" width="5.193" height="11.562"/>
			<rect x="354.526" y="294.237" style="fill-rule:evenodd;clip-rule:evenodd;fill:#FFECB2;" width="16.658" height="11.562"/>
			<rect x="282.069" y="238.4" style="fill-rule:evenodd;clip-rule:evenodd;fill:#FCC579;" width="65.322" height="107.871"/>
			<rect x="289.203" y="328.651" style="fill-rule:evenodd;clip-rule:evenodd;fill:#FFECB2;" width="5.193" height="11.563"/>
			<rect x="300.668" y="328.651" style="fill-rule:evenodd;clip-rule:evenodd;fill:#FCC579;" width="5.193" height="11.563"/>
			<rect x="312.133" y="328.651" style="fill-rule:evenodd;clip-rule:evenodd;fill:#FFECB2;" width="5.193" height="11.563"/>
			<rect x="323.597" y="328.651" style="fill-rule:evenodd;clip-rule:evenodd;fill:#FCC579;" width="5.193" height="11.563"/>
			<rect x="335.062" y="328.651" style="fill-rule:evenodd;clip-rule:evenodd;fill:#FFECB2;" width="5.193" height="11.563"/>
			<rect x="289.203" y="312.058" style="fill-rule:evenodd;clip-rule:evenodd;fill:#FCC579;" width="5.193" height="11.563"/>
			<rect x="300.668" y="312.058" style="fill-rule:evenodd;clip-rule:evenodd;fill:#FCC579;" width="5.193" height="11.563"/>
			<rect x="312.133" y="312.058" style="fill-rule:evenodd;clip-rule:evenodd;fill:#FFECB2;" width="5.193" height="11.563"/>
			<rect x="323.597" y="312.058" style="fill-rule:evenodd;clip-rule:evenodd;fill:#FFECB2;" width="5.193" height="11.563"/>
			<rect x="335.062" y="312.058" style="fill-rule:evenodd;clip-rule:evenodd;fill:#FCC579;" width="5.193" height="11.563"/>
			<rect x="289.203" y="295.464" style="fill-rule:evenodd;clip-rule:evenodd;fill:#FFECB2;" width="5.193" height="11.563"/>
			<rect x="300.668" y="295.464" style="fill-rule:evenodd;clip-rule:evenodd;fill:#FCC579;" width="5.193" height="11.563"/>
			<rect x="312.133" y="295.464" style="fill-rule:evenodd;clip-rule:evenodd;fill:#FFECB2;" width="5.193" height="11.563"/>
			<rect x="323.597" y="295.464" style="fill-rule:evenodd;clip-rule:evenodd;fill:#FCC579;" width="5.193" height="11.563"/>
			<rect x="335.062" y="295.464" style="fill-rule:evenodd;clip-rule:evenodd;fill:#FFECB2;" width="5.193" height="11.563"/>
			<rect x="289.203" y="278.87" style="fill-rule:evenodd;clip-rule:evenodd;fill:#FCC579;" width="5.193" height="11.563"/>
			<rect x="300.668" y="278.87" style="fill-rule:evenodd;clip-rule:evenodd;fill:#FFECB2;" width="5.193" height="11.563"/>
			<rect x="312.133" y="278.87" style="fill-rule:evenodd;clip-rule:evenodd;fill:#FFECB2;" width="5.193" height="11.563"/>
			<rect x="323.597" y="278.87" style="fill-rule:evenodd;clip-rule:evenodd;fill:#FFECB2;" width="5.193" height="11.563"/>
			<rect x="335.062" y="278.87" style="fill-rule:evenodd;clip-rule:evenodd;fill:#FFECB2;" width="5.193" height="11.563"/>
			<rect x="289.203" y="262.277" style="fill-rule:evenodd;clip-rule:evenodd;fill:#FFECB2;" width="5.193" height="11.563"/>
			<rect x="300.668" y="262.277" style="fill-rule:evenodd;clip-rule:evenodd;fill:#FFECB2;" width="5.193" height="11.563"/>
			<rect x="312.133" y="262.277" style="fill-rule:evenodd;clip-rule:evenodd;fill:#FCC579;" width="5.193" height="11.563"/>
			<rect x="323.597" y="262.277" style="fill-rule:evenodd;clip-rule:evenodd;fill:#FCC579;" width="5.193" height="11.563"/>
			<rect x="335.062" y="262.277" style="fill-rule:evenodd;clip-rule:evenodd;fill:#FFECB2;" width="5.193" height="11.563"/>
			<rect x="289.203" y="245.683" style="fill-rule:evenodd;clip-rule:evenodd;fill:#FFECB2;" width="5.193" height="11.563"/>
			<rect x="300.668" y="245.683" style="fill-rule:evenodd;clip-rule:evenodd;fill:#FFECB2;" width="5.193" height="11.563"/>
			<rect x="312.133" y="245.683" style="fill-rule:evenodd;clip-rule:evenodd;fill:#FFECB2;" width="5.193" height="11.563"/>
			<rect x="323.597" y="245.683" style="fill-rule:evenodd;clip-rule:evenodd;fill:#FFECB2;" width="5.193" height="11.563"/>
			<rect x="335.062" y="245.683" style="fill-rule:evenodd;clip-rule:evenodd;fill:#FCC579;" width="5.193" height="11.563"/>
		</g>
		<g>
			<rect x="65.742" y="188.146" style="fill-rule:evenodd;clip-rule:evenodd;fill:#FCC579;" width="65.322" height="158.124"/>
			<g>
				<rect x="131.064" y="238.399" style="fill-rule:evenodd;clip-rule:evenodd;fill:#FCC579;" width="87.868" height="107.871"/>
				<rect x="140.661" y="244.456" style="fill-rule:evenodd;clip-rule:evenodd;fill:#FFECB2;" width="6.985" height="11.563"/>
				<rect x="156.083" y="244.456" style="fill-rule:evenodd;clip-rule:evenodd;fill:#FFECB2;" width="6.985" height="11.563"/>
				<rect x="171.504" y="244.456" style="fill-rule:evenodd;clip-rule:evenodd;fill:#FFECB2;" width="6.985" height="11.563"/>
				<rect x="186.926" y="244.456" style="fill-rule:evenodd;clip-rule:evenodd;fill:#FCC579;" width="6.985" height="11.563"/>
				<rect x="202.348" y="244.456" style="fill-rule:evenodd;clip-rule:evenodd;fill:#FFECB2;" width="6.985" height="11.563"/>
				<rect x="140.661" y="261.049" style="fill-rule:evenodd;clip-rule:evenodd;fill:#FFECB2;" width="6.985" height="11.563"/>
				<rect x="156.083" y="261.049" style="fill-rule:evenodd;clip-rule:evenodd;fill:#FCC579;" width="6.985" height="11.563"/>
				<rect x="171.504" y="261.049" style="fill-rule:evenodd;clip-rule:evenodd;fill:#FCC579;" width="6.985" height="11.563"/>
				<rect x="186.926" y="261.049" style="fill-rule:evenodd;clip-rule:evenodd;fill:#FFECB2;" width="6.985" height="11.563"/>
				<rect x="202.348" y="261.049" style="fill-rule:evenodd;clip-rule:evenodd;fill:#FFECB2;" width="6.985" height="11.563"/>
				<rect x="140.661" y="277.643" style="fill-rule:evenodd;clip-rule:evenodd;fill:#FCC579;" width="6.985" height="11.563"/>
				<rect x="156.083" y="277.643" style="fill-rule:evenodd;clip-rule:evenodd;fill:#FFECB2;" width="6.985" height="11.563"/>
				<rect x="171.504" y="277.643" style="fill-rule:evenodd;clip-rule:evenodd;fill:#FFECB2;" width="6.985" height="11.563"/>
				<rect x="186.926" y="277.643" style="fill-rule:evenodd;clip-rule:evenodd;fill:#FFECB2;" width="6.985" height="11.563"/>
				<rect x="202.348" y="277.643" style="fill-rule:evenodd;clip-rule:evenodd;fill:#FFECB2;" width="6.985" height="11.563"/>
				<rect x="140.661" y="294.237" style="fill-rule:evenodd;clip-rule:evenodd;fill:#FCC579;" width="6.985" height="11.562"/>
				<rect x="156.083" y="294.237" style="fill-rule:evenodd;clip-rule:evenodd;fill:#FFECB2;" width="6.985" height="11.562"/>
				<rect x="171.504" y="294.237" style="fill-rule:evenodd;clip-rule:evenodd;fill:#FFECB2;" width="6.985" height="11.562"/>
				<rect x="186.926" y="294.237" style="fill-rule:evenodd;clip-rule:evenodd;fill:#FFECB2;" width="6.985" height="11.562"/>
				<rect x="202.348" y="294.237" style="fill-rule:evenodd;clip-rule:evenodd;fill:#FFECB2;" width="6.985" height="11.562"/>
				<rect x="140.661" y="310.83" style="fill-rule:evenodd;clip-rule:evenodd;fill:#FFECB2;" width="6.985" height="11.563"/>
				<rect x="156.083" y="310.83" style="fill-rule:evenodd;clip-rule:evenodd;fill:#FFECB2;" width="6.985" height="11.563"/>
				<rect x="171.504" y="310.83" style="fill-rule:evenodd;clip-rule:evenodd;fill:#FCC579;" width="6.985" height="11.563"/>
				<rect x="186.926" y="310.83" style="fill-rule:evenodd;clip-rule:evenodd;fill:#FFECB2;" width="6.985" height="11.563"/>
				<rect x="202.348" y="310.83" style="fill-rule:evenodd;clip-rule:evenodd;fill:#FCC579;" width="6.985" height="11.563"/>
				<rect x="140.661" y="327.423" style="fill-rule:evenodd;clip-rule:evenodd;fill:#FCC579;" width="6.985" height="11.563"/>
				<rect x="156.083" y="327.423" style="fill-rule:evenodd;clip-rule:evenodd;fill:#FFECB2;" width="6.985" height="11.563"/>
				<rect x="171.504" y="327.423" style="fill-rule:evenodd;clip-rule:evenodd;fill:#FCC579;" width="6.985" height="11.563"/>
				<rect x="186.926" y="327.423" style="fill-rule:evenodd;clip-rule:evenodd;fill:#FFECB2;" width="6.985" height="11.563"/>
				<rect x="202.348" y="327.423" style="fill-rule:evenodd;clip-rule:evenodd;fill:#FFECB2;" width="6.985" height="11.563"/>
				<rect x="84.341" y="245.211" style="fill-rule:evenodd;clip-rule:evenodd;fill:#FCC579;" width="39.588" height="11.563"/>
				<rect x="107.272" y="245.211" style="fill-rule:evenodd;clip-rule:evenodd;fill:#FCC579;" width="5.193" height="11.563"/>
				<rect x="95.807" y="245.211" style="fill-rule:evenodd;clip-rule:evenodd;fill:#FFECB2;" width="5.193" height="11.563"/>
				<rect x="72.878" y="245.211" style="fill-rule:evenodd;clip-rule:evenodd;fill:#FFECB2;" width="5.193" height="11.563"/>
				<rect x="118.736" y="261.804" style="fill-rule:evenodd;clip-rule:evenodd;fill:#FCC579;" width="5.193" height="11.563"/>
				<rect x="107.272" y="261.804" style="fill-rule:evenodd;clip-rule:evenodd;fill:#FFECB2;" width="5.193" height="11.563"/>
				<rect x="95.807" y="261.804" style="fill-rule:evenodd;clip-rule:evenodd;fill:#FFECB2;" width="5.193" height="11.563"/>
				<rect x="84.342" y="261.804" style="fill-rule:evenodd;clip-rule:evenodd;fill:#FFECB2;" width="5.193" height="11.563"/>
				<rect x="72.878" y="261.804" style="fill-rule:evenodd;clip-rule:evenodd;fill:#FFECB2;" width="28.123" height="11.563"/>
				<rect x="118.736" y="278.398" style="fill-rule:evenodd;clip-rule:evenodd;fill:#FFECB2;" width="5.193" height="11.563"/>
				<rect x="107.272" y="278.398" style="fill-rule:evenodd;clip-rule:evenodd;fill:#FFECB2;" width="5.193" height="11.563"/>
				<rect x="95.807" y="278.398" style="fill-rule:evenodd;clip-rule:evenodd;fill:#FFECB2;" width="5.193" height="11.563"/>
				<rect x="84.344" y="278.398" style="fill-rule:evenodd;clip-rule:evenodd;fill:#FFECB2;" width="28.12" height="11.563"/>
				<rect x="72.878" y="278.398" style="fill-rule:evenodd;clip-rule:evenodd;fill:#FFECB2;" width="5.193" height="11.563"/>
				<rect x="118.736" y="294.991" style="fill-rule:evenodd;clip-rule:evenodd;fill:#FFECB2;" width="5.193" height="11.563"/>
				<rect x="107.272" y="294.991" style="fill-rule:evenodd;clip-rule:evenodd;fill:#FFECB2;" width="5.193" height="11.563"/>
				<rect x="95.807" y="294.991" style="fill-rule:evenodd;clip-rule:evenodd;fill:#FFECB2;" width="5.193" height="11.563"/>
				<rect x="84.342" y="294.991" style="fill-rule:evenodd;clip-rule:evenodd;fill:#FFECB2;" width="5.193" height="11.563"/>
				<rect x="72.878" y="294.991" style="fill-rule:evenodd;clip-rule:evenodd;fill:#FCC579;" width="16.658" height="11.563"/>
				<rect x="95.807" y="311.585" style="fill-rule:evenodd;clip-rule:evenodd;fill:#FCC579;" width="28.123" height="11.563"/>
				<rect x="107.272" y="311.585" style="fill-rule:evenodd;clip-rule:evenodd;fill:#FCC579;" width="5.193" height="11.563"/>
				<rect x="95.807" y="311.585" style="fill-rule:evenodd;clip-rule:evenodd;fill:#FFECB2;" width="5.193" height="11.563"/>
				<rect x="84.342" y="311.585" style="fill-rule:evenodd;clip-rule:evenodd;fill:#FCC579;" width="5.193" height="11.563"/>
				<rect x="72.878" y="311.585" style="fill-rule:evenodd;clip-rule:evenodd;fill:#FFECB2;" width="5.193" height="11.563"/>
				<rect x="118.736" y="328.178" style="fill-rule:evenodd;clip-rule:evenodd;fill:#FFECB2;" width="5.193" height="11.563"/>
				<rect x="107.272" y="328.178" style="fill-rule:evenodd;clip-rule:evenodd;fill:#FFECB2;" width="5.193" height="11.563"/>
				<rect x="95.807" y="328.178" style="fill-rule:evenodd;clip-rule:evenodd;fill:#FFECB2;" width="5.193" height="11.563"/>
				<rect x="84.342" y="328.178" style="fill-rule:evenodd;clip-rule:evenodd;fill:#FFECB2;" width="5.193" height="11.563"/>
				<rect x="72.878" y="328.178" style="fill-rule:evenodd;clip-rule:evenodd;fill:#FCC579;" width="39.588" height="11.563"/>
				<rect x="118.736" y="195.43" style="fill-rule:evenodd;clip-rule:evenodd;fill:#FFECB2;" width="5.193" height="11.563"/>
				<rect x="107.272" y="195.43" style="fill-rule:evenodd;clip-rule:evenodd;fill:#FFECB2;" width="5.193" height="11.563"/>
				<rect x="95.807" y="195.43" style="fill-rule:evenodd;clip-rule:evenodd;fill:#FFECB2;" width="5.193" height="11.563"/>
				<rect x="84.342" y="195.43" style="fill-rule:evenodd;clip-rule:evenodd;fill:#FFECB2;" width="5.193" height="11.563"/>
				<rect x="72.878" y="195.43" style="fill-rule:evenodd;clip-rule:evenodd;fill:#FCC579;" width="28.123" height="11.563"/>
				<rect x="118.736" y="212.024" style="fill-rule:evenodd;clip-rule:evenodd;fill:#FCC579;" width="5.193" height="11.563"/>
				<rect x="107.272" y="212.024" style="fill-rule:evenodd;clip-rule:evenodd;fill:#FFECB2;" width="5.193" height="11.563"/>
				<rect x="95.807" y="212.024" style="fill-rule:evenodd;clip-rule:evenodd;fill:#FFECB2;" width="5.193" height="11.563"/>
				<rect x="84.344" y="212.024" style="fill-rule:evenodd;clip-rule:evenodd;fill:#FFECB2;" width="28.12" height="11.563"/>
				<rect x="72.878" y="212.024" style="fill-rule:evenodd;clip-rule:evenodd;fill:#FFECB2;" width="5.193" height="11.563"/>
				<rect x="118.736" y="228.617" style="fill-rule:evenodd;clip-rule:evenodd;fill:#FFECB2;" width="5.193" height="11.563"/>
				<rect x="107.272" y="228.617" style="fill-rule:evenodd;clip-rule:evenodd;fill:#FFECB2;" width="5.193" height="11.563"/>
				<rect x="95.807" y="228.617" style="fill-rule:evenodd;clip-rule:evenodd;fill:#FCC579;" width="5.193" height="11.563"/>
				<rect x="84.342" y="228.617" style="fill-rule:evenodd;clip-rule:evenodd;fill:#FFECB2;" width="5.193" height="11.563"/>
				<rect x="72.878" y="228.617" style="fill-rule:evenodd;clip-rule:evenodd;fill:#FFECB2;" width="16.658" height="11.563"/>
				<rect x="0.42" y="238.399" style="fill-rule:evenodd;clip-rule:evenodd;fill:#FCC579;" width="65.322" height="107.871"/>
				<rect x="7.555" y="244.456" style="fill-rule:evenodd;clip-rule:evenodd;fill:#FCC579;" width="5.193" height="11.563"/>
				<rect x="19.019" y="244.456" style="fill-rule:evenodd;clip-rule:evenodd;fill:#FCC579;" width="5.193" height="11.563"/>
				<rect x="30.484" y="244.456" style="fill-rule:evenodd;clip-rule:evenodd;fill:#FFECB2;" width="5.193" height="11.563"/>
				<rect x="41.949" y="244.456" style="fill-rule:evenodd;clip-rule:evenodd;fill:#FFECB2;" width="5.193" height="11.563"/>
				<rect x="53.414" y="244.456" style="fill-rule:evenodd;clip-rule:evenodd;fill:#FCC579;" width="5.193" height="11.563"/>
				<rect x="7.555" y="261.049" style="fill-rule:evenodd;clip-rule:evenodd;fill:#FFECB2;" width="5.193" height="11.563"/>
				<rect x="19.019" y="261.049" style="fill-rule:evenodd;clip-rule:evenodd;fill:#FCC579;" width="5.193" height="11.563"/>
				<rect x="30.484" y="261.049" style="fill-rule:evenodd;clip-rule:evenodd;fill:#FFECB2;" width="5.193" height="11.563"/>
				<rect x="41.949" y="261.049" style="fill-rule:evenodd;clip-rule:evenodd;fill:#FFECB2;" width="5.193" height="11.563"/>
				<rect x="53.414" y="261.049" style="fill-rule:evenodd;clip-rule:evenodd;fill:#FFECB2;" width="5.193" height="11.563"/>
				<rect x="7.555" y="277.643" style="fill-rule:evenodd;clip-rule:evenodd;fill:#FFECB2;" width="5.193" height="11.563"/>
				<rect x="19.019" y="277.643" style="fill-rule:evenodd;clip-rule:evenodd;fill:#FFECB2;" width="5.193" height="11.563"/>
				<rect x="30.484" y="277.643" style="fill-rule:evenodd;clip-rule:evenodd;fill:#FCC579;" width="5.193" height="11.563"/>
				<rect x="41.949" y="277.643" style="fill-rule:evenodd;clip-rule:evenodd;fill:#FCC579;" width="5.193" height="11.563"/>
				<rect x="53.414" y="277.643" style="fill-rule:evenodd;clip-rule:evenodd;fill:#FFECB2;" width="5.193" height="11.563"/>
				<rect x="7.555" y="294.237" style="fill-rule:evenodd;clip-rule:evenodd;fill:#FFECB2;" width="5.193" height="11.563"/>
				<rect x="19.019" y="294.237" style="fill-rule:evenodd;clip-rule:evenodd;fill:#FCC579;" width="5.193" height="11.563"/>
				<rect x="30.484" y="294.237" style="fill-rule:evenodd;clip-rule:evenodd;fill:#FFECB2;" width="5.193" height="11.563"/>
				<rect x="41.949" y="294.237" style="fill-rule:evenodd;clip-rule:evenodd;fill:#FFECB2;" width="5.193" height="11.563"/>
				<rect x="53.414" y="294.237" style="fill-rule:evenodd;clip-rule:evenodd;fill:#FFECB2;" width="5.193" height="11.563"/>
				<rect x="7.555" y="310.83" style="fill-rule:evenodd;clip-rule:evenodd;fill:#FFECB2;" width="5.193" height="11.563"/>
				<rect x="19.019" y="310.83" style="fill-rule:evenodd;clip-rule:evenodd;fill:#FCC579;" width="5.193" height="11.563"/>
				<rect x="30.484" y="310.83" style="fill-rule:evenodd;clip-rule:evenodd;fill:#FFECB2;" width="5.193" height="11.563"/>
				<rect x="41.949" y="310.83" style="fill-rule:evenodd;clip-rule:evenodd;fill:#FCC579;" width="5.193" height="11.563"/>
				<rect x="53.414" y="310.83" style="fill-rule:evenodd;clip-rule:evenodd;fill:#FFECB2;" width="5.193" height="11.563"/>
				<rect x="7.555" y="327.424" style="fill-rule:evenodd;clip-rule:evenodd;fill:#FCC579;" width="5.193" height="11.563"/>
				<rect x="19.019" y="327.424" style="fill-rule:evenodd;clip-rule:evenodd;fill:#FFECB2;" width="5.193" height="11.563"/>
				<rect x="30.484" y="327.424" style="fill-rule:evenodd;clip-rule:evenodd;fill:#FFECB2;" width="5.193" height="11.563"/>
				<rect x="41.949" y="327.424" style="fill-rule:evenodd;clip-rule:evenodd;fill:#FCC579;" width="5.193" height="11.563"/>
				<rect x="53.414" y="327.424" style="fill-rule:evenodd;clip-rule:evenodd;fill:#FFECB2;" width="5.193" height="11.563"/>
			</g>
		</g>
		<g>
			<polygon style="fill-rule:evenodd;clip-rule:evenodd;fill:#FFFFFF;" points="410.024,17.653 420.559,45.987 445.737,29.257 
				437.606,58.373 467.809,59.637 444.117,78.412 467.809,97.188 437.606,98.452 445.737,127.568 420.559,110.837 410.024,139.172 
				399.488,110.837 374.31,127.568 382.441,98.452 352.238,97.188 375.93,78.412 352.238,59.637 382.441,58.373 374.31,29.257 
				399.488,45.987 			"/>
			<path style="fill-rule:evenodd;clip-rule:evenodd;fill:#FFDD94;" d="M410.024,49.658c14.869,0,26.922,12.053,26.922,26.922
				c0,14.869-12.053,26.922-26.922,26.922c-14.869,0-26.922-12.053-26.922-26.922C383.101,61.712,395.155,49.658,410.024,49.658z"/>
		</g>
		<g>
			<defs>
				<rect id="SVGID_1_" x="99.683" y="69.968" width="317.742" height="430.612"/>
			</defs>
			<clipPath id="SVGID_00000135682743802451348650000004846202680384481469_">
				<use xlink:href="#SVGID_1_"  style="overflow:visible;"/>
			</clipPath>
			<g style="clip-path:url(#SVGID_00000135682743802451348650000004846202680384481469_);">
				<g>
					<path style="fill-rule:evenodd;clip-rule:evenodd;fill:#07161F;" d="M154.028,136.096
						c0.414,35.051,13.918,37.816,11.613,50.818c-2.145,12.103-36.779,32.492-4.56,85.486c18.445,11.311,51.301,11.01,50.178-9.764
						c-0.511-9.438-6.196-12.516-4.708-21.875c1.432-9.005,14.119-0.572,13.83-25.301c-0.165-14.217-12.844-25.224-10.671-35.138
						c4.614-21.057,31.054-32.213,30.032-46.713c-1.935-27.454-16.532-47.792-35.795-47.565
						C176.637,86.362,153.676,106.292,154.028,136.096z"/>
					<path style="fill-rule:evenodd;clip-rule:evenodd;fill:#FFFFFF;" d="M257.705,418.46
						c14.792,14.816,47.738,18.954,64.643,15.868C318.443,389.678,312.91,371.009,257.705,418.46z"/>
					<path style="fill-rule:evenodd;clip-rule:evenodd;fill:#8AE0FF;" d="M268.312,414.079c4.343,29.792,2.04,60.971-3.871,92.903
						c-4.096,53.097-5.611,110.978-9.706,164.074c-0.101,1.311-0.335,2.555-0.679,3.737h-53.112
						c-0.972-2.665-1.467-5.677-1.347-9.052c3.006-84.502-39.195-186.022,1.541-259.208
						C222.547,406.533,246.903,414.079,268.312,414.079z"/>
					<g>
						<defs>
							<path id="SVGID_00000106125267604587192820000016834179900305138593_" d="M268.312,414.079
								c4.343,29.792,2.04,60.971-3.871,92.903c-4.096,53.097-5.611,110.978-9.706,164.074c-0.101,1.311-0.335,2.555-0.679,3.737
								h-53.112c-0.972-2.665-1.467-5.677-1.347-9.052c3.006-84.502-39.195-186.022,1.541-259.208
								C222.547,406.533,246.903,414.079,268.312,414.079z"/>
						</defs>
						<clipPath id="SVGID_00000180355492831425079340000016681710566223013528_">
							<use xlink:href="#SVGID_00000106125267604587192820000016834179900305138593_"  style="overflow:visible;"/>
						</clipPath>
						<g style="clip-path:url(#SVGID_00000180355492831425079340000016681710566223013528_);">
							<path style="fill-rule:evenodd;clip-rule:evenodd;fill:#D4F4FF;" d="M212.856,433.527c0.27-0.674,0.01-1.443-0.61-1.821
								c-0.783-0.477-1.81-0.129-2.15,0.721l-0.264,0.672l-0.258,0.679l-0.253,0.688l-0.284,0.803
								c-0.568,1.643,1.697,2.795,2.677,1.255c0.051-0.083,0.095-0.18,0.128-0.273l0.274-0.775l0.242-0.658l0.247-0.65
								L212.856,433.527L212.856,433.527z M209.568,693.237c-0.332,1.795,2.167,2.52,2.847,0.821
								c0.027-0.074,0.046-0.142,0.062-0.218l0.092-0.451c0.301-1.627-1.835-2.464-2.721-1.072
								c-0.091,0.154-0.161,0.314-0.193,0.491L209.568,693.237L209.568,693.237z M211.067,684.115
								c-0.195,1.758,2.269,2.364,2.887,0.647c0.03-0.095,0.047-0.178,0.061-0.276c0.127-0.992,0.243-1.988,0.349-2.983
								c0.168-1.509-1.835-2.297-2.738-0.941c-0.124,0.209-0.19,0.393-0.217,0.633C211.305,682.17,211.191,683.144,211.067,684.115
								L211.067,684.115z M212.138,672.381c-0.059,1.597,2.024,2.195,2.813,0.75c0.095-0.207,0.137-0.354,0.154-0.579
								c0.059-0.995,0.111-1.989,0.159-2.985c0.065-1.74-2.394-2.164-2.91-0.487c-0.033,0.116-0.054,0.23-0.058,0.351
								C212.247,670.416,212.195,671.399,212.138,672.381L212.138,672.381z M212.559,660.573c0,1.738,2.451,2.081,2.923,0.396
								c0.029-0.123,0.048-0.234,0.048-0.362c0.013-0.995,0.022-1.99,0.028-2.985c0-1.683-2.384-2.073-2.906-0.44
								c-0.041,0.148-0.065,0.277-0.065,0.433L212.559,660.573L212.559,660.573z M212.524,648.732
								c0.067,1.822,2.679,1.986,2.959,0.162c0.009-0.074,0.012-0.141,0.012-0.217c-0.017-0.993-0.04-1.987-0.065-2.981
								c-0.067-1.801-2.678-1.982-2.959-0.152c-0.008,0.075-0.014,0.151-0.011,0.227
								C212.484,646.759,212.507,647.745,212.524,648.732L212.524,648.732z M212.16,636.889c0.059,1.597,2.325,1.987,2.889,0.42
								c0.061-0.183,0.086-0.353,0.079-0.549l-0.132-2.976c-0.057-1.547-2.238-1.983-2.863-0.482
								c-0.081,0.216-0.114,0.393-0.105,0.625C212.081,634.914,212.118,635.903,212.16,636.889L212.16,636.889z M211.556,625.045
								c0.134,1.812,2.76,1.871,2.962,0.048c0.006-0.075,0.009-0.151,0.004-0.227l-0.181-2.97c-0.124-1.67-2.465-1.912-2.92-0.285
								c-0.037,0.156-0.058,0.307-0.046,0.472L211.556,625.045L211.556,625.045z M210.777,613.202
								c0.124,1.678,2.543,1.904,2.937,0.197c0.027-0.135,0.037-0.27,0.027-0.41l-0.217-2.968c-0.045-0.606-0.447-1.111-1.024-1.303
								c-1.005-0.321-2.017,0.47-1.939,1.524L210.777,613.202L210.777,613.202z M209.876,601.364
								c0.043,0.577,0.449,1.11,1.006,1.288c1.014,0.338,2.034-0.461,1.955-1.528l-0.24-2.964c-0.039-0.525-0.354-0.966-0.817-1.208
								c-1.053-0.504-2.231,0.288-2.145,1.451L209.876,601.364L209.876,601.364z M208.893,589.526
								c0.113,1.531,2.299,1.922,2.888,0.35c0.067-0.201,0.088-0.39,0.073-0.604l-0.254-2.961c-0.018-0.237-0.102-0.474-0.23-0.675
								c-0.865-1.298-2.845-0.61-2.731,0.93L208.893,589.526L208.893,589.526z M207.867,577.687
								c0.109,1.476,2.162,1.889,2.825,0.503c0.114-0.262,0.157-0.474,0.135-0.762l-0.259-2.96
								c-0.109-1.475-2.162-1.889-2.825-0.503c-0.114,0.262-0.157,0.475-0.135,0.762L207.867,577.687L207.867,577.687z
								 M206.832,565.846c0.114,1.54,2.309,1.893,2.876,0.38c0.075-0.224,0.102-0.398,0.084-0.637l-0.256-2.96
								c-0.111-1.507-2.239-1.913-2.866-0.407c-0.083,0.222-0.111,0.425-0.094,0.663L206.832,565.846L206.832,565.846z
								 M205.82,553.998c0.117,1.582,2.392,1.903,2.903,0.305c0.053-0.19,0.072-0.351,0.057-0.551l-0.245-2.959
								c-0.115-1.554-2.311-1.899-2.878-0.387c-0.072,0.217-0.101,0.396-0.084,0.628L205.82,553.998L205.82,553.998z
								 M204.866,542.141c0.122,1.656,2.525,1.904,2.934,0.2c0.028-0.147,0.04-0.275,0.029-0.428l-0.226-2.96
								c-0.121-1.633-2.459-1.91-2.921-0.26c-0.039,0.162-0.055,0.311-0.042,0.481L204.866,542.141L204.866,542.141z
								 M204.004,530.273c0.13,1.756,2.681,1.879,2.954,0.101c0.012-0.101,0.018-0.198,0.01-0.301l-0.196-2.96
								c-0.052-0.707-0.565-1.267-1.268-1.375c-0.923-0.142-1.767,0.632-1.697,1.565L204.004,530.273L204.004,530.273z
								 M203.277,518.389c0.07,0.947,0.915,1.578,1.842,1.363c0.705-0.19,1.152-0.791,1.125-1.521l-0.155-2.963
								c-0.018-0.476-0.297-0.95-0.708-1.193c-1.037-0.613-2.304,0.139-2.26,1.342L203.277,518.389L203.277,518.389z
								 M202.733,506.491c0.061,1.661,2.449,2.012,2.928,0.301c0.031-0.137,0.046-0.265,0.041-0.409
								c-0.029-0.986-0.069-1.974-0.1-2.961c-0.065-1.748-2.605-1.997-2.952-0.191c-0.014,0.091-0.021,0.187-0.018,0.282
								C202.664,504.505,202.704,505.499,202.733,506.491L202.733,506.491z M202.433,494.571c0,1.574,2.225,2.073,2.868,0.532
								c0.072-0.193,0.104-0.356,0.104-0.563l-0.028-2.964c0-1.602-2.279-2.105-2.896-0.461c-0.051,0.16-0.075,0.307-0.075,0.477
								L202.433,494.571L202.433,494.571z M202.458,482.64c0,1.773,2.471,2.086,2.926,0.394c0.028-0.116,0.04-0.213,0.044-0.334
								c0.018-0.986,0.041-1.971,0.069-2.956c0.06-1.609-2.212-2.163-2.868-0.588c-0.063,0.169-0.095,0.318-0.102,0.499
								C202.499,480.65,202.477,481.645,202.458,482.64L202.458,482.64z M202.918,470.702c-0.038,0.515,0.205,0.991,0.613,1.297
								c0.958,0.684,2.267,0.054,2.353-1.112c0.059-0.983,0.126-1.965,0.198-2.946c0.036-0.491-0.171-0.965-0.554-1.272
								c-0.931-0.745-2.321-0.135-2.409,1.05C203.046,468.713,202.978,469.706,202.918,470.702L202.918,470.702z M203.975,458.775
								c-0.195,1.756,2.274,2.347,2.883,0.656c0.031-0.096,0.055-0.193,0.066-0.293c0.117-0.976,0.244-1.949,0.376-2.923
								c0.05-0.335-0.021-0.649-0.183-0.945c-0.723-1.224-2.553-0.865-2.76,0.534C204.222,456.794,204.094,457.783,203.975,458.775
								L203.975,458.775z M205.878,446.917c-0.335,1.508,1.654,2.496,2.657,1.179c0.125-0.175,0.203-0.353,0.249-0.564
								c0.198-0.952,0.401-1.913,0.632-2.858c0.349-1.572-1.619-2.51-2.621-1.259c-0.135,0.189-0.207,0.329-0.266,0.556
								C206.295,444.949,206.082,445.933,205.878,446.917z"/>
						</g>
					</g>
					<path style="fill-rule:evenodd;clip-rule:evenodd;fill:#8AE0FF;" d="M260.572,414.079c-4.342,29.792-6.151,40.15-0.24,72.081
						c3.275,53.379,10.663,127.577,13.938,180.954c0.172,2.799,0.879,5.363,1.996,7.679h47.862c0.725-2.271,1.141-4.823,1.167-7.679
						c0.774-84.612,22.604-191.41-6.808-273.966C296.137,393.416,282.921,413.811,260.572,414.079z"/>
					<g>
						<defs>
							<path id="SVGID_00000018211606227011014050000012592288931963573144_" d="M260.572,414.079
								c-4.342,29.792-6.151,40.15-0.24,72.081c3.275,53.379,10.663,127.577,13.938,180.954c0.172,2.799,0.879,5.363,1.996,7.679
								h47.862c0.725-2.271,1.141-4.823,1.167-7.679c0.774-84.612,22.604-191.41-6.808-273.966
								C296.137,393.416,282.921,413.811,260.572,414.079z"/>
						</defs>
						<clipPath id="SVGID_00000155141347465755601740000011033301659352611756_">
							<use xlink:href="#SVGID_00000018211606227011014050000012592288931963573144_"  style="overflow:visible;"/>
						</clipPath>
					</g>
					
						<polyline style="fill-rule:evenodd;clip-rule:evenodd;fill:none;stroke:#D4F4FF;stroke-width:2.3998;stroke-linecap:round;stroke-linejoin:round;stroke-miterlimit:22.9256;" points="
						279.449,416.526 279.449,473.541 267.118,473.541 					"/>
					<g>
						<path style="fill-rule:evenodd;clip-rule:evenodd;fill:#FFE0D9;" d="M285.448,222.082c19.209-3.151,63.982,7.552,100.469,7.24
							c23.176-0.198,23.052,22.624,3.335,24.939c-43.498,5.108-76.409,9.078-97.213,12.298
							C257.549,271.896,250.788,227.768,285.448,222.082z"/>
						<path style="fill-rule:evenodd;clip-rule:evenodd;fill:#F2CAC2;" d="M347.021,226.782c7.292,0.783,15.856,1.724,22.456,2.047
							c7.261,10.73,14.015,23.281,6.408,20.811C368.28,247.171,355.532,239.547,347.021,226.782z"/>
					</g>
					<path style="fill-rule:evenodd;clip-rule:evenodd;fill:#DE5676;" d="M337.903,438.659
						c-5.279-11.143-22.346-74.376-23.666-98.824c-1.083-20.066,8.332-36.684,5.491-49.753c-4.37-20.1-22.788-41.471-38.042-67.605
						c-12.088,1.412-44.536-4.051-92.933,4.992c-21.396,84.191,20.028,100.404,18.267,149.967
						c-0.704,19.829-18.658,50.42-22.372,62.657C214.7,465.402,303.794,456.854,337.903,438.659z"/>
					<g>
						<defs>
							<path id="SVGID_00000092435362164723892770000006988209334676386746_" d="M337.903,438.659
								c-5.279-11.143-22.346-74.376-23.666-98.824c-1.083-20.066,8.332-36.684,5.491-49.753
								c-4.37-20.1-22.788-41.471-38.042-67.605c-12.088,1.412-44.536-4.051-92.933,4.992
								c-21.396,84.191,20.028,100.404,18.267,149.967c-0.704,19.829-18.658,50.42-22.372,62.657
								C214.7,465.402,303.794,456.854,337.903,438.659z"/>
						</defs>
						<clipPath id="SVGID_00000040561430436226129960000014526935293494028175_">
							<use xlink:href="#SVGID_00000092435362164723892770000006988209334676386746_"  style="overflow:visible;"/>
						</clipPath>
						<g style="clip-path:url(#SVGID_00000040561430436226129960000014526935293494028175_);">
							<g>
								<path style="opacity:0.4;fill-rule:evenodd;clip-rule:evenodd;fill:#FFFFFF;" d="M171.476,435.183
									c2.605,0,4.717,2.112,4.717,4.717c0,2.605-2.112,4.717-4.717,4.717c-2.605,0-4.717-2.112-4.717-4.717
									C166.759,437.295,168.871,435.183,171.476,435.183z"/>
								<path style="opacity:0.4;fill-rule:evenodd;clip-rule:evenodd;fill:#FFFFFF;" d="M199.158,435.183
									c2.605,0,4.716,2.112,4.716,4.717c0,2.605-2.112,4.717-4.716,4.717c-2.605,0-4.717-2.112-4.717-4.717
									C194.441,437.295,196.552,435.183,199.158,435.183z"/>
								<path style="opacity:0.4;fill-rule:evenodd;clip-rule:evenodd;fill:#FFFFFF;" d="M226.839,435.183
									c2.605,0,4.717,2.112,4.717,4.717c0,2.605-2.112,4.717-4.717,4.717c-2.605,0-4.717-2.112-4.717-4.717
									C222.122,437.295,224.234,435.183,226.839,435.183z"/>
								<path style="opacity:0.4;fill-rule:evenodd;clip-rule:evenodd;fill:#FFFFFF;" d="M254.521,435.183
									c2.605,0,4.716,2.112,4.716,4.717c0,2.605-2.112,4.717-4.716,4.717c-2.605,0-4.717-2.112-4.717-4.717
									C249.804,437.295,251.916,435.183,254.521,435.183z"/>
								<circle style="opacity:0.4;fill-rule:evenodd;clip-rule:evenodd;fill:#FFFFFF;" cx="282.202" cy="439.9" r="4.717"/>
								<path style="opacity:0.4;fill-rule:evenodd;clip-rule:evenodd;fill:#FFFFFF;" d="M309.884,435.183
									c2.605,0,4.717,2.112,4.717,4.717c0,2.605-2.112,4.716-4.717,4.716c-2.605,0-4.717-2.111-4.717-4.716
									C305.167,437.295,307.279,435.183,309.884,435.183z"/>
								<path style="opacity:0.4;fill-rule:evenodd;clip-rule:evenodd;fill:#FFFFFF;" d="M337.565,435.183
									c2.605,0,4.717,2.112,4.717,4.717c0,2.605-2.112,4.716-4.717,4.716c-2.605,0-4.717-2.112-4.717-4.716
									C332.849,437.295,334.96,435.183,337.565,435.183z"/>
								<path style="opacity:0.4;fill-rule:evenodd;clip-rule:evenodd;fill:#FFFFFF;" d="M185.316,415.06
									c2.605,0,4.717,2.112,4.717,4.717c0,2.605-2.112,4.717-4.717,4.717c-2.605,0-4.717-2.112-4.717-4.717
									C180.6,417.171,182.712,415.06,185.316,415.06z"/>
								<path style="opacity:0.4;fill-rule:evenodd;clip-rule:evenodd;fill:#FFFFFF;" d="M212.998,415.06
									c2.605,0,4.717,2.112,4.717,4.717c0,2.605-2.112,4.717-4.717,4.717c-2.605,0-4.717-2.112-4.717-4.717
									C208.281,417.171,210.393,415.06,212.998,415.06z"/>
								<path style="opacity:0.4;fill-rule:evenodd;clip-rule:evenodd;fill:#FFFFFF;" d="M240.68,415.06
									c2.605,0,4.717,2.112,4.717,4.717c0,2.605-2.112,4.717-4.717,4.717c-2.605,0-4.717-2.112-4.717-4.717
									C235.963,417.171,238.075,415.06,240.68,415.06z"/>
								<path style="opacity:0.4;fill-rule:evenodd;clip-rule:evenodd;fill:#FFFFFF;" d="M268.361,415.06
									c2.605,0,4.717,2.112,4.717,4.717c0,2.605-2.112,4.717-4.717,4.717c-2.605,0-4.717-2.112-4.717-4.717
									C263.645,417.171,265.756,415.06,268.361,415.06z"/>
								<path style="opacity:0.4;fill-rule:evenodd;clip-rule:evenodd;fill:#FFFFFF;" d="M296.043,415.059
									c2.605,0,4.717,2.112,4.717,4.717c0,2.605-2.112,4.717-4.717,4.717c-2.605,0-4.717-2.112-4.717-4.717
									C291.326,417.171,293.438,415.06,296.043,415.059z"/>
								<path style="opacity:0.4;fill-rule:evenodd;clip-rule:evenodd;fill:#FFFFFF;" d="M323.724,415.059
									c2.605,0,4.716,2.112,4.716,4.717c0,2.605-2.112,4.717-4.716,4.717c-2.605,0-4.717-2.112-4.717-4.717
									C319.008,417.171,321.12,415.059,323.724,415.059z"/>
								<path style="opacity:0.4;fill-rule:evenodd;clip-rule:evenodd;fill:#FFFFFF;" d="M171.476,394.297
									c2.605,0,4.717,2.112,4.717,4.717c0,2.605-2.112,4.717-4.717,4.717c-2.605,0-4.716-2.112-4.716-4.717
									C166.759,396.409,168.871,394.297,171.476,394.297z"/>
								<path style="opacity:0.4;fill-rule:evenodd;clip-rule:evenodd;fill:#FFFFFF;" d="M199.158,394.297
									c2.605,0,4.716,2.112,4.716,4.717c0,2.605-2.112,4.717-4.716,4.717c-2.605,0-4.717-2.112-4.717-4.717
									C194.441,396.409,196.552,394.297,199.158,394.297z"/>
								<path style="opacity:0.4;fill-rule:evenodd;clip-rule:evenodd;fill:#FFFFFF;" d="M226.839,394.297
									c2.605,0,4.717,2.112,4.717,4.717c0,2.605-2.112,4.717-4.717,4.717c-2.605,0-4.717-2.112-4.717-4.717
									C222.122,396.409,224.234,394.297,226.839,394.297z"/>
								<path style="opacity:0.4;fill-rule:evenodd;clip-rule:evenodd;fill:#FFFFFF;" d="M254.521,394.297
									c2.605,0,4.716,2.112,4.716,4.717c0,2.605-2.112,4.716-4.716,4.716c-2.605,0-4.717-2.112-4.717-4.716
									C249.804,396.409,251.916,394.297,254.521,394.297z"/>
								<path style="opacity:0.4;fill-rule:evenodd;clip-rule:evenodd;fill:#FFFFFF;" d="M282.202,394.297
									c2.605,0,4.717,2.112,4.717,4.717c0,2.605-2.112,4.716-4.717,4.716s-4.717-2.112-4.717-4.716
									C277.486,396.409,279.597,394.297,282.202,394.297z"/>
								<path style="opacity:0.4;fill-rule:evenodd;clip-rule:evenodd;fill:#FFFFFF;" d="M309.884,394.297
									c2.605,0,4.717,2.112,4.717,4.717c0,2.605-2.112,4.716-4.717,4.716c-2.605,0-4.717-2.112-4.717-4.716
									C305.167,396.409,307.279,394.297,309.884,394.297z"/>
								<path style="opacity:0.4;fill-rule:evenodd;clip-rule:evenodd;fill:#FFFFFF;" d="M337.565,394.297
									c2.605,0,4.717,2.112,4.717,4.717c0,2.605-2.112,4.716-4.717,4.716c-2.605,0-4.717-2.112-4.717-4.716
									C332.848,396.409,334.96,394.297,337.565,394.297z"/>
								<path style="opacity:0.4;fill-rule:evenodd;clip-rule:evenodd;fill:#FFFFFF;" d="M185.316,374.174
									c2.605,0,4.717,2.112,4.717,4.717c0,2.605-2.112,4.716-4.717,4.716c-2.605,0-4.717-2.112-4.717-4.716
									C180.6,376.286,182.711,374.174,185.316,374.174z"/>
								<path style="opacity:0.4;fill-rule:evenodd;clip-rule:evenodd;fill:#FFFFFF;" d="M212.998,374.174
									c2.605,0,4.717,2.112,4.717,4.717c0,2.605-2.112,4.716-4.717,4.716c-2.605,0-4.717-2.112-4.717-4.716
									C208.281,376.286,210.393,374.174,212.998,374.174z"/>
								<path style="opacity:0.4;fill-rule:evenodd;clip-rule:evenodd;fill:#FFFFFF;" d="M240.68,374.173
									c2.605,0,4.717,2.112,4.717,4.717c0,2.605-2.112,4.716-4.717,4.716c-2.605,0-4.717-2.112-4.717-4.716
									C235.963,376.285,238.075,374.173,240.68,374.173z"/>
								<path style="opacity:0.4;fill-rule:evenodd;clip-rule:evenodd;fill:#FFFFFF;" d="M268.361,374.173
									c2.605,0,4.717,2.112,4.717,4.717c0,2.605-2.112,4.716-4.717,4.716c-2.605,0-4.717-2.112-4.717-4.716
									C263.645,376.285,265.756,374.173,268.361,374.173z"/>
								<path style="opacity:0.4;fill-rule:evenodd;clip-rule:evenodd;fill:#FFFFFF;" d="M296.042,374.173
									c2.605,0,4.717,2.112,4.717,4.717c0,2.605-2.112,4.716-4.717,4.716c-2.605,0-4.717-2.112-4.717-4.716
									C291.326,376.285,293.438,374.173,296.042,374.173z"/>
								<path style="opacity:0.4;fill-rule:evenodd;clip-rule:evenodd;fill:#FFFFFF;" d="M323.724,374.173
									c2.605,0,4.716,2.112,4.716,4.717c0,2.605-2.112,4.717-4.716,4.717c-2.605,0-4.717-2.112-4.717-4.717
									C319.008,376.285,321.119,374.173,323.724,374.173z"/>
								<path style="opacity:0.4;fill-rule:evenodd;clip-rule:evenodd;fill:#FFFFFF;" d="M171.476,353.412
									c2.605,0,4.717,2.112,4.717,4.717c0,2.605-2.112,4.717-4.717,4.717c-2.605,0-4.716-2.112-4.716-4.717
									C166.759,355.523,168.871,353.412,171.476,353.412z"/>
								<path style="opacity:0.4;fill-rule:evenodd;clip-rule:evenodd;fill:#FFFFFF;" d="M199.158,353.412
									c2.605,0,4.716,2.112,4.716,4.717c0,2.605-2.112,4.717-4.716,4.717c-2.605,0-4.717-2.112-4.717-4.717
									C194.441,355.523,196.552,353.412,199.158,353.412z"/>
								<path style="opacity:0.4;fill-rule:evenodd;clip-rule:evenodd;fill:#FFFFFF;" d="M226.839,353.411
									c2.605,0,4.717,2.112,4.717,4.717c0,2.605-2.112,4.717-4.717,4.717c-2.605,0-4.717-2.112-4.717-4.717
									C222.122,355.523,224.234,353.411,226.839,353.411z"/>
								<path style="opacity:0.4;fill-rule:evenodd;clip-rule:evenodd;fill:#FFFFFF;" d="M254.52,353.411
									c2.605,0,4.717,2.112,4.717,4.717c0,2.605-2.112,4.717-4.717,4.717c-2.605,0-4.717-2.112-4.717-4.717
									C249.804,355.523,251.916,353.411,254.52,353.411z"/>
								<path style="opacity:0.4;fill-rule:evenodd;clip-rule:evenodd;fill:#FFFFFF;" d="M282.202,353.411
									c2.605,0,4.717,2.112,4.717,4.717c0,2.605-2.112,4.717-4.717,4.717c-2.605,0-4.717-2.112-4.717-4.717
									C277.485,355.523,279.597,353.411,282.202,353.411z"/>
								<path style="opacity:0.4;fill-rule:evenodd;clip-rule:evenodd;fill:#FFFFFF;" d="M309.884,353.411
									c2.605,0,4.716,2.112,4.717,4.717c0,2.605-2.112,4.717-4.717,4.717c-2.605,0-4.717-2.112-4.717-4.717
									C305.167,355.523,307.279,353.411,309.884,353.411z"/>
								<path style="opacity:0.4;fill-rule:evenodd;clip-rule:evenodd;fill:#FFFFFF;" d="M337.565,353.411
									c2.605,0,4.717,2.112,4.717,4.717c0,2.605-2.112,4.717-4.717,4.717c-2.605,0-4.717-2.112-4.717-4.717
									C332.848,355.523,334.96,353.411,337.565,353.411z"/>
								<path style="opacity:0.4;fill-rule:evenodd;clip-rule:evenodd;fill:#FFFFFF;" d="M185.316,333.288
									c2.605,0,4.717,2.112,4.717,4.717c0,2.605-2.112,4.716-4.717,4.716c-2.605,0-4.717-2.112-4.717-4.716
									C180.6,335.4,182.711,333.288,185.316,333.288z"/>
								<path style="opacity:0.4;fill-rule:evenodd;clip-rule:evenodd;fill:#FFFFFF;" d="M212.998,333.288
									c2.605,0,4.717,2.112,4.717,4.717c0,2.605-2.112,4.716-4.717,4.716c-2.605,0-4.717-2.112-4.717-4.716
									C208.281,335.4,210.393,333.288,212.998,333.288z"/>
								<path style="opacity:0.4;fill-rule:evenodd;clip-rule:evenodd;fill:#FFFFFF;" d="M240.68,333.288
									c2.605,0,4.717,2.112,4.717,4.717c0,2.605-2.112,4.717-4.717,4.717c-2.605,0-4.717-2.112-4.717-4.717
									C235.963,335.4,238.075,333.288,240.68,333.288z"/>
								<path style="opacity:0.4;fill-rule:evenodd;clip-rule:evenodd;fill:#FFFFFF;" d="M268.361,333.288
									c2.605,0,4.717,2.112,4.717,4.717c0,2.605-2.112,4.717-4.717,4.717s-4.717-2.112-4.717-4.717
									C263.645,335.4,265.756,333.288,268.361,333.288z"/>
								<path style="opacity:0.4;fill-rule:evenodd;clip-rule:evenodd;fill:#FFFFFF;" d="M296.042,333.288
									c2.605,0,4.717,2.112,4.717,4.717c0,2.605-2.112,4.717-4.717,4.717c-2.605,0-4.716-2.112-4.716-4.717
									C291.326,335.4,293.438,333.288,296.042,333.288z"/>
								<path style="opacity:0.4;fill-rule:evenodd;clip-rule:evenodd;fill:#FFFFFF;" d="M323.724,333.288
									c2.605,0,4.716,2.112,4.716,4.717c0,2.605-2.112,4.717-4.716,4.717c-2.605,0-4.717-2.111-4.717-4.717
									C319.007,335.4,321.119,333.288,323.724,333.288z"/>
								<path style="opacity:0.4;fill-rule:evenodd;clip-rule:evenodd;fill:#FFFFFF;" d="M171.476,312.526
									c2.605,0,4.717,2.112,4.717,4.717c0,2.605-2.112,4.717-4.717,4.717c-2.605,0-4.716-2.112-4.716-4.717
									C166.759,314.637,168.871,312.526,171.476,312.526z"/>
								<path style="opacity:0.4;fill-rule:evenodd;clip-rule:evenodd;fill:#FFFFFF;" d="M199.157,312.526
									c2.605,0,4.717,2.112,4.717,4.717c0,2.605-2.112,4.717-4.717,4.717c-2.605,0-4.717-2.112-4.717-4.717
									C194.441,314.637,196.552,312.526,199.157,312.526z"/>
								<path style="opacity:0.4;fill-rule:evenodd;clip-rule:evenodd;fill:#FFFFFF;" d="M226.839,312.526
									c2.605,0,4.717,2.112,4.717,4.717c0,2.605-2.112,4.717-4.717,4.717c-2.605,0-4.717-2.112-4.717-4.717
									C222.122,314.637,224.234,312.526,226.839,312.526z"/>
								<path style="opacity:0.4;fill-rule:evenodd;clip-rule:evenodd;fill:#FFFFFF;" d="M254.52,312.526
									c2.605,0,4.717,2.112,4.717,4.717c0,2.605-2.112,4.717-4.717,4.717c-2.605,0-4.717-2.112-4.717-4.717
									C249.804,314.637,251.916,312.526,254.52,312.526z"/>
								<path style="opacity:0.4;fill-rule:evenodd;clip-rule:evenodd;fill:#FFFFFF;" d="M282.202,312.526
									c2.605,0,4.717,2.112,4.717,4.717c0,2.605-2.112,4.717-4.717,4.717c-2.605,0-4.717-2.112-4.717-4.717
									C277.485,314.637,279.597,312.526,282.202,312.526z"/>
								<path style="opacity:0.4;fill-rule:evenodd;clip-rule:evenodd;fill:#FFFFFF;" d="M309.884,312.526
									c2.605,0,4.716,2.112,4.716,4.717c0,2.605-2.112,4.717-4.716,4.717c-2.605,0-4.717-2.112-4.717-4.717
									C305.167,314.637,307.279,312.526,309.884,312.526z"/>
								<path style="opacity:0.4;fill-rule:evenodd;clip-rule:evenodd;fill:#FFFFFF;" d="M337.565,312.526
									c2.605,0,4.717,2.112,4.717,4.717c0,2.605-2.112,4.717-4.717,4.717c-2.605,0-4.717-2.112-4.717-4.717
									C332.848,314.637,334.96,312.526,337.565,312.526z"/>
								<path style="opacity:0.4;fill-rule:evenodd;clip-rule:evenodd;fill:#FFFFFF;" d="M185.316,292.402
									c2.605,0,4.717,2.112,4.717,4.717c0,2.605-2.112,4.717-4.717,4.717c-2.605,0-4.717-2.112-4.717-4.717
									C180.6,294.514,182.711,292.402,185.316,292.402z"/>
								<path style="opacity:0.4;fill-rule:evenodd;clip-rule:evenodd;fill:#FFFFFF;" d="M212.998,292.402
									c2.605,0,4.717,2.112,4.717,4.717c0,2.605-2.112,4.717-4.717,4.717c-2.605,0-4.717-2.112-4.717-4.717
									C208.281,294.514,210.393,292.402,212.998,292.402z"/>
								<path style="opacity:0.4;fill-rule:evenodd;clip-rule:evenodd;fill:#FFFFFF;" d="M240.679,292.402
									c2.605,0,4.717,2.112,4.717,4.717c0,2.605-2.112,4.717-4.717,4.717c-2.605,0-4.717-2.112-4.717-4.717
									C235.963,294.514,238.075,292.402,240.679,292.402z"/>
								<path style="opacity:0.4;fill-rule:evenodd;clip-rule:evenodd;fill:#FFFFFF;" d="M268.361,292.402
									c2.605,0,4.717,2.112,4.717,4.717c0,2.605-2.112,4.717-4.717,4.717c-2.605,0-4.717-2.112-4.717-4.717
									C263.644,294.514,265.756,292.402,268.361,292.402z"/>
								<path style="opacity:0.4;fill-rule:evenodd;clip-rule:evenodd;fill:#FFFFFF;" d="M296.042,292.402
									c2.605,0,4.717,2.112,4.717,4.717c0,2.605-2.112,4.717-4.717,4.717c-2.605,0-4.716-2.112-4.716-4.717
									C291.326,294.513,293.438,292.402,296.042,292.402z"/>
								<path style="opacity:0.4;fill-rule:evenodd;clip-rule:evenodd;fill:#FFFFFF;" d="M323.724,292.402
									c2.605,0,4.716,2.112,4.716,4.717c0,2.605-2.112,4.717-4.716,4.717c-2.605,0-4.717-2.112-4.717-4.717
									C319.007,294.513,321.119,292.402,323.724,292.402z"/>
								<path style="opacity:0.4;fill-rule:evenodd;clip-rule:evenodd;fill:#FFFFFF;" d="M171.476,271.64
									c2.605,0,4.717,2.112,4.717,4.717c0,2.605-2.112,4.717-4.717,4.717c-2.605,0-4.717-2.112-4.717-4.717
									C166.759,273.752,168.871,271.64,171.476,271.64z"/>
								<path style="opacity:0.4;fill-rule:evenodd;clip-rule:evenodd;fill:#FFFFFF;" d="M199.157,271.64
									c2.605,0,4.717,2.112,4.717,4.717c0,2.605-2.112,4.717-4.717,4.717c-2.605,0-4.717-2.112-4.717-4.717
									C194.441,273.752,196.552,271.64,199.157,271.64z"/>
								<path style="opacity:0.4;fill-rule:evenodd;clip-rule:evenodd;fill:#FFFFFF;" d="M226.839,271.64
									c2.605,0,4.717,2.112,4.717,4.717c0,2.605-2.112,4.717-4.717,4.717c-2.605,0-4.717-2.112-4.717-4.717
									C222.122,273.752,224.234,271.64,226.839,271.64z"/>
								<path style="opacity:0.4;fill-rule:evenodd;clip-rule:evenodd;fill:#FFFFFF;" d="M254.52,271.64
									c2.605,0,4.717,2.112,4.717,4.717c0,2.605-2.112,4.717-4.717,4.717c-2.605,0-4.717-2.112-4.717-4.717
									C249.804,273.752,251.916,271.64,254.52,271.64z"/>
								<path style="opacity:0.4;fill-rule:evenodd;clip-rule:evenodd;fill:#FFFFFF;" d="M282.202,271.64
									c2.605,0,4.717,2.112,4.717,4.717c0,2.605-2.112,4.717-4.717,4.717c-2.605,0-4.716-2.112-4.716-4.717
									C277.485,273.752,279.597,271.64,282.202,271.64z"/>
								<path style="opacity:0.4;fill-rule:evenodd;clip-rule:evenodd;fill:#FFFFFF;" d="M309.884,271.639
									c2.605,0,4.716,2.112,4.716,4.717c0,2.605-2.112,4.717-4.716,4.717c-2.605,0-4.717-2.112-4.717-4.717
									C305.167,273.751,307.279,271.639,309.884,271.639z"/>
								<path style="opacity:0.4;fill-rule:evenodd;clip-rule:evenodd;fill:#FFFFFF;" d="M337.565,271.639
									c2.605,0,4.717,2.112,4.717,4.717c0,2.605-2.112,4.717-4.717,4.717c-2.605,0-4.717-2.112-4.717-4.717
									C332.848,273.751,334.96,271.639,337.565,271.639z"/>
								<path style="opacity:0.4;fill-rule:evenodd;clip-rule:evenodd;fill:#FFFFFF;" d="M185.316,251.516
									c2.605,0,4.717,2.112,4.717,4.717c0,2.605-2.112,4.717-4.717,4.717c-2.605,0-4.717-2.112-4.717-4.717
									C180.6,253.628,182.711,251.516,185.316,251.516z"/>
								<path style="opacity:0.4;fill-rule:evenodd;clip-rule:evenodd;fill:#FFFFFF;" d="M212.998,251.516
									c2.605,0,4.717,2.112,4.717,4.717c0,2.605-2.112,4.717-4.717,4.717c-2.605,0-4.717-2.112-4.717-4.717
									C208.281,253.628,210.393,251.516,212.998,251.516z"/>
								<path style="opacity:0.4;fill-rule:evenodd;clip-rule:evenodd;fill:#FFFFFF;" d="M240.679,251.516
									c2.605,0,4.717,2.112,4.717,4.717c0,2.605-2.112,4.717-4.717,4.717c-2.605,0-4.717-2.112-4.717-4.717
									C235.963,253.628,238.075,251.516,240.679,251.516z"/>
								<path style="opacity:0.4;fill-rule:evenodd;clip-rule:evenodd;fill:#FFFFFF;" d="M268.361,251.516
									c2.605,0,4.717,2.112,4.717,4.717c0,2.605-2.112,4.717-4.717,4.717c-2.605,0-4.717-2.112-4.717-4.717
									C263.644,253.628,265.756,251.516,268.361,251.516z"/>
								<path style="opacity:0.4;fill-rule:evenodd;clip-rule:evenodd;fill:#FFFFFF;" d="M296.042,251.516
									c2.605,0,4.717,2.112,4.717,4.717c0,2.605-2.112,4.717-4.717,4.717c-2.605,0-4.716-2.112-4.716-4.717
									C291.326,253.628,293.438,251.516,296.042,251.516z"/>
								<path style="opacity:0.4;fill-rule:evenodd;clip-rule:evenodd;fill:#FFFFFF;" d="M323.724,251.516
									c2.605,0,4.717,2.112,4.717,4.717c0,2.605-2.112,4.717-4.717,4.717c-2.605,0-4.717-2.112-4.717-4.717
									C319.007,253.628,321.119,251.516,323.724,251.516z"/>
								<path style="opacity:0.4;fill-rule:evenodd;clip-rule:evenodd;fill:#FFFFFF;" d="M171.476,230.754
									c2.605,0,4.717,2.112,4.717,4.717c0,2.605-2.112,4.717-4.717,4.717c-2.605,0-4.717-2.112-4.717-4.717
									C166.759,232.866,168.871,230.754,171.476,230.754z"/>
								<path style="opacity:0.4;fill-rule:evenodd;clip-rule:evenodd;fill:#FFFFFF;" d="M199.157,230.754
									c2.605,0,4.717,2.112,4.717,4.717c0,2.605-2.112,4.717-4.717,4.717c-2.605,0-4.717-2.112-4.717-4.717
									C194.441,232.866,196.552,230.754,199.157,230.754z"/>
								<path style="opacity:0.4;fill-rule:evenodd;clip-rule:evenodd;fill:#FFFFFF;" d="M226.839,230.754
									c2.605,0,4.717,2.112,4.717,4.717c0,2.605-2.112,4.717-4.717,4.717c-2.605,0-4.716-2.112-4.716-4.717
									C222.122,232.866,224.234,230.754,226.839,230.754z"/>
								<path style="opacity:0.4;fill-rule:evenodd;clip-rule:evenodd;fill:#FFFFFF;" d="M254.52,230.754
									c2.605,0,4.717,2.112,4.717,4.717c0,2.605-2.112,4.717-4.717,4.717c-2.605,0-4.717-2.112-4.717-4.717
									C249.803,232.866,251.915,230.754,254.52,230.754z"/>
								<path style="opacity:0.4;fill-rule:evenodd;clip-rule:evenodd;fill:#FFFFFF;" d="M282.202,230.754
									c2.605,0,4.717,2.112,4.717,4.717c0,2.605-2.112,4.717-4.717,4.717c-2.605,0-4.716-2.112-4.716-4.717
									C277.485,232.866,279.597,230.754,282.202,230.754z"/>
								<path style="opacity:0.4;fill-rule:evenodd;clip-rule:evenodd;fill:#FFFFFF;" d="M309.884,230.754
									c2.605,0,4.716,2.112,4.716,4.716c0,2.605-2.112,4.717-4.716,4.717c-2.605,0-4.717-2.112-4.717-4.717
									C305.167,232.866,307.279,230.754,309.884,230.754z"/>
								<path style="opacity:0.4;fill-rule:evenodd;clip-rule:evenodd;fill:#FFFFFF;" d="M337.565,230.754
									c2.605,0,4.717,2.112,4.717,4.716c0,2.605-2.112,4.717-4.717,4.717s-4.717-2.112-4.717-4.717
									C332.848,232.866,334.96,230.754,337.565,230.754z"/>
							</g>
						</g>
					</g>
					<path style="opacity:0.15;fill-rule:evenodd;clip-rule:evenodd;" d="M264.577,320.907c17.353-5.371,35.102-5.117,51.29-0.279
						c-1.158,6.004-1.997,12.407-1.63,19.207c1.319,24.448,18.387,87.681,23.666,98.824c-2.335,1.246-4.93,2.445-7.745,3.593
						c1.835,13.099,2.875,26.525,3.344,40.135c-5.221,2.891-10.814,5.296-16.741,7.13c-16.739,5.181-33.846,5.126-49.565,0.772
						l-0.001,0.006c-22.911-6.344-42.867-21.83-54.424-43.581l-0.175-0.33l-0.022-0.042c-0.148-0.282-0.295-0.566-0.44-0.85
						l-0.242-0.476c-0.12-0.238-0.239-0.476-0.357-0.716c-0.106-0.214-0.211-0.429-0.315-0.645l-0.259-0.542
						c-0.129-0.273-0.258-0.547-0.384-0.821l-0.206-0.449c-0.128-0.282-0.255-0.564-0.38-0.848l-0.18-0.409
						c-0.146-0.335-0.291-0.671-0.433-1.009l-0.105-0.252c-0.145-0.348-0.289-0.696-0.43-1.047l-0.113-0.281
						c-0.15-0.376-0.298-0.753-0.443-1.133l-0.041-0.106c-0.157-0.412-0.311-0.827-0.463-1.242l-0.051-0.139
						c-0.15-0.414-0.298-0.83-0.442-1.247l-0.038-0.111c-0.147-0.427-0.292-0.856-0.433-1.286l-0.029-0.088
						c-0.145-0.446-0.288-0.893-0.427-1.342l-0.136-0.445l-0.065-0.213l-0.088-0.295l-0.039-0.129l-0.022-0.077l-0.131-0.448
						l-0.018-0.064l-0.112-0.391l-0.056-0.199l-0.016-0.057l-0.107-0.387l-0.001-0.002l-0.105-0.385l-0.009-0.034l-0.077-0.289
						l-0.038-0.143l-0.081-0.308l-0.1-0.387c-2.602-10.154-3.318-20.387-2.356-30.311c2.346-6.867,4.01-13.54,4.214-19.304
						c0.005-0.127,0.005-0.252,0.009-0.379C215.783,351.125,236.433,329.618,264.577,320.907z"/>
					<g>
						<path style="fill-rule:evenodd;clip-rule:evenodd;fill:#FFE9C2;" d="M278.247,296.12
							c46.56-14.411,95.987,11.652,110.398,58.212c14.41,46.561-11.653,95.987-58.213,110.397
							c-46.56,14.411-95.987-11.652-110.397-58.213C205.624,359.957,231.686,310.53,278.247,296.12z"/>
						<path style="fill-rule:evenodd;clip-rule:evenodd;fill:#FFFFFF;" d="M279.907,301.486c21.799-6.746,44.271-4.019,62.976,5.845
							c18.706,9.862,33.648,26.864,40.396,48.663c6.746,21.799,4.019,44.27-5.844,62.975c-9.864,18.706-26.864,33.649-48.663,40.396
							c-21.8,6.746-44.271,4.019-62.976-5.844c-18.706-9.863-33.65-26.864-40.396-48.664c-6.746-21.799-4.019-44.27,5.845-62.976
							C241.107,323.176,258.109,308.232,279.907,301.486L279.907,301.486z M342.218,308.588
							c-18.384-9.694-40.468-12.376-61.89-5.745c-21.422,6.63-38.131,21.318-47.825,39.703c-9.694,18.384-12.376,40.468-5.746,61.89
							c6.631,21.423,21.319,38.132,39.704,47.826c18.385,9.694,40.468,12.376,61.89,5.746c21.423-6.631,38.132-21.319,47.826-39.704
							c9.693-18.384,12.375-40.468,5.745-61.891C375.291,334.992,360.603,318.282,342.218,308.588z"/>
						<path style="fill-rule:evenodd;clip-rule:evenodd;fill:#FFFFFF;" d="M282.234,309.003l-0.004,0.001
							c-19.72,6.105-35.1,19.625-44.025,36.55c-8.924,16.924-11.393,37.255-5.288,56.975l0.001,0.004
							c6.105,19.719,19.625,35.1,36.55,44.025c16.924,8.924,37.255,11.393,56.976,5.288l0.004,0
							c19.72-6.105,35.101-19.625,44.025-36.55c8.924-16.924,11.392-37.255,5.288-56.976l-0.001-0.004
							c-6.104-19.72-19.624-35.1-36.549-44.025C322.286,305.367,301.956,302.899,282.234,309.003L282.234,309.003z M281.821,307.643
							c20.095-6.217,40.809-3.702,58.054,5.391c17.246,9.094,31.023,24.768,37.243,44.866l0.002,0.007
							c6.218,20.096,3.703,40.811-5.39,58.055c-9.094,17.246-24.768,31.022-44.865,37.243l-0.008,0.002
							c-20.096,6.218-40.81,3.703-58.054-5.389c-17.247-9.095-31.023-24.768-37.244-44.866l-0.002-0.008
							c-6.218-20.095-3.703-40.81,5.39-58.054c9.094-17.246,24.768-31.023,44.865-37.243L281.821,307.643z"/>
						<path style="fill-rule:evenodd;clip-rule:evenodd;fill:#FFFFFF;" d="M283.721,313.805c18.397-5.694,37.36-3.392,53.147,4.933
							c15.785,8.323,28.397,22.671,34.09,41.068c5.694,18.397,3.393,37.361-4.933,53.148c-8.323,15.786-22.671,28.397-41.068,34.091
							c-18.398,5.693-37.361,3.393-53.147-4.932c-15.785-8.324-28.396-22.672-34.09-41.068c-5.695-18.397-3.393-37.361,4.932-53.148
							C250.976,332.111,265.323,319.5,283.721,313.805L283.721,313.805z M336.202,319.995c-15.465-8.155-34.041-10.41-52.062-4.833
							c-18.021,5.578-32.076,17.933-40.231,33.399c-8.155,15.465-10.41,34.042-4.832,52.062
							c5.577,18.02,17.932,32.076,33.398,40.231c15.465,8.155,34.042,10.41,52.062,4.833c18.021-5.578,32.077-17.933,40.231-33.399
							c8.155-15.465,10.41-34.042,4.833-52.062C364.024,342.206,351.668,328.151,336.202,319.995z"/>
						<path style="fill-rule:evenodd;clip-rule:evenodd;fill:#FFFFFF;" d="M285.733,320.31c16.602-5.138,33.714-3.062,47.959,4.451
							c14.244,7.511,25.625,20.457,30.763,37.058c5.138,16.601,3.061,33.714-4.451,47.959
							c-7.511,14.243-20.458,25.624-37.058,30.763c-16.601,5.138-33.714,3.06-47.959-4.451
							c-14.244-7.511-25.625-20.458-30.763-37.058c-5.138-16.602-3.061-33.714,4.451-47.959
							C256.186,336.828,269.132,325.448,285.733,320.31L285.733,320.31z M333.028,326.018c-13.924-7.343-30.65-9.373-46.874-4.351
							c-16.224,5.022-28.879,16.145-36.221,30.07c-7.343,13.923-9.372,30.649-4.352,46.874
							c5.022,16.224,16.147,28.878,30.071,36.219c13.923,7.344,30.649,9.374,46.874,4.353c16.224-5.023,28.879-16.146,36.221-30.071
							c7.342-13.923,9.373-30.649,4.352-46.874C358.075,346.016,346.952,333.361,333.028,326.018z"/>
						<path style="fill-rule:evenodd;clip-rule:evenodd;fill:#FFFFFF;" d="M287.846,327.137c14.715-4.554,29.884-2.714,42.511,3.945
							c12.627,6.658,22.714,18.135,27.269,32.852c4.555,14.714,2.714,29.884-3.945,42.51c-6.658,12.626-18.135,22.714-32.85,27.269
							c-14.715,4.554-29.884,2.713-42.512-3.945c-12.626-6.658-22.714-18.134-27.269-32.849
							c-4.554-14.716-2.713-29.885,3.945-42.512C261.655,341.78,273.132,331.692,287.846,327.137L287.846,327.137z M329.693,332.341
							c-12.306-6.489-27.088-8.284-41.427-3.846c-14.339,4.438-25.523,14.27-32.012,26.576c-6.489,12.305-8.283,27.088-3.845,41.427
							c4.437,14.338,14.269,25.523,26.576,32.012c12.305,6.488,27.088,8.283,41.426,3.845c14.339-4.438,25.523-14.27,32.012-26.576
							c6.489-12.306,8.284-27.088,3.846-41.425C351.831,350.014,342,338.83,329.693,332.341z"/>
						<path style="fill-rule:evenodd;clip-rule:evenodd;fill:#FFFFFF;" d="M290.127,334.504c12.681-3.924,25.754-2.338,36.635,3.4
							c10.88,5.738,19.573,15.627,23.497,28.309c3.925,12.681,2.339,25.754-3.399,36.635c-5.738,10.88-15.628,19.574-28.309,23.499
							c-12.682,3.925-25.754,2.339-36.635-3.4c-10.88-5.738-19.574-15.628-23.498-28.309c-3.925-12.681-2.339-25.754,3.4-36.635
							C267.556,347.122,277.446,338.429,290.127,334.504L290.127,334.504z M326.097,339.162
							c-10.561-5.568-23.246-7.109-35.551-3.301c-12.305,3.809-21.902,12.246-27.471,22.806c-5.568,10.561-7.109,23.246-3.3,35.55
							c3.808,12.305,12.246,21.902,22.806,27.471c10.56,5.568,23.245,7.108,35.549,3.3c12.305-3.808,21.902-12.245,27.471-22.806
							c5.568-10.56,7.109-23.245,3.301-35.549C345.094,354.328,336.657,344.73,326.097,339.162z"/>
						<path style="fill-rule:evenodd;clip-rule:evenodd;fill:#0E7499;" d="M292.253,341.375
							c21.566-6.676,44.461,5.397,51.136,26.964c6.675,21.567-5.397,44.462-26.964,51.137c-21.566,6.675-44.461-5.397-51.137-26.965
							C258.614,370.944,270.686,348.05,292.253,341.375z"/>
						<path style="opacity:0.15;fill-rule:evenodd;clip-rule:evenodd;" d="M332.613,368.278c4.411,5.167,7.256,11.143,8.582,17.351
							l3.254,0.759l-2.74,12.83c-0.27,1.993-0.691,3.967-1.261,5.904l-0.007,0.031l-0.002-0.001
							c-2.093,7.079-6.19,13.652-12.223,18.802c-10.034,8.565-23.118,11.227-35.025,8.324c2.275,4.872,4.871,9.397,7.474,13.34
							l-3.719-0.195l-0.99,3.284c-3.605-5.461-6.414-11.654-8.483-18.291c-2.656-1.097-5.21-2.492-7.611-4.182
							c-4.292,4.212-8.929,7.844-13.862,10.708l0.575-3.382l-3.416-1.48c4.184-2.43,8.634-5.41,12.933-8.863
							c-1.244-1.127-2.432-2.348-3.551-3.659c-8.424-9.868-11.139-22.688-8.465-34.436v0l3.584-16.653l3.959,0.925
							c1.562-1.97,3.335-3.82,5.319-5.514C293.526,349.721,318.454,351.69,332.613,368.278z"/>
						<path style="fill-rule:evenodd;clip-rule:evenodd;fill:#0E7499;" d="M292.43,410.791
							c-8.456,10.135-18.492,18.441-29.436,23.253l0.949-3.296l-3.23-1.853c9.819-4.317,21.241-11.179,29.655-20.243L292.43,410.791
							z"/>
						<path style="fill-rule:evenodd;clip-rule:evenodd;fill:#0E7499;" d="M283.833,413.208c3.331,12.772,8.87,24.564,16.719,33.58
							l0.546-3.386l3.712-0.299c-7.043-8.091-14.452-19.166-18.199-30.952L283.833,413.208z"/>
						<path style="fill-rule:evenodd;clip-rule:evenodd;fill:#FFE9C2;" d="M292.663,342.699c20.835-6.448,42.954,5.215,49.402,26.05
							c6.449,20.834-5.214,42.953-26.049,49.402c-20.835,6.448-42.954-5.215-49.402-26.049
							C260.164,371.266,271.828,349.148,292.663,342.699z"/>
						<path style="fill-rule:evenodd;clip-rule:evenodd;fill:#FFFFFF;" d="M293.87,346.6c9.34-2.891,18.97-1.723,26.985,2.505
							c8.015,4.225,14.417,11.51,17.308,20.851c2.892,9.34,1.724,18.971-2.504,26.985c-4.226,8.014-11.511,14.418-20.852,17.309
							c-9.34,2.891-18.969,1.723-26.985-2.504c-8.014-4.227-14.417-11.511-17.309-20.852c-2.891-9.34-1.722-18.97,2.504-26.985
							C277.245,355.894,284.529,349.491,293.87,346.6L293.87,346.6z M320.19,350.363c-7.693-4.058-16.935-5.18-25.9-2.405
							c-8.964,2.775-15.958,8.922-20.014,16.617c-4.058,7.693-5.179,16.935-2.405,25.9c2.775,8.964,8.922,15.957,16.617,20.014
							c7.693,4.057,16.935,5.179,25.9,2.405c8.964-2.775,15.958-8.922,20.014-16.616c4.057-7.694,5.179-16.936,2.405-25.899
							C334.032,361.412,327.885,354.42,320.19,350.363z"/>
						<path style="fill-rule:evenodd;clip-rule:evenodd;fill:#FFFFFF;" d="M295.376,351.465c7.999-2.476,16.241-1.474,23.104,2.144
							c6.862,3.618,12.344,9.856,14.82,17.853c2.475,7.997,1.474,16.241-2.145,23.104c-3.618,6.861-9.854,12.343-17.852,14.819
							c-7.997,2.474-16.242,1.474-23.103-2.144c-6.862-3.618-12.344-9.856-14.819-17.853c-2.475-7.998-1.476-16.242,2.143-23.104
							C281.141,359.423,287.378,353.941,295.376,351.465L295.376,351.465z M317.815,354.867c-6.541-3.449-14.398-4.403-22.018-2.045
							c-7.621,2.359-13.566,7.585-17.015,14.127c-3.449,6.541-4.403,14.398-2.044,22.019c2.359,7.62,7.585,13.566,14.127,17.015
							c6.54,3.449,14.398,4.403,22.017,2.044c7.621-2.358,13.566-7.584,17.016-14.126c3.449-6.541,4.403-14.398,2.044-22.019
							C329.583,364.262,324.357,358.316,317.815,354.867z"/>
						<path style="fill-rule:evenodd;clip-rule:evenodd;fill:#FFFFFF;" d="M297.055,356.89c6.499-2.011,13.199-1.199,18.776,1.743
							c5.575,2.941,10.03,8.009,12.042,14.508c2.011,6.499,1.198,13.199-1.743,18.776c-2.94,5.575-8.009,10.031-14.508,12.042
							c-6.5,2.011-13.201,1.199-18.777-1.742c-5.576-2.94-10.031-8.009-12.043-14.508c-2.012-6.499-1.199-13.199,1.742-18.776
							C285.487,363.358,290.555,358.902,297.055,356.89L297.055,356.89z M315.166,359.891c-5.255-2.772-11.569-3.538-17.692-1.643
							c-6.122,1.895-10.898,6.094-13.671,11.35c-2.771,5.255-3.538,11.567-1.642,17.69c1.895,6.123,6.094,10.9,11.35,13.671
							c5.255,2.772,11.569,3.538,17.691,1.643c6.123-1.895,10.898-6.094,13.671-11.35c2.77-5.255,3.537-11.567,1.642-17.69
							C324.622,367.439,320.422,362.662,315.166,359.891z"/>
						<path style="fill-rule:evenodd;clip-rule:evenodd;fill:#FFFFFF;" d="M298.753,362.375c4.984-1.542,10.123-0.919,14.4,1.337
							c4.275,2.255,7.691,6.142,9.235,11.128c1.542,4.983,0.921,10.122-1.336,14.399c-2.256,4.276-6.142,7.692-11.127,9.235
							c-4.985,1.542-10.123,0.919-14.399-1.336c-4.275-2.255-7.693-6.142-9.235-11.128c-1.543-4.983-0.92-10.122,1.336-14.399
							C289.881,367.337,293.768,363.919,298.753,362.375L298.753,362.375z M312.487,364.97c-3.955-2.086-8.706-2.663-13.314-1.236
							c-4.608,1.426-8.203,4.586-10.289,8.543c-2.085,3.955-2.662,8.707-1.236,13.314c1.427,4.609,4.587,8.204,8.543,10.289
							c3.955,2.086,8.706,2.663,13.314,1.236c4.608-1.426,8.204-4.587,10.29-8.542c2.086-3.956,2.662-8.707,1.236-13.314
							C319.604,370.651,316.443,367.056,312.487,364.97z"/>
						<path style="fill-rule:evenodd;clip-rule:evenodd;fill:#FFFFFF;" d="M300.325,367.283c3.61-1.104,7.329-0.647,10.425,0.986
							c3.109,1.64,5.595,4.468,6.717,8.092l0.003,0.012c1.118,3.622,0.664,7.356-0.975,10.463c-1.639,3.109-4.467,5.594-8.092,6.717
							l-0.015,0.004c-3.621,1.117-7.354,0.663-10.459-0.975c-3.095-1.633-5.57-4.44-6.701-8.04l-0.018-0.055
							c-1.121-3.625-0.667-7.363,0.972-10.472c1.632-3.095,4.44-5.569,8.038-6.7l0.043-0.019L300.325,367.283L300.325,367.283z
							 M310.085,369.527c-2.786-1.469-6.133-1.877-9.378-0.875l-0.013,0.003c-3.248,1.006-5.783,3.235-7.254,6.024
							c-1.463,2.776-1.873,6.106-0.888,9.339l0.018,0.037l0.012,0.055c1.012,3.229,3.234,5.748,6.011,7.213
							c2.788,1.47,6.139,1.878,9.387,0.872l0.01-0.003c3.244-1.007,5.777-3.234,7.247-6.022c1.47-2.789,1.877-6.139,0.873-9.388
							l-0.002-0.005C315.101,373.531,312.873,370.997,310.085,369.527z"/>
						<path style="fill-rule:evenodd;clip-rule:evenodd;fill:#FFFFFF;" d="M301.974,372.784c2.11-0.653,4.287-0.389,6.097,0.565
							c1.809,0.954,3.256,2.601,3.91,4.712c0.652,2.112,0.389,4.288-0.565,6.096c-0.956,1.809-2.602,3.256-4.712,3.909
							c-2.113,0.652-4.288,0.39-6.097-0.564c-1.809-0.955-3.257-2.601-3.91-4.712c-0.653-2.111-0.389-4.287,0.565-6.097
							C298.217,374.883,299.863,373.437,301.974,372.784L301.974,372.784z M307.407,374.607c-1.49-0.785-3.278-1.002-5.012-0.466
							c-1.734,0.536-3.087,1.726-3.873,3.217c-0.786,1.489-1.003,3.278-0.466,5.012c0.536,1.735,1.727,3.088,3.217,3.873
							c1.49,0.785,3.278,1.002,5.012,0.466c1.734-0.538,3.088-1.728,3.874-3.217c0.785-1.488,1.002-3.278,0.466-5.012
							C310.086,376.745,308.896,375.392,307.407,374.607z"/>
					</g>
					<path style="opacity:0.15;fill-rule:evenodd;clip-rule:evenodd;" d="M228.646,400.357c13.195,2.038,25.038,2.473,24.665-0.808
						c-0.57-5.045-28.655-6.327-37.301-10.963c2.166-6.307,10.596-6.8,11.027-9.88c0.975-6.982-25.404,2.069-33.411,19.084
						c-2.034,4.323,1.091,11.057,9.984,15.031c16.383,7.32,40.488,11.052,41.422,6.433c0.507-2.506-5.813-1.157-16.779-5.72
						c11.519,2.862,24.595,5.5,25.171,0.538c0.319-2.752-16.669-3.779-25.482-7c10.464,1.311,29.074,4.302,28.835,0.777
						C256.47,403.259,238.654,403.926,228.646,400.357z"/>
					<path style="fill-rule:evenodd;clip-rule:evenodd;fill:#FFE0D9;" d="M258.607,171.943c-11.441,1.305-22.883,2.609-34.324,3.914
						c1.705,14.445,9.554,40.535-11.841,48.624c12.221,22.422,68.416,25.868,59.279-2.24
						C259.971,221.163,260.276,186.33,258.607,171.943z"/>
					<path style="fill-rule:evenodd;clip-rule:evenodd;fill:#FFE0D9;" d="M201.673,225.333c-5.226,0.905-7.375,0.935-12.919,2.137
						c-14.781,58.16-5.908,63.464,2.609,90.26C214.803,301.04,217.911,267.772,201.673,225.333z"/>
					<path style="fill-rule:evenodd;clip-rule:evenodd;fill:#F2CAC2;" d="M186.457,303.788c1.632,4.367,3.49,8.728,4.242,11.913
						c6.399-8.521,10.303-30.835,10.461-37.051C193.794,281.616,190.643,300.645,186.457,303.788z"/>
					<path style="fill-rule:evenodd;clip-rule:evenodd;fill:#FFE0D9;" d="M181.713,229.829
						c-6.866,3.569-17.821,14.911-25.375,37.409c-2.243,6.679-32.49,62.298-36.846,82.562c-3.242,15.08,15.872,25.858,31.168,8.443
						c9.902-11.274,29.036-51.521,52.663-73.999C213.702,274.371,210.441,214.894,181.713,229.829z"/>
					<path style="fill-rule:evenodd;clip-rule:evenodd;fill:#F2CAC2;" d="M151.03,357.811c2.393-2.83,5.298-7.244,8.654-12.63
						c-6.302-3.995-20.171-8.82-25.426-5.903C129.003,342.195,142.458,352.2,151.03,357.811z"/>
					<path style="fill-rule:evenodd;clip-rule:evenodd;fill:#E8BEB5;" d="M226.14,197.749c16.284,25.567,37.495,20.343,34.808,0.698
						L226.14,197.749z"/>
					<path style="fill-rule:evenodd;clip-rule:evenodd;fill:#FFE0D9;" d="M219.162,89.923
						c59.609-17.704,79.743,91.416,49.036,107.341C207.669,228.654,142.33,112.742,219.162,89.923z"/>
					<path style="fill-rule:evenodd;clip-rule:evenodd;fill:#E8BEB5;" d="M255.002,161.536c9.208-4.585,6.289-11.292,0.141-17.55
						C261.783,148.909,268.176,158.768,255.002,161.536z"/>
					<path style="fill-rule:evenodd;clip-rule:evenodd;fill:#E8BEB5;" d="M267.026,165.793c-6.211-1.839-14.297,1.102-20.469,5.341
						C254.392,179.806,265.986,176.532,267.026,165.793z"/>
					<path style="fill-rule:evenodd;clip-rule:evenodd;fill:#07161F;" d="M232.198,132.283c2.366-0.615,2.61-3.934-0.51-3.64
						c-4.5,0.425-12.03,5.141-13.584,8.438c-0.986,2.093,0.569,3.225,2.306,1.694C223.38,136.156,230.561,132.709,232.198,132.283z"
						/>
					<path style="fill-rule:evenodd;clip-rule:evenodd;fill:#07161F;" d="M254.13,127.864c-2.198,0.764-4.131-1.767-1.495-3.161
						c3.802-2.011,11.205-2.256,15.209-0.31c1.982,0.963,1.215,2.911-0.946,2.484C263.859,126.276,256.277,127.12,254.13,127.864z"
						/>
					<path style="opacity:0.08;fill-rule:evenodd;clip-rule:evenodd;fill:#FF5765;" d="M234.022,152.447
						c-5.707,2.153-9.391,6.597-8.232,9.924c1.16,3.327,6.727,4.279,12.433,2.126c5.705-2.154,9.393-6.597,8.232-9.925
						C245.295,151.245,239.727,150.293,234.022,152.447z"/>
					<path style="opacity:0.08;fill-rule:evenodd;clip-rule:evenodd;fill:#FF5765;" d="M269.299,142.186
						c5.584-0.547,10.513,1.835,11.013,5.321c0.501,3.484-3.622,6.753-9.204,7.301c-5.582,0.547-10.513-1.833-11.012-5.32
						C259.595,146.004,263.716,142.734,269.299,142.186z"/>
					<path style="fill-rule:evenodd;clip-rule:evenodd;fill:#66C5E8;" d="M270.072,482.357c0.285,16.801-2.383,56.129-5.315,66.09
						c-0.81-9.609-1.366-13.537-1.568-19.06C264.718,512.564,270.072,482.357,270.072,482.357z"/>
					<path style="fill-rule:evenodd;clip-rule:evenodd;fill:#FFE0D9;" d="M184.831,154.403c2.646-1.438,7.29,1.994,10.371,7.664
						c3.082,5.67,3.435,11.433,0.789,12.871c-2.646,1.438-7.29-1.993-10.371-7.664C182.538,161.604,182.185,155.841,184.831,154.403
						z"/>
					<path style="fill-rule:evenodd;clip-rule:evenodd;fill:#FFE0D9;" d="M207.441,412.029
						c-34.735-12.911-57.386-27.942-81.522-46.655c-18.319-14.203,2.469-36.825,22.51-23.049
						c24.652,16.945,35.745,35.801,62.775,58.689C216.922,405.855,214.16,414.527,207.441,412.029z"/>
					<path style="fill-rule:evenodd;clip-rule:evenodd;fill:#FFE0D9;" d="M227.137,398.849c13.195,2.038,25.038,2.473,24.666-0.808
						c-0.571-5.045-28.655-6.327-37.302-10.963c2.166-6.307,10.596-6.8,11.027-9.881c0.975-6.982-25.404,2.069-33.411,19.085
						c-2.035,4.323,1.091,11.057,9.984,15.031c16.384,7.32,40.488,11.052,41.422,6.433c0.507-2.507-5.813-1.157-16.779-5.72
						c11.519,2.862,24.595,5.5,25.171,0.538c0.319-2.752-16.669-3.779-25.482-7c10.463,1.311,29.074,4.302,28.834,0.777
						C254.962,401.751,237.145,402.418,227.137,398.849z"/>
					
						<path style="fill-rule:evenodd;clip-rule:evenodd;fill:none;stroke:#07161F;stroke-width:1.9199;stroke-linecap:round;stroke-linejoin:round;stroke-miterlimit:22.9256;" d="
						M226.462,145.364c1.722-1.951,6.519-4.769,10.384-3.258"/>
					
						<path style="fill-rule:evenodd;clip-rule:evenodd;fill:none;stroke:#07161F;stroke-width:1.9199;stroke-linecap:round;stroke-linejoin:round;stroke-miterlimit:22.9256;" d="
						M268.059,134.149c-2.466-0.828-8.031-0.871-10.623,2.37"/>
					<path style="fill-rule:evenodd;clip-rule:evenodd;fill:#0C1F2B;" d="M229.13,88.013c9.213,4.422,40.415,13.797,47.682,40.756
						C276.972,114.655,271.07,78.638,229.13,88.013z"/>
					<path style="fill-rule:evenodd;clip-rule:evenodd;fill:#0C1F2B;" d="M251.722,89.565
						c-4.113,35.733-67.19,44.348-38.038,102.663c-19.273-15.561-39.38-50.505-28.621-79.189
						C193.565,90.37,224.498,69.301,251.722,89.565z"/>
					<path style="fill-rule:evenodd;clip-rule:evenodd;fill:#1A3E54;" d="M237.233,88.912
						c12.644,22.111-48.949,32.799-35.889,81.079C163.417,124.985,231.191,108.401,237.233,88.912z"/>
					<path style="fill-rule:evenodd;clip-rule:evenodd;fill:#1A3E54;" d="M274.022,117.488
						c-9.049-14.762-21.139-26.792-34.042-29.077C257.272,85.524,272.417,100.866,274.022,117.488z"/>
					<g>
						<path style="fill-rule:evenodd;clip-rule:evenodd;fill:#FFE0D9;" d="M330.427,166.97
							c39.255,36.89,48.216,37.974,68.438,63.205c14.496,18.086-4.866,30.919-25.482,18.019
							c-26.317-25.433-21.142-30.509-52.608-69.96C321.992,174.285,326.889,169.049,330.427,166.97z"/>
						<g>
							<g>
								<path style="fill-rule:evenodd;clip-rule:evenodd;fill:#FFE0D9;" d="M325.127,150.751
									c2.562,6.931,2.585,13.115,6.925,17.742c4.341,4.627-7.028,15.262-9.312,12.193c-2.284-3.07-5.884-1.434-10.701-2.294
									C307.221,177.53,293.042,164.27,325.127,150.751z"/>
								<path style="fill-rule:evenodd;clip-rule:evenodd;fill:#FFE0D9;" d="M286.702,147.211c-5.856-0.174-8.574-6.061-1.808-6.08
									c5.49-0.014,10.252,4.21,11.643,6.103C298.12,149.389,291.174,147.343,286.702,147.211z"/>
								<path style="fill-rule:evenodd;clip-rule:evenodd;fill:#FFE0D9;" d="M294.458,144.141c-5.823-0.644-8.058-6.731-1.313-6.204
									c5.473,0.427,9.881,5.02,11.114,7.019C305.663,147.231,298.905,144.632,294.458,144.141z"/>
								<path style="fill-rule:evenodd;clip-rule:evenodd;fill:#FFE0D9;" d="M300.779,141.113c-5.776-0.979-7.659-7.183-0.956-6.27
									c5.44,0.741,9.576,5.579,10.693,7.646C311.788,144.841,305.19,141.858,300.779,141.113z"/>
								<path style="fill-rule:evenodd;clip-rule:evenodd;fill:#FFE0D9;" d="M307.871,139.706c-4.889-0.722-6.587-5.922-0.917-5.271
									c4.602,0.527,8.176,4.534,9.155,6.258C317.224,142.652,311.605,140.256,307.871,139.706z"/>
							</g>
							<g>
								<path style="fill-rule:evenodd;clip-rule:evenodd;fill:#E0F7FF;" d="M290.969,145.242
									c-5.996,4.26-14.821-0.804-20.927,4.951c-9.565,9.014-5.244,23.303,7.713,25.507c8.272,1.407,12.957-7.694,20.164-7.474
									c7.207,0.219,23.043-3.747,28.899-7.226c3.864-2.295,5.62-8.645,3.671-15.094c-1.95-6.449-6.405-10.481-10.647-10.581
									C312.438,135.152,297.006,140.952,290.969,145.242z"/>
								<path style="fill-rule:evenodd;clip-rule:evenodd;fill:#B4E1F0;" d="M261.525,166.761c-0.956-3.163-0.046-6.238,2.035-6.867
									l1.454-0.44c-0.61,4.168,0.671,8.329,3.527,11.435l-1.517,0.459C264.943,171.977,262.481,169.924,261.525,166.761z"/>
							</g>
							<path style="fill-rule:evenodd;clip-rule:evenodd;fill:#FFE0D9;" d="M283.771,163.118c2.35-3.633,9.988,7.536,23.001,4.206
								c13.013-3.329,13.141,10.943,6.193,11.428c-2.774,0.195-8.897-0.128-15.297-2.951
								C288.928,171.944,281.933,165.956,283.771,163.118z"/>
						</g>
					</g>
					<g>
						<path style="fill-rule:evenodd;clip-rule:evenodd;fill:#FFE9C2;" d="M216.385,387.791c-0.675-7.971-0.247-15.875,1.185-23.528
							l23.401-6.752l-3.13,26.415L216.385,387.791z"/>
						<path style="fill-rule:evenodd;clip-rule:evenodd;fill:#FFFFFF;" d="M221.934,386.791c-0.645-8.253-0.029-16.428,1.723-24.285
							l1.562-0.451c-1.844,7.908-2.516,16.154-1.879,24.483L221.934,386.791z"/>
						<path style="fill-rule:evenodd;clip-rule:evenodd;fill:#FFFFFF;" d="M232.417,359.979c-2.32,8.135-3.278,16.719-2.693,25.409
							l-1.408,0.253c-0.598-8.607,0.29-17.114,2.495-25.199L232.417,359.979z"/>
						<path style="fill-rule:evenodd;clip-rule:evenodd;fill:#FFFFFF;" d="M234.704,384.491c-0.533-9.005,0.708-17.877,3.491-26.179
							l1.669-0.481c-2.932,8.347-4.265,17.306-3.75,26.408L234.704,384.491z"/>
					</g>
					<path style="fill-rule:evenodd;clip-rule:evenodd;fill:#122836;" d="M155.219,234.32
						c-5.536-22.451,16.949-33.558,18.305-50.847c1.356-17.288-33.657-45.944,5.085-86.441c-29.25,43.548,4.407,69.153,3.051,86.441
						S157.479,214.243,155.219,234.32z"/>
					<path style="fill-rule:evenodd;clip-rule:evenodd;fill:#FFEAE5;" d="M342.15,185.919c-2.584-1.996-1.303-4.05,1.515-2.412
						c18.028,10.481,48.193,38.878,50.207,50.719c0.549,3.228-0.588,4.991-2.143,2.098
						C384.136,222.192,355.219,197.401,342.15,185.919z"/>
					<path style="fill-rule:evenodd;clip-rule:evenodd;fill:#FFEAE5;" d="M261.638,183.65c6.448-1.834,9.299,7.759,2.851,9.593
						C258.041,195.077,255.19,185.484,261.638,183.65z"/>
					<path style="fill-rule:evenodd;clip-rule:evenodd;fill:#FFEAE5;" d="M253.912,145.561c3.826-0.677,9.406,9.724,3.71,11.329
						C253.2,158.137,251.095,146.058,253.912,145.561z"/>
					<path style="fill-rule:evenodd;clip-rule:evenodd;fill:#FFEAE5;" d="M294.088,228.088c-2.621,0.018-2.631-2.105-0.083-2.724
						c12.763-3.101,36.935-0.44,48.669,5.498c2.342,1.185,2.385,3.698-0.139,2.999C331.976,230.94,307.157,227.978,294.088,228.088z
						"/>
					<path style="fill-rule:evenodd;clip-rule:evenodd;fill:#FFEAE5;" d="M188.323,231.504c2.368-1.09,3.552,0.657,1.612,2.398
						c-11.962,10.73-17.909,20.361-26.292,35.713c-1.253,2.294-3.449,0.776-2.85-1.766
						C164.932,250.282,170.444,239.733,188.323,231.504z"/>
					<path style="fill-rule:evenodd;clip-rule:evenodd;fill:#FFEAE5;" d="M143.074,350.161c-2.584-1.995-1.219-3.753,1.814-2.562
						c19.82,7.79,34.467,23.939,43.615,34.653c2.125,2.489,1.074,4.323-1.371,2.133C174.11,372.716,155.395,358.655,143.074,350.161
						z"/>
					<path style="fill-rule:evenodd;clip-rule:evenodd;fill:#FFEAE5;" d="M215.11,390.383c-0.897,3.442,32.083,8.306,32.574,6.112
						c0.236-1.057-8.086-1.832-15.91-3.318C223.36,391.578,215.383,389.336,215.11,390.383z"/>
					<path style="opacity:0.4;fill-rule:evenodd;clip-rule:evenodd;fill:#FFE0D9;" d="M286.702,147.211
						c6.374,3.64,16.234,14.301,13.977,20.934c7.913-0.595,20.948-4.061,26.14-7.145c0.372-0.221,0.725-0.48,1.056-0.773
						c-0.289-10.028-8.271-19.926-15.873-23.778c-7.562,1.871-16.708,5.719-21.032,8.792c-1.287,0.914-2.705,1.398-4.198,1.653
						C286.748,147.001,286.724,147.103,286.702,147.211z"/>
					<g>
						<path style="fill-rule:evenodd;clip-rule:evenodd;fill:#B4E1F0;" d="M313.533,151.034c-2.153-7.119-0.102-14.038,4.58-15.453
							c4.683-1.416,10.223,3.207,12.376,10.326c2.153,7.119,0.102,14.038-4.58,15.454
							C321.226,162.776,315.686,158.153,313.533,151.034z"/>
						<path style="fill-rule:evenodd;clip-rule:evenodd;fill:#93D1E6;" d="M318.016,149.103c-0.648-2.143-0.031-4.226,1.379-4.652
							c1.41-0.427,3.078,0.965,3.726,3.109c0.648,2.143,0.031,4.226-1.379,4.652C320.332,152.638,318.664,151.246,318.016,149.103z"
							/>
					</g>
					
						<path style="fill-rule:evenodd;clip-rule:evenodd;fill:none;stroke:#FFFFFF;stroke-width:1.9199;stroke-linecap:round;stroke-linejoin:round;stroke-miterlimit:22.9256;" d="
						M271.68,151.601c5.977-4.374,12.006-0.72,18.206-2.59c6.201-1.869,12.158-7.712,20.578-9.038"/>
				</g>
			</g>
		</g>
	</g>
</g>
</svg>
