<?xml version="1.0" encoding="utf-8"?>
<!-- Generator: Adobe Illustrator 27.5.0, SVG Export Plug-In . SVG Version: 6.00 Build 0)  -->
<svg version="1.1" id="Capa_2" xmlns="http://www.w3.org/2000/svg" xmlns:xlink="http://www.w3.org/1999/xlink" x="0px" y="0px"
	 viewBox="0 0 2122 2122" style="enable-background:new 0 0 2122 2122;" xml:space="preserve">
<path style="fill:#F4E6C9;" d="M1726.895,1072.135c-21.76-202.239-113.518-425.307-245.458-596.7
	c-139.263-180.91-300.996-276.799-443.723-263.005c-34.696,3.345-69.679,14.535-104.325,33.164
	c-73.165,16.871-149.136,63.069-222.976,136.133c-189.454,187.461-321.772,504.095-321.772,769.997
	c0,418.222,273.117,758.473,608.825,758.473c34.63,0,68.593-3.624,101.659-10.577c23.204,3.505,46.595,5.28,70.08,5.28
	c16.666,0,33.389-0.893,50.114-2.693C1544.674,1867.203,1772.371,1494.835,1726.895,1072.135z"/>
<path style="fill:#EA9E20;" d="M1557.208,1266.845c-7.421-77.361-33.662-147.302-72.424-203.434
	c-5.998-13.697-12.646-26.893-19.886-39.529c-62.041-108.271-167.575-175.424-280.298-164.611
	c-165.543,15.881-283.9,193.899-264.357,397.615c7.421,77.361,33.662,147.302,72.424,203.434
	c33.581,76.688,87.539,137.655,151.748,172.625c45.529,24.797,96.211,36.523,148.436,31.514
	C1458.394,1648.58,1576.75,1470.561,1557.208,1266.845z"/>
<ellipse transform="matrix(0.0665 -0.9978 0.9978 0.0665 -69.0543 2276.0444)" style="fill:#F3B039;" cx="1181.826" cy="1174.926" rx="284.315" ry="226.393"/>
<path style="fill:#E2CFAF;" d="M1454.294,496.328c-120.678-156.769-257.049-246.327-379.5-250.783
	c148.236,131.39,277.33,315.491,340.298,503.665c30.949,92.487,47.099,185.364,49.806,274.672
	c7.24,12.636,13.888,25.831,19.886,39.529c38.762,56.132,65.003,126.073,72.424,203.434
	c19.543,203.717-98.814,381.735-264.357,397.615c-52.225,5.01-102.908-6.717-148.436-31.513c-11.924,5.19-24.134,9.89-36.629,14.07
	c-122.641,41.04-253.529,26.078-374.579-32.633c20.812,29.583,43.481,57.356,67.892,83.045
	c119.699,125.974,266.903,186.616,414.557,170.717c306.575-32.982,520.639-388.429,477.182-792.349
	C1671.724,879.561,1582.55,662.935,1454.294,496.328z"/>
<path style="fill:#DBCBAD;" d="M1255.369,1596.994c-102.679,9.85-199.393-44.991-262.703-136.673
	c33.581,76.688,87.539,137.655,151.748,172.626c45.528,24.796,96.211,36.523,148.436,31.513
	c165.543-15.88,283.9-193.899,264.357-397.615c-7.421-77.361-33.662-147.302-72.424-203.434
	c18.085,41.299,30.26,87.157,34.943,135.968C1539.269,1403.095,1420.912,1581.114,1255.369,1596.994z"/>
<path style="fill:#60341C;" d="M1726.895,1072.133c-21.76-202.239-113.521-425.307-245.458-596.699
	c-139.263-180.91-301.001-276.775-443.723-263.005c-34.695,3.345-69.68,14.535-104.325,33.164
	c-73.164,16.871-149.136,63.07-222.975,136.133C520.959,569.187,388.641,885.819,388.641,1151.72
	c0,418.224,273.117,758.475,608.825,758.475c34.63,0,68.593-3.624,101.659-10.577c23.204,3.505,46.595,5.28,70.08,5.28
	c16.666,0,33.389-0.894,50.114-2.693C1544.674,1867.201,1772.371,1494.833,1726.895,1072.133z M997.467,1875.941
	c-316.82,0-574.572-324.885-574.572-724.222c0-257.483,128.139-564.104,311.61-745.646c28.452-28.153,57.082-52.019,85.572-71.439
	c-11.898,12.45-23.661,25.801-35.262,40.038c-79.269,97.278-146.952,231.521-190.582,378.002
	c-45.883,154.037-62.286,308.407-47.436,446.424c21.942,203.931,103.435,389.289,229.471,521.927
	c69.195,72.821,147.299,125.067,229.652,154.836C1003.107,1875.912,1000.29,1875.941,997.467,1875.941z M1215.655,1868.147
	c-147.654,15.899-294.858-44.743-414.557-170.717c-24.41-25.689-47.08-53.462-67.892-83.045
	c-82.253-116.917-135.479-262.132-152.351-418.952c-28.431-264.24,68.514-600.32,230.512-799.123
	c73.848-90.625,153.255-142.422,229.634-149.786c8.011-0.772,16.08-1.157,24.233-1.157c3.177,0,6.364,0.061,9.56,0.178
	c122.452,4.455,258.822,94.014,379.5,250.783c128.256,166.607,217.43,383.233,238.543,579.47
	C1736.295,1479.718,1522.23,1835.165,1215.655,1868.147z"/>
<path style="fill:#FFF8EA;" d="M1070.29,507.694c-15.573-46.85-64.873-76.618-113.798-65.008
	c-27.789,6.595-51.178,25.199-71.252,45.516C771.834,602.978,710.396,776.905,681.884,932.677c-0.592,3.232-1.18,6.481-1.764,9.746
	c-20.732,115.975-35.28,251.549,34.594,353.412c7.171,10.454,15.523,20.616,26.778,26.45c11.254,5.834,26.016,6.417,35.919-1.499
	c14.079-11.256,12.551-32.617,10.885-50.566c-9.652-103.952,20.721-208.483,68.676-301.217
	C929.848,828.076,1130.482,688.785,1070.29,507.694z"/>
<ellipse transform="matrix(0.0665 -0.9978 0.9978 0.0665 -64.6281 2225.9648)" style="fill:#FDC96D;" cx="1157.277" cy="1147.521" rx="238.385" ry="181.409"/>
<ellipse transform="matrix(0.0665 -0.9978 0.9978 0.0665 -79.5279 2150.313)" style="fill:#FDD79D;" cx="1109.395" cy="1117.657" rx="159.468" ry="109.673"/>
<path style="fill:#60341C;" d="M1289.942,1476.287c-11.237,6.159-22.892,12.266-31.352,22.073
	c-12.905,14.961-14.205,38.982,4.891,49.282c9.679,5.221,21.429,5.007,31.911,1.843c44.414-13.411,86.281-57.243,113.525-94.155
	c28.781-38.995,48.493-84.543,58.683-132.355c3.479-16.324,5.869-32.891,7.237-49.544c3.736-45.507,2.271-87.476-4.596-132.529
	c-0.408-2.674-1.083-7.625-4.685-8.121c-5.221-0.719-7.941,2.851-7.932,8.262c0.089,52.944-4.569,106.346-19.897,156.873
	c-4.342,14.313-9.528,27.915-15.521,40.827C1394.335,1398.79,1349.008,1443.913,1289.942,1476.287z"/>
</svg>
