<?xml version="1.0" encoding="utf-8"?>
<!-- Generator: Adobe Illustrator 27.5.0, SVG Export Plug-In . SVG Version: 6.00 Build 0)  -->
<svg version="1.1" xmlns="http://www.w3.org/2000/svg" xmlns:xlink="http://www.w3.org/1999/xlink" x="0px" y="0px"
	 viewBox="0 0 1122 1122" style="enable-background:new 0 0 1122 1122;" xml:space="preserve">
<g id="Bg">
	<rect style="fill:#F9F7F2;" width="1122" height="1122"/>
</g>
<g id="Object">
	<path style="opacity:0.14;fill:#606060;" d="M821.271,909.253c7.762,3.31,14.345,7.469,19.237,12.693
		c-14.781,13.536-33.435,16.071-52.737,17.405c-70.305,4.859-140.609,9.718-210.914,14.576
		c-96.694,6.683-194.186,13.343-290.24,0.382c-10.852-1.464-25.222-9.408-20.197-19.137c2.09-4.046,6.865-5.778,11.23-7.075
		c81.457-24.212,171.893-28.6,256.334-31.503c48.862-1.68,97.89-1.719,146.753-0.222
		C714.152,897.396,782.447,892.699,821.271,909.253z"/>
	<g>
		<g>
			<path style="fill:#A01C1C;" d="M564.757,336.424c-12.321,2.006-24.686,2.494-37.137,0.319
				c-44.122-7.708-82.31-33.453-128.749-30.011c-59.202,4.388-116.924,30.529-157.07,73.312
				c-54.578,58.163-74.671,144.996-50.974,220.297c13.802,43.86,40.767,82.493,67.355,120.375c31.372,44.7,62.745,89.4,94.117,134.1
				c12.733,18.142,25.744,36.579,43.454,50.208c26.622,20.488,61.745,28.208,95.688,27.789c24.283-0.3,48.678-5.146,72.344-9.753
				c24.604-4.79,41.871-1.983,67.47,0.327c25.256,2.279,51.295-4.992,71.463-19.957c30.271-22.462,40.281-55.346,56.76-86.772
				c20.65-39.379,39.792-81.711,66.328-117.226c29.205-39.087,50.997-83.161,59.418-131.051
				c11.121-63.24-2.277-131.416-41.886-182.716c-39.609-51.301-106.326-83.39-171.95-76.966
				C635.508,312.209,600.314,330.635,564.757,336.424z"/>
			<path style="fill:#69493E;" d="M552.324,180.05c1.166-7.711,3.536-16.881,11.162-19.271c7.347-2.303,15.179,3.918,17.271,11.146
				c2.092,7.228,0.092,14.909-1.905,22.166c-15.232,55.33-29.426,111.08-45.85,166.07
				C512.339,349.809,548.274,206.82,552.324,180.05z"/>
			<path style="opacity:0.11;fill:#FFFFFF;" d="M387.766,353.643c23.13,0.81,50.244,10.588,54.734,32.674
				c1.503,7.395,0.087,15.137-2.791,22.137c-9.045,21.996-30.815,35.939-49.325,51.335c-39.898,33.186-68.607,78.899-80.75,128.579
				c-3.129,12.802-6.122,27.273-17.399,34.542c-17.657,11.382-41.067-3.287-53.744-19.795
				C158.239,498.616,261.856,349.235,387.766,353.643z"/>
			<path style="opacity:0.81;fill:#8E1919;" d="M616.99,859.572c45.419-16.427,74.213-59.789,114.985-85.262
				c2.532-1.582,5.236-3.135,8.236-3.362c6.549-0.494,11.969,5.79,12.72,12.137s-1.885,12.567-4.589,18.39
				c-9.594,20.664-20.751,40.64-33.352,59.715c-7.263,10.994-15.362,22.021-26.92,28.683c-24.017,13.844-54.619,5.05-82.292,8.656
				c-11.376,1.483-81.051,20.462-68.219-13.572C543.856,868.258,601.647,865.121,616.99,859.572z"/>
			<path style="opacity:0.63;fill:#7A0F23;" d="M500.689,359.279c1.336-3.005,5.074-4.385,8.434-4.209
				c3.361,0.177,6.508,1.554,9.691,2.618c11.23,3.753,23.783,3.639,34.939-0.318c4.195-1.488,8.246-3.512,12.659-4.169
				c4.413-0.657,9.471,0.39,12.057,3.93c2.441,3.341,1.996,8.096-0.149,11.625c-2.144,3.529-5.692,6.03-9.341,8.081
				c-13.68,7.684-32.418,11.666-47.623,5.905C513.917,379.924,496.427,368.866,500.689,359.279z"/>
			<path style="fill:#819332;" d="M534.279,346.834c-2.467,4.533-5.009,9.028-7.655,13.469c20.75,14.45,75.91,17.881,102.442,21.738
				c44.477,6.467,91.243,5.115,133.688-13.376c35.193-15.347,57.536-38.517,81.549-66.435c28.581-33.23,64.24-61.556,96.682-91.2
				c-25.319-8.63-53.337-6.865-80.061-10.578c-26.434-3.673-51.542-12.71-77.496-18.496
				c-70.496-15.717-159.515,7.016-200.251,71.577C564.375,283.33,551.069,315.978,534.279,346.834z"/>
			<path style="fill:#849A31;" d="M940.985,211.03c-25.319-8.63-53.337-6.865-80.061-10.578
				c-26.434-3.673-51.542-12.71-77.496-18.496c-70.496-15.717-159.515,7.016-200.251,71.577
				c-18.801,29.797-32.107,62.444-48.897,93.301c-2.462,4.525-5,9.012-7.64,13.446c1.718-2.885,11.515-3.255,14.54-4.301
				c9.779-3.382,19.205-7.974,28.596-12.268c20.307-9.286,40.299-19.207,60.608-28.488c57.163-26.125,116.718-47.29,177.724-63.19
				c29.415-7.667,57.76-13.952,86.159-24.171C909.84,222.257,925.411,216.641,940.985,211.03z"/>
		</g>
		<path style="opacity:0.62;fill:#54372F;" d="M572.878,169.195c-2.95-3.305-8.213-5.048-11.2-1.875
			c-3.223,3.425-2.764,9.285,0.285,12.691c0.654,0.73,1.432,1.386,2.371,1.669c1.422,0.428,2.969-0.055,4.38-0.595
			C576.546,178.085,576.043,172.741,572.878,169.195z"/>
	</g>
</g>
</svg>
