<?xml version="1.0" encoding="utf-8"?>
<!-- Generator: Adobe Illustrator 27.5.0, SVG Export Plug-In . SVG Version: 6.00 Build 0)  -->
<svg version="1.1" xmlns="http://www.w3.org/2000/svg" xmlns:xlink="http://www.w3.org/1999/xlink" x="0px" y="0px"
	 viewBox="0 0 500 500" style="enable-background:new 0 0 500 500;" xml:space="preserve">
<g id="BACKGROUND">
	<rect id="XMLID_1_" style="fill:#FBFFFF;" width="500" height="500"/>
</g>
<g id="OBJECTS">
	<g>
		<g>
			<g>
				<path style="fill:#FFE3BB;" d="M160.992,380.569c-24.736,1.339-49.676-1.156-73.657-7.368
					c-12.369-3.204-26.778-10.271-27.16-23.042c-0.23-7.685,5.258-14.624,11.968-18.379c6.71-3.755,14.508-4.941,22.114-6.065
					c-18.76-3.906-36.51-14.44-47-30.476c-10.49-16.036-12.831-37.7-3.957-54.685c8.874-16.984,29.524-27.627,48.11-22.962
					c-16.075-11.444-16.265-36.899-5.04-53.127s30.348-24.976,49.1-31.117c40.318-13.204,82.825-17.765,125.016-19.814
					c39.837-1.935,81.67-3.589,120.052,9.607c11.208,3.854,22.976,9.879,27.377,20.884c5.196,12.993-1.8,27.376-8.612,39.6
					c19.155-2.348,39.76,2.001,54.164,14.843c14.71,13.115,18.934,32.281,14.19,50.871c-4.728,18.526-25.77,24.956-42.566,29.471
					c18.649,4.014,30.512,24.887,28.278,43.832c-2.233,18.945-15.881,35.1-32.345,44.735c-16.465,9.635-35.551,13.677-54.391,16.671
					c-59.199,9.408-119.593,9.854-179.322,4.805"/>
				<path style="fill:#FFE3BB;" d="M25.262,193.335c-4.386,13.98,16.505,22.269,27.133,21.168
					c8.848-0.917,15.968-8.067,18.733-16.299C80.434,170.494,30.787,175.726,25.262,193.335z"/>
				<path style="fill:#FFE3BB;" d="M417.688,121.098c5.196,6.75,10.225,16.46,9.987,25.234c-0.174,6.411-5.501,12.399,0.411,18.058
					c3.275,3.134,7.907,4.288,12.278,5.493c9.546,2.632,14.841,10.211,20.377,18.124c2.364,3.379,5.248,7.595,9.337,7.064
					c4.824-0.626,6.037-7.216,4.814-11.924c-2.168-8.341-8.213-15.588-16.03-19.216c-4.876-2.263-10.878-3.607-13.379-8.366
					c-2.59-4.929-0.03-10.819,1.073-16.277c3.049-15.085-6.253-30.679-19.267-38.893c-6.585-4.156-55.678-19.647-56.137-5.705
					c-0.233,7.094,16.471,8.857,20.679,9.908C401.961,107.126,411.283,112.775,417.688,121.098z"/>
			</g>
		</g>
		<g>
			<g id="XMLID_31_">
				<g id="XMLID_35_">
					<g id="XMLID_50_">
						<path style="fill:#EE9762;" d="M425.829,306.805c-1.791,9.263-16.352,11.63-36.627,12.391
							c-20.275,0.761-33.983-1.254-36.794-9.636c-3.335-9.946,14.922-14.105,35.197-14.866
							C407.879,293.933,427.954,295.812,425.829,306.805z"/>
					</g>
					<g id="XMLID_49_">
						<path style="fill:#EE9762;" d="M443.475,327.942c-1.22,10.998-20.257,15.356-47.082,18.467
							c-26.825,3.111-45.277,2.266-50.059-7.201c-5.673-11.232,18.049-18.085,44.873-21.197
							C418.033,314.901,444.923,314.889,443.475,327.942z"/>
					</g>
					<g id="XMLID_48_">
						<path style="fill:#EE9762;" d="M415.318,288.637c-0.241,5.834-10.104,8.822-24.112,11.436
							c-14.008,2.615-23.752,2.842-26.614-1.967c-3.395-5.706,8.843-10.178,22.85-12.792
							C401.45,282.699,415.605,281.713,415.318,288.637z"/>
					</g>
					<g id="XMLID_47_">
						<path style="fill:#EE9762;" d="M415.139,347.226c-0.734,5.793-10.815,7.935-24.993,9.355
							c-14.179,1.42-23.908,0.822-26.352-4.212c-2.9-5.973,9.672-9.393,23.851-10.813
							C401.823,340.136,416.01,340.351,415.139,347.226z"/>
					</g>
					<g id="XMLID_46_">
						<path style="fill:#EE9762;" d="M405.714,354.794c0.125,3.607-5.812,5.911-14.322,8.18c-8.51,2.27-14.504,2.867-16.494,0.038
							c-2.361-3.357,4.971-6.688,13.481-8.957C396.889,351.786,405.566,350.514,405.714,354.794z"/>
					</g>
					<g id="XMLID_45_">
						<path style="fill:#EE9762;" d="M399.252,361.39c0.078,2.229-3.592,3.653-8.852,5.056c-5.259,1.403-8.964,1.772-10.194,0.023
							c-1.459-2.075,3.073-4.133,8.332-5.536C393.798,359.53,399.16,358.744,399.252,361.39z"/>
					</g>
					<g id="XMLID_44_">
						<path style="fill:#EE9762;" d="M398.914,280.781c0.125,3.607-5.813,5.911-14.322,8.18c-8.509,2.269-14.504,2.867-16.494,0.038
							c-2.36-3.357,4.971-6.688,13.481-8.957C390.088,277.773,398.765,276.501,398.914,280.781z"/>
					</g>
					<g id="XMLID_43_">
						<path style="fill:#EE9762;" d="M439.325,311.247c-1.748,6.44-19.224,9.892-43.671,13c-24.447,3.107-41.089,3.513-44.859-1.747
							c-4.473-6.241,17.387-11.368,41.833-14.476C417.075,304.916,441.4,303.604,439.325,311.247z"/>
					</g>
					<g id="XMLID_42_">
						<path style="fill:#B15047;" d="M366.846,304.31c1.067-3.213,4.394-5.526,7.778-5.405
							C373.889,301.896,369.921,304.134,366.846,304.31z"/>
					</g>
					<g id="XMLID_41_">
						<path style="fill:#F0713E;" d="M363.444,300.726c-0.765,1.653-0.181,3.815,1.313,4.858c0.549-0.753,0.688-1.912,0.497-2.824
							C365.063,301.848,364.248,301.195,363.444,300.726z"/>
					</g>
					<g id="XMLID_40_">
						<path style="fill:#F0713E;" d="M421.778,325.993c-1.396-2.194-1.011-5.353,0.871-7.147
							C423.601,321.059,423.103,323.982,421.778,325.993z"/>
					</g>
					<g id="XMLID_39_">
						<path style="fill:#F0713E;" d="M394.742,317.437c-1.39-0.413-2.625-1.328-3.425-2.537c-0.8-1.209-1.16-2.703-0.998-4.144
							C393.216,311.705,394.522,314.397,394.742,317.437z"/>
					</g>
					<g id="XMLID_38_">
						<path style="fill:#F0713E;" d="M368.732,337.99c0.218-0.869,0.749-1.657,1.474-2.183c0.725-0.527,1.638-0.789,2.532-0.728
							C372.23,336.893,370.603,337.773,368.732,337.99z"/>
					</g>
					<g id="XMLID_37_">
						<path style="fill:#F0713E;" d="M372.509,333.344c-1.39-0.413-2.625-1.328-3.425-2.537c-0.801-1.209-1.16-2.703-0.998-4.144
							C370.982,327.612,372.289,330.304,372.509,333.344z"/>
					</g>
					<g id="XMLID_36_">
						<path style="fill:#EE9762;" d="M396.207,316.291c-0.011-4.849,3.064-9.568,7.504-11.516c-0.039,3.198-1.019,6.481-2.71,9.195
							C400.073,315.46,397.961,316.242,396.207,316.291z"/>
					</g>
				</g>
				<g id="XMLID_34_">
					<path style="fill:#B15047;" d="M402.796,332.436c-0.869-0.608-7.262,3.867-8.229,3.182c-0.495-0.35,0.681-4.079,1.666-7.603
						c1.432-1.001,11.791-8.252,11.511-8.42c-0.301-0.181-4.637,2.507-4.986,2.614s-0.096-2.913-0.399-3.083
						c-0.303-0.171-0.367,2.708-0.589,3.548c-0.183,0.692-3.675,2.364-4.898,2.931c0.568-2.319,0.812-4.098,0.04-4.008
						c-2.099,0.246-6.013,22.078-6.981,21.393c-0.967-0.685-2.131-11.368-3.16-11.07c-1.029,0.298,0.616,3.741-0.043,4.173
						c-0.659,0.432-7.568-3.281-7.543-0.8c0.025,2.48,8.15,1.439,8.602,5.288c0.099,0.848-0.184,4.793-0.685,10.428
						c-1.133-1.097-3.469-3.443-3.423-4.1c0.061-0.867,0.93-3.612,0.589-3.548c-0.342,0.064-1.078,3.004-1.373,2.789
						c-0.296-0.214-3.531-4.158-3.874-4.084c-0.297,0.064,6.142,8.906,7.87,11.272c-0.796,8.658-1.993,20.388-3.116,31.089
						c1.746,0.852,3.79,1.222,5.905,1.252c1.26-21.069,4.343-47.364,5.091-48.311C395.776,336.097,403.665,333.043,402.796,332.436z
						"/>
				</g>
			</g>
			<g id="XMLID_51_">
				<g id="XMLID_53_">
					<g id="XMLID_68_">
						<path style="fill:#EE9762;" d="M155.947,296.617c1.894,9.243-10.649,17.008-29.085,25.478
							c-18.436,8.47-31.87,11.862-37.678,5.195c-6.891-7.909,8.38-18.746,26.816-27.216
							C134.436,291.604,153.699,285.647,155.947,296.617z"/>
					</g>
					<g id="XMLID_67_">
						<path style="fill:#EE9762;" d="M180.346,309.379c3.087,10.626-12.828,21.945-36.414,35.096
							c-23.586,13.151-40.954,19.44-48.998,12.528c-9.543-8.202,9.743-23.62,33.328-36.771
							C151.848,307.081,176.682,296.768,180.346,309.379z"/>
					</g>
					<g id="XMLID_66_">
						<path style="fill:#EE9762;" d="M139.279,283.862c2.012,5.482-5.954,12.02-17.891,19.802
							c-11.937,7.782-20.851,11.725-25.337,8.379c-5.322-3.97,4.268-12.789,16.206-20.571
							C124.193,283.69,136.89,277.356,139.279,283.862z"/>
					</g>
					<g id="XMLID_65_">
						<path style="fill:#EE9762;" d="M161.56,338.048c1.541,5.632-6.949,11.473-19.502,18.217
							c-12.553,6.744-21.768,9.919-25.955,6.206c-4.967-4.406,5.335-12.382,17.888-19.126
							C146.543,336.601,159.73,331.364,161.56,338.048z"/>
					</g>
					<g id="XMLID_64_">
						<path style="fill:#EE9762;" d="M155.754,348.65c1.497,3.283-3.104,7.687-10.095,13.043
							c-6.991,5.357-12.299,8.205-15.221,6.354c-3.467-2.196,2.03-8.082,9.02-13.438
							C146.449,349.253,153.977,344.753,155.754,348.65z"/>
					</g>
					<g id="XMLID_63_">
						<path style="fill:#EE9762;" d="M152.312,357.218c0.926,2.029-1.919,4.751-6.239,8.061c-4.321,3.311-7.601,5.071-9.407,3.927
							c-2.142-1.358,1.255-4.995,5.575-8.305C146.561,357.59,151.213,354.809,152.312,357.218z"/>
					</g>
					<g id="XMLID_62_">
						<path style="fill:#EE9762;" d="M121.116,282.89c1.497,3.284-3.104,7.687-10.095,13.043
							c-6.991,5.357-12.299,8.205-15.221,6.354c-3.466-2.196,2.03-8.082,9.02-13.438
							C111.811,283.493,119.338,278.993,121.116,282.89z"/>
					</g>
					<g id="XMLID_61_">
						<path style="fill:#EE9762;" d="M170.116,295.548c0.853,6.618-13.967,16.503-35.358,28.739
							c-21.391,12.236-36.608,18.987-42.105,15.572c-6.522-4.051,11.704-17.162,33.095-29.398
							C147.138,298.225,169.104,287.694,170.116,295.548z"/>
					</g>
					<g id="XMLID_60_">
						<path style="fill:#B15047;" d="M100.509,316.91c-0.246-3.377,1.942-6.788,5.113-7.973
							C106.09,311.982,103.282,315.569,100.509,316.91z"/>
					</g>
					<g id="XMLID_59_">
						<path style="fill:#F0713E;" d="M95.994,314.902c-0.073,1.82,1.295,3.593,3.074,3.984c0.219-0.905-0.097-2.03-0.623-2.798
							C97.919,315.319,96.917,315.027,95.994,314.902z"/>
					</g>
					<g id="XMLID_58_">
						<path style="fill:#F0713E;" d="M159.557,315.892c-2.13-1.492-2.984-4.557-1.933-6.935
							C159.351,310.636,160.01,313.526,159.557,315.892z"/>
					</g>
					<g id="XMLID_57_">
						<path style="fill:#F0713E;" d="M131.306,318.347c-1.442,0.151-2.933-0.221-4.136-1.031c-1.203-0.81-2.107-2.052-2.509-3.446
							C127.7,313.637,129.938,315.623,131.306,318.347z"/>
					</g>
					<g id="XMLID_56_">
						<path style="fill:#F0713E;" d="M115.155,347.297c-0.132-0.886,0.057-1.817,0.525-2.581c0.468-0.764,1.211-1.357,2.06-1.642
							C117.966,344.944,116.8,346.379,115.155,347.297z"/>
					</g>
					<g id="XMLID_55_">
						<path style="fill:#F0713E;" d="M116.864,341.559c-1.442,0.151-2.933-0.221-4.136-1.031c-1.203-0.81-2.107-2.052-2.509-3.446
							C113.258,336.849,115.496,338.834,116.864,341.559z"/>
					</g>
					<g id="XMLID_54_">
						<path style="fill:#EE9762;" d="M132.221,316.727c-1.868-4.474-0.836-10.011,2.519-13.512c1.189,2.969,1.542,6.377,1.02,9.532
							C135.473,314.479,133.822,316.01,132.221,316.727z"/>
					</g>
				</g>
				<g id="XMLID_52_">
					<path style="fill:#B15047;" d="M144.492,329.116c-1.036-0.228-5.227,6.354-6.382,6.092c-0.591-0.134-0.934-4.029-1.374-7.661
						c0.939-1.473,7.73-12.14,7.406-12.188c-0.347-0.052-3.322,4.092-3.604,4.325c-0.281,0.233-1.205-2.654-1.55-2.695
						c-0.345-0.042,0.699,2.642,0.815,3.503c0.096,0.71-2.489,3.591-3.401,4.584c-0.363-2.36-0.82-4.097-1.498-3.717
						c-1.845,1.032,2.904,22.697,1.748,22.435c-1.156-0.262-6.324-9.684-7.16-9.014c-0.837,0.67,2.002,3.22,1.559,3.871
						c-0.443,0.651-8.247-0.131-7.274,2.151c0.973,2.281,8.08-1.794,9.971,1.589c0.417,0.745,1.667,4.497,3.362,9.895
						c-1.467-0.579-4.523-1.851-4.732-2.476c-0.276-0.824-0.524-3.693-0.815-3.503c-0.291,0.19,0.155,3.187-0.2,3.102
						c-0.355-0.085-4.854-2.488-5.143-2.288c-0.25,0.173,9.085,5.874,11.588,7.396c2.582,8.303,5.97,19.596,9.033,29.911
						c1.939,0.119,3.969-0.323,5.934-1.106c-6.908-19.944-14.135-45.414-13.806-46.576
						C139.41,335.187,145.528,329.344,144.492,329.116z"/>
				</g>
			</g>
			<g id="XMLID_5358_">
				<g id="XMLID_5365_">
					<g id="XMLID_5380_">
						<path style="fill:#FFB56A;" d="M280.92,233.039c-0.358,15.261,21.846,24.018,53.637,32.204
							c31.79,8.185,54.155,9.722,61.487-2.562c8.698-14.575-18.733-27.439-50.523-35.624
							C313.729,218.871,281.345,214.926,280.92,233.039z"/>
					</g>
					<g id="XMLID_5379_">
						<path style="fill:#FFB56A;" d="M245.742,260.376c-1.86,17.808,26.736,31.254,68.072,45.411
							c41.336,14.157,70.8,19.177,81.619,5.857c12.836-15.803-22.305-34.807-63.641-48.965
							C290.456,248.523,247.949,239.242,245.742,260.376z"/>
					</g>
					<g id="XMLID_5378_">
						<path style="fill:#FFB56A;" d="M303.793,207.937c-1.628,9.307,12.936,17.426,34.181,26.385
							c21.245,8.958,36.572,12.674,42.753,6.056c7.333-7.852-10.474-19.136-31.719-28.094
							C327.763,203.325,305.724,196.891,303.793,207.937z"/>
					</g>
					<g id="XMLID_5377_">
						<path style="fill:#FFB56A;" d="M283.898,300.622c-0.834,9.411,14.364,16.269,36.29,23.398
							c21.926,7.129,37.513,9.534,43.112,2.417c6.642-8.444-12.055-18.181-33.982-25.309
							C307.392,293.999,284.888,289.453,283.898,300.622z"/>
					</g>
					<g id="XMLID_5376_">
						<path style="fill:#FFB56A;" d="M296.19,315.833c-1.44,5.659,7.153,11.347,19.825,17.865
							c12.671,6.519,21.942,9.528,26.062,5.74c4.888-4.494-5.556-12.285-18.227-18.803S297.9,309.117,296.19,315.833z"/>
					</g>
					<g id="XMLID_5375_">
						<path style="fill:#FFB56A;" d="M304.135,328.485c-0.89,3.497,4.421,7.013,12.253,11.042
							c7.831,4.029,13.561,5.889,16.108,3.548c3.021-2.778-3.434-7.592-11.265-11.621
							C313.399,327.425,305.191,324.335,304.135,328.485z"/>
					</g>
					<g id="XMLID_5374_">
						<path style="fill:#FFB56A;" d="M332.433,201.167c-1.44,5.659,7.153,11.347,19.825,17.865
							c12.671,6.519,21.942,9.528,26.062,5.74c4.888-4.494-5.556-12.285-18.227-18.803
							C347.421,199.451,334.142,194.451,332.433,201.167z"/>
					</g>
					<g id="XMLID_5373_">
						<path style="fill:#FFB56A;" d="M258.053,235.413c0.546,10.783,26.985,22.26,64.563,35.592
							c37.578,13.332,63.749,19.705,71.52,12.687c9.22-8.326-23.571-23.961-61.15-37.293
							C295.409,233.067,257.406,222.615,258.053,235.413z"/>
					</g>
					<g id="XMLID_5372_">
						<path style="fill:#B15047;" d="M375.026,249.409c-0.58-5.447-5.044-10.249-10.434-11.224
							C364.722,243.167,370.225,248.071,375.026,249.409z"/>
					</g>
					<g id="XMLID_5371_">
						<path style="fill:#F0713E;" d="M381.639,244.914c0.64,2.877-1.028,6.093-3.749,7.227c-0.609-1.379-0.429-3.259,0.187-4.635
							C378.693,246.13,380.205,245.378,381.639,244.914z"/>
					</g>
					<g id="XMLID_5370_">
						<path style="fill:#F0713E;" d="M280.715,264.768c2.962-2.987,3.441-8.114,1.084-11.598
							C279.533,256.341,279.314,261.132,280.715,264.768z"/>
					</g>
					<g id="XMLID_5369_">
						<path style="fill:#F0713E;" d="M326.404,260.553c2.34-0.174,4.607-1.195,6.289-2.831c1.682-1.636,2.765-3.874,3.004-6.208
							C330.79,252.017,327.798,255.822,326.404,260.553z"/>
					</g>
					<g id="XMLID_5368_">
						<path style="fill:#F0713E;" d="M360.444,302.004c-0.045-1.449-0.614-2.877-1.579-3.959c-0.965-1.083-2.318-1.812-3.752-2.022
							C355.292,299.066,357.561,301.016,360.444,302.004z"/>
					</g>
					<g id="XMLID_5367_">
						<path style="fill:#F0713E;" d="M356.074,293.358c2.34-0.174,4.607-1.195,6.289-2.831c1.682-1.636,2.765-3.874,3.004-6.208
							C360.461,284.822,357.468,288.628,356.074,293.358z"/>
					</g>
					<g id="XMLID_5366_">
						<path style="fill:#EE9762;" d="M324.482,258.237c1.688-7.661-1.548-16.181-7.897-20.79c-1.04,5.069-0.622,10.596,1.117,15.47
							C318.656,255.592,321.725,257.556,324.482,258.237z"/>
					</g>
				</g>
				<g id="XMLID_5363_">
					<path style="fill:#B15047;" d="M308.505,281.491c1.584-0.661,10.149,8.614,11.914,7.865c0.903-0.384,0.328-6.683-0.015-12.593
						c-1.919-2.076-15.798-17.107-15.297-17.276c0.538-0.183,6.467,5.559,6.981,5.85c0.514,0.29,1.155-4.571,1.692-4.737
						c0.537-0.166-0.353,4.407-0.291,5.812c0.051,1.158,4.995,5.003,6.733,6.32c-0.1-3.862,0.127-6.758,1.316-6.35
						c3.234,1.112,1.903,36.975,3.668,36.225c1.765-0.75,7.284-17.237,8.809-16.412c1.525,0.826-2.263,5.702-1.37,6.612
						c0.893,0.91,13.094-2.58,12.201,1.332c-0.893,3.913-13.381-0.533-15.42,5.397c-0.449,1.306-1.36,7.64-2.508,16.722
						c2.169-1.344,6.67-4.248,6.823-5.303c0.202-1.391-0.227-6.03,0.291-5.812s0.669,5.12,1.21,4.882
						c0.541-0.237,7.014-5.358,7.531-5.123c0.448,0.204-12.777,11.965-16.324,15.109c-1.724,13.962-3.87,32.918-5.781,50.223
						c-3.053,0.746-6.412,0.627-9.766-0.055c5.264-33.743,9.447-76.375,8.59-78.13C318.343,289.697,306.922,282.152,308.505,281.491
						z"/>
				</g>
			</g>
			<g id="XMLID_279_">
				<g id="XMLID_365_">
					<g id="XMLID_2352_">
						<path style="fill:#FFB56A;" d="M119.949,248.64c3.888,14.762,27.65,17.019,60.463,16.068
							c32.813-0.951,54.728-5.676,58.365-19.512c4.316-16.415-25.607-21.168-58.42-20.217
							C147.543,225.93,115.335,231.12,119.949,248.64z"/>
					</g>
					<g id="XMLID_2348_">
						<path style="fill:#FFB56A;" d="M93.731,284.66c3.151,17.625,34.354,22.614,77.995,24.754
							c43.641,2.14,73.341-1.207,80.043-17.005c7.951-18.743-31.082-27.257-74.723-29.397
							C133.405,260.872,89.991,263.742,93.731,284.66z"/>
					</g>
					<g id="XMLID_2346_">
						<path style="fill:#FFB56A;" d="M134.964,218.18c1.017,9.393,17.261,13.156,40.156,15.872
							c22.896,2.716,38.652,2.035,42.755-6.037c4.868-9.577-15.37-15.481-38.265-18.197
							C156.715,207.102,133.757,207.032,134.964,218.18z"/>
					</g>
					<g id="XMLID_2342_">
						<path style="fill:#FFB56A;" d="M141.551,312.748c1.808,9.273,18.312,11.648,41.355,12.417
							c23.043,0.769,38.686-1.242,42.091-9.632c4.04-9.954-16.624-14.125-39.667-14.894
							C162.287,299.87,139.405,301.742,141.551,312.748z"/>
					</g>
					<g id="XMLID_2340_">
						<path style="fill:#FFB56A;" d="M157.579,323.953c0.185,5.836,10.019,8.918,24.001,11.667
							c13.982,2.749,23.724,3.07,26.632-1.712c3.45-5.673-8.744-10.262-22.726-13.011
							C171.504,318.148,157.359,317.026,157.579,323.953z"/>
					</g>
					<g id="XMLID_2338_">
						<path style="fill:#FFB56A;" d="M168.721,333.906c0.115,3.607,6.192,5.512,14.834,7.211c8.641,1.699,14.662,1.897,16.46-1.058
							c2.132-3.506-5.404-6.342-14.046-8.042C177.327,330.319,168.585,329.625,168.721,333.906z"/>
					</g>
					<g id="XMLID_2332_">
						<path style="fill:#FFB56A;" d="M160.604,203.734c0.185,5.836,10.019,8.918,24.001,11.667
							c13.982,2.749,23.724,3.07,26.632-1.712c3.45-5.673-8.744-10.262-22.726-13.011
							C174.529,197.929,160.384,196.807,160.604,203.734z"/>
					</g>
					<g id="XMLID_2330_">
						<path style="fill:#FFB56A;" d="M98.637,257.262c3.514,10.209,32.099,13.904,71.901,16.293
							c39.802,2.389,66.713,1.255,72.234-7.643c6.55-10.556-29.291-16.485-69.093-18.874
							C133.877,244.65,94.466,245.145,98.637,257.262z"/>
					</g>
					<g id="XMLID_381_">
						<path style="fill:#F0713E;" d="M214.904,238.273c-2.068-5.073-7.688-8.449-13.138-7.891
							C203.273,235.133,209.921,238.319,214.904,238.273z"/>
					</g>
					<g id="XMLID_379_">
						<path style="fill:#F0713E;" d="M220.011,232.121c1.413,2.586,0.702,6.14-1.598,7.983c-0.967-1.156-1.316-3.013-1.105-4.505
							C217.518,234.107,218.762,232.964,220.011,232.121z"/>
					</g>
					<g id="XMLID_377_">
						<path style="fill:#EE9762;" d="M128.551,279.182c2.018-3.692,1.056-8.75-2.175-11.444
							C125.077,271.413,126.196,276.077,128.551,279.182z"/>
					</g>
					<g id="XMLID_375_">
						<path style="fill:#F0713E;" d="M168.792,313.385c-1.191-2.021-3.109-3.604-5.32-4.389c-2.211-0.785-4.697-0.767-6.896,0.051
							C159.196,313.225,163.932,314.226,168.792,313.385z"/>
					</g>
					<g id="XMLID_373_">
						<path style="fill:#F0713E;" d="M215.479,292.849c-0.445-1.38-1.387-2.594-2.615-3.366c-1.227-0.773-2.729-1.098-4.166-0.902
							C209.713,291.455,212.434,292.699,215.479,292.849z"/>
					</g>
					<g id="XMLID_370_">
						<path style="fill:#F0713E;" d="M208.882,285.755c2.199-0.816,4.095-2.426,5.257-4.464c1.162-2.038,1.582-4.489,1.165-6.798
							C210.73,276.337,208.91,280.823,208.882,285.755z"/>
					</g>
					<g id="XMLID_366_">
						<path style="fill:#B15047;" d="M167.565,316.133c-7.618,1.875-13.828,8.544-15.154,16.277
							c5.007-1.309,9.779-4.129,13.381-7.844C167.769,322.527,168.172,318.906,167.565,316.133z"/>
					</g>
				</g>
				<g id="XMLID_284_">
					<path style="fill:#B15047;" d="M159.888,287.543c1.338-1.074,12.14,5.462,13.627,4.253c0.761-0.619-1.538-6.512-3.507-12.095
						c-2.42-1.462-19.922-12.055-19.488-12.357c0.466-0.325,7.755,3.548,8.33,3.685c0.575,0.136-0.158-4.712,0.312-5.021
						c0.47-0.308,0.883,4.332,1.332,5.665c0.37,1.098,6.187,3.422,8.222,4.205c-1.167-3.683-1.752-6.529-0.496-6.465
						c3.416,0.172,12.081,34.997,13.569,33.788c1.488-1.21,2.219-18.581,3.912-18.211c1.694,0.371-0.593,6.106,0.518,6.733
						c1.11,0.627,11.865-6.11,12.092-2.103c0.227,4.007-13.003,3.199-13.318,9.461c-0.069,1.38,0.812,7.718,2.227,16.762
						c1.711-1.893,5.23-5.931,5.085-6.987c-0.192-1.393-1.89-5.731-1.332-5.664c0.558,0.066,2.063,4.733,2.517,4.355
						c0.454-0.378,5.253-7.093,5.815-7.01c0.487,0.072-8.958,15.039-11.495,19.043c2.215,13.893,7.159,47.195,10.121,64.351
						c-2.726,1.564-5.987,2.381-9.399,2.655c-4.299-33.879-13.851-90.494-15.161-91.943
						C171.615,292.699,158.55,288.617,159.888,287.543z"/>
				</g>
			</g>
			<g id="XMLID_5330_">
				<g id="XMLID_5202_">
					<g id="XMLID_5340_">
						<path style="fill:#F0713E;" d="M322.105,153.105c-0.657,24.691-37.248,37.044-89.283,47.697
							c-52.035,10.653-88.301,11.325-99.154-9.12c-12.876-24.257,32.494-42.823,84.529-53.476
							C270.232,127.554,322.884,123.801,322.105,153.105z"/>
					</g>
					<g id="XMLID_5339_">
						<path style="fill:#F0713E;" d="M376.737,200.13c1.563,28.927-45.736,48.34-113.68,67.87
							c-67.944,19.531-115.963,25.256-132.368,2.856c-19.463-26.577,38.863-54.442,106.807-73.972
							C305.44,177.354,374.882,165.799,376.737,200.13z"/>
					</g>
					<g id="XMLID_5338_">
						<path style="fill:#F0713E;" d="M287.175,110.688c1.876,15.171-22.316,27.113-57.371,39.869
							c-35.056,12.756-60.125,17.519-69.577,6.324c-11.214-13.282,18.475-30.075,53.531-42.83
							C248.813,101.295,284.948,92.683,287.175,110.688z"/>
					</g>
					<g id="XMLID_5344_">
						<path style="fill:#F0713E;" d="M311.819,262.077c0.586,15.275-24.529,25.128-60.539,34.872
							c-36.009,9.744-61.392,12.369-69.863,0.415c-10.05-14.183,20.953-28.404,56.963-38.148
							C274.39,249.472,311.123,243.948,311.819,262.077z"/>
					</g>
					<g id="XMLID_5345_">
						<path style="fill:#F0713E;" d="M290.723,285.661c1.869,9.261-12.478,17.757-33.483,27.265
							c-21.004,9.508-36.23,13.621-42.581,7.166c-7.535-7.658,9.973-19.402,30.977-28.909
							C266.641,281.675,288.505,274.67,290.723,285.661z"/>
					</g>
					<g id="XMLID_5360_">
						<path style="fill:#F0713E;" d="M276.86,305.464c1.155,5.724-7.712,10.975-20.694,16.851
							c-12.982,5.876-22.392,8.418-26.317,4.429c-4.657-4.733,6.164-11.991,19.145-17.867
							C261.976,303,275.489,298.671,276.86,305.464z"/>
					</g>
					<g id="XMLID_5359_">
						<path style="fill:#F0713E;" d="M241.441,97.43c1.869,9.261-12.479,17.757-33.483,27.264s-36.23,13.621-42.581,7.166
							c-7.535-7.658,9.973-19.402,30.977-28.909C217.359,93.443,239.223,86.438,241.441,97.43z"/>
					</g>
					<g id="XMLID_5337_">
						<path style="fill:#F0713E;" d="M358.864,158.793c-1.755,17.381-45.409,33.786-107.215,52.288
							c-61.805,18.501-104.612,26.68-116.602,14.711c-14.225-14.202,40.031-36.811,101.836-55.312
							C298.689,151.977,360.947,138.164,358.864,158.793z"/>
					</g>
					<g id="XMLID_5336_">
						<path style="fill:#EA5A35;" d="M168.706,171.938c1.378-8.756,8.98-16.154,17.77-17.293
							C185.862,162.685,176.572,170.165,168.706,171.938z"/>
					</g>
					<g id="XMLID_5335_">
						<path style="fill:#FEB147;" d="M158.384,164.139c-1.267,4.597,1.168,9.93,5.472,11.982c1.095-2.179,0.957-5.233,0.073-7.505
							C163.045,166.343,160.663,165.005,158.384,164.139z"/>
					</g>
					<g id="XMLID_5334_">
						<path style="fill:#FEB147;" d="M319.865,204.396c-4.545-5.067-4.904-13.391-0.812-18.83
							C322.459,190.872,322.425,198.633,319.865,204.396z"/>
					</g>
					<g id="XMLID_5333_">
						<path style="fill:#B15047;" d="M246.376,193.885c-3.767-0.471-7.348-2.304-9.934-5.084c-2.585-2.78-4.155-6.484-4.352-10.275
							C239.978,179.735,244.505,186.127,246.376,193.885z"/>
					</g>
					<g id="XMLID_5362_">
						<path style="fill:#EA5A35;" d="M168.606,262.267c0.19-2.338,1.225-4.599,2.871-6.27c1.647-1.671,3.892-2.74,6.227-2.964
							C177.17,257.936,173.345,260.904,168.606,262.267z"/>
					</g>
					<g id="XMLID_5361_">
						<path style="fill:#B15047;" d="M183.905,247.783c-3.767-0.471-7.348-2.304-9.934-5.084c-2.585-2.779-4.154-6.484-4.352-10.275
							C177.507,233.634,182.035,240.025,183.905,247.783z"/>
					</g>
					<g id="XMLID_2356_">
						<path style="fill:#FEB147;" d="M224.594,107.171c2.109,1.029,3.837,2.816,4.794,4.959c0.956,2.142,1.134,4.623,0.492,6.879
							C225.507,116.725,224.137,112.082,224.594,107.171z"/>
					</g>
					<g id="XMLID_280_">
						<path style="fill:#EA5A35;" d="M234.447,119.361c1.811-3.336,4.823-6.004,8.353-7.399c3.53-1.395,7.552-1.507,11.155-0.31
							C249.955,118.558,242.354,120.446,234.447,119.361z"/>
					</g>
					<g id="XMLID_2360_">
						<path style="fill:#EA5A35;" d="M317.978,137.254c1.061,2.093,1.36,4.561,0.83,6.847c-0.53,2.285-1.886,4.37-3.76,5.782
							C312.94,145.423,314.65,140.894,317.978,137.254z"/>
					</g>
					<g id="XMLID_2316_">
						<path style="fill:#FEB147;" d="M318.478,152.921c3.458-1.567,7.469-1.877,11.126-0.858c3.657,1.018,6.931,3.356,9.081,6.485
							C331.328,161.639,324.127,158.557,318.478,152.921z"/>
					</g>
					<g id="XMLID_5332_">
						<path style="fill:#FEB147;" d="M249.669,190.298c-2.107-12.517,3.812-26.022,14.444-32.956
							c1.271,8.276,0.147,17.174-3.058,24.909C259.297,186.495,254.178,189.419,249.669,190.298z"/>
					</g>
				</g>
				<g id="XMLID_5364_">
					<path style="fill:#B15047;" d="M273.603,229.169c-2.506-1.197-17.098,13.099-19.889,11.745
						c-1.428-0.693,0.011-10.826,1.045-20.35c3.27-3.199,26.915-26.364,26.119-26.679c-0.855-0.339-10.9,8.46-11.755,8.888
						c-0.855,0.428-1.496-7.481-2.351-7.792c-0.855-0.311,0.214,7.151,0,9.415c-0.176,1.866-8.477,7.68-11.393,9.668
						c0.474-6.233,0.342-10.932-1.613-10.367c-5.317,1.536-6.069,59.596-8.86,58.242c-2.791-1.354-10.376-28.445-12.906-27.234
						c-2.531,1.211,3.194,9.398,1.678,10.796c-1.516,1.398-20.951-5.23-19.824,1.165c1.127,6.395,21.666,0.223,24.481,9.97
						c0.62,2.148,1.58,12.457,2.699,27.226c-3.397-2.347-10.434-7.405-10.596-9.121c-0.214-2.265,0.855-9.726,0-9.415
						c-0.855,0.311-1.496,8.219-2.351,7.792c-0.855-0.427-10.9-9.226-11.755-8.888c-0.741,0.293,19.678,20.369,25.156,25.737
						c1.656,22.703,3.589,53.509,5.275,81.628c4.873,1.454,10.311,1.533,15.786,0.702c-5.774-54.953-9.081-124.185-7.554-126.951
						C257.042,241.632,276.109,230.365,273.603,229.169z"/>
				</g>
				<g>
					<path style="fill:#B15047;" d="M158.397,229.079c-6.215,0.001-12.149-4.685-13.286-10.893c-1.08-5.895,2.372-12.04,7.699-14.53
						c-6.87-2.78-12.035-6.623-15.377-11.446c-4.317-6.229-0.898-16.08,3.34-22.624c0.3-0.463,0.918-0.596,1.383-0.295
						c0.463,0.3,0.596,0.919,0.295,1.383c-3.903,6.024-7.129,14.981-3.376,20.397c3.517,5.075,9.259,9.01,17.068,11.696
						c0.428,0.148,0.703,0.563,0.672,1.014c-0.031,0.451-0.36,0.825-0.804,0.913c-5.729,1.13-9.987,7.389-8.936,13.132
						c1.052,5.743,7.258,10.083,13.01,9.112c0.546-0.096,1.061,0.275,1.153,0.819c0.092,0.545-0.274,1.061-0.819,1.153
						C159.748,229.024,159.07,229.079,158.397,229.079z"/>
				</g>
				<g>
					<path style="fill:#B15047;" d="M212.21,160.63c-0.5,0-0.932-0.374-0.992-0.884c-0.064-0.548,0.329-1.045,0.877-1.109
						c8.02-0.939,15.15-7.64,16.584-15.586c0.096-0.536,0.602-0.898,1.143-0.81c9.833,1.579,20.039-0.231,28.731-5.1
						c8.692-4.869,15.566-12.623,19.357-21.835c0.211-0.511,0.794-0.754,1.306-0.544c0.511,0.21,0.754,0.794,0.544,1.305
						c-3.962,9.627-11.146,17.731-20.23,22.819c-8.805,4.932-19.093,6.862-29.08,5.471c-1.96,8.357-9.584,15.267-18.122,16.266
						C212.288,160.628,212.249,160.63,212.21,160.63z"/>
				</g>
				<g>
					<path style="fill:#B15047;" d="M323.018,178.162c-3.694,0-7.389-0.656-10.815-1.965c-1.633-0.623-3.664-1.572-4.893-3.398
						c-0.829-1.232-1.156-2.986-0.677-4.472c-2.96-0.34-5.706-2.443-6.615-5.32c-1.114-3.525,0.695-7.685,4.033-9.272
						c0.501-0.237,1.096-0.025,1.333,0.473c0.237,0.499,0.025,1.095-0.474,1.333c-2.429,1.156-3.796,4.299-2.986,6.864
						c0.811,2.564,3.733,4.351,6.389,3.901c0.45-0.077,0.887,0.158,1.075,0.568c0.189,0.411,0.079,0.897-0.27,1.186
						c-0.991,0.824-0.878,2.539-0.148,3.622c0.914,1.359,2.589,2.128,3.945,2.646c6.217,2.374,13.372,2.447,19.636,0.204
						c0.518-0.187,1.092,0.084,1.278,0.604c0.186,0.52-0.084,1.093-0.604,1.279C329.973,177.58,326.496,178.161,323.018,178.162z"/>
				</g>
				<g>
					<path style="fill:#B15047;" d="M192.626,139.401c-3.884,0-7.734-1.753-10.223-4.764c-0.352-0.426-0.292-1.056,0.134-1.408
						c0.426-0.351,1.056-0.292,1.408,0.134c2.494,3.017,6.598,4.545,10.458,3.89c3.859-0.654,7.233-3.448,8.594-7.118
						c0.118-0.318,0.389-0.555,0.721-0.628c0.33-0.075,0.678,0.026,0.919,0.264c1.59,1.57,4.41,2.367,6.553,1.851
						c0.538-0.126,1.078,0.203,1.206,0.74c0.128,0.537-0.203,1.077-0.74,1.206c-2.404,0.575-5.239-0.026-7.333-1.474
						c-1.855,3.698-5.488,6.438-9.585,7.131C194.038,139.343,193.331,139.401,192.626,139.401z"/>
				</g>
				<g>
					<path style="fill:#B15047;" d="M357.181,222.189c-0.371,0-0.727-0.207-0.9-0.563c-0.241-0.497-0.035-1.095,0.462-1.336
						c2.2-1.071,3.517-3.692,3.062-6.097s-2.637-4.365-5.076-4.559c-0.316-0.025-0.601-0.198-0.769-0.466
						c-0.168-0.269-0.199-0.6-0.084-0.895c1.163-2.973,0.932-6.415-0.618-9.207c-1.55-2.791-4.349-4.808-7.487-5.394
						c-0.543-0.102-0.9-0.623-0.8-1.166c0.1-0.543,0.616-0.902,1.167-0.799c3.718,0.694,7.033,3.083,8.868,6.389
						c1.64,2.953,2.033,6.519,1.119,9.757c2.783,0.735,5.107,3.122,5.645,5.97c0.616,3.26-1.169,6.814-4.152,8.266
						C357.477,222.156,357.328,222.189,357.181,222.189z"/>
				</g>
				<g>
					<path style="fill:#B15047;" d="M168.504,280.143c-1.557,0-3.085-0.492-4.309-1.422c-1.334-1.014-2.171-2.416-2.41-4.01
						c-3.934-0.673-7.966-1.427-11.683-3.192c-4.506-2.14-7.787-5.606-9-9.508c-1.465-4.715,0.453-10.066,4.368-12.182
						c0.485-0.263,1.092-0.082,1.355,0.404c0.262,0.486,0.081,1.093-0.404,1.355c-3.103,1.677-4.601,5.994-3.409,9.829
						c1.047,3.371,3.944,6.394,7.948,8.295c3.707,1.762,7.883,2.471,11.922,3.156c0.474,0.081,0.823,0.487,0.832,0.968
						c0.024,1.314,0.625,2.483,1.689,3.292c1.226,0.93,2.886,1.245,4.441,0.845c0.533-0.145,1.08,0.184,1.218,0.718
						c0.138,0.534-0.183,1.08-0.718,1.218C169.739,280.066,169.118,280.143,168.504,280.143z"/>
				</g>
			</g>
			<g id="XMLID_6749_">
				<g>
					<path style="fill:#FFB66D;" d="M415.078,385.414c-14.605-3.339-78.583-16.886-155.301-16.886
						c-76.719,0-140.697,13.547-155.301,16.886c32.681,11.147,85.202,25.039,151.288,25.583
						C325.987,411.575,381.589,396.835,415.078,385.414z"/>
				</g>
			</g>
		</g>
	</g>
	<g>
		<g>
			<g>
				<path style="fill:#8F1843;" d="M276.179,266.156c11.745,2.869,23.143,7.151,33.873,12.723c4.046,2.101,8.341,4.804,9.599,9.186
					c1.069,3.723-0.359,7.655-1.766,11.263c-0.88,2.257-1.761,4.514-2.641,6.771c-0.44,1.129-0.88,2.257-1.32,3.385
					c-0.315,0.807-1.056,1.542-0.751,2.44c0.157,0.461,0.436,0.89,0.476,1.375c0.045,0.553-0.227,1.078-0.491,1.566
					c-0.356,0.658-0.712,1.315-1.068,1.973c-0.134,0.247-0.29,0.514-0.555,0.606c-0.27,0.094-0.562-0.025-0.823-0.141
					c-2.169-0.967-4.339-1.934-6.508-2.9c-0.318-0.142-0.65-0.294-0.862-0.571c-0.354-0.462-0.269-1.113-0.166-1.686
					c0.141-0.789,0.288-1.594,0.675-2.295c0.387-0.701,1.066-1.293,1.864-1.36c0.468-2.579,0.9-4.889,0.441-7.528
					c-0.437-2.513-1.455-4.93-3.001-6.963c-3.026-3.978-8.004-6.394-13.002-6.312"/>
			</g>
		</g>
		<g>
			<g>
				<path style="fill:#453248;" d="M181.449,393.233c-0.024,0-0.048-0.001-0.072-0.002c-0.828-0.039-1.467-0.741-1.428-1.569
					l1.456-30.733c0.34-7.171,0.624-13.622,0.866-19.723c0.026-0.659-0.001-1.512-0.032-2.499
					c-0.149-4.705-0.375-11.815,5.031-13.156c2.692-0.667,5.114,0.21,6.646,2.405c1.973,2.828,2.026,7.245,0.121,10.057
					c-0.464,0.688-1.397,0.863-2.083,0.401c-0.686-0.465-0.865-1.397-0.4-2.083c1.214-1.793,1.169-4.842-0.098-6.658
					c-0.816-1.171-1.98-1.576-3.463-1.21c-3.053,0.757-2.874,6.409-2.755,10.149c0.033,1.044,0.062,1.946,0.031,2.713
					c-0.243,6.108-0.527,12.567-0.867,19.746l-1.456,30.733C182.909,392.607,182.245,393.233,181.449,393.233z"/>
			</g>
			<g>
				<g>
					<path style="fill:#FFFFFD;" d="M190.663,326.198l-6.327-2.994c4.764-10.069,7.943-18.634,10.004-26.955
						c2.412-9.737,3.397-19.755,2.927-29.773l6.992-0.328c0.501,10.696-0.55,21.39-3.125,31.785
						C198.958,306.715,195.631,315.697,190.663,326.198z"/>
				</g>
				<g>
					<path style="fill:#443039;" d="M194.674,319.758l-8.267-3.559c3.109-7.225,5.386-13.829,6.962-20.191
						c2.389-9.643,3.364-19.564,2.899-29.486l8.99-0.421c0.506,10.792-0.555,21.582-3.153,32.072
						C200.41,305.016,197.979,312.077,194.674,319.758z"/>
				</g>
				<g>
					<path style="fill:#FBA278;" d="M193.032,329.424c-0.11,0.469-0.269,0.937-0.562,1.32c-0.293,0.382-0.739,0.671-1.22,0.681
						c-0.729,0.015-1.196-0.256-1.474-0.701c-2.633,1.489-5.979,0.581-7.49-2.045c-1.519-2.639-0.611-6.009,2.028-7.527
						c2.639-1.518,6.009-0.61,7.527,2.029c0.108,0.187,0.176,0.385,0.259,0.578c0.111,0.093,0.201,0.214,0.269,0.346
						C193.21,325.723,193.449,327.647,193.032,329.424z"/>
				</g>
			</g>
			<g>
				<g>
					<g>
						<path style="fill:#8F1843;" d="M268.927,268.11c-5.298,3.204-9.106,8.771-10.171,14.87c-0.69,3.95-0.312,8.169-2.012,11.801
							c-1.337,2.856-3.857,5.035-6.669,6.462c-2.812,1.427-5.919,2.165-9.02,2.739c-1.795,0.332-3.841,0.775-4.727,2.371
							c-0.959,1.727,0.063,4.027,1.723,5.097c1.661,1.07,3.743,1.205,5.719,1.194c5.105-0.028,10.258-0.832,14.929-2.894
							c4.67-2.061,8.839-5.441,11.357-9.881"/>
					</g>
				</g>
				<g>
					<path style="fill:#FFFFFD;" d="M246.277,328.121l-6.996-0.228c0.299-9.183-0.711-23.14-2.401-33.186
						c-1.664-9.893-4.748-19.474-9.168-28.479l6.284-3.084c4.718,9.613,8.011,19.842,9.787,30.402
						C245.54,303.991,246.589,318.532,246.277,328.121z"/>
				</g>
				<g>
					<path style="fill:#443039;" d="M238.393,320.644c-0.021-6.961-1.288-18.57-2.499-25.772c-1.648-9.796-4.703-19.285-9.08-28.204
						l8.079-3.965c4.761,9.701,8.083,20.022,9.876,30.677c1.254,7.455,2.6,19.535,2.624,27.237L238.393,320.644z"/>
				</g>
				<g>
					<path style="fill:#FBA278;" d="M237.117,326.775c-0.295,0.381-0.558,0.8-0.67,1.268c-0.112,0.469-0.055,0.996,0.241,1.376
						c0.448,0.575,0.953,0.767,1.474,0.703c0.503,2.983,3.316,5.008,6.308,4.527c3.006-0.484,5.05-3.313,4.566-6.319
						c-0.484-3.006-3.313-5.05-6.319-4.566c-0.213,0.034-0.41,0.106-0.613,0.163c-0.142-0.027-0.293-0.021-0.438,0.009
						C239.878,324.305,238.234,325.331,237.117,326.775z"/>
				</g>
			</g>
			<g id="XMLID_418_">
				<g id="XMLID_419_">
					<path style="fill:#015450;" d="M228.096,377.463c-2.448-1.703-5.08-3.251-7.866-4.89
						c-14.344-8.438-32.195-18.939-16.091-52.092l9.831,4.775c-11.694,24.076-2.347,29.574,11.802,37.897
						c2.84,1.671,5.776,3.398,8.565,5.338L228.096,377.463z"/>
				</g>
			</g>
			<g id="XMLID_416_">
				<g id="XMLID_417_">
					<path style="fill:#017572;" d="M209.966,390.783c-0.522-32.652,2.049-40.003,14.282-69.357l10.089,4.204
						c-11.736,28.163-13.931,34.432-13.443,64.978L209.966,390.783z"/>
				</g>
			</g>
			<g id="XMLID_384_">
				<g id="XMLID_407_">
					<g id="XMLID_408_">
						<path style="fill:#017572;" d="M232.599,314.151c-1.587-1.573-3.02-3.192-4.376-4.861l-25.054,5.065
							c-2.037,6.74,1.316,15.877,6.94,18.912c3.462,1.868,5.603,1.771,9.16,1.228c4.77-0.729,9.479-1.897,13.281-4.879
							c2.674-2.098,3.581-7.176,3.821-11.809C235.027,316.618,233.779,315.321,232.599,314.151z"/>
					</g>
				</g>
				<g id="XMLID_405_">
					<g id="XMLID_406_">
						<path style="fill:#443039;" d="M237.446,316.464c-1.947-11.444-1.154-42.512-3.101-53.956
							c-5.336-4.553-13.124-6.856-20.108-6.204c-6.984,0.651-13.649,4.229-18.051,9.69c1.121,12.76,4.499,42.758,5.62,55.518
							C205.209,326.302,237.387,320.076,237.446,316.464z"/>
					</g>
				</g>
				<g id="XMLID_403_">
					<g id="XMLID_404_">
						<path style="fill:#FFFFFD;" d="M208.1,262.176c0,0,1.693,8.434,6.175,15.941c4.482,7.508,7.769-17.346,7.769-17.346
							L208.1,262.176z"/>
					</g>
				</g>
				<g id="XMLID_401_">
					<g id="XMLID_402_">
						<path style="fill:#FFFFFD;" d="M222.046,260.167c-0.255-1.773-7.435-2.205-7.435-2.205s-6.766,2.442-6.51,4.214
							c0.255,1.772,3.584,2.76,7.435,2.205C219.386,263.826,222.301,261.94,222.046,260.167z"/>
					</g>
				</g>
				<g id="XMLID_399_">
					<g id="XMLID_400_">
						<path style="fill:#FABB8F;" d="M215.09,262.999c-0.024,0.003-0.048,0.006-0.071,0.009c-1.931,0.238-3.72-1.032-4.032-2.952
							l-2.402-14.769c1.83-0.2,3.66-0.4,5.49-0.6c3.113-0.34,2.635,5.015,2.966,7.215l1.058,7.042
							C218.392,260.896,217.049,262.764,215.09,262.999z"/>
					</g>
				</g>
				<g id="XMLID_397_">
					<g id="XMLID_398_">
						<path style="fill:#FBA278;" d="M189.049,224.195c-0.838-1.672-3.042-2.461-4.792-1.803c-1.75,0.657-2.88,2.604-2.699,4.465
							c0.182,1.861,1.589,3.511,3.363,4.102c1.774,0.59,3.823,0.153,5.284-1.014"/>
					</g>
				</g>
				<g id="XMLID_395_">
					<g id="XMLID_396_">
						<path style="fill:#FBA278;" d="M240.901,219.93c0.332-1.84,2.224-3.219,4.089-3.083c1.865,0.137,3.498,1.685,3.849,3.522
							c0.351,1.836-0.533,3.817-2.068,4.884c-1.535,1.067-3.624,1.226-5.355,0.519"/>
					</g>
				</g>
				<g id="XMLID_393_">
					<g id="XMLID_394_">
						<path style="fill:#FBA278;" d="M243.23,224.364c0.086,7.302-1.893,14.911-6.899,20.227c-5.351,5.682-13.438,8.03-21.233,8.419
							c-6.562,0.327-13.545-0.72-18.64-4.868c-8.078-6.578-8.902-18.401-9.079-28.816c-0.099-5.842-2.63-11.984,2.907-17.039
							c4.516-4.122,9.086-8.176,14.99-9.765c5.859-1.577,12.108-2.086,17.997-0.622C238.634,195.717,243.061,210.093,243.23,224.364
							z"/>
					</g>
				</g>
				<g id="XMLID_391_">
					<g id="XMLID_392_">
						<path style="fill:#FABB8F;" d="M236.493,236.202c5.13-11.147,2.958-30.278-10.003-35.229
							c-6.148-2.348-13.101-1.52-19.347,0.554c-5.634,1.87-11.212,4.981-14.143,10.143c-2.482,4.369-2.752,9.718-1.776,14.647
							c1.887,9.532,5.772,18.146,15.35,21.562c7.446,2.656,16.359,1.933,22.795-2.867
							C232.422,242.734,234.9,239.663,236.493,236.202z"/>
					</g>
				</g>
				<g id="XMLID_388_">
					<g id="XMLID_389_">
						<g id="XMLID_390_">
							<path style="fill:#453248;" d="M234.842,222.017c-0.495,0.039-0.961,0.266-1.35,0.574c-0.859,0.681-1.368,1.812-1.216,2.897
								c0.152,1.085,1.003,2.063,2.077,2.278C238.25,228.546,238.31,221.742,234.842,222.017z"/>
						</g>
					</g>
				</g>
				<g id="XMLID_385_">
					<g id="XMLID_386_">
						<g id="XMLID_387_">
							<path style="fill:#453248;" d="M205.856,224.737c-0.495,0.039-0.961,0.266-1.35,0.574c-0.859,0.681-1.368,1.811-1.216,2.897
								c0.152,1.085,1.003,2.063,2.077,2.278C209.264,231.267,209.323,224.462,205.856,224.737z"/>
						</g>
					</g>
				</g>
			</g>
			<g id="XMLID_467_">
				<path style="fill:#FDE7DC;" d="M243.434,221.486c-0.401-3.137-0.552-6.502-0.583-9.646c-0.031-3.152,0.855-6.285,0.612-9.5
					c-0.238-3.141-1.363-6.335-3.697-8.45c-2.334-2.115-6.016-2.882-8.736-1.292c-2.534-3.612-6.812-5.938-11.221-6.102
					c-4.409-0.163-8.848,1.84-11.642,5.255c-1.082-1.846-3.292-2.964-5.42-2.743c-2.128,0.221-4.061,1.769-4.741,3.798
					c-2.88-1.953-6.953-1.63-9.818,0.345c-2.865,1.975-4.572,5.351-5.036,8.8c-0.848,6.298,2.277,12.514,3.047,18.71
					c0.422,3.393,1.102,6.473,0.5,9.813c-0.522,2.902-0.479,6.587,1.557,8.928c0.851,0.979,2.045,1.725,2.502,2.938
					c0.41,1.089,0.128,2.303,0.204,3.465c0.135,2.054,1.512,3.978,3.413,4.768c1.445,0.6,3.13,0.589,4.451,1.426
					c0.873,0.553,1.492,1.42,2.243,2.129c2.163,2.04,4.269,1.661,6.943,1.835c2.302,0.149,4.242,1.223,6.84,0.994
					c4.343-0.383,8.686-0.765,13.029-1.147c1.504-0.132,3.059-0.28,4.379-1.012c1.015-0.563,1.844-1.449,2.923-1.876
					c1.32-0.523,2.843-0.291,4.171-0.793c2.696-1.019,3.427-4.375,4.747-6.937c0.771-1.495,1.878-2.918,1.959-4.597
					c0.084-1.754-0.949-3.199-1.541-4.77c-0.739-1.96-0.401-3.717-0.46-5.781C243.977,227.206,243.866,224.298,243.434,221.486z
					 M239.837,234.655c-2.627,2.371-6.739,2.188-9.196-1.903c-2.457-4.091-19.512-0.571-22.91,1.043
					c-3.398,1.614,2.062,5.943-5.457,7.735c-7.52,1.792-10.113-3.542-12.498-13.099c-0.485-1.943-2.052-11.64-2.742-17.974
					c1.713-13.63,39.191-17.455,50.699-7.365c2.989,2.555,3.915,19.142,3.915,19.142S242.464,232.284,239.837,234.655z"/>
			</g>
			<g id="XMLID_295_">
				<path style="fill:#FABB8F;" d="M213.264,238.508c1.506-1.323,3.486-1.945,5.402-2.532c2.894-0.888,6.378-1.666,8.673,0.309
					c2.197,1.891,2.002,5.59,0.213,7.871c-1.789,2.281-4.699,3.381-7.544,3.935c-1.673,0.326-3.449,0.492-5.045-0.106
					C211.126,246.548,210.274,241.134,213.264,238.508z"/>
			</g>
			<g id="XMLID_289_">
				<path style="fill:#FDE7DC;" d="M200.271,209.498c0.748-0.169,1.538-0.282,2.275-0.07c0.737,0.212,1.406,0.826,1.462,1.591
					c0.072,0.978-0.8,1.736-1.587,2.32c-1.893,1.404-3.786,2.809-5.678,4.213c-0.742,0.55-1.501,1.11-2.38,1.395
					c-1.421,0.46-2.943-0.033-3.469-1.519c-0.504-1.424,0.4-2.394,1.349-3.37C194.423,211.812,197.21,210.188,200.271,209.498z"/>
			</g>
			<g id="XMLID_287_">
				<path style="fill:#FDE7DC;" d="M225.701,205.74c-0.766,0.044-1.556,0.154-2.206,0.561c-0.65,0.407-1.123,1.182-0.966,1.933
					c0.201,0.96,1.248,1.447,2.166,1.791c2.207,0.827,4.414,1.654,6.621,2.482c0.865,0.324,1.749,0.652,2.672,0.683
					c1.493,0.05,2.819-0.844,2.915-2.418c0.091-1.508-1.046-2.191-2.227-2.867C231.961,206.349,228.833,205.559,225.701,205.74z"/>
			</g>
			<g id="XMLID_285_">
				<path style="fill:#FFFFFD;" d="M224.55,260.192l-7.097-3.824c0.138,0.367,0.568,2.058-0.236,3.945
					c-0.67,1.571-1.418,2.345-1.82,2.568c-0.619-0.202-2.206-0.812-3.462-2.428c-1.096-1.411-1.371-2.856-1.455-3.511
					c-1.914,1.621-3.827,3.242-5.741,4.863c1.681,0.609,3.962,1.227,6.707,1.393c1.437,0.087,2.733,0.032,3.866-0.085l-0.046,0.124
					L224.55,260.192z"/>
			</g>
			<g id="XMLID_283_">
				<path style="fill:#443039;" d="M215.568,263.089c-0.192,0.095-2.332-0.202-3.863-0.43c-0.979-0.146-1.815,0.73-1.602,1.697
					c0.102,0.463,0.319,0.898,0.745,1.159c1.266,0.776,4.688-1.133,4.688-1.133s3.136,0.96,4.722,0.494
					c1.585-0.466,0.086-3.303-0.795-3.014C218.58,262.151,215.568,263.089,215.568,263.089z"/>
			</g>
			<g id="XMLID_281_">
				<path style="fill:#443039;" d="M235.01,262.991c0,0-3.942,3.94-2.4,10.559l-6.668,0.953l-0.268-7.145l0.91-6.372l1.426-2.388
					C228.011,258.599,233.051,260.668,235.01,262.991z"/>
			</g>
			<g>
				<path style="fill:#453248;" d="M183.752,223.24c0.27,0.343,0.768,0.401,1.111,0.131c0.638-0.504,1.503-0.509,1.963-0.467
					c0.791,0.072,1.596,0.36,2.375,0.638l6.072,2.171c0.009,1.424,0.309,2.834,0.944,4.091c1.229,2.433,3.369,4.065,6.026,4.596
					c0.693,0.139,1.398,0.194,2.1,0.171c2.158-0.071,4.294-0.887,5.983-2.335c2.394-2.052,3.696-5.103,3.614-8.129
					c1.169-1.147,2.772-1.874,4.404-1.993c1.567-0.109,3.163,0.326,4.454,1.201c-0.049,1.553,0.243,3.103,0.935,4.473
					c1.228,2.433,3.368,4.065,6.026,4.596c0.693,0.139,1.398,0.194,2.1,0.171c2.158-0.071,4.294-0.887,5.983-2.335
					c2.373-2.033,3.673-5.048,3.617-8.047c0.08-0.079,0.15-0.17,0.192-0.282c0.72-1.939,1.586-2.746,3.159-4.211l0.089-0.083
					c0.319-0.298,0.337-0.798,0.04-1.118c-0.298-0.32-0.798-0.337-1.118-0.04l-0.089,0.083c-1.125,1.048-1.984,1.859-2.689,3.006
					c-0.006-0.018-0.009-0.037-0.015-0.056c-1.035-3.292-3.678-5.385-7.25-5.741c-3.48-0.349-7.066,1.254-9.133,4.076
					c-0.824,1.126-1.373,2.426-1.653,3.776c-1.447-0.789-3.129-1.176-4.764-1.048c-1.618,0.118-3.208,0.729-4.516,1.7
					c-0.057-0.251-0.123-0.501-0.2-0.748c-1.035-3.292-3.678-5.385-7.25-5.74c-3.484-0.349-7.066,1.253-9.133,4.076
					c-0.921,1.258-1.488,2.735-1.728,4.254l-5.668-2.026c-0.831-0.297-1.773-0.634-2.764-0.724c-1.197-0.109-2.293,0.175-3.086,0.8
					C183.54,222.4,183.481,222.897,183.752,223.24z M225.921,218.744c1.531-2.092,4.051-3.387,6.631-3.472
					c0.356-0.012,0.713,0,1.069,0.035c2.912,0.29,5.062,1.982,5.898,4.641c1,3.181-0.087,6.827-2.706,9.071
					c-1.873,1.605-4.395,2.283-6.744,1.814c-2.171-0.434-3.92-1.769-4.925-3.759C223.845,224.503,224.157,221.155,225.921,218.744z
					 M198.405,220.76c1.531-2.092,4.051-3.387,6.631-3.472c0.356-0.012,0.713,0,1.069,0.035c2.912,0.29,5.061,1.981,5.898,4.641
					c1,3.181-0.087,6.827-2.706,9.072c-1.873,1.605-4.395,2.284-6.744,1.814c-2.171-0.434-3.92-1.769-4.924-3.759
					C196.328,226.518,196.641,223.17,198.405,220.76z"/>
			</g>
			<g>
				<path style="fill:#453248;" d="M218.521,228.25c-0.166,0-0.332-0.018-0.494-0.055c-0.27-0.061-0.438-0.329-0.376-0.598
					c0.062-0.27,0.33-0.441,0.598-0.376c0.667,0.151,1.443-0.273,1.736-0.946c0.29-0.667,0.139-1.523-0.376-2.131
					c-0.303-0.358-0.689-0.58-1.057-0.608c-0.359-0.025-0.732,0.164-0.854,0.446c-0.09,0.209-0.307,0.332-0.537,0.295
					c-0.225-0.035-0.398-0.219-0.419-0.446l-0.788-8.207c-0.026-0.275,0.175-0.519,0.45-0.545c0.266-0.036,0.519,0.174,0.545,0.45
					l0.69,7.192c0.298-0.142,0.64-0.212,0.989-0.183c0.634,0.048,1.269,0.398,1.744,0.958c0.755,0.893,0.968,2.169,0.53,3.177
					C220.488,227.623,219.504,228.25,218.521,228.25z"/>
			</g>
			<g>
				<path style="fill:#453248;" d="M214.302,239.753c-1.162,0.813,0.206,3.868,1.149,4.832c1.027,1.05,2.56,1.624,4.007,1.373
					c2.33-0.404,3.056-2.444,3.533-4.445c0.096-0.402,0.261-0.877,0.664-0.968c0.175-0.04,0.373,0.003,0.524-0.093
					c0.157-0.1,0.2-0.325,0.132-0.499c-0.067-0.174-0.22-0.302-0.383-0.393c-0.684-0.384-1.627-0.097-2.364-0.005
					c-1.022,0.127-2.044,0.262-3.075,0.287C217.455,239.867,215.182,239.138,214.302,239.753z"/>
			</g>
			<g>
				<g>
					<g>
						<g id="XMLID_270_">
							<g id="XMLID_271_">
								<g>
									<path style="fill:#6F6588;" d="M197.805,397.79c-0.06,6.4,23.737,3.887,24.426,1.589
										c0.689-2.298,0.573-16.219-0.563-16.854c-1.135-0.635-13.072-0.891-13.713,0.383c-0.642,1.275,2.12,8.551,2.12,8.551
										S197.854,392.55,197.805,397.79z"/>
								</g>
							</g>
						</g>
						<g id="XMLID_267_">
							<g id="XMLID_268_">
								<g id="XMLID_269_">
									<g>
										<path style="fill:#453248;" d="M221.339,397.145c-0.699,0.359-1.492,0.485-2.268,0.606
											c-6.321,0.983-7.721,1.65-14.059,0.78c-0.997-0.137-2.009-0.327-2.888-0.817c-0.879-0.49-1.615-1.332-1.743-2.33
											c-0.034-0.26-0.013-0.528,0.049-0.785c-1.567,0.859-2.613,1.91-2.625,3.193c-0.06,6.4,23.737,3.887,24.426,1.589
											c0.162-0.54,0.224-1.717,0.21-3.203C222.176,396.586,221.776,396.92,221.339,397.145z"/>
									</g>
								</g>
							</g>
						</g>
					</g>
					<g>
						<path style="fill:#453248;" d="M222.107,380.844c0,0,2.506,2.92,1.908,3.398c-0.598,0.477-18.38,1.407-18.29,0.836
							c0.09-0.571,0.554-3.176,2.114-3.337C209.4,381.58,222.107,380.844,222.107,380.844z"/>
					</g>
				</g>
				<g>
					<path style="fill:#8D86A3;" d="M212.619,396.635c-0.102,0.23-0.314,0.391-0.529,0.521c-1.196,0.717-2.677,0.731-4.068,0.625
						c-1.544-0.117-3.079-0.355-4.587-0.712c-0.699-0.165-1.522-0.495-1.621-1.206c-0.08-0.569,0.373-1.076,0.855-1.388
						c1.095-0.71,2.477-0.973,3.715-1.332c0.754-0.219,1.563-0.5,2.36-0.435C210.058,392.814,213.28,395.157,212.619,396.635z"/>
				</g>
				<g>
					<path style="fill:#8D86A3;" d="M220.196,392.164c-0.235,0.812-0.695,1.712-1.529,1.848c-0.658,0.108-1.276-0.312-1.804-0.719
						c-1.317-1.015-2.625-2.133-3.366-3.622c-0.3-0.604-0.497-1.324-0.235-1.945c0.17-0.402,0.512-0.708,0.879-0.944
						c0.963-0.62,2.15-0.841,3.292-0.742c1.043,0.091,2.831,0.35,3.135,1.54C220.924,388.971,220.584,390.82,220.196,392.164z"/>
				</g>
			</g>
			<g>
				<g>
					<g>
						<g id="XMLID_275_">
							<g id="XMLID_276_">
								<g>
									<path style="fill:#6F6588;" d="M230.931,393.744c5.388,3.456,15.919-18.031,14.34-19.837
										c-1.579-1.806-13.428-9.113-14.57-8.49c-1.142,0.624-7.709,10.594-6.971,11.815c0.738,1.221,8.368,2.754,8.368,2.754
										S226.52,390.914,230.931,393.744z"/>
								</g>
							</g>
						</g>
						<g id="XMLID_272_">
							<g id="XMLID_273_">
								<g id="XMLID_274_">
									<g>
										<path style="fill:#453248;" d="M242.904,373.474c-0.068,0.783-0.383,1.521-0.694,2.243
											c-2.53,5.876-2.71,7.415-6.819,12.319c-0.646,0.771-1.345,1.527-2.228,2.011c-0.883,0.483-1.987,0.659-2.9,0.237
											c-0.238-0.11-0.454-0.27-0.639-0.459c-0.107,1.784,0.228,3.229,1.307,3.921c5.388,3.456,15.919-18.031,14.34-19.837
											c-0.371-0.424-1.335-1.103-2.6-1.882C242.877,372.467,242.947,372.983,242.904,373.474z"/>
									</g>
								</g>
							</g>
						</g>
					</g>
					<g>
						<path style="fill:#453248;" d="M229.51,364.151c0,0,3.806-0.568,3.892,0.192c0.086,0.76-8.586,16.312-9.022,15.932
							c-0.436-0.38-2.394-2.159-1.7-3.565C223.374,375.302,229.51,364.151,229.51,364.151z"/>
					</g>
				</g>
				<g>
					<path style="fill:#8D86A3;" d="M237.834,380.585c0.14,0.209,0.164,0.474,0.159,0.725c-0.029,1.394-0.805,2.656-1.635,3.777
						c-0.921,1.245-1.939,2.418-3.043,3.505c-0.512,0.504-1.228,1.025-1.883,0.731c-0.524-0.235-0.712-0.888-0.721-1.462
						c-0.019-1.305,0.494-2.614,0.849-3.854c0.216-0.755,0.408-1.589,0.887-2.23C233.236,380.722,236.934,379.24,237.834,380.585z"
						/>
				</g>
				<g>
					<path style="fill:#8D86A3;" d="M238.079,371.792c0.563,0.631,1.08,1.499,0.752,2.278c-0.259,0.614-0.943,0.914-1.568,1.145
						c-1.56,0.576-3.203,1.088-4.858,0.923c-0.671-0.067-1.386-0.283-1.772-0.836c-0.25-0.358-0.327-0.81-0.332-1.246
						c-0.012-1.145,0.432-2.268,1.123-3.182c0.631-0.835,1.803-2.21,2.972-1.835C235.763,369.476,237.147,370.748,238.079,371.792z"
						/>
				</g>
			</g>
		</g>
		<g>
			<g id="XMLID_2457_">
				<g id="XMLID_2475_">
					<g id="XMLID_2476_">
						<g>
							<path style="fill:#017572;" d="M299.291,322.75c-0.495-2.183-0.836-4.333-1.086-6.49l-19.238-9.064
								c-5.274,5.066-11.714,16.357-8.616,21.813c1.907,3.358,3.75,4.31,7.013,5.547c4.377,1.66,8.935,2.896,13.696,2.062
								c3.348-0.587,6.334-7.821,8.989-11.866C299.554,323.032,299.659,324.374,299.291,322.75z"/>
						</g>
					</g>
				</g>
				<g id="XMLID_2458_">
					<g id="XMLID_2467_">
						<g id="XMLID_2468_">
							<g>
								<path style="fill:#017572;" d="M300.551,395.607c-14.683-30.731-15.44-38.818-16.598-71.966l11.51-2.949
									c1.11,31.803,1.636,41.25,15.373,69.999L300.551,395.607z"/>
							</g>
						</g>
					</g>
				</g>
				<g>
					<g>
						<g>
							<g id="XMLID_2392_">
								<g id="XMLID_2393_">
									<g>
										<path style="fill:#FC6262;" d="M284.568,403.444c1.412,7.433,28.415-0.987,28.682-3.81
											c0.267-2.823-3.089-18.933-4.553-19.407c-1.463-0.474-15.359,1.992-15.808,3.617c-0.449,1.626,4.436,9.422,4.436,9.422
											S283.413,397.358,284.568,403.444z"/>
									</g>
								</g>
							</g>
							<g id="XMLID_2389_">
								<g id="XMLID_2390_">
									<g id="XMLID_2391_">
										<g>
											<path style="fill:#453248;" d="M311.7,397.25c-0.728,0.578-1.617,0.907-2.489,1.227c-7.1,2.602-8.568,3.699-16.116,4.157
												c-1.188,0.072-2.404,0.086-3.537-0.279c-1.132-0.365-2.18-1.17-2.56-2.297c-0.099-0.294-0.137-0.609-0.125-0.922
												c-1.618,1.358-2.586,2.819-2.304,4.309c1.412,7.433,28.415-0.987,28.682-3.81c0.063-0.664-0.138-2.042-0.498-3.761
												C312.541,396.408,312.155,396.888,311.7,397.25z"/>
										</g>
									</g>
								</g>
							</g>
						</g>
						<g>
							<path style="fill:#453248;" d="M308.818,378.176c0,0,3.581,2.806,2.998,3.497c-0.583,0.692-20.98,5.884-21.008,5.202
								c-0.028-0.683-0.093-3.809,1.679-4.357C294.258,381.97,308.818,378.176,308.818,378.176z"/>
						</g>
					</g>
					<g>
						<path style="fill:#FF9583;" d="M301.474,398.676c-0.065,0.29-0.273,0.526-0.493,0.726c-1.22,1.108-2.934,1.467-4.571,1.666
							c-1.817,0.221-3.652,0.3-5.482,0.236c-0.848-0.03-1.878-0.221-2.158-1.022c-0.224-0.641,0.183-1.333,0.67-1.807
							c1.105-1.077,2.646-1.701,3.999-2.404c0.824-0.428,1.696-0.941,2.635-1.051C297.62,394.84,301.898,396.81,301.474,398.676z"/>
					</g>
					<g>
						<path style="fill:#FF9583;" d="M309.222,391.741c-0.084,0.996-0.409,2.145-1.345,2.496c-0.738,0.277-1.551-0.066-2.257-0.416
							c-1.762-0.872-3.537-1.865-4.74-3.42c-0.488-0.63-0.883-1.42-0.723-2.201c0.104-0.505,0.43-0.939,0.8-1.298
							c0.973-0.941,2.298-1.472,3.644-1.622c1.23-0.137,3.362-0.249,3.991,1.06C309.328,387.871,309.361,390.093,309.222,391.741z"
							/>
					</g>
				</g>
				<g>
					<g id="XMLID_2469_">
						<g>
							<path style="fill:#017572;" d="M272.783,397.567c-8.751-32.915-8.001-41.003-3.013-73.794l11.27,1.714
								c-4.786,31.461-5.428,38.357,2.76,69.15L272.783,397.567z"/>
						</g>
					</g>
					<g>
						<g>
							<g>
								<g id="XMLID_2387_">
									<g id="XMLID_2388_">
										<g>
											<path style="fill:#FC6262;" d="M253.862,401.362c-0.482,7.551,27.767,6.115,28.728,3.447
												c0.961-2.668,1.719-19.107,0.42-19.929c-1.299-0.823-15.371-1.893-16.211-0.43c-0.839,1.463,1.952,10.23,1.952,10.23
												S254.257,395.18,253.862,401.362z"/>
										</g>
									</g>
								</g>
								<g id="XMLID_2384_">
									<g id="XMLID_2385_">
										<g id="XMLID_2386_">
											<g>
												<path style="fill:#453248;" d="M281.681,402.113c-0.849,0.379-1.792,0.476-2.716,0.569
													c-7.524,0.754-9.22,1.451-16.644,0.016c-1.168-0.226-2.35-0.515-3.356-1.15c-1.006-0.635-1.821-1.676-1.908-2.862
													c-0.023-0.31,0.018-0.624,0.109-0.924c-1.905,0.913-3.207,2.087-3.304,3.6c-0.482,7.551,27.767,6.115,28.728,3.447
													c0.226-0.627,0.374-2.012,0.454-3.767C282.706,401.508,282.212,401.876,281.681,402.113z"/>
											</g>
										</g>
									</g>
								</g>
							</g>
							<g>
								<path style="fill:#453248;" d="M283.637,382.922c0,0,2.77,3.608,2.033,4.133c-0.737,0.525-21.784,0.479-21.642-0.189
									c0.143-0.668,0.858-3.713,2.71-3.802C268.59,382.974,283.637,382.922,283.637,382.922z"/>
							</g>
						</g>
						<g>
							<path style="fill:#FF9583;" d="M271.422,400.951c-0.135,0.265-0.395,0.442-0.658,0.58c-1.458,0.77-3.207,0.69-4.841,0.476
								c-1.815-0.238-3.612-0.618-5.368-1.135c-0.814-0.24-1.764-0.681-1.836-1.527c-0.057-0.677,0.509-1.246,1.098-1.583
								c1.338-0.768,2.986-0.989,4.471-1.333c0.904-0.21,1.877-0.49,2.814-0.362C268.644,396.276,272.297,399.249,271.422,400.951z"
								/>
						</g>
						<g>
							<path style="fill:#FF9583;" d="M280.652,396.161c-0.329,0.944-0.93,1.976-1.923,2.083c-0.784,0.085-1.485-0.45-2.083-0.964
								c-1.49-1.283-2.962-2.687-3.74-4.492c-0.315-0.732-0.502-1.595-0.152-2.311c0.226-0.464,0.65-0.802,1.098-1.058
								c1.177-0.67,2.592-0.854,3.933-0.664c1.225,0.174,3.319,0.596,3.602,2.02C281.717,392.439,281.197,394.6,280.652,396.161z"/>
						</g>
					</g>
				</g>
			</g>
			<g id="XMLID_2453_">
				<g>
					<path style="fill:#8F1843;" d="M292.46,281.074c-0.459-1.354-1.004-2.68-1.608-3.976c-0.835-1.791-1.954-3.449-3.267-4.923
						c-1.06-1.191-2.314-2.65-3.854-3.161c-2.879-0.956-5.864-1.731-8.898-1.695c-0.09,0.001-0.18,0.003-0.27,0.006
						c-2.855,0.084-6.064,0.963-8.128,3.053c-2.128,2.154-3.387,5.361-3.995,8.273c-0.906,4.341-0.539,8.84,0.006,13.24
						c1.813,14.61,2.492,12.529,4.153,35.854c0,0,23.674,3.407,36.531-1.328C303.132,326.418,295.228,289.239,292.46,281.074z"/>
				</g>
			</g>
			<g>
				<g>
					<g>
						<g id="XMLID_2400_">
							<g id="XMLID_2407_">
								<g id="XMLID_2418_">
									<g id="XMLID_2442_">
										<g id="XMLID_2448_">
											<g id="XMLID_2449_">
												<g id="XMLID_2450_">
													<g id="XMLID_2451_">
														<g id="XMLID_2452_">
															<path style="fill:#FABB8F;" d="M283.288,270.409c-0.165-2.097-7.341-3.245-7.341-3.245s-6.91,2.253-6.745,4.351
																c0.165,2.097,3.452,3.55,7.341,3.245C280.432,274.454,283.452,272.507,283.288,270.409z"/>
														</g>
													</g>
												</g>
											</g>
										</g>
									</g>
								</g>
							</g>
						</g>
					</g>
				</g>
				<g id="XMLID_278_">
					<g id="XMLID_2382_">
						<g id="XMLID_2383_">
							<path style="fill:#FDE7DC;" d="M256.874,217.604c1.45-2.964,3.002-6.051,5.685-7.971c2.473-1.769,5.589-2.315,8.588-2.814
								c1.921-0.32,3.842-0.64,5.772-0.894c1.404-0.184,2.782-0.676,4.172-0.768c3.584-0.237,7.524,0.561,10.975,1.451
								c2.175,0.561,4.349,1.303,6.156,2.64c3.045,2.253,4.699,5.933,5.686,9.59c1.987,7.359,1.774,15.124,1.159,22.721
								c-0.066,0.813-0.18,1.714-0.802,2.24c-1.292,1.092-2.166-0.899-2.448-1.826c-2.209-7.275-4.725-15.025-6.558-22.403
								c-10.516,2.146-21.278,3.083-32.006,2.786c-3.066-0.085-6.383-0.369-8.68-2.401L256.874,217.604z"/>
						</g>
					</g>
					<g id="XMLID_282_">
						<g id="XMLID_288_">
							<g id="XMLID_290_">
								<g id="XMLID_360_">
									<g id="XMLID_361_">
										<path style="fill:#FDE7DC;" d="M242.097,229.389c-0.484-4.73-0.795-9.62,1.275-14.03
											c2.875-6.125,7.951-11.937,13.798-15.358c7.812-4.57,18.699-3.653,27.247-1.754c5.782,1.285,11.431,3.997,15.184,8.579
											c3.753,4.582,5.274,11.228,2.84,16.628c6.332,2.261,11.101,8.385,11.74,15.079c0.639,6.693-2.885,13.61-8.675,17.028
											c0.181,4.274-3.45,7.932-7.491,9.335c-7.594,2.637-16.283-1.071-21.572-7.124c-5.289-6.053-7.807-14.009-9.647-21.834
											c-1.302-5.537-2.335-11.194-2.334-16.869c-4.284,0.834-8.493,2.048-12.553,3.651c-1.755,0.693-2.912,2.152-3.703,3.866
											c-0.842,1.825,2.899,15.431-2.785,11.387C242.653,238.226,242.262,231.001,242.097,229.389z"/>
									</g>
								</g>
								<g id="XMLID_296_">
									<g id="XMLID_298_">
										<g id="XMLID_357_">
											<g id="XMLID_358_">
												<g id="XMLID_359_">
													<path style="fill:#FDE7DC;" d="M244.913,236.255c0,0-6.209-27.272,22.112-31.245
														c28.321-3.973,29.97,19.815,30.116,30.863C297.288,246.922,244.913,236.255,244.913,236.255z"/>
												</g>
											</g>
										</g>
										<g id="XMLID_301_">
											<g id="XMLID_354_">
												<g id="XMLID_355_">
													<g id="XMLID_356_">
														<path style="fill:#FABB8F;" d="M277.279,274.226c0.022-0.001,0.043-0.002,0.065-0.003
															c1.753-0.089,3.146-1.495,3.124-3.251l-0.162-13.5c-1.658,0.107-3.315,0.214-4.972,0.321
															c-2.82,0.182-1.562,4.867-1.514,6.874l0.155,6.424C274.017,272.87,275.501,274.322,277.279,274.226z"/>
													</g>
												</g>
											</g>
											<g id="XMLID_351_">
												<g id="XMLID_352_">
													<g id="XMLID_353_">
														<path style="fill:#FABB8F;" d="M294.583,235.681c0.484-1.616,2.321-2.66,3.979-2.348
															c1.658,0.312,2.965,1.867,3.093,3.549c0.128,1.682-0.866,3.368-2.351,4.169c-1.485,0.801-3.374,0.731-4.854-0.079"/>
													</g>
												</g>
											</g>
											<g id="XMLID_348_">
												<g id="XMLID_349_">
													<g id="XMLID_350_">
														<path style="fill:#FABB8F;" d="M247.583,239.932c-0.581-1.584-2.477-2.515-4.113-2.104
															c-1.636,0.412-2.847,2.042-2.873,3.729c-0.026,1.687,1.068,3.309,2.598,4.019c1.53,0.71,3.412,0.526,4.84-0.372"/>
													</g>
												</g>
											</g>
											<g id="XMLID_317_">
												<g id="XMLID_318_">
													<g id="XMLID_347_">
														<path style="fill:#FBA278;" d="M246.259,244.264c1.059,6.504,4.001,12.958,9.278,16.904
															c5.64,4.218,13.192,5.047,20.181,4.18c5.883-0.73,11.927-2.746,15.809-7.226c6.156-7.103,5.05-17.739,3.587-27.024
															c-0.821-5.208-1.775-10.714-5.234-14.692c-3.62-4.163-9.347-5.854-14.842-6.348
															c-5.453-0.49-11.086,0.029-16.092,2.246C245.888,218.088,244.189,231.554,246.259,244.264z"/>
													</g>
												</g>
											</g>
											<g>
												<path style="fill:#FABB8F;" d="M292.539,232.148c-0.262-1.211-0.583-2.404-0.955-3.57
													c-1.878-5.891-5.639-13.378-13.082-11.736c-2.562,0.565-4.851,2.372-7.474,2.298c-1.972-0.055-3.744-1.174-5.659-1.651
													c-2.313-0.576-4.804-0.181-6.964,0.826c-2.16,1.007-4.01,2.596-5.572,4.396c-3.913,4.51-6.103,10.48-6.034,16.45
													c0.069,5.971,2.395,11.888,6.411,16.307c1.894,2.084,4.241,3.893,6.964,4.724c2.213,0.675,4.451,1.558,6.742,1.988
													c9.272,1.743,19.921-2.867,24.055-11.556C293.694,244.901,293.872,238.299,292.539,232.148z"/>
											</g>
											<g>
												<path style="fill:#453248;" d="M268.701,247.742c-1.143,0-2.229-0.627-2.721-1.601c-0.586-1.16-0.184-2.692,0.879-3.345
													c0.516-0.316,1.178-0.396,1.8-0.228l-1.146-3.451c-0.087-0.262,0.055-0.545,0.317-0.632
													c0.262-0.088,0.544,0.055,0.632,0.317l1.684,5.068c0.086,0.259-0.051,0.539-0.308,0.629
													c-0.259,0.091-0.539-0.04-0.635-0.296c-0.109-0.29-0.37-0.524-0.718-0.643c-0.385-0.131-0.796-0.099-1.103,0.088
													c-0.627,0.385-0.864,1.339-0.51,2.042c0.351,0.694,1.228,1.128,2.055,1.039c0.275-0.028,0.522,0.169,0.551,0.443
													c0.03,0.274-0.169,0.521-0.443,0.551C268.924,247.736,268.812,247.742,268.701,247.742z"/>
											</g>
											<g>
												<path style="fill:#453248;" d="M271.733,252.533c0.71-0.416,1.483-0.8,2.306-0.79c0.823,0.01,1.693,0.54,1.825,1.353
													c0.109,0.675-0.298,1.323-0.744,1.842c-1.066,1.242-2.495,2.201-4.092,2.561c-1.597,0.36-3.358,0.082-4.68-0.883
													c-1.16-0.847-2.032-3.46,0.11-3.402c0.754,0.02,1.472,0.422,2.242,0.437
													C269.852,253.673,270.77,253.096,271.733,252.533z"/>
											</g>
											<g id="XMLID_306_">
												<g id="XMLID_307_">
													<g id="XMLID_308_">
														<g id="XMLID_309_">
															<path style="fill:#453248;" d="M253.183,238.28c0.446-0.042,0.895,0.087,1.289,0.3
																c0.869,0.471,1.497,1.397,1.531,2.385c0.034,0.988-0.57,1.989-1.492,2.348
																C251.169,244.614,250.058,238.575,253.183,238.28z"/>
														</g>
													</g>
												</g>
											</g>
											<g id="XMLID_302_">
												<g id="XMLID_303_">
													<g id="XMLID_304_">
														<g id="XMLID_305_">
															<path style="fill:#453248;" d="M278.829,236.356c0.446-0.042,0.895,0.087,1.289,0.3
																c0.869,0.471,1.497,1.397,1.531,2.385c0.034,0.988-0.57,1.989-1.492,2.348
																C276.815,242.689,275.704,236.651,278.829,236.356z"/>
														</g>
													</g>
												</g>
											</g>
										</g>
									</g>
								</g>
								<g id="XMLID_293_">
									<g id="XMLID_294_">
										<path style="fill:#FDE7DC;" d="M285.576,226.664c2.005,0.771,3.647,2.435,4.39,4.45c0.117,0.318,0.212,0.679,0.074,0.988
											c-0.266,0.597-1.113,0.56-1.753,0.425c-2.328-0.49-4.656-0.981-6.984-1.471c-1.616-0.34-4.511-1.944-2.545-3.787
											C280.339,225.787,283.749,225.961,285.576,226.664z"/>
									</g>
								</g>
								<g id="XMLID_291_">
									<g id="XMLID_292_">
										<path style="fill:#FDE7DC;" d="M252.03,229.156c-1.749,1.247-2.923,3.269-3.14,5.406c-0.034,0.337-0.036,0.71,0.175,0.976
											c0.406,0.511,1.218,0.264,1.803-0.026c2.132-1.056,4.264-2.112,6.396-3.168c1.48-0.733,3.882-3.009,1.519-4.303
											C256.881,226.999,253.623,228.02,252.03,229.156z"/>
									</g>
								</g>
							</g>
						</g>
					</g>
				</g>
			</g>
			<g>
				<path style="fill:#FDE7DC;" d="M298.262,221.705c-0.016-0.156-0.032-0.311-0.05-0.466c-0.863-7.493-5.055-14.388-11.307-18.617
					c-6.339-4.288-14.477-5.702-21.963-4.113c-5.119,1.086-9.909,3.54-13.893,6.919c-1.684,1.428-3.773,3.197-5.044,4.993
					c-1.552,2.193-1.162,6.084-1.523,8.64c-0.346,2.442-1.039,4.824-1.436,7.258c-0.77,4.726-0.412,9.554-0.052,14.329
					c0.206,2.737,0.413,5.473,0.619,8.21c0.167,2.213,0.359,4.513,1.472,6.433c1.07,1.848,2.905,3.157,4.875,3.983
					c1.97,0.826,4.09,1.215,6.191,1.598c-0.973-0.178-2.573-2.501-3.195-3.24c-1.026-1.219-1.953-2.522-2.774-3.888
					c-1.642-2.735-2.859-5.727-3.594-8.831c-1.521-6.42-1.472-13.828,1.646-19.705c1.41-2.656,3.098-5.21,5.348-7.205
					c2.25-1.995,5.114-3.403,8.119-3.498c3.35-0.106,6.651,1.393,9.974,0.955c3.494-0.461,6.703-3.028,10.178-2.441
					c2.087,0.353,3.816,1.804,5.234,3.375c1.683,1.864,3.226,4.049,4.21,6.372c0.737,1.741,0.993,3.64,1.476,5.457
					c0.496,1.865,0.657,3.932,0.761,5.864c0.229,4.263-0.208,8.528-0.746,12.752c-0.035,0.272-0.065,0.567,0.075,0.802
					c0.235,0.394,0.848,0.393,1.214,0.115c0.365-0.278,0.542-0.732,0.695-1.165c1.381-3.894,2.285-8.009,2.907-12.091
					C298.312,230.331,298.686,225.918,298.262,221.705z"/>
			</g>
		</g>
		<g>
			<path style="fill:#FBA278;" d="M241.081,309.737c0.005,0.482-0.037,0.974-0.231,1.416c-0.193,0.441-0.557,0.828-1.023,0.952
				c-0.704,0.189-1.223,0.037-1.599-0.329c-2.202,2.075-5.667,1.992-7.762-0.198c-2.105-2.2-2.028-5.689,0.172-7.794
				c2.2-2.105,5.689-2.027,7.794,0.172c0.149,0.156,0.263,0.332,0.39,0.5c0.13,0.064,0.246,0.16,0.344,0.271
				C240.371,306.101,241.062,307.912,241.081,309.737z"/>
		</g>
		<g>
			<path style="fill:#FBA278;" d="M299.743,316.095c-0.295,0.381-0.558,0.8-0.67,1.268c-0.112,0.469-0.055,0.996,0.241,1.376
				c0.447,0.575,0.953,0.767,1.473,0.703c0.503,2.983,3.316,5.008,6.308,4.527c3.006-0.484,5.05-3.313,4.566-6.319
				c-0.484-3.006-3.313-5.05-6.319-4.566c-0.213,0.034-0.41,0.106-0.613,0.163c-0.142-0.027-0.293-0.021-0.438,0.009
				C302.504,313.625,300.86,314.651,299.743,316.095z"/>
		</g>
		<g>
			<path style="fill:#CA233F;" d="M265.646,265.912c-1.15,0.526-1.824,1.852-2.353,3.053c-0.677,1.537-1.37,3.211-0.987,4.846
				c0.366,1.559,1.676,2.761,3.142,3.406c2.281,1.003,5.053,1.035,7.504,1.162c2.796,0.145,5.618-0.196,8.296-1.014
				c2.78-0.849,5.372-2.192,8.113-3.148c2.856-0.995,4.787-0.764,7.687-0.036c2.773,0.697,5.487,1.63,8.102,2.787
				c0.643,0.284,7.253,3.421,7.077,3.836c1.216-2.874,0.599-6.337-1.213-8.878c-1.812-2.54-4.687-4.201-7.718-4.941
				c-3.031-0.74-6.218-0.62-9.297-0.11c-2.821,0.468-5.784,1.249-8.467,0.259c-1.598-0.589-3.01-1.787-4.71-1.894
				c-1.527-0.096-2.943,0.71-4.394,1.197c-2.223,0.746-4.691,0.741-6.912-0.013c-1.117-0.379-2.272-0.951-3.418-0.67
				C265.939,265.794,265.789,265.847,265.646,265.912z"/>
		</g>
	</g>
</g>
<g id="DESIGNED_BY_FREEPIK">
	<g id="XMLID_2_">
		<g id="XMLID_319_">
			<g id="XMLID_338_">
				<path id="XMLID_346_" style="fill:#9EB7C7;" d="M260.104,465.465c-0.432,0.443-0.803,0.931-1.108,1.453l-0.465-0.241
					c-0.067-0.298-0.349-0.503-0.659-0.466c-0.331,0.039-0.568,0.339-0.529,0.67s0.339,0.568,0.67,0.529
					c0.065-0.008,0.127-0.026,0.184-0.052l0.451,0.234c-0.251,0.554-0.433,1.139-0.539,1.744l0.746,0.132
					c0.23-1.306,0.85-2.507,1.792-3.473L260.104,465.465z"/>
				<path id="XMLID_345_" style="fill:#9EB7C7;" d="M265.592,463.163c-0.171,0-0.341,0.006-0.51,0.017l-0.074-0.626
					c0.188-0.149,0.296-0.389,0.266-0.645c-0.046-0.393-0.402-0.674-0.795-0.628s-0.674,0.402-0.628,0.795
					c0.03,0.254,0.189,0.461,0.405,0.564l0.073,0.624c-0.714,0.116-1.403,0.332-2.06,0.646l0.327,0.684
					c0.934-0.447,1.942-0.673,2.995-0.673c0.496,0,0.993,0.053,1.475,0.158l0.161-0.741
					C266.693,463.222,266.142,463.163,265.592,463.163z"/>
				<path id="XMLID_344_" style="fill:#9EB7C7;" d="M272.194,465.711c0.331-0.04,0.566-0.341,0.525-0.672
					c-0.04-0.331-0.341-0.566-0.672-0.526c-0.309,0.038-0.535,0.304-0.53,0.609l-0.416,0.363c-0.418-0.43-0.89-0.813-1.408-1.139
					l-0.404,0.641c1.134,0.715,2.021,1.726,2.563,2.925l0.691-0.313c-0.251-0.554-0.568-1.072-0.942-1.545l0.402-0.351
					C272.065,465.716,272.129,465.719,272.194,465.711z"/>
				<path id="XMLID_343_" style="fill:#9EB7C7;" d="M265.044,473.372c-0.386,0.023-0.775,0.035-1.157,0.035
					c-0.88,0-1.733-0.061-2.478-0.179c-0.39-0.062-0.846-0.155-1.27-0.292c1.046,1.861,3.069,3.125,5.388,3.125
					c2.855,0,5.262-1.916,5.95-4.504c-0.682,0.449-1.505,0.825-2.459,1.123C267.839,473.047,266.464,473.286,265.044,473.372z"/>
				<path id="XMLID_339_" style="fill:#9EB7C7;" d="M265.592,464.68c-3.352,0-6.08,2.666-6.08,5.943
					c0,0.426,0.046,0.849,0.137,1.261c0.674,0.483,2.706,0.89,5.348,0.731c2.879-0.173,5.297-0.957,6.672-2.159
					c-0.005-0.195-0.021-0.39-0.045-0.582C271.244,466.913,268.65,464.68,265.592,464.68z M263.432,471.194
					c-1.02,0-1.85-0.83-1.85-1.85c0-1.02,0.83-1.85,1.85-1.85c1.02,0,1.85,0.83,1.85,1.85
					C265.282,470.365,264.452,471.194,263.432,471.194z M268.17,470.286c-0.75,0-1.36-0.61-1.36-1.36s0.61-1.361,1.36-1.361
					c0.75,0,1.361,0.61,1.361,1.361S268.92,470.286,268.17,470.286z"/>
			</g>
			<path id="XMLID_336_" style="fill:#9EB7C7;" d="M281.595,466.547c-0.295-0.116-0.806-0.309-1.382-0.237
				c-0.551,0.069-0.844,0.341-0.844,1.007v0.866h2.228v1.717h-2.228v5.455h-1.932v-5.455h-1.34v-1.717h1.34v-0.888
				c0-1.68,0.896-2.783,2.568-2.783c0.642,0,1.157,0.122,1.59,0.308L281.595,466.547z"/>
			<path id="XMLID_334_" style="fill:#9EB7C7;" d="M286.298,469.879c-0.177-0.03-0.358-0.046-0.526-0.046
				c-0.896,0-1.51,0.548-1.51,1.614v3.908h-1.932v-7.172h1.873v0.785c0.451-0.673,1.14-0.977,2.021-0.977
				c0.414,0,0.848,0.128,1.094,0.337L286.298,469.879z"/>
			<path id="XMLID_331_" style="fill:#9EB7C7;" d="M293.965,471.757c0,0.222-0.015,0.489-0.037,0.651h-5.085
				c0.207,1.036,0.933,1.488,1.843,1.488c0.622,0,1.295-0.252,1.813-0.688l1.132,1.243c-0.814,0.748-1.85,1.088-3.057,1.088
				c-2.198,0-3.723-1.495-3.723-3.753c0-2.258,1.48-3.797,3.627-3.797C292.544,467.99,293.958,469.522,293.965,471.757z
				 M288.851,471.091h3.175c-0.177-0.918-0.733-1.436-1.562-1.436C289.554,469.655,289.021,470.203,288.851,471.091z"/>
			<path id="XMLID_328_" style="fill:#9EB7C7;" d="M301.618,471.757c0,0.222-0.015,0.489-0.037,0.651h-5.085
				c0.207,1.036,0.932,1.488,1.843,1.488c0.622,0,1.295-0.252,1.813-0.688l1.132,1.243c-0.814,0.748-1.85,1.088-3.057,1.088
				c-2.198,0-3.723-1.495-3.723-3.753c0-2.258,1.48-3.797,3.627-3.797C300.197,467.99,301.611,469.522,301.618,471.757z
				 M296.504,471.091h3.175c-0.178-0.918-0.733-1.436-1.562-1.436C297.207,469.655,296.674,470.203,296.504,471.091z"/>
			<path id="XMLID_325_" style="fill:#9EB7C7;" d="M309.964,471.764c0,2.154-1.495,3.775-3.471,3.775
				c-0.962,0-1.643-0.378-2.109-0.933v3.708h-1.924v-10.133h1.887v0.792c0.466-0.585,1.155-0.984,2.139-0.984
				C308.469,467.99,309.964,469.61,309.964,471.764z M304.287,471.764c0,1.132,0.747,1.976,1.843,1.976
				c1.14,0,1.85-0.881,1.85-1.976c0-1.095-0.71-1.976-1.85-1.976C305.035,469.788,304.287,470.632,304.287,471.764z"/>
			<path id="XMLID_322_" style="fill:#9EB7C7;" d="M313.068,465.836c0,0.696-0.54,1.229-1.236,1.229
				c-0.696,0-1.229-0.533-1.229-1.229c0-0.696,0.533-1.243,1.229-1.243C312.527,464.592,313.068,465.14,313.068,465.836z
				 M312.809,475.354h-1.932v-7.172h1.932V475.354z"/>
			<path id="XMLID_320_" style="fill:#9EB7C7;" d="M316.032,470.736l2.702-2.554h2.368l-3.479,3.375l3.501,3.797h-2.376
				l-2.716-2.901v2.901H314.1v-10.658h1.932V470.736z"/>
		</g>
		<g id="XMLID_3_">
			<path id="XMLID_4_" style="fill:#9EB7C7;" d="M184.412,475.289v-1.055c-0.527,0.718-1.391,1.23-2.387,1.23
				c-1.846,0-3.149-1.406-3.149-3.706c0-2.256,1.289-3.721,3.149-3.721c0.952,0,1.816,0.469,2.387,1.245v-3.765h1.099v9.77H184.412z
				 M184.412,473.37v-3.208c-0.395-0.615-1.245-1.143-2.124-1.143c-1.421,0-2.27,1.172-2.27,2.739c0,1.567,0.85,2.724,2.27,2.724
				C183.168,474.483,184.017,473.986,184.412,473.37z"/>
			<path id="XMLID_6_" style="fill:#9EB7C7;" d="M186.932,471.744c0-2.051,1.465-3.706,3.486-3.706c2.139,0,3.398,1.67,3.398,3.794
				v0.279h-5.727c0.088,1.333,1.025,2.446,2.549,2.446c0.805,0,1.626-0.322,2.182-0.894l0.527,0.718
				c-0.703,0.703-1.655,1.084-2.812,1.084C188.44,475.465,186.932,473.956,186.932,471.744z M190.403,468.947
				c-1.509,0-2.256,1.274-2.314,2.358h4.643C192.718,470.25,192.015,468.947,190.403,468.947z"/>
			<path id="XMLID_9_" style="fill:#9EB7C7;" d="M194.607,474.351l0.571-0.791c0.469,0.542,1.362,1.011,2.329,1.011
				c1.084,0,1.67-0.513,1.67-1.216c0-1.714-4.38-0.659-4.38-3.281c0-1.098,0.952-2.036,2.636-2.036c1.201,0,2.051,0.454,2.622,1.026
				l-0.513,0.762c-0.424-0.513-1.201-0.894-2.109-0.894c-0.967,0-1.567,0.483-1.567,1.113c0,1.552,4.38,0.527,4.38,3.281
				c0,1.187-0.952,2.138-2.783,2.138C196.306,475.465,195.325,475.113,194.607,474.351z"/>
			<path id="XMLID_11_" style="fill:#9EB7C7;" d="M201.477,466.471c0-0.41,0.337-0.747,0.732-0.747c0.41,0,0.747,0.337,0.747,0.747
				c0,0.41-0.337,0.732-0.747,0.732C201.814,467.203,201.477,466.881,201.477,466.471z M201.667,475.289v-7.075h1.099v7.075H201.667
				z"/>
			<path id="XMLID_14_" style="fill:#9EB7C7;" d="M204.582,477.105l0.556-0.82c0.586,0.703,1.289,0.967,2.3,0.967
				c1.172,0,2.27-0.571,2.27-2.124v-1.011c-0.513,0.718-1.377,1.26-2.373,1.26c-1.845,0-3.149-1.377-3.149-3.662
				c0-2.27,1.289-3.677,3.149-3.677c0.952,0,1.802,0.469,2.373,1.245v-1.069h1.098v6.87c0,2.344-1.641,3.076-3.369,3.076
				C206.237,478.16,205.417,477.926,204.582,477.105z M209.709,473.253v-3.091c-0.381-0.615-1.23-1.143-2.109-1.143
				c-1.421,0-2.27,1.128-2.27,2.695c0,1.553,0.849,2.695,2.27,2.695C208.478,474.41,209.328,473.868,209.709,473.253z"/>
			<path id="XMLID_17_" style="fill:#9EB7C7;" d="M217.413,475.289v-4.629c0-1.245-0.63-1.641-1.582-1.641
				c-0.865,0-1.685,0.527-2.095,1.099v5.17h-1.099v-7.075h1.099v1.025c0.498-0.586,1.464-1.201,2.519-1.201
				c1.48,0,2.256,0.747,2.256,2.285v4.966H217.413z"/>
			<path id="XMLID_19_" style="fill:#9EB7C7;" d="M219.932,471.744c0-2.051,1.465-3.706,3.486-3.706c2.139,0,3.398,1.67,3.398,3.794
				v0.279h-5.727c0.088,1.333,1.025,2.446,2.549,2.446c0.806,0,1.626-0.322,2.183-0.894l0.527,0.718
				c-0.703,0.703-1.655,1.084-2.812,1.084C221.441,475.465,219.932,473.956,219.932,471.744z M223.404,468.947
				c-1.509,0-2.256,1.274-2.314,2.358h4.643C225.718,470.25,225.015,468.947,223.404,468.947z"/>
			<path id="XMLID_22_" style="fill:#9EB7C7;" d="M233.35,475.289v-1.055c-0.527,0.718-1.392,1.23-2.388,1.23
				c-1.846,0-3.149-1.406-3.149-3.706c0-2.256,1.289-3.721,3.149-3.721c0.952,0,1.817,0.469,2.388,1.245v-3.765h1.098v9.77H233.35z
				 M233.35,473.37v-3.208c-0.396-0.615-1.245-1.143-2.124-1.143c-1.421,0-2.27,1.172-2.27,2.739c0,1.567,0.849,2.724,2.27,2.724
				C232.105,474.483,232.954,473.986,233.35,473.37z"/>
			<path id="XMLID_25_" style="fill:#9EB7C7;" d="M239.692,475.289v-9.77h1.098v3.765c0.572-0.776,1.421-1.245,2.388-1.245
				c1.845,0,3.149,1.465,3.149,3.721c0,2.299-1.304,3.706-3.149,3.706c-0.996,0-1.86-0.513-2.388-1.23v1.055H239.692z
				 M242.9,474.483c1.436,0,2.285-1.157,2.285-2.724c0-1.568-0.85-2.739-2.285-2.739c-0.864,0-1.728,0.527-2.109,1.143v3.208
				C241.171,473.986,242.036,474.483,242.9,474.483z"/>
			<path id="XMLID_28_" style="fill:#9EB7C7;" d="M247.528,477.061c0.161,0.073,0.425,0.117,0.601,0.117
				c0.483,0,0.805-0.161,1.055-0.747l0.469-1.069l-2.959-7.148h1.187l2.358,5.8l2.344-5.8h1.201l-3.545,8.51
				c-0.425,1.025-1.143,1.421-2.08,1.435c-0.234,0-0.601-0.044-0.805-0.103L247.528,477.061z"/>
		</g>
	</g>
</g>
</svg>
